<?xml version="1.0" standalone="no"?>
<!DOCTYPE svg PUBLIC "-//W3C//DTD SVG 1.1//EN" "http://www.w3.org/Graphics/SVG/1.1/DTD/svg11.dtd" >
<svg xmlns="http://www.w3.org/2000/svg" xmlns:xlink="http://www.w3.org/1999/xlink" version="1.1">
<metadata>
Created by FontForge 20190801 at Wed Jun 12 15:48:30 2013
 By Jimmy Wärting
Copyright (c) 2010-2012 by Claus Eggers Srensen (es@forthehearts.net), with Reserved Font Name 'Playfair'.
</metadata>
<defs>
<font id="PlayfairDisplaySC-Bold" horiz-adv-x="1364" >
  <font-face 
    font-family="Playfair Display SC"
    font-weight="700"
    font-stretch="normal"
    units-per-em="2048"
    panose-1="0 0 8 0 0 0 0 0 0 0"
    ascent="1638"
    descent="-410"
    x-height="1245"
    cap-height="1450"
    bbox="-553 -498 2273 2029"
    underline-thickness="50"
    underline-position="-100"
    stemh="41"
    stemv="47"
    unicode-range="U+000D-25CA"
  />
<missing-glyph horiz-adv-x="1151" 
d="M1028 0h-905v1581h905v-1581zM197 1520v-1459h757v1459h-757z" />
    <glyph glyph-name=".notdef" horiz-adv-x="1151" 
d="M1028 0h-905v1581h905v-1581zM197 1520v-1459h757v1459h-757z" />
    <glyph glyph-name="A" unicode="A" horiz-adv-x="1366" 
d="M754 1454l497 -1282c38 -98 90 -129 129 -131v-41c-81 4 -199 6 -311 6c-127 0 -244 -2 -312 -6v41c98 4 144 19 144 75c0 24 -8 56 -24 97l-123 336h-445l-55 -142c-39 -100 -56 -173 -56 -227c0 -108 70 -136 182 -139v-41c-93 4 -170 6 -255 6c-60 0 -116 -2 -157 -6
v41c60 11 120 64 178 215l466 1198c22 -2 46 -3 71 -3c24 0 49 1 71 3zM739 590l-203 551l-212 -551h415z" />
    <glyph glyph-name="Aacute" unicode="&#xc1;" horiz-adv-x="1366" 
d="M545 1581l-15 25c195 159 238 256 332 306c20 11 42 16 64 16c41 0 82 -20 102 -59c8 -15 11 -31 11 -47c0 -41 -24 -81 -68 -105c-92 -51 -198 -49 -426 -136zM754 1454l497 -1282c38 -98 90 -129 129 -131v-41c-81 4 -199 6 -311 6c-127 0 -244 -2 -312 -6v41
c98 4 144 19 144 75c0 24 -8 56 -24 97l-123 336h-445l-55 -142c-39 -100 -56 -173 -56 -227c0 -108 70 -136 182 -139v-41c-93 4 -170 6 -255 6c-60 0 -116 -2 -157 -6v41c60 11 120 64 178 215l466 1198c22 -2 46 -3 71 -3c24 0 49 1 71 3zM739 590l-203 551l-212 -551
h415z" />
    <glyph glyph-name="Abreve" unicode="&#x102;" horiz-adv-x="1366" 
d="M1100 1875l24 -22c-58 -125 -206 -275 -457 -275c-250 0 -398 150 -456 275l25 21c73 -55 210 -123 431 -123c222 0 359 69 433 124zM754 1454l497 -1282c38 -98 90 -129 129 -131v-41c-81 4 -199 6 -311 6c-127 0 -244 -2 -312 -6v41c98 4 144 19 144 75
c0 24 -8 56 -24 97l-123 336h-445l-55 -142c-39 -100 -56 -173 -56 -227c0 -108 70 -136 182 -139v-41c-93 4 -170 6 -255 6c-60 0 -116 -2 -157 -6v41c60 11 120 64 178 215l466 1198c22 -2 46 -3 71 -3c24 0 49 1 71 3zM739 590l-203 551l-212 -551h415z" />
    <glyph glyph-name="Acircumflex" unicode="&#xc2;" horiz-adv-x="1366" 
d="M1118 1606l-10 -30c-178 31 -367 85 -469 132c-85 -47 -241 -101 -387 -132l-10 30c178 75 334 199 420 319h37c83 -119 240 -243 419 -319zM754 1454l497 -1282c38 -98 90 -129 129 -131v-41c-81 4 -199 6 -311 6c-127 0 -244 -2 -312 -6v41c98 4 144 19 144 75
c0 24 -8 56 -24 97l-123 336h-445l-55 -142c-39 -100 -56 -173 -56 -227c0 -108 70 -136 182 -139v-41c-93 4 -170 6 -255 6c-60 0 -116 -2 -157 -6v41c60 11 120 64 178 215l466 1198c22 -2 46 -3 71 -3c24 0 49 1 71 3zM739 590l-203 551l-212 -551h415z" />
    <glyph glyph-name="Adieresis" unicode="&#xc4;" horiz-adv-x="1366" 
d="M435 1569c-85 0 -155 69 -155 154c0 82 70 155 155 155c82 0 154 -73 154 -155c0 -85 -72 -154 -154 -154zM925 1569c-85 0 -154 69 -154 154c0 82 69 155 154 155c82 0 155 -73 155 -155c0 -85 -73 -154 -155 -154zM754 1454l497 -1282c38 -98 90 -129 129 -131v-41
c-81 4 -199 6 -311 6c-127 0 -244 -2 -312 -6v41c98 4 144 19 144 75c0 24 -8 56 -24 97l-123 336h-445l-55 -142c-39 -100 -56 -173 -56 -227c0 -108 70 -136 182 -139v-41c-93 4 -170 6 -255 6c-60 0 -116 -2 -157 -6v41c60 11 120 64 178 215l466 1198c22 -2 46 -3 71 -3
c24 0 49 1 71 3zM739 590l-203 551l-212 -551h415z" />
    <glyph glyph-name="Agrave" unicode="&#xc0;" horiz-adv-x="1366" 
d="M817 1606l-14 -25c-228 87 -335 85 -426 136c-45 24 -69 64 -69 104c0 16 4 33 12 48c20 39 61 59 102 59c22 0 43 -5 63 -16c95 -50 138 -147 332 -306zM754 1454l497 -1282c38 -98 90 -129 129 -131v-41c-81 4 -199 6 -311 6c-127 0 -244 -2 -312 -6v41
c98 4 144 19 144 75c0 24 -8 56 -24 97l-123 336h-445l-55 -142c-39 -100 -56 -173 -56 -227c0 -108 70 -136 182 -139v-41c-93 4 -170 6 -255 6c-60 0 -116 -2 -157 -6v41c60 11 120 64 178 215l466 1198c22 -2 46 -3 71 -3c24 0 49 1 71 3zM739 590l-203 551l-212 -551
h415z" />
    <glyph glyph-name="Amacron" unicode="&#x100;" horiz-adv-x="1366" 
d="M1089 1677h-819v52h819v-52zM754 1454l497 -1282c38 -98 90 -129 129 -131v-41c-81 4 -199 6 -311 6c-127 0 -244 -2 -312 -6v41c98 4 144 19 144 75c0 24 -8 56 -24 97l-123 336h-445l-55 -142c-39 -100 -56 -173 -56 -227c0 -108 70 -136 182 -139v-41
c-93 4 -170 6 -255 6c-60 0 -116 -2 -157 -6v41c60 11 120 64 178 215l466 1198c22 -2 46 -3 71 -3c24 0 49 1 71 3zM739 590l-203 551l-212 -551h415z" />
    <glyph glyph-name="Aogonek" unicode="&#x104;" horiz-adv-x="1366" 
d="M1380 0l-39 2c-155 -52 -209 -131 -209 -191c0 -55 29 -83 84 -83c48 0 102 25 131 55l29 -29c-74 -97 -159 -139 -281 -139c-119 0 -186 53 -186 140c0 112 133 199 358 249c-62 1 -131 2 -198 2c-127 0 -244 -2 -312 -6v41c98 4 144 19 144 75c0 24 -8 56 -24 97
l-123 336h-445l-55 -142c-39 -100 -56 -173 -56 -227c0 -108 70 -136 182 -139v-41c-93 4 -170 6 -255 6c-60 0 -116 -2 -157 -6v41c60 11 120 64 178 215l466 1198c22 -2 46 -3 71 -3c24 0 49 1 71 3l497 -1282c38 -98 90 -129 129 -131v-41zM739 590l-203 551l-212 -551
h415z" />
    <glyph glyph-name="Aring" unicode="&#xc5;" horiz-adv-x="1366" 
d="M680 1520c-116 0 -221 76 -221 200c0 122 105 199 221 199c119 0 224 -77 224 -199c0 -124 -105 -200 -224 -200zM680 1876c-78 0 -164 -56 -164 -158c0 -105 86 -155 164 -155c80 0 166 50 166 155c0 102 -86 158 -166 158zM754 1454l497 -1282c38 -98 90 -129 129 -131
v-41c-81 4 -199 6 -311 6c-127 0 -244 -2 -312 -6v41c98 4 144 19 144 75c0 24 -8 56 -24 97l-123 336h-445l-55 -142c-39 -100 -56 -173 -56 -227c0 -108 70 -136 182 -139v-41c-93 4 -170 6 -255 6c-60 0 -116 -2 -157 -6v41c60 11 120 64 178 215l466 1198
c22 -2 46 -3 71 -3c24 0 49 1 71 3zM739 590l-203 551l-212 -551h415z" />
    <glyph glyph-name="Atilde" unicode="&#xc3;" horiz-adv-x="1366" 
d="M1100 1858l30 -11c-38 -188 -151 -275 -273 -275c-193 0 -270 146 -432 146c-67 0 -124 -30 -170 -112l-29 11c38 188 150 275 274 275c192 0 268 -145 430 -145c67 0 125 29 170 111zM754 1454l497 -1282c38 -98 90 -129 129 -131v-41c-81 4 -199 6 -311 6
c-127 0 -244 -2 -312 -6v41c98 4 144 19 144 75c0 24 -8 56 -24 97l-123 336h-445l-55 -142c-39 -100 -56 -173 -56 -227c0 -108 70 -136 182 -139v-41c-93 4 -170 6 -255 6c-60 0 -116 -2 -157 -6v41c60 11 120 64 178 215l466 1198c22 -2 46 -3 71 -3c24 0 49 1 71 3z
M739 590l-203 551l-212 -551h415z" />
    <glyph glyph-name="AE" unicode="&#xc6;" horiz-adv-x="1820" 
d="M1673 459h47c-4 -44 -6 -105 -6 -172c0 -56 1 -174 14 -287c-134 6 -320 6 -453 6c-122 0 -390 0 -589 -6v41c117 6 137 27 137 176v492h-343l-290 -496c-25 -43 -37 -75 -37 -100c0 -50 49 -68 142 -72v-41c-41 4 -113 6 -187 6c-48 0 -103 -2 -137 -6v41
c43 2 84 34 141 131l696 1182c-19 42 -58 51 -139 55v41c60 -2 127 -3 194 -4l79 135h49l-79 -135c144 -2 284 -2 363 -2c121 0 290 0 412 6c-10 -111 -14 -224 -14 -279c0 -54 2 -106 6 -139h-47c-34 281 -119 371 -262 371h-68c-128 0 -153 -21 -153 -170v-483h108
c143 0 160 154 178 241h47c-6 -78 -7 -131 -7 -174c0 -33 1 -60 1 -88c0 -62 2 -121 12 -262h-47c-18 117 -42 242 -184 242h-108v-492c0 -149 25 -170 153 -170h100c142 0 240 101 271 412zM823 750v483c0 22 -1 41 -2 58l-317 -541h319z" />
    <glyph glyph-name="B" unicode="B" horiz-adv-x="1375" 
d="M799 766v-4c383 -29 515 -199 515 -365c0 -258 -214 -397 -565 -397c-64 0 -191 6 -365 6c-121 0 -246 -2 -315 -6v41c130 6 153 27 153 176v1016c0 149 -24 170 -153 176v41c69 -4 196 -6 311 -6c134 0 270 4 322 4c338 0 506 -133 506 -322c0 -145 -123 -307 -409 -360
zM548 770h88c193 0 240 156 240 334c0 201 -56 305 -201 305c-105 0 -127 -35 -127 -176v-463zM548 735v-518c0 -143 24 -170 141 -170c200 0 285 129 285 359c0 208 -97 329 -340 329h-86z" />
    <glyph glyph-name="C" unicode="C" horiz-adv-x="1445" 
d="M1329 0h-47c-8 84 -21 121 -50 121c-12 0 -26 -6 -43 -17c-100 -71 -202 -133 -378 -133c-434 0 -723 273 -723 742c0 458 299 766 725 766c180 0 286 -64 376 -133c15 -12 29 -18 40 -18c29 0 45 38 53 122h47c-6 -105 -8 -246 -8 -496h-48c-22 188 -48 287 -154 371
c-68 66 -162 101 -259 101c-294 0 -408 -343 -408 -705c0 -367 123 -700 416 -700c90 0 189 33 255 99c106 82 131 196 150 396h48c0 -260 2 -407 8 -516z" />
    <glyph glyph-name="Cacute" unicode="&#x106;" horiz-adv-x="1445" 
d="M641 1581l-15 25c195 159 238 256 332 306c20 11 42 16 64 16c41 0 82 -20 102 -59c8 -15 11 -31 11 -47c0 -41 -24 -81 -68 -105c-92 -51 -198 -49 -426 -136zM1329 0h-47c-8 84 -21 121 -50 121c-12 0 -26 -6 -43 -17c-100 -71 -202 -133 -378 -133
c-434 0 -723 273 -723 742c0 458 299 766 725 766c180 0 286 -64 376 -133c15 -12 29 -18 40 -18c29 0 45 38 53 122h47c-6 -105 -8 -246 -8 -496h-48c-22 188 -48 287 -154 371c-68 66 -162 101 -259 101c-294 0 -408 -343 -408 -705c0 -367 123 -700 416 -700
c90 0 189 33 255 99c106 82 131 196 150 396h48c0 -260 2 -407 8 -516z" />
    <glyph glyph-name="Ccaron" unicode="&#x10c;" horiz-adv-x="1445" 
d="M1198 1921l10 -30c-178 -75 -334 -199 -419 -319h-37c-83 119 -241 243 -420 319l10 30c179 -31 368 -85 469 -132c85 47 241 101 387 132zM1329 0h-47c-8 84 -21 121 -50 121c-12 0 -26 -6 -43 -17c-100 -71 -202 -133 -378 -133c-434 0 -723 273 -723 742
c0 458 299 766 725 766c180 0 286 -64 376 -133c15 -12 29 -18 40 -18c29 0 45 38 53 122h47c-6 -105 -8 -246 -8 -496h-48c-22 188 -48 287 -154 371c-68 66 -162 101 -259 101c-294 0 -408 -343 -408 -705c0 -367 123 -700 416 -700c90 0 189 33 255 99
c106 82 131 196 150 396h48c0 -260 2 -407 8 -516z" />
    <glyph glyph-name="Ccedilla" unicode="&#xc7;" horiz-adv-x="1445" 
d="M1273 516h48c0 -260 2 -407 8 -516h-47c-8 84 -21 121 -50 121c-12 0 -26 -6 -43 -17c-96 -68 -193 -128 -356 -133l-33 -104c47 16 98 24 158 24c100 0 153 -44 153 -109c0 -117 -150 -167 -324 -167c-79 0 -146 10 -190 25l10 37c20 -3 60 -9 103 -9
c86 0 186 21 186 84c0 37 -35 53 -93 53c-22 0 -57 -4 -81 -14l56 181c-416 13 -690 284 -690 741c0 458 299 766 725 766c180 0 286 -64 376 -133c15 -12 29 -18 40 -18c29 0 45 38 53 122h47c-6 -105 -8 -246 -8 -496h-48c-22 188 -48 287 -154 371
c-68 66 -162 101 -259 101c-294 0 -408 -343 -408 -705c0 -367 123 -700 416 -700c90 0 189 33 255 99c106 82 131 196 150 396z" />
    <glyph glyph-name="Ccircumflex" unicode="&#x108;" horiz-adv-x="1445" 
d="M758 1925h37c83 -119 240 -243 419 -319l-10 -30c-178 31 -367 85 -469 132c-85 -47 -241 -101 -387 -132l-10 30c178 75 334 199 420 319zM1329 0h-47c-8 84 -21 121 -50 121c-12 0 -26 -6 -43 -17c-100 -71 -202 -133 -378 -133c-434 0 -723 273 -723 742
c0 458 299 766 725 766c180 0 286 -64 376 -133c15 -12 29 -18 40 -18c29 0 45 38 53 122h47c-6 -105 -8 -246 -8 -496h-48c-22 188 -48 287 -154 371c-68 66 -162 101 -259 101c-294 0 -408 -343 -408 -705c0 -367 123 -700 416 -700c90 0 189 33 255 99
c106 82 131 196 150 396h48c0 -260 2 -407 8 -516z" />
    <glyph glyph-name="Cdotaccent" unicode="&#x10a;" horiz-adv-x="1445" 
d="M788 1883c106 0 174 -60 174 -159c0 -98 -68 -158 -174 -158c-107 0 -174 60 -174 158c0 99 67 159 174 159zM1329 0h-47c-8 84 -21 121 -50 121c-12 0 -26 -6 -43 -17c-100 -71 -202 -133 -378 -133c-434 0 -723 273 -723 742c0 458 299 766 725 766
c180 0 286 -64 376 -133c15 -12 29 -18 40 -18c29 0 45 38 53 122h47c-6 -105 -8 -246 -8 -496h-48c-22 188 -48 287 -154 371c-68 66 -162 101 -259 101c-294 0 -408 -343 -408 -705c0 -367 123 -700 416 -700c90 0 189 33 255 99c106 82 131 196 150 396h48
c0 -260 2 -407 8 -516z" />
    <glyph glyph-name="D" unicode="D" horiz-adv-x="1589" 
d="M69 1409v41c56 -3 151 -7 247 -7c21 0 43 1 64 1c98 2 240 6 322 6c539 0 796 -252 796 -709c0 -446 -300 -741 -815 -741c-64 0 -207 6 -299 6c-121 0 -246 -2 -315 -6v41c130 6 153 27 153 176v1016c0 149 -24 170 -153 176zM548 1237v-1024c0 -143 27 -176 154 -176
c345 0 456 250 456 696c0 459 -128 680 -458 680c-125 0 -152 -35 -152 -176z" />
    <glyph glyph-name="Eth" unicode="&#xd0;" horiz-adv-x="1590" 
d="M70 1409v41c56 -3 151 -7 247 -7c21 0 43 1 64 1c98 2 240 6 322 6c539 0 796 -252 796 -709c0 -446 -300 -741 -815 -741c-64 0 -207 6 -299 6c-121 0 -246 -2 -315 -6v41c130 6 153 27 153 176v492h-153v41h153v483c0 149 -24 170 -153 176zM549 709v-496
c0 -143 27 -176 154 -176c345 0 456 250 456 696c0 459 -128 680 -458 680c-125 0 -152 -35 -152 -176v-487h254v-41h-254z" />
    <glyph glyph-name="Dcaron" unicode="&#x10e;" horiz-adv-x="1589" 
d="M1124 1921l10 -30c-178 -75 -334 -199 -419 -319h-37c-83 119 -241 243 -420 319l10 30c179 -31 368 -85 469 -132c85 47 241 101 387 132zM69 1409v41c56 -3 151 -7 247 -7c21 0 43 1 64 1c98 2 240 6 322 6c539 0 796 -252 796 -709c0 -446 -300 -741 -815 -741
c-64 0 -207 6 -299 6c-121 0 -246 -2 -315 -6v41c130 6 153 27 153 176v1016c0 149 -24 170 -153 176zM548 1237v-1024c0 -143 27 -176 154 -176c345 0 456 250 456 696c0 459 -128 680 -458 680c-125 0 -152 -35 -152 -176z" />
    <glyph glyph-name="Dcroat" unicode="&#x110;" horiz-adv-x="1590" 
d="M70 1409v41c56 -3 151 -7 247 -7c21 0 43 1 64 1c98 2 240 6 322 6c539 0 796 -252 796 -709c0 -446 -300 -741 -815 -741c-64 0 -207 6 -299 6c-121 0 -246 -2 -315 -6v41c130 6 153 27 153 176v492h-153v41h153v483c0 149 -24 170 -153 176zM549 709v-496
c0 -143 27 -176 154 -176c345 0 456 250 456 696c0 459 -128 680 -458 680c-125 0 -152 -35 -152 -176v-487h254v-41h-254z" />
    <glyph glyph-name="E" unicode="E" horiz-adv-x="1298" 
d="M1150 483h47c-4 -44 -6 -105 -6 -172c0 -61 2 -188 14 -311c-139 6 -331 6 -469 6c-137 0 -444 0 -667 -6v41c130 6 153 27 153 176v1016c0 149 -24 170 -153 176v41c223 -6 530 -6 667 -6c125 0 302 0 428 6c-10 -121 -14 -244 -14 -303c0 -54 2 -106 6 -139h-47
c-41 300 -148 395 -336 395h-84c-119 0 -141 -18 -141 -146v-507h66c164 0 222 159 244 270h47c-6 -87 -7 -146 -7 -193c0 -38 1 -68 1 -98c0 -67 2 -135 12 -291h-47c-21 144 -86 271 -250 271h-66v-516c0 -128 22 -146 141 -146h101c183 0 309 106 360 436z" />
    <glyph glyph-name="Eacute" unicode="&#xc9;" horiz-adv-x="1298" 
d="M509 1581l-15 25c195 159 238 256 332 306c20 11 42 16 64 16c41 0 82 -20 102 -59c8 -15 11 -31 11 -47c0 -41 -24 -81 -68 -105c-92 -51 -198 -49 -426 -136zM1150 483h47c-4 -44 -6 -105 -6 -172c0 -61 2 -188 14 -311c-139 6 -331 6 -469 6c-137 0 -444 0 -667 -6v41
c130 6 153 27 153 176v1016c0 149 -24 170 -153 176v41c223 -6 530 -6 667 -6c125 0 302 0 428 6c-10 -121 -14 -244 -14 -303c0 -54 2 -106 6 -139h-47c-41 300 -148 395 -336 395h-84c-119 0 -141 -18 -141 -146v-507h66c164 0 222 159 244 270h47c-6 -87 -7 -146 -7 -193
c0 -38 1 -68 1 -98c0 -67 2 -135 12 -291h-47c-21 144 -86 271 -250 271h-66v-516c0 -128 22 -146 141 -146h101c183 0 309 106 360 436z" />
    <glyph glyph-name="Ebreve" unicode="&#x114;" horiz-adv-x="1298" 
d="M1064 1875l24 -22c-58 -125 -206 -275 -457 -275c-250 0 -398 150 -456 275l25 21c73 -55 210 -123 431 -123c222 0 359 69 433 124zM1150 483h47c-4 -44 -6 -105 -6 -172c0 -61 2 -188 14 -311c-139 6 -331 6 -469 6c-137 0 -444 0 -667 -6v41c130 6 153 27 153 176
v1016c0 149 -24 170 -153 176v41c223 -6 530 -6 667 -6c125 0 302 0 428 6c-10 -121 -14 -244 -14 -303c0 -54 2 -106 6 -139h-47c-41 300 -148 395 -336 395h-84c-119 0 -141 -18 -141 -146v-507h66c164 0 222 159 244 270h47c-6 -87 -7 -146 -7 -193c0 -38 1 -68 1 -98
c0 -67 2 -135 12 -291h-47c-21 144 -86 271 -250 271h-66v-516c0 -128 22 -146 141 -146h101c183 0 309 106 360 436z" />
    <glyph glyph-name="Ecaron" unicode="&#x11a;" horiz-adv-x="1298" 
d="M657 1572h-37c-83 119 -241 243 -420 319l10 30c179 -31 368 -85 469 -132c85 47 241 101 387 132l10 -30c-178 -75 -334 -199 -419 -319zM1150 483h47c-4 -44 -6 -105 -6 -172c0 -61 2 -188 14 -311c-139 6 -331 6 -469 6c-137 0 -444 0 -667 -6v41
c130 6 153 27 153 176v1016c0 149 -24 170 -153 176v41c223 -6 530 -6 667 -6c125 0 302 0 428 6c-10 -121 -14 -244 -14 -303c0 -54 2 -106 6 -139h-47c-41 300 -148 395 -336 395h-84c-119 0 -141 -18 -141 -146v-507h66c164 0 222 159 244 270h47c-6 -87 -7 -146 -7 -193
c0 -38 1 -68 1 -98c0 -67 2 -135 12 -291h-47c-21 144 -86 271 -250 271h-66v-516c0 -128 22 -146 141 -146h101c183 0 309 106 360 436z" />
    <glyph glyph-name="Ecircumflex" unicode="&#xca;" horiz-adv-x="1298" 
d="M1082 1606l-10 -30c-178 31 -367 85 -469 132c-85 -47 -241 -101 -387 -132l-10 30c178 75 334 199 420 319h37c83 -119 240 -243 419 -319zM1150 483h47c-4 -44 -6 -105 -6 -172c0 -61 2 -188 14 -311c-139 6 -331 6 -469 6c-137 0 -444 0 -667 -6v41
c130 6 153 27 153 176v1016c0 149 -24 170 -153 176v41c223 -6 530 -6 667 -6c125 0 302 0 428 6c-10 -121 -14 -244 -14 -303c0 -54 2 -106 6 -139h-47c-41 300 -148 395 -336 395h-84c-119 0 -141 -18 -141 -146v-507h66c164 0 222 159 244 270h47c-6 -87 -7 -146 -7 -193
c0 -38 1 -68 1 -98c0 -67 2 -135 12 -291h-47c-21 144 -86 271 -250 271h-66v-516c0 -128 22 -146 141 -146h101c183 0 309 106 360 436z" />
    <glyph glyph-name="Edieresis" unicode="&#xcb;" horiz-adv-x="1298" 
d="M399 1569c-85 0 -155 69 -155 154c0 82 70 155 155 155c82 0 154 -73 154 -155c0 -85 -72 -154 -154 -154zM889 1569c-85 0 -154 69 -154 154c0 82 69 155 154 155c82 0 155 -73 155 -155c0 -85 -73 -154 -155 -154zM1150 483h47c-4 -44 -6 -105 -6 -172
c0 -61 2 -188 14 -311c-139 6 -331 6 -469 6c-137 0 -444 0 -667 -6v41c130 6 153 27 153 176v1016c0 149 -24 170 -153 176v41c223 -6 530 -6 667 -6c125 0 302 0 428 6c-10 -121 -14 -244 -14 -303c0 -54 2 -106 6 -139h-47c-41 300 -148 395 -336 395h-84
c-119 0 -141 -18 -141 -146v-507h66c164 0 222 159 244 270h47c-6 -87 -7 -146 -7 -193c0 -38 1 -68 1 -98c0 -67 2 -135 12 -291h-47c-21 144 -86 271 -250 271h-66v-516c0 -128 22 -146 141 -146h101c183 0 309 106 360 436z" />
    <glyph glyph-name="Edotaccent" unicode="&#x116;" horiz-adv-x="1298" 
d="M656 1566c-107 0 -174 60 -174 158c0 99 67 159 174 159c106 0 174 -60 174 -159c0 -98 -68 -158 -174 -158zM1150 483h47c-4 -44 -6 -105 -6 -172c0 -61 2 -188 14 -311c-139 6 -331 6 -469 6c-137 0 -444 0 -667 -6v41c130 6 153 27 153 176v1016
c0 149 -24 170 -153 176v41c223 -6 530 -6 667 -6c125 0 302 0 428 6c-10 -121 -14 -244 -14 -303c0 -54 2 -106 6 -139h-47c-41 300 -148 395 -336 395h-84c-119 0 -141 -18 -141 -146v-507h66c164 0 222 159 244 270h47c-6 -87 -7 -146 -7 -193c0 -38 1 -68 1 -98
c0 -67 2 -135 12 -291h-47c-21 144 -86 271 -250 271h-66v-516c0 -128 22 -146 141 -146h101c183 0 309 106 360 436z" />
    <glyph glyph-name="Egrave" unicode="&#xc8;" horiz-adv-x="1298" 
d="M781 1606l-14 -25c-228 87 -335 85 -426 136c-45 24 -69 64 -69 104c0 16 4 33 12 48c20 39 61 59 102 59c22 0 43 -5 63 -16c95 -50 138 -147 332 -306zM1150 483h47c-4 -44 -6 -105 -6 -172c0 -61 2 -188 14 -311c-139 6 -331 6 -469 6c-137 0 -444 0 -667 -6v41
c130 6 153 27 153 176v1016c0 149 -24 170 -153 176v41c223 -6 530 -6 667 -6c125 0 302 0 428 6c-10 -121 -14 -244 -14 -303c0 -54 2 -106 6 -139h-47c-41 300 -148 395 -336 395h-84c-119 0 -141 -18 -141 -146v-507h66c164 0 222 159 244 270h47c-6 -87 -7 -146 -7 -193
c0 -38 1 -68 1 -98c0 -67 2 -135 12 -291h-47c-21 144 -86 271 -250 271h-66v-516c0 -128 22 -146 141 -146h101c183 0 309 106 360 436z" />
    <glyph glyph-name="Emacron" unicode="&#x112;" horiz-adv-x="1298" 
d="M1053 1677h-819v52h819v-52zM1150 483h47c-4 -44 -6 -105 -6 -172c0 -61 2 -188 14 -311c-139 6 -331 6 -469 6c-137 0 -444 0 -667 -6v41c130 6 153 27 153 176v1016c0 149 -24 170 -153 176v41c223 -6 530 -6 667 -6c125 0 302 0 428 6c-10 -121 -14 -244 -14 -303
c0 -54 2 -106 6 -139h-47c-41 300 -148 395 -336 395h-84c-119 0 -141 -18 -141 -146v-507h66c164 0 222 159 244 270h47c-6 -87 -7 -146 -7 -193c0 -38 1 -68 1 -98c0 -67 2 -135 12 -291h-47c-21 144 -86 271 -250 271h-66v-516c0 -128 22 -146 141 -146h101
c183 0 309 106 360 436z" />
    <glyph glyph-name="Eogonek" unicode="&#x118;" horiz-adv-x="1298" 
d="M1192 -217l29 -29c-74 -97 -159 -139 -281 -139c-119 0 -186 53 -186 140c0 112 132 199 355 248c-123 3 -265 3 -373 3c-137 0 -444 0 -667 -6v41c130 6 153 27 153 176v1016c0 149 -24 170 -153 176v41c223 -6 530 -6 667 -6c125 0 302 0 428 6
c-10 -121 -14 -244 -14 -303c0 -54 2 -106 6 -139h-47c-41 300 -148 395 -336 395h-84c-119 0 -141 -18 -141 -146v-507h66c164 0 222 159 244 270h47c-6 -87 -7 -146 -7 -193c0 -38 1 -68 1 -98c0 -67 2 -135 12 -291h-47c-21 144 -86 271 -250 271h-66v-516
c0 -128 22 -146 141 -146h101c183 0 309 106 360 436h47c-4 -44 -6 -105 -6 -172c0 -61 2 -188 14 -311l-21 1c-154 -51 -207 -130 -207 -190c0 -55 29 -83 84 -83c48 0 102 25 131 55z" />
    <glyph glyph-name="F" unicode="F" horiz-adv-x="1213" 
d="M69 1409v41c223 -6 530 -6 667 -6c125 0 302 0 428 6c-10 -124 -14 -250 -14 -311s2 -118 6 -156h-47c-54 318 -161 420 -352 420h-68c-119 0 -141 -18 -141 -146v-516h72c164 0 222 160 243 271h48c-6 -90 -8 -151 -8 -199c0 -35 1 -64 1 -92c0 -68 2 -135 13 -291h-47
c-22 143 -86 270 -250 270h-72v-471c0 -160 37 -182 219 -184v-45c-84 3 -227 6 -373 6c-118 0 -236 -3 -325 -6v41c130 6 153 27 153 176v1016c0 149 -24 170 -153 176z" />
    <glyph glyph-name="G" unicode="G" horiz-adv-x="1505" 
d="M1366 0h-41c-2 47 -20 117 -60 117c-20 0 -44 -6 -110 -42c-100 -58 -213 -104 -336 -104c-478 0 -731 274 -731 737c0 466 308 771 741 771c186 0 292 -61 386 -133c15 -13 29 -20 41 -20c28 0 43 39 51 124h47c-6 -105 -8 -246 -8 -496h-47c-19 164 -48 285 -154 371
c-67 64 -171 101 -268 101c-299 0 -424 -344 -424 -704c0 -492 140 -710 393 -710c65 0 114 19 145 40c38 27 50 57 50 107v201c0 186 -35 215 -207 222v41c84 -5 240 -7 350 -7c115 0 213 2 275 7v-41c-78 -7 -93 -25 -93 -176v-406z" />
    <glyph glyph-name="Gacute" unicode="&#x1f4;" horiz-adv-x="1505" 
d="M656 1581l-15 25c195 159 238 256 332 306c20 11 42 16 64 16c41 0 82 -20 102 -59c8 -15 11 -31 11 -47c0 -41 -24 -81 -68 -105c-92 -51 -198 -49 -426 -136zM1366 0h-41c-2 47 -20 117 -60 117c-20 0 -44 -6 -110 -42c-100 -58 -213 -104 -336 -104
c-478 0 -731 274 -731 737c0 466 308 771 741 771c186 0 292 -61 386 -133c15 -13 29 -20 41 -20c28 0 43 39 51 124h47c-6 -105 -8 -246 -8 -496h-47c-19 164 -48 285 -154 371c-67 64 -171 101 -268 101c-299 0 -424 -344 -424 -704c0 -492 140 -710 393 -710
c65 0 114 19 145 40c38 27 50 57 50 107v201c0 186 -35 215 -207 222v41c84 -5 240 -7 350 -7c115 0 213 2 275 7v-41c-78 -7 -93 -25 -93 -176v-406z" />
    <glyph glyph-name="Gbreve" unicode="&#x11e;" horiz-adv-x="1505" 
d="M1211 1875l24 -22c-58 -125 -206 -275 -457 -275c-250 0 -398 150 -456 275l25 21c73 -55 210 -123 431 -123c222 0 359 69 433 124zM1366 0h-41c-2 47 -20 117 -60 117c-20 0 -44 -6 -110 -42c-100 -58 -213 -104 -336 -104c-478 0 -731 274 -731 737
c0 466 308 771 741 771c186 0 292 -61 386 -133c15 -13 29 -20 41 -20c28 0 43 39 51 124h47c-6 -105 -8 -246 -8 -496h-47c-19 164 -48 285 -154 371c-67 64 -171 101 -268 101c-299 0 -424 -344 -424 -704c0 -492 140 -710 393 -710c65 0 114 19 145 40
c38 27 50 57 50 107v201c0 186 -35 215 -207 222v41c84 -5 240 -7 350 -7c115 0 213 2 275 7v-41c-78 -7 -93 -25 -93 -176v-406z" />
    <glyph glyph-name="Gcircumflex" unicode="&#x11c;" horiz-adv-x="1505" 
d="M773 1925h37c83 -119 240 -243 419 -319l-10 -30c-178 31 -367 85 -469 132c-85 -47 -241 -101 -387 -132l-10 30c178 75 334 199 420 319zM1366 0h-41c-2 47 -20 117 -60 117c-20 0 -44 -6 -110 -42c-100 -58 -213 -104 -336 -104c-478 0 -731 274 -731 737
c0 466 308 771 741 771c186 0 292 -61 386 -133c15 -13 29 -20 41 -20c28 0 43 39 51 124h47c-6 -105 -8 -246 -8 -496h-47c-19 164 -48 285 -154 371c-67 64 -171 101 -268 101c-299 0 -424 -344 -424 -704c0 -492 140 -710 393 -710c65 0 114 19 145 40
c38 27 50 57 50 107v201c0 186 -35 215 -207 222v41c84 -5 240 -7 350 -7c115 0 213 2 275 7v-41c-78 -7 -93 -25 -93 -176v-406z" />
    <glyph glyph-name="Gcommaaccent" unicode="&#x122;" horiz-adv-x="1505" 
d="M1366 0h-41c-2 47 -20 117 -60 117c-20 0 -44 -6 -110 -42c-100 -58 -213 -104 -336 -104c-478 0 -731 274 -731 737c0 466 308 771 741 771c186 0 292 -61 386 -133c15 -13 29 -20 41 -20c28 0 43 39 51 124h47c-6 -105 -8 -246 -8 -496h-47c-19 164 -48 285 -154 371
c-67 64 -171 101 -268 101c-299 0 -424 -344 -424 -704c0 -492 140 -710 393 -710c65 0 114 19 145 40c38 27 50 57 50 107v201c0 186 -35 215 -207 222v41c84 -5 240 -7 350 -7c115 0 213 2 275 7v-41c-78 -7 -93 -25 -93 -176v-406zM752 -498l-8 41c96 16 154 51 164 113
c-20 -18 -51 -31 -100 -31c-88 0 -145 44 -145 129c0 82 58 133 155 133c99 0 167 -60 167 -158c0 -122 -71 -206 -233 -227z" />
    <glyph glyph-name="Gdotaccent" unicode="&#x120;" horiz-adv-x="1505" 
d="M803 1883c106 0 174 -60 174 -159c0 -98 -68 -158 -174 -158c-107 0 -174 60 -174 158c0 99 67 159 174 159zM1366 0h-41c-2 47 -20 117 -60 117c-20 0 -44 -6 -110 -42c-100 -58 -213 -104 -336 -104c-478 0 -731 274 -731 737c0 466 308 771 741 771
c186 0 292 -61 386 -133c15 -13 29 -20 41 -20c28 0 43 39 51 124h47c-6 -105 -8 -246 -8 -496h-47c-19 164 -48 285 -154 371c-67 64 -171 101 -268 101c-299 0 -424 -344 -424 -704c0 -492 140 -710 393 -710c65 0 114 19 145 40c38 27 50 57 50 107v201
c0 186 -35 215 -207 222v41c84 -5 240 -7 350 -7c115 0 213 2 275 7v-41c-78 -7 -93 -25 -93 -176v-406z" />
    <glyph glyph-name="H" unicode="H" horiz-adv-x="1639" 
d="M1570 1450v-41c-131 -6 -154 -27 -154 -176v-1016c0 -149 25 -170 154 -176v-41c-67 4 -185 6 -311 6c-119 0 -246 -2 -322 -6v41c131 6 154 27 154 176v492h-543v-492c0 -149 24 -170 154 -176v-41c-74 4 -196 6 -310 6c-131 0 -254 -2 -323 -6v41c130 6 153 27 153 176
v1016c0 149 -24 170 -153 176v41c69 -4 192 -6 323 -6c114 0 236 2 310 6v-41c-131 -6 -154 -27 -154 -176v-483h543v483c0 149 -24 170 -154 176v41c76 -4 203 -6 322 -6c126 0 244 2 311 6z" />
    <glyph glyph-name="Hbar" unicode="&#x126;" horiz-adv-x="1639" 
d="M1570 1450v-41c-131 -6 -154 -27 -154 -176v-141h154v-41h-154v-834c0 -149 25 -170 154 -176v-41c-67 4 -185 6 -311 6c-119 0 -246 -2 -322 -6v41c131 6 154 27 154 176v492h-543v-492c0 -149 24 -170 154 -176v-41c-74 4 -196 6 -310 6c-131 0 -254 -2 -323 -6v41
c130 6 153 27 153 176v834h-153v41h153v141c0 149 -24 170 -153 176v41c69 -4 192 -6 323 -6c114 0 236 2 310 6v-41c-131 -6 -154 -27 -154 -176v-141h543v141c0 149 -24 170 -154 176v41c76 -4 203 -6 322 -6c126 0 244 2 311 6zM1091 1051h-543v-301h543v301z" />
    <glyph glyph-name="Hcircumflex" unicode="&#x124;" horiz-adv-x="1639" 
d="M807 1925h37c83 -119 240 -243 419 -319l-10 -30c-178 31 -367 85 -469 132c-85 -47 -241 -101 -387 -132l-10 30c178 75 334 199 420 319zM1570 1450v-41c-131 -6 -154 -27 -154 -176v-1016c0 -149 25 -170 154 -176v-41c-67 4 -185 6 -311 6c-119 0 -246 -2 -322 -6v41
c131 6 154 27 154 176v492h-543v-492c0 -149 24 -170 154 -176v-41c-74 4 -196 6 -310 6c-131 0 -254 -2 -323 -6v41c130 6 153 27 153 176v1016c0 149 -24 170 -153 176v41c69 -4 192 -6 323 -6c114 0 236 2 310 6v-41c-131 -6 -154 -27 -154 -176v-483h543v483
c0 149 -24 170 -154 176v41c76 -4 203 -6 322 -6c126 0 244 2 311 6z" />
    <glyph glyph-name="I" unicode="I" horiz-adv-x="770" 
d="M702 1450v-41c-131 -6 -154 -27 -154 -176v-1016c0 -149 24 -170 154 -176v-41c-74 4 -196 6 -310 6c-131 0 -254 -2 -323 -6v41c130 6 153 27 153 176v1016c0 149 -24 170 -153 176v41c69 -4 192 -6 323 -6c114 0 236 2 310 6z" />
    <glyph glyph-name="IJ" unicode="&#x132;" horiz-adv-x="1511" 
d="M702 1450v-41c-131 -6 -154 -27 -154 -176v-1016c0 -149 24 -170 154 -176v-41c-74 4 -196 6 -310 6c-131 0 -254 -2 -323 -6v41c130 6 153 27 153 176v1016c0 149 -24 170 -153 176v41c69 -4 192 -6 323 -6c114 0 236 2 310 6zM1455 1450v-41
c-131 -6 -154 -27 -154 -176v-750v-107c0 -150 -3 -316 -35 -427c-55 -189 -241 -334 -518 -334c-73 0 -154 12 -206 38c-72 36 -101 86 -101 149c0 83 66 138 164 138c93 0 155 -47 155 -135c0 -60 -35 -112 -105 -134c18 -12 53 -15 74 -15c103 0 176 62 207 147
c37 106 39 211 39 494v936c0 149 -24 170 -153 176v41c67 -4 185 -6 311 -6c119 0 246 2 322 6z" />
    <glyph glyph-name="Iacute" unicode="&#xcd;" horiz-adv-x="770" 
d="M257 1581l-15 25c195 159 238 256 332 306c20 11 42 16 64 16c41 0 82 -20 102 -59c8 -15 11 -31 11 -47c0 -41 -24 -81 -68 -105c-92 -51 -198 -49 -426 -136zM702 1450v-41c-131 -6 -154 -27 -154 -176v-1016c0 -149 24 -170 154 -176v-41c-74 4 -196 6 -310 6
c-131 0 -254 -2 -323 -6v41c130 6 153 27 153 176v1016c0 149 -24 170 -153 176v41c69 -4 192 -6 323 -6c114 0 236 2 310 6z" />
    <glyph glyph-name="Ibreve" unicode="&#x12c;" horiz-adv-x="770" 
d="M812 1875l24 -22c-58 -125 -206 -275 -457 -275c-250 0 -398 150 -456 275l25 21c73 -55 210 -123 431 -123c222 0 359 69 433 124zM702 1450v-41c-131 -6 -154 -27 -154 -176v-1016c0 -149 24 -170 154 -176v-41c-74 4 -196 6 -310 6c-131 0 -254 -2 -323 -6v41
c130 6 153 27 153 176v1016c0 149 -24 170 -153 176v41c69 -4 192 -6 323 -6c114 0 236 2 310 6z" />
    <glyph glyph-name="Icircumflex" unicode="&#xce;" horiz-adv-x="770" 
d="M374 1925h37c83 -119 240 -243 419 -319l-10 -30c-178 31 -367 85 -469 132c-85 -47 -241 -101 -387 -132l-10 30c178 75 334 199 420 319zM702 1450v-41c-131 -6 -154 -27 -154 -176v-1016c0 -149 24 -170 154 -176v-41c-74 4 -196 6 -310 6c-131 0 -254 -2 -323 -6v41
c130 6 153 27 153 176v1016c0 149 -24 170 -153 176v41c69 -4 192 -6 323 -6c114 0 236 2 310 6z" />
    <glyph glyph-name="Idieresis" unicode="&#xcf;" horiz-adv-x="770" 
d="M147 1878c82 0 154 -73 154 -155c0 -85 -72 -154 -154 -154c-85 0 -155 69 -155 154c0 82 70 155 155 155zM637 1878c82 0 155 -73 155 -155c0 -85 -73 -154 -155 -154c-85 0 -154 69 -154 154c0 82 69 155 154 155zM702 1450v-41c-131 -6 -154 -27 -154 -176v-1016
c0 -149 24 -170 154 -176v-41c-74 4 -196 6 -310 6c-131 0 -254 -2 -323 -6v41c130 6 153 27 153 176v1016c0 149 -24 170 -153 176v41c69 -4 192 -6 323 -6c114 0 236 2 310 6z" />
    <glyph glyph-name="Idotaccent" unicode="&#x130;" horiz-adv-x="770" 
d="M392 1985c113 0 186 -60 186 -158c0 -99 -73 -159 -186 -159c-115 0 -187 60 -187 159c0 98 72 158 187 158zM702 1450v-41c-131 -6 -154 -27 -154 -176v-1016c0 -149 24 -170 154 -176v-41c-74 4 -196 6 -310 6c-131 0 -254 -2 -323 -6v41c130 6 153 27 153 176v1016
c0 149 -24 170 -153 176v41c69 -4 192 -6 323 -6c114 0 236 2 310 6z" />
    <glyph glyph-name="Igrave" unicode="&#xcc;" horiz-adv-x="770" 
d="M529 1606l-14 -25c-228 87 -335 85 -426 136c-45 24 -69 64 -69 104c0 16 4 33 12 48c20 39 61 59 102 59c22 0 43 -5 63 -16c95 -50 138 -147 332 -306zM702 1450v-41c-131 -6 -154 -27 -154 -176v-1016c0 -149 24 -170 154 -176v-41c-74 4 -196 6 -310 6
c-131 0 -254 -2 -323 -6v41c130 6 153 27 153 176v1016c0 149 -24 170 -153 176v41c69 -4 192 -6 323 -6c114 0 236 2 310 6z" />
    <glyph glyph-name="Imacron" unicode="&#x12a;" horiz-adv-x="770" 
d="M801 1677h-819v52h819v-52zM702 1450v-41c-131 -6 -154 -27 -154 -176v-1016c0 -149 24 -170 154 -176v-41c-74 4 -196 6 -310 6c-131 0 -254 -2 -323 -6v41c130 6 153 27 153 176v1016c0 149 -24 170 -153 176v41c69 -4 192 -6 323 -6c114 0 236 2 310 6z" />
    <glyph glyph-name="Iogonek" unicode="&#x12e;" horiz-adv-x="770" 
d="M702 1450v-41c-131 -6 -154 -27 -154 -176v-1016c0 -149 24 -170 154 -176v-41l-37 2c-156 -52 -210 -131 -210 -191c0 -55 29 -83 84 -83c48 0 102 25 131 55l29 -29c-74 -97 -159 -139 -281 -139c-119 0 -186 53 -186 140c0 112 133 200 358 249c-61 1 -131 2 -198 2
c-131 0 -254 -2 -323 -6v41c130 6 153 27 153 176v1016c0 149 -24 170 -153 176v41c69 -4 192 -6 323 -6c114 0 236 2 310 6z" />
    <glyph glyph-name="Itilde" unicode="&#x128;" horiz-adv-x="770" 
d="M-33 1606l-29 11c38 188 150 275 274 275c192 0 268 -145 430 -145c67 0 125 29 170 111l30 -11c-38 -188 -151 -275 -273 -275c-193 0 -270 146 -432 146c-67 0 -124 -30 -170 -112zM702 1450v-41c-131 -6 -154 -27 -154 -176v-1016c0 -149 24 -170 154 -176v-41
c-74 4 -196 6 -310 6c-131 0 -254 -2 -323 -6v41c130 6 153 27 153 176v1016c0 149 -24 170 -153 176v41c69 -4 192 -6 323 -6c114 0 236 2 310 6z" />
    <glyph glyph-name="J" unicode="J" horiz-adv-x="746" 
d="M691 1450v-41c-131 -6 -154 -27 -154 -176v-750v-107c0 -150 -3 -316 -35 -427c-55 -189 -241 -334 -518 -334c-73 0 -154 12 -206 38c-72 36 -101 86 -101 149c0 83 66 138 164 138c93 0 155 -47 155 -135c0 -60 -35 -112 -105 -134c18 -12 53 -15 74 -15
c103 0 176 62 207 147c37 106 39 211 39 494v936c0 149 -24 170 -153 176v41c67 -4 185 -6 311 -6c119 0 246 2 322 6z" />
    <glyph glyph-name="Jcircumflex" unicode="&#x134;" horiz-adv-x="746" 
d="M351 1925h37c83 -119 240 -243 419 -319l-10 -30c-178 31 -367 85 -469 132c-85 -47 -241 -101 -387 -132l-10 30c178 75 334 199 420 319zM691 1450v-41c-131 -6 -154 -27 -154 -176v-750v-107c0 -150 -3 -316 -35 -427c-55 -189 -241 -334 -518 -334
c-73 0 -154 12 -206 38c-72 36 -101 86 -101 149c0 83 66 138 164 138c93 0 155 -47 155 -135c0 -60 -35 -112 -105 -134c18 -12 53 -15 74 -15c103 0 176 62 207 147c37 106 39 211 39 494v936c0 149 -24 170 -153 176v41c67 -4 185 -6 311 -6c119 0 246 2 322 6z" />
    <glyph glyph-name="K" unicode="K" horiz-adv-x="1463" 
d="M858 910l477 -744c39 -62 76 -97 147 -125v-41c-95 4 -222 6 -320 6c-56 0 -135 0 -260 -6v41c76 3 109 14 109 41c0 13 -8 29 -21 51l-298 481c-57 89 -83 109 -144 114v-511c0 -149 24 -170 154 -176v-41c-74 4 -196 6 -310 6c-131 0 -254 -2 -323 -6v41
c130 6 153 27 153 176v1016c0 149 -24 170 -153 176v41c69 -4 192 -6 323 -6c114 0 236 2 310 6v-41c-131 -6 -154 -27 -154 -176v-461c112 7 196 68 304 192l120 146c65 77 94 141 94 190c0 68 -56 107 -150 110v40c100 -4 181 -6 302 -6c81 0 144 2 194 6v-40
c-89 -19 -190 -67 -298 -195z" />
    <glyph glyph-name="Kcommaaccent" unicode="&#x136;" horiz-adv-x="1463" 
d="M858 910l477 -744c39 -62 76 -97 147 -125v-41c-95 4 -222 6 -320 6c-56 0 -135 0 -260 -6v41c76 3 109 14 109 41c0 13 -8 29 -21 51l-298 481c-57 89 -83 109 -144 114v-511c0 -149 24 -170 154 -176v-41c-74 4 -196 6 -310 6c-131 0 -254 -2 -323 -6v41
c130 6 153 27 153 176v1016c0 149 -24 170 -153 176v41c69 -4 192 -6 323 -6c114 0 236 2 310 6v-41c-131 -6 -154 -27 -154 -176v-461c112 7 196 68 304 192l120 146c65 77 94 141 94 190c0 68 -56 107 -150 110v40c100 -4 181 -6 302 -6c81 0 144 2 194 6v-40
c-89 -19 -190 -67 -298 -195zM742 -498l-8 41c96 16 154 51 164 113c-20 -18 -51 -31 -100 -31c-88 0 -145 44 -145 129c0 82 58 133 155 133c99 0 167 -60 167 -158c0 -122 -71 -206 -233 -227z" />
    <glyph glyph-name="L" unicode="L" horiz-adv-x="1251" 
d="M714 1450v-41c-139 -6 -166 -27 -166 -176v-1040c0 -128 21 -146 129 -146h100c189 0 333 184 373 457h47c-4 -47 -6 -110 -6 -180c0 -64 2 -196 14 -324c-139 6 -331 6 -469 6c-137 0 -444 0 -667 -6v41c130 6 153 27 153 176v1016c0 149 -24 170 -153 176v41
c69 -4 192 -6 323 -6c119 0 246 2 322 6z" />
    <glyph glyph-name="Lacute" unicode="&#x139;" horiz-adv-x="1251" 
d="M257 1581l-15 25c195 159 238 256 332 306c20 11 42 16 64 16c41 0 82 -20 102 -59c8 -15 11 -31 11 -47c0 -41 -24 -81 -68 -105c-92 -51 -198 -49 -426 -136zM714 1450v-41c-139 -6 -166 -27 -166 -176v-1040c0 -128 21 -146 129 -146h100c189 0 333 184 373 457h47
c-4 -47 -6 -110 -6 -180c0 -64 2 -196 14 -324c-139 6 -331 6 -469 6c-137 0 -444 0 -667 -6v41c130 6 153 27 153 176v1016c0 149 -24 170 -153 176v41c69 -4 192 -6 323 -6c119 0 246 2 322 6z" />
    <glyph glyph-name="Lcaron" unicode="&#x13d;" horiz-adv-x="1251" 
d="M724 1407v43c42 -3 77 -4 108 -4c69 0 118 6 170 16c6 -14 10 -49 10 -73c0 -89 -94 -213 -239 -410l-29 8c33 209 41 297 41 338c0 53 -10 82 -61 82zM714 1450v-41c-139 -6 -166 -27 -166 -176v-1040c0 -128 21 -146 129 -146h100c189 0 333 184 373 457h47
c-4 -47 -6 -110 -6 -180c0 -64 2 -196 14 -324c-139 6 -331 6 -469 6c-137 0 -444 0 -667 -6v41c130 6 153 27 153 176v1016c0 149 -24 170 -153 176v41c69 -4 192 -6 323 -6c119 0 246 2 322 6z" />
    <glyph glyph-name="Lcommaaccent" unicode="&#x13b;" horiz-adv-x="1251" 
d="M714 1450v-41c-139 -6 -166 -27 -166 -176v-1040c0 -128 21 -146 129 -146h100c189 0 333 184 373 457h47c-4 -47 -6 -110 -6 -180c0 -64 2 -196 14 -324c-139 6 -331 6 -469 6c-137 0 -444 0 -667 -6v41c130 6 153 27 153 176v1016c0 149 -24 170 -153 176v41
c69 -4 192 -6 323 -6c119 0 246 2 322 6zM652 -498l-8 41c96 16 154 51 164 113c-20 -18 -51 -31 -100 -31c-88 0 -145 44 -145 129c0 82 58 133 155 133c99 0 167 -60 167 -158c0 -122 -71 -206 -233 -227z" />
    <glyph glyph-name="Ldot" unicode="&#x13f;" horiz-adv-x="1346" 
d="M714 1450v-41c-139 -6 -166 -27 -166 -176v-1040c0 -128 21 -146 129 -146h100c189 0 333 184 373 457h47c-4 -47 -6 -110 -6 -180c0 -64 2 -196 14 -324c-139 6 -331 6 -469 6c-137 0 -444 0 -667 -6v41c130 6 153 27 153 176v1016c0 149 -24 170 -153 176v41
c69 -4 192 -6 323 -6c119 0 246 2 322 6zM1126 915c107 0 175 -60 175 -159c0 -98 -68 -158 -175 -158s-174 60 -174 158c0 99 67 159 174 159z" />
    <glyph glyph-name="Lslash" unicode="&#x141;" horiz-adv-x="1251" 
d="M1150 504h47c-4 -47 -6 -110 -6 -180c0 -64 2 -196 14 -324c-139 6 -331 6 -469 6c-137 0 -444 0 -667 -6v41c130 6 153 27 153 176v292l-153 -89v47l153 89v677c0 149 -24 170 -153 176v41c69 -4 192 -6 323 -6c119 0 246 2 322 6v-41c-139 -6 -166 -27 -166 -176v-508
l421 244v-47l-421 -244v-485c0 -128 21 -146 129 -146h100c189 0 333 184 373 457z" />
    <glyph glyph-name="M" unicode="M" horiz-adv-x="1899" 
d="M1831 1450v-41c-131 -6 -154 -27 -154 -176v-1016c0 -149 24 -170 154 -176v-41c-76 4 -203 6 -322 6c-131 0 -254 -2 -324 -6v41c140 6 166 27 166 176v1066l-493 -1286h-33l-553 1321v-982c0 -225 18 -277 199 -295v-41c-53 4 -148 6 -222 6c-64 0 -135 -2 -178 -6v41
c131 18 154 72 154 270v922c0 149 -24 170 -154 176v41c43 -4 114 -6 178 -6c119 0 235 2 324 6l413 -996l378 990h145c119 0 246 2 322 6z" />
    <glyph glyph-name="N" unicode="N" horiz-adv-x="1478" 
d="M1419 1450v-41c-131 -18 -154 -72 -154 -270v-1143c-15 1 -32 1 -49 1c-18 0 -36 0 -56 -1l-888 1126v-786c0 -225 18 -277 199 -295v-41c-53 4 -148 6 -222 6c-64 0 -135 -2 -178 -6v41c131 18 154 72 154 270v922c0 149 -24 170 -154 176v41c43 -4 114 -6 178 -6
c65 0 129 2 177 6l792 -977v641c0 225 -18 277 -199 295v41c53 -4 148 -6 222 -6c64 0 135 2 178 6z" />
    <glyph glyph-name="Nacute" unicode="&#x143;" horiz-adv-x="1478" 
d="M641 1581l-15 25c195 159 238 256 332 306c20 11 42 16 64 16c41 0 82 -20 102 -59c8 -15 11 -31 11 -47c0 -41 -24 -81 -68 -105c-92 -51 -198 -49 -426 -136zM1419 1450v-41c-131 -18 -154 -72 -154 -270v-1143c-15 1 -32 1 -49 1c-18 0 -36 0 -56 -1l-888 1126v-786
c0 -225 18 -277 199 -295v-41c-53 4 -148 6 -222 6c-64 0 -135 -2 -178 -6v41c131 18 154 72 154 270v922c0 149 -24 170 -154 176v41c43 -4 114 -6 178 -6c65 0 129 2 177 6l792 -977v641c0 225 -18 277 -199 295v41c53 -4 148 -6 222 -6c64 0 135 2 178 6z" />
    <glyph glyph-name="Ncaron" unicode="&#x147;" horiz-adv-x="1478" 
d="M1198 1921l10 -30c-178 -75 -334 -199 -419 -319h-37c-83 119 -241 243 -420 319l10 30c179 -31 368 -85 469 -132c85 47 241 101 387 132zM1419 1450v-41c-131 -18 -154 -72 -154 -270v-1143c-15 1 -32 1 -49 1c-18 0 -36 0 -56 -1l-888 1126v-786
c0 -225 18 -277 199 -295v-41c-53 4 -148 6 -222 6c-64 0 -135 -2 -178 -6v41c131 18 154 72 154 270v922c0 149 -24 170 -154 176v41c43 -4 114 -6 178 -6c65 0 129 2 177 6l792 -977v641c0 225 -18 277 -199 295v41c53 -4 148 -6 222 -6c64 0 135 2 178 6z" />
    <glyph glyph-name="Ncommaaccent" unicode="&#x145;" horiz-adv-x="1478" 
d="M1419 1450v-41c-131 -18 -154 -72 -154 -270v-1143c-15 1 -32 1 -49 1c-18 0 -36 0 -56 -1l-888 1126v-786c0 -225 18 -277 199 -295v-41c-53 4 -148 6 -222 6c-64 0 -135 -2 -178 -6v41c131 18 154 72 154 270v922c0 149 -24 170 -154 176v41c43 -4 114 -6 178 -6
c65 0 129 2 177 6l792 -977v641c0 225 -18 277 -199 295v41c53 -4 148 -6 222 -6c64 0 135 2 178 6zM689 -498l-8 41c96 16 154 51 164 113c-20 -18 -51 -31 -100 -31c-88 0 -145 44 -145 129c0 82 58 133 155 133c99 0 167 -60 167 -158c0 -122 -71 -206 -233 -227z" />
    <glyph glyph-name="Eng" unicode="&#x14a;" horiz-adv-x="1473" 
d="M1050 1409v41c49 -4 119 -6 188 -6c65 0 136 2 178 6v-41c-129 -6 -153 -27 -153 -176v-1102c0 -423 -116 -516 -297 -516c-132 0 -237 48 -237 164c0 87 65 138 159 138c89 0 151 -49 151 -127c0 -54 -30 -108 -92 -134c12 -2 27 -3 41 -3c144 0 213 117 226 345
c-17 0 -36 -1 -56 -2l-888 1126v-905c0 -149 26 -170 165 -176v-41c-49 4 -118 6 -188 6c-65 0 -136 -2 -178 -6v41c129 6 153 27 153 176v1016c0 149 -24 170 -153 176v41c42 -4 113 -6 178 -6c68 0 137 2 188 6l781 -960v743c0 149 -27 170 -166 176z" />
    <glyph glyph-name="Ntilde" unicode="&#xd1;" horiz-adv-x="1478" 
d="M351 1606l-29 11c38 188 150 275 274 275c192 0 268 -145 430 -145c67 0 125 29 170 111l30 -11c-38 -188 -151 -275 -273 -275c-193 0 -270 146 -432 146c-67 0 -124 -30 -170 -112zM1419 1450v-41c-131 -18 -154 -72 -154 -270v-1143c-15 1 -32 1 -49 1
c-18 0 -36 0 -56 -1l-888 1126v-786c0 -225 18 -277 199 -295v-41c-53 4 -148 6 -222 6c-64 0 -135 -2 -178 -6v41c131 18 154 72 154 270v922c0 149 -24 170 -154 176v41c43 -4 114 -6 178 -6c65 0 129 2 177 6l792 -977v641c0 225 -18 277 -199 295v41
c53 -4 148 -6 222 -6c64 0 135 2 178 6z" />
    <glyph glyph-name="O" unicode="O" horiz-adv-x="1623" 
d="M813 1479c433 0 723 -273 723 -742c0 -458 -300 -766 -725 -766c-434 0 -723 273 -723 742c0 458 299 766 725 766zM804 1442c-229 0 -376 -297 -376 -721c0 -436 175 -713 391 -713c229 0 377 297 377 721c0 436 -175 713 -392 713z" />
    <glyph glyph-name="Oacute" unicode="&#xd3;" horiz-adv-x="1623" 
d="M674 1581l-15 25c195 159 238 256 332 306c20 11 42 16 64 16c41 0 82 -20 102 -59c8 -15 11 -31 11 -47c0 -41 -24 -81 -68 -105c-92 -51 -198 -49 -426 -136zM813 1479c433 0 723 -273 723 -742c0 -458 -300 -766 -725 -766c-434 0 -723 273 -723 742
c0 458 299 766 725 766zM804 1442c-229 0 -376 -297 -376 -721c0 -436 175 -713 391 -713c229 0 377 297 377 721c0 436 -175 713 -392 713z" />
    <glyph glyph-name="Obreve" unicode="&#x14e;" horiz-adv-x="1623" 
d="M1229 1875l24 -22c-58 -125 -206 -275 -457 -275c-250 0 -398 150 -456 275l25 21c73 -55 210 -123 431 -123c222 0 359 69 433 124zM813 1479c433 0 723 -273 723 -742c0 -458 -300 -766 -725 -766c-434 0 -723 273 -723 742c0 458 299 766 725 766zM804 1442
c-229 0 -376 -297 -376 -721c0 -436 175 -713 391 -713c229 0 377 297 377 721c0 436 -175 713 -392 713z" />
    <glyph glyph-name="Ocircumflex" unicode="&#xd4;" horiz-adv-x="1623" 
d="M791 1925h37c83 -119 240 -243 419 -319l-10 -30c-178 31 -367 85 -469 132c-85 -47 -241 -101 -387 -132l-10 30c178 75 334 199 420 319zM813 1479c433 0 723 -273 723 -742c0 -458 -300 -766 -725 -766c-434 0 -723 273 -723 742c0 458 299 766 725 766zM804 1442
c-229 0 -376 -297 -376 -721c0 -436 175 -713 391 -713c229 0 377 297 377 721c0 436 -175 713 -392 713z" />
    <glyph glyph-name="Odieresis" unicode="&#xd6;" horiz-adv-x="1623" 
d="M564 1878c82 0 154 -73 154 -155c0 -85 -72 -154 -154 -154c-85 0 -155 69 -155 154c0 82 70 155 155 155zM1054 1878c82 0 155 -73 155 -155c0 -85 -73 -154 -155 -154c-85 0 -154 69 -154 154c0 82 69 155 154 155zM813 1479c433 0 723 -273 723 -742
c0 -458 -300 -766 -725 -766c-434 0 -723 273 -723 742c0 458 299 766 725 766zM804 1442c-229 0 -376 -297 -376 -721c0 -436 175 -713 391 -713c229 0 377 297 377 721c0 436 -175 713 -392 713z" />
    <glyph glyph-name="Ograve" unicode="&#xd2;" horiz-adv-x="1623" 
d="M946 1606l-14 -25c-228 87 -335 85 -426 136c-45 24 -69 64 -69 104c0 16 4 33 12 48c20 39 61 59 102 59c22 0 43 -5 63 -16c95 -50 138 -147 332 -306zM813 1479c433 0 723 -273 723 -742c0 -458 -300 -766 -725 -766c-434 0 -723 273 -723 742c0 458 299 766 725 766z
M804 1442c-229 0 -376 -297 -376 -721c0 -436 175 -713 391 -713c229 0 377 297 377 721c0 436 -175 713 -392 713z" />
    <glyph glyph-name="Ohungarumlaut" unicode="&#x150;" horiz-adv-x="1623" 
d="M499 1581l-19 23c121 140 165 251 239 310c24 18 50 26 75 26c37 0 71 -17 93 -48c14 -20 21 -41 21 -62c0 -35 -19 -70 -56 -97c-75 -54 -190 -75 -353 -152zM932 1581l-20 23c122 140 165 251 240 310c23 18 49 26 75 26c36 0 71 -17 93 -48c14 -19 21 -40 21 -61
c0 -35 -19 -70 -57 -98c-75 -54 -190 -75 -352 -152zM813 1479c433 0 723 -273 723 -742c0 -458 -300 -766 -725 -766c-434 0 -723 273 -723 742c0 458 299 766 725 766zM804 1442c-229 0 -376 -297 -376 -721c0 -436 175 -713 391 -713c229 0 377 297 377 721
c0 436 -175 713 -392 713z" />
    <glyph glyph-name="Omacron" unicode="&#x14c;" horiz-adv-x="1623" 
d="M1218 1677h-819v52h819v-52zM813 1479c433 0 723 -273 723 -742c0 -458 -300 -766 -725 -766c-434 0 -723 273 -723 742c0 458 299 766 725 766zM804 1442c-229 0 -376 -297 -376 -721c0 -436 175 -713 391 -713c229 0 377 297 377 721c0 436 -175 713 -392 713z" />
    <glyph glyph-name="Oslash" unicode="&#xd8;" horiz-adv-x="1623" 
d="M1396 1569l-145 -214c179 -123 285 -335 285 -618c0 -458 -300 -766 -725 -766c-161 0 -302 38 -416 109l-171 -242l-43 29l171 242c-166 125 -264 332 -264 604c0 458 299 766 725 766c153 0 287 -34 398 -98l146 214zM499 292l595 934c-72 138 -175 216 -290 216
c-229 0 -376 -297 -376 -721c0 -169 26 -315 71 -429zM1118 1174l-594 -938c72 -146 177 -228 295 -228c229 0 377 297 377 721c0 177 -29 328 -78 445z" />
    <glyph glyph-name="Otilde" unicode="&#xd5;" horiz-adv-x="1623" 
d="M384 1606l-29 11c38 188 150 275 274 275c192 0 268 -145 430 -145c67 0 125 29 170 111l30 -11c-38 -188 -151 -275 -273 -275c-193 0 -270 146 -432 146c-67 0 -124 -30 -170 -112zM813 1479c433 0 723 -273 723 -742c0 -458 -300 -766 -725 -766
c-434 0 -723 273 -723 742c0 458 299 766 725 766zM804 1442c-229 0 -376 -297 -376 -721c0 -436 175 -713 391 -713c229 0 377 297 377 721c0 436 -175 713 -392 713z" />
    <glyph glyph-name="OE" unicode="&#x152;" horiz-adv-x="2038" 
d="M1891 459h47c-4 -44 -6 -105 -6 -172c0 -56 1 -174 14 -287c-134 6 -320 6 -453 6c-109 0 -324 0 -519 -3c-52 -19 -114 -32 -176 -32c-426 0 -710 273 -710 742c0 458 295 766 712 766c63 0 124 -12 179 -32c197 -3 406 -3 514 -3c120 0 290 0 412 6
c-10 -111 -14 -224 -14 -279c0 -54 2 -106 6 -139h-47c-37 281 -124 371 -287 371h-43c-128 0 -154 -21 -154 -170v-483h85c156 0 174 154 194 241h47c-6 -78 -7 -131 -7 -174c0 -33 1 -60 1 -88c0 -62 2 -121 12 -262h-47c-20 117 -44 242 -200 242h-85v-492
c0 -149 26 -170 154 -170h59c164 0 278 101 312 412zM1041 193v1052c0 155 -142 197 -249 197c-222 0 -364 -297 -364 -721c0 -436 168 -713 379 -713c97 0 234 53 234 185z" />
    <glyph glyph-name="P" unicode="P" horiz-adv-x="1312" 
d="M548 586v-357c0 -160 37 -182 219 -184v-45c-84 3 -227 6 -373 6c-118 0 -236 -3 -325 -6v41c130 6 153 27 153 176v1016c0 149 -24 170 -153 176v41c69 -4 196 -6 311 -6c134 0 270 4 322 4c381 0 567 -166 567 -404c0 -198 -129 -458 -612 -458h-109zM548 627h88
c242 0 293 186 293 395c0 258 -68 387 -254 387c-105 0 -127 -35 -127 -176v-606z" />
    <glyph glyph-name="Thorn" unicode="&#xde;" horiz-adv-x="1271" 
d="M548 300v-83c0 -149 24 -170 154 -176v-41c-74 4 -196 6 -310 6c-131 0 -254 -2 -323 -6v41c130 6 153 27 153 176v1016c0 149 -24 170 -153 176v41c69 -4 192 -6 323 -6c114 0 236 2 310 6v-41c-131 -6 -154 -27 -154 -176v-73c51 1 92 2 115 2c381 0 567 -143 567 -393
c0 -232 -129 -469 -612 -469h-70zM548 341h49c242 0 293 190 293 409c0 244 -74 373 -278 373l-64 -1v-781z" />
    <glyph glyph-name="Q" unicode="Q" horiz-adv-x="1623" 
d="M1565 25l36 -11c-22 -150 -69 -260 -142 -319c-57 -47 -150 -80 -264 -80c-225 0 -425 123 -672 217c-17 6 -38 13 -49 14c-53 -25 -118 -43 -171 -43c-55 0 -95 16 -95 54c0 34 36 55 111 55c46 0 104 -11 155 -29c99 26 163 65 242 93c-381 37 -628 303 -628 737
c0 458 299 766 725 766c433 0 723 -273 723 -742c0 -443 -281 -746 -684 -765c-121 -15 -183 -65 -306 -99c213 -17 393 -36 542 -36c56 0 107 3 154 9c168 20 257 68 323 179zM428 721c0 -436 175 -713 391 -713c229 0 377 297 377 721c0 436 -175 713 -392 713
c-229 0 -376 -297 -376 -721z" />
    <glyph glyph-name="R" unicode="R" horiz-adv-x="1417" 
d="M1429 115l28 -25c-73 -84 -152 -119 -272 -119c-147 0 -246 51 -277 222l-36 204c-30 171 -63 291 -191 291h-133v-471c0 -149 24 -170 154 -176v-41c-74 4 -196 6 -310 6c-131 0 -254 -2 -323 -6v41c130 6 153 27 153 176v1016c0 149 -24 170 -153 176v41
c69 -4 196 -6 311 -6c134 0 270 4 322 4c381 0 567 -131 567 -356c0 -166 -101 -355 -460 -396h1c248 -21 357 -100 393 -270l46 -211c23 -109 46 -147 97 -147c35 0 57 16 83 47zM548 729h88c242 0 293 152 293 340c0 215 -68 340 -254 340c-105 0 -127 -35 -127 -176v-504
z" />
    <glyph glyph-name="Racute" unicode="&#x154;" horiz-adv-x="1417" 
d="M528 1581l-15 25c195 159 238 256 332 306c20 11 42 16 64 16c41 0 82 -20 102 -59c8 -15 11 -31 11 -47c0 -41 -24 -81 -68 -105c-92 -51 -198 -49 -426 -136zM1429 115l28 -25c-73 -84 -152 -119 -272 -119c-147 0 -246 51 -277 222l-36 204c-30 171 -63 291 -191 291
h-133v-471c0 -149 24 -170 154 -176v-41c-74 4 -196 6 -310 6c-131 0 -254 -2 -323 -6v41c130 6 153 27 153 176v1016c0 149 -24 170 -153 176v41c69 -4 196 -6 311 -6c134 0 270 4 322 4c381 0 567 -131 567 -356c0 -166 -101 -355 -460 -396h1c248 -21 357 -100 393 -270
l46 -211c23 -109 46 -147 97 -147c35 0 57 16 83 47zM548 729h88c242 0 293 152 293 340c0 215 -68 340 -254 340c-105 0 -127 -35 -127 -176v-504z" />
    <glyph glyph-name="Rcaron" unicode="&#x158;" horiz-adv-x="1417" 
d="M676 1572h-37c-83 119 -241 243 -420 319l10 30c179 -31 368 -85 469 -132c85 47 241 101 387 132l10 -30c-178 -75 -334 -199 -419 -319zM1429 115l28 -25c-73 -84 -152 -119 -272 -119c-147 0 -246 51 -277 222l-36 204c-30 171 -63 291 -191 291h-133v-471
c0 -149 24 -170 154 -176v-41c-74 4 -196 6 -310 6c-131 0 -254 -2 -323 -6v41c130 6 153 27 153 176v1016c0 149 -24 170 -153 176v41c69 -4 196 -6 311 -6c134 0 270 4 322 4c381 0 567 -131 567 -356c0 -166 -101 -355 -460 -396h1c248 -21 357 -100 393 -270l46 -211
c23 -109 46 -147 97 -147c35 0 57 16 83 47zM548 729h88c242 0 293 152 293 340c0 215 -68 340 -254 340c-105 0 -127 -35 -127 -176v-504z" />
    <glyph glyph-name="Rcommaaccent" unicode="&#x156;" horiz-adv-x="1417" 
d="M1429 115l28 -25c-73 -84 -152 -119 -272 -119c-147 0 -246 51 -277 222l-36 204c-30 171 -63 291 -191 291h-133v-471c0 -149 24 -170 154 -176v-41c-74 4 -196 6 -310 6c-131 0 -254 -2 -323 -6v41c130 6 153 27 153 176v1016c0 149 -24 170 -153 176v41
c69 -4 196 -6 311 -6c134 0 270 4 322 4c381 0 567 -131 567 -356c0 -166 -101 -355 -460 -396h1c248 -21 357 -100 393 -270l46 -211c23 -109 46 -147 97 -147c35 0 57 16 83 47zM548 729h88c242 0 293 152 293 340c0 215 -68 340 -254 340c-105 0 -127 -35 -127 -176v-504
zM675 -498l-8 41c96 16 154 51 164 113c-20 -18 -51 -31 -100 -31c-88 0 -145 44 -145 129c0 82 58 133 155 133c99 0 167 -60 167 -158c0 -122 -71 -206 -233 -227z" />
    <glyph glyph-name="S" unicode="S" horiz-adv-x="1196" 
d="M120 539h47c17 -273 111 -514 373 -514c143 0 254 76 254 229c0 168 -127 265 -307 381c-195 124 -365 239 -365 467c0 258 219 374 459 374c160 0 235 -41 299 -79c33 -20 51 -29 69 -29c27 0 37 31 46 90h47c-7 -81 -11 -179 -11 -467h-47c-14 213 -129 436 -348 436
c-131 0 -225 -79 -225 -209c0 -165 125 -232 354 -386c194 -129 346 -240 346 -462c0 -270 -233 -399 -508 -399c-170 0 -260 39 -329 76c-33 21 -54 29 -70 29c-27 0 -37 -31 -45 -90h-47c6 96 8 227 8 553z" />
    <glyph glyph-name="Sacute" unicode="&#x15a;" horiz-adv-x="1196" 
d="M475 1581l-15 25c195 159 238 256 332 306c20 11 42 16 64 16c41 0 82 -20 102 -59c8 -15 11 -31 11 -47c0 -41 -24 -81 -68 -105c-92 -51 -198 -49 -426 -136zM120 539h47c17 -273 111 -514 373 -514c143 0 254 76 254 229c0 168 -127 265 -307 381
c-195 124 -365 239 -365 467c0 258 219 374 459 374c160 0 235 -41 299 -79c33 -20 51 -29 69 -29c27 0 37 31 46 90h47c-7 -81 -11 -179 -11 -467h-47c-14 213 -129 436 -348 436c-131 0 -225 -79 -225 -209c0 -165 125 -232 354 -386c194 -129 346 -240 346 -462
c0 -270 -233 -399 -508 -399c-170 0 -260 39 -329 76c-33 21 -54 29 -70 29c-27 0 -37 -31 -45 -90h-47c6 96 8 227 8 553z" />
    <glyph glyph-name="Scaron" unicode="&#x160;" horiz-adv-x="1196" 
d="M1032 1921l10 -30c-178 -75 -334 -199 -419 -319h-37c-83 119 -241 243 -420 319l10 30c179 -31 368 -85 469 -132c85 47 241 101 387 132zM120 539h47c17 -273 111 -514 373 -514c143 0 254 76 254 229c0 168 -127 265 -307 381c-195 124 -365 239 -365 467
c0 258 219 374 459 374c160 0 235 -41 299 -79c33 -20 51 -29 69 -29c27 0 37 31 46 90h47c-7 -81 -11 -179 -11 -467h-47c-14 213 -129 436 -348 436c-131 0 -225 -79 -225 -209c0 -165 125 -232 354 -386c194 -129 346 -240 346 -462c0 -270 -233 -399 -508 -399
c-170 0 -260 39 -329 76c-33 21 -54 29 -70 29c-27 0 -37 -31 -45 -90h-47c6 96 8 227 8 553z" />
    <glyph glyph-name="Scedilla" unicode="&#x15e;" horiz-adv-x="1196" 
d="M1031 991h-47c-14 213 -129 436 -348 436c-131 0 -225 -79 -225 -209c0 -165 125 -232 354 -386c194 -129 346 -240 346 -462c0 -260 -217 -390 -479 -399l-33 -104c47 16 98 24 158 24c100 0 153 -44 153 -109c0 -117 -150 -167 -324 -167c-79 0 -146 10 -190 25l10 37
c20 -3 60 -9 103 -9c86 0 186 21 186 84c0 37 -35 53 -93 53c-22 0 -57 -4 -81 -14l56 180c-153 4 -238 41 -303 76c-33 21 -54 29 -70 29c-27 0 -37 -31 -45 -90h-47c6 96 8 227 8 553h47c17 -273 111 -514 373 -514c143 0 254 76 254 229c0 168 -127 265 -307 381
c-195 124 -365 239 -365 467c0 258 219 374 459 374c160 0 235 -41 299 -79c33 -20 51 -29 69 -29c27 0 37 31 46 90h47c-7 -81 -11 -179 -11 -467z" />
    <glyph glyph-name="Scircumflex" unicode="&#x15c;" horiz-adv-x="1196" 
d="M592 1925h37c83 -119 240 -243 419 -319l-10 -30c-178 31 -367 85 -469 132c-85 -47 -241 -101 -387 -132l-10 30c178 75 334 199 420 319zM120 539h47c17 -273 111 -514 373 -514c143 0 254 76 254 229c0 168 -127 265 -307 381c-195 124 -365 239 -365 467
c0 258 219 374 459 374c160 0 235 -41 299 -79c33 -20 51 -29 69 -29c27 0 37 31 46 90h47c-7 -81 -11 -179 -11 -467h-47c-14 213 -129 436 -348 436c-131 0 -225 -79 -225 -209c0 -165 125 -232 354 -386c194 -129 346 -240 346 -462c0 -270 -233 -399 -508 -399
c-170 0 -260 39 -329 76c-33 21 -54 29 -70 29c-27 0 -37 -31 -45 -90h-47c6 96 8 227 8 553z" />
    <glyph glyph-name="Scommaaccent" unicode="&#x218;" horiz-adv-x="1196" 
d="M120 539h47c17 -273 111 -514 373 -514c143 0 254 76 254 229c0 168 -127 265 -307 381c-195 124 -365 239 -365 467c0 258 219 374 459 374c160 0 235 -41 299 -79c33 -20 51 -29 69 -29c27 0 37 31 46 90h47c-7 -81 -11 -179 -11 -467h-47c-14 213 -129 436 -348 436
c-131 0 -225 -79 -225 -209c0 -165 125 -232 354 -386c194 -129 346 -240 346 -462c0 -270 -233 -399 -508 -399c-170 0 -260 39 -329 76c-33 21 -54 29 -70 29c-27 0 -37 -31 -45 -90h-47c6 96 8 227 8 553zM546 -498l-8 41c96 16 154 51 164 113c-20 -18 -51 -31 -100 -31
c-88 0 -145 44 -145 129c0 82 58 133 155 133c99 0 167 -60 167 -158c0 -122 -71 -206 -233 -227z" />
    <glyph glyph-name="uni1E9E" unicode="&#x1e9e;" horiz-adv-x="1548" 
d="M172 217v543c0 498 250 719 674 719c223 0 407 -66 542 -158l-356 -490c305 -69 465 -224 465 -431c0 -255 -237 -429 -554 -429c-105 0 -168 15 -220 40c-82 38 -119 110 -119 193c0 106 69 173 157 173s149 -65 149 -162c0 -93 -57 -152 -123 -179
c22 -16 68 -21 94 -21c156 0 276 129 276 359c0 265 -156 428 -447 509l357 523c-44 25 -123 36 -181 36c-221 0 -389 -114 -389 -557v-668c0 -137 14 -174 88 -176v-41c-73 0 -124 6 -274 6c-85 0 -223 -2 -293 -6v41c129 6 154 27 154 176z" />
    <glyph glyph-name="T" unicode="T" horiz-adv-x="1368" 
d="M107 946h-47c4 38 6 95 6 156c0 68 -4 209 -14 348c185 -6 450 -6 633 -6s446 0 631 6c-11 -139 -15 -280 -15 -348c0 -61 2 -118 6 -156h-47c-69 345 -177 457 -368 457h-45v-1169c0 -167 37 -191 219 -193v-41c-87 3 -239 6 -390 6s-293 -3 -374 -6v41
c182 2 219 26 219 193v1169h-45c-193 0 -299 -111 -369 -457z" />
    <glyph glyph-name="Tbar" unicode="&#x166;" horiz-adv-x="1373" 
d="M109 946h-47c4 38 6 95 6 156c0 68 -4 209 -14 348c185 -6 450 -6 633 -6s446 0 631 6c-11 -139 -15 -280 -15 -348c0 -61 2 -118 6 -156h-47c-69 345 -177 457 -368 457h-45v-653h270v-41h-270v-475c0 -167 37 -191 219 -193v-41c-87 3 -239 6 -390 6s-293 -3 -374 -6
v41c182 2 219 26 219 193v475h-288v41h288v653h-45c-193 0 -299 -111 -369 -457z" />
    <glyph glyph-name="Tcaron" unicode="&#x164;" horiz-adv-x="1368" 
d="M1107 1921l10 -30c-178 -75 -334 -199 -419 -319h-37c-83 119 -241 243 -420 319l10 30c179 -31 368 -85 469 -132c85 47 241 101 387 132zM107 946h-47c4 38 6 95 6 156c0 68 -4 209 -14 348c185 -6 450 -6 633 -6s446 0 631 6c-11 -139 -15 -280 -15 -348
c0 -61 2 -118 6 -156h-47c-69 345 -177 457 -368 457h-45v-1169c0 -167 37 -191 219 -193v-41c-87 3 -239 6 -390 6s-293 -3 -374 -6v41c182 2 219 26 219 193v1169h-45c-193 0 -299 -111 -369 -457z" />
    <glyph glyph-name="Tcedilla" unicode="&#x162;" horiz-adv-x="1368" 
d="M107 946h-47c4 38 6 95 6 156c0 68 -4 209 -14 348c185 -6 450 -6 633 -6s446 0 631 6c-11 -139 -15 -280 -15 -348c0 -61 2 -118 6 -156h-47c-69 345 -177 457 -368 457h-45v-1169c0 -167 37 -191 219 -193v-41c-81 3 -220 6 -361 6l-44 -139c47 16 98 24 158 24
c100 0 153 -44 153 -109c0 -117 -150 -167 -324 -167c-79 0 -146 10 -190 25l10 37c20 -3 60 -9 103 -9c86 0 186 21 186 84c0 37 -35 53 -93 53c-22 0 -57 -4 -81 -14l67 215c-141 0 -272 -3 -348 -6v41c182 2 219 26 219 193v1169h-45c-193 0 -299 -111 -369 -457z" />
    <glyph glyph-name="uni021A" unicode="&#x21a;" horiz-adv-x="1368" 
d="M107 946h-47c4 38 6 95 6 156c0 68 -4 209 -14 348c185 -6 450 -6 633 -6s446 0 631 6c-11 -139 -15 -280 -15 -348c0 -61 2 -118 6 -156h-47c-69 345 -177 457 -368 457h-45v-1169c0 -167 37 -191 219 -193v-41c-87 3 -239 6 -390 6s-293 -3 -374 -6v41
c182 2 219 26 219 193v1169h-45c-193 0 -299 -111 -369 -457zM608 -498l-8 41c96 16 154 51 164 113c-20 -18 -51 -31 -100 -31c-88 0 -145 44 -145 129c0 82 58 133 155 133c99 0 167 -60 167 -158c0 -122 -71 -206 -233 -227z" />
    <glyph glyph-name="U" unicode="U" horiz-adv-x="1410" 
d="M1373 1450v-41c-130 -18 -153 -72 -153 -270v-543c0 -178 -20 -327 -84 -434c-70 -117 -206 -191 -414 -191c-128 0 -268 23 -369 104c-133 106 -161 252 -161 515v643c0 149 -23 170 -154 176v41c70 -4 194 -6 321 -6c123 0 248 2 324 6v-41c-139 -6 -166 -27 -166 -176
v-773c0 -274 65 -417 283 -417c289 0 373 219 373 530v541c0 225 -27 277 -199 295v41c53 -4 148 -6 221 -6c65 0 136 2 178 6z" />
    <glyph glyph-name="Uacute" unicode="&#xda;" horiz-adv-x="1410" 
d="M597 1581l-15 25c195 159 238 256 332 306c20 11 42 16 64 16c41 0 82 -20 102 -59c8 -15 11 -31 11 -47c0 -41 -24 -81 -68 -105c-92 -51 -198 -49 -426 -136zM1373 1450v-41c-130 -18 -153 -72 -153 -270v-543c0 -178 -20 -327 -84 -434c-70 -117 -206 -191 -414 -191
c-128 0 -268 23 -369 104c-133 106 -161 252 -161 515v643c0 149 -23 170 -154 176v41c70 -4 194 -6 321 -6c123 0 248 2 324 6v-41c-139 -6 -166 -27 -166 -176v-773c0 -274 65 -417 283 -417c289 0 373 219 373 530v541c0 225 -27 277 -199 295v41c53 -4 148 -6 221 -6
c65 0 136 2 178 6z" />
    <glyph glyph-name="Ubreve" unicode="&#x16c;" horiz-adv-x="1410" 
d="M1152 1875l24 -22c-58 -125 -206 -275 -457 -275c-250 0 -398 150 -456 275l25 21c73 -55 210 -123 431 -123c222 0 359 69 433 124zM1373 1450v-41c-130 -18 -153 -72 -153 -270v-543c0 -178 -20 -327 -84 -434c-70 -117 -206 -191 -414 -191c-128 0 -268 23 -369 104
c-133 106 -161 252 -161 515v643c0 149 -23 170 -154 176v41c70 -4 194 -6 321 -6c123 0 248 2 324 6v-41c-139 -6 -166 -27 -166 -176v-773c0 -274 65 -417 283 -417c289 0 373 219 373 530v541c0 225 -27 277 -199 295v41c53 -4 148 -6 221 -6c65 0 136 2 178 6z" />
    <glyph glyph-name="Ucircumflex" unicode="&#xdb;" horiz-adv-x="1410" 
d="M714 1925h37c83 -119 240 -243 419 -319l-10 -30c-178 31 -367 85 -469 132c-85 -47 -241 -101 -387 -132l-10 30c178 75 334 199 420 319zM1373 1450v-41c-130 -18 -153 -72 -153 -270v-543c0 -178 -20 -327 -84 -434c-70 -117 -206 -191 -414 -191
c-128 0 -268 23 -369 104c-133 106 -161 252 -161 515v643c0 149 -23 170 -154 176v41c70 -4 194 -6 321 -6c123 0 248 2 324 6v-41c-139 -6 -166 -27 -166 -176v-773c0 -274 65 -417 283 -417c289 0 373 219 373 530v541c0 225 -27 277 -199 295v41c53 -4 148 -6 221 -6
c65 0 136 2 178 6z" />
    <glyph glyph-name="Udieresis" unicode="&#xdc;" horiz-adv-x="1410" 
d="M487 1878c82 0 154 -73 154 -155c0 -85 -72 -154 -154 -154c-85 0 -155 69 -155 154c0 82 70 155 155 155zM977 1878c82 0 155 -73 155 -155c0 -85 -73 -154 -155 -154c-85 0 -154 69 -154 154c0 82 69 155 154 155zM1373 1450v-41c-130 -18 -153 -72 -153 -270v-543
c0 -178 -20 -327 -84 -434c-70 -117 -206 -191 -414 -191c-128 0 -268 23 -369 104c-133 106 -161 252 -161 515v643c0 149 -23 170 -154 176v41c70 -4 194 -6 321 -6c123 0 248 2 324 6v-41c-139 -6 -166 -27 -166 -176v-773c0 -274 65 -417 283 -417
c289 0 373 219 373 530v541c0 225 -27 277 -199 295v41c53 -4 148 -6 221 -6c65 0 136 2 178 6z" />
    <glyph glyph-name="Ugrave" unicode="&#xd9;" horiz-adv-x="1410" 
d="M869 1606l-14 -25c-228 87 -335 85 -426 136c-45 24 -69 64 -69 104c0 16 4 33 12 48c20 39 61 59 102 59c22 0 43 -5 63 -16c95 -50 138 -147 332 -306zM1373 1450v-41c-130 -18 -153 -72 -153 -270v-543c0 -178 -20 -327 -84 -434c-70 -117 -206 -191 -414 -191
c-128 0 -268 23 -369 104c-133 106 -161 252 -161 515v643c0 149 -23 170 -154 176v41c70 -4 194 -6 321 -6c123 0 248 2 324 6v-41c-139 -6 -166 -27 -166 -176v-773c0 -274 65 -417 283 -417c289 0 373 219 373 530v541c0 225 -27 277 -199 295v41c53 -4 148 -6 221 -6
c65 0 136 2 178 6z" />
    <glyph glyph-name="Uhungarumlaut" unicode="&#x170;" horiz-adv-x="1410" 
d="M422 1581l-19 23c121 140 165 251 239 310c24 18 50 26 75 26c37 0 71 -17 93 -48c14 -20 21 -41 21 -62c0 -35 -19 -70 -56 -97c-75 -54 -190 -75 -353 -152zM855 1581l-20 23c122 140 165 251 240 310c23 18 49 26 75 26c36 0 71 -17 93 -48c14 -19 21 -40 21 -61
c0 -35 -19 -70 -57 -98c-75 -54 -190 -75 -352 -152zM1373 1450v-41c-130 -18 -153 -72 -153 -270v-543c0 -178 -20 -327 -84 -434c-70 -117 -206 -191 -414 -191c-128 0 -268 23 -369 104c-133 106 -161 252 -161 515v643c0 149 -23 170 -154 176v41c70 -4 194 -6 321 -6
c123 0 248 2 324 6v-41c-139 -6 -166 -27 -166 -176v-773c0 -274 65 -417 283 -417c289 0 373 219 373 530v541c0 225 -27 277 -199 295v41c53 -4 148 -6 221 -6c65 0 136 2 178 6z" />
    <glyph glyph-name="Umacron" unicode="&#x16a;" horiz-adv-x="1410" 
d="M1141 1677h-819v52h819v-52zM1373 1450v-41c-130 -18 -153 -72 -153 -270v-543c0 -178 -20 -327 -84 -434c-70 -117 -206 -191 -414 -191c-128 0 -268 23 -369 104c-133 106 -161 252 -161 515v643c0 149 -23 170 -154 176v41c70 -4 194 -6 321 -6c123 0 248 2 324 6v-41
c-139 -6 -166 -27 -166 -176v-773c0 -274 65 -417 283 -417c289 0 373 219 373 530v541c0 225 -27 277 -199 295v41c53 -4 148 -6 221 -6c65 0 136 2 178 6z" />
    <glyph glyph-name="Uogonek" unicode="&#x172;" horiz-adv-x="1410" 
d="M974 1409v41c53 -4 148 -6 221 -6c65 0 136 2 178 6v-41c-130 -18 -153 -72 -153 -270v-543c0 -178 -20 -327 -84 -434c-47 -78 -124 -138 -232 -168c-138 -51 -187 -126 -187 -183c0 -55 29 -83 84 -83c48 0 102 25 131 55l29 -29c-74 -97 -159 -139 -281 -139
c-119 0 -186 53 -186 140c0 91 87 165 238 216h-10c-128 0 -268 23 -369 104c-133 106 -161 252 -161 515v643c0 149 -23 170 -154 176v41c70 -4 194 -6 321 -6c123 0 248 2 324 6v-41c-139 -6 -166 -27 -166 -176v-773c0 -274 65 -417 283 -417c289 0 373 219 373 530v541
c0 225 -27 277 -199 295z" />
    <glyph glyph-name="Uring" unicode="&#x16e;" horiz-adv-x="1410" 
d="M732 2029c119 0 224 -76 224 -198c0 -125 -105 -201 -224 -201c-116 0 -221 76 -221 201c0 122 105 198 221 198zM732 1986c-78 0 -164 -56 -164 -157c0 -105 86 -156 164 -156c80 0 166 51 166 156c0 101 -86 157 -166 157zM1373 1450v-41c-130 -18 -153 -72 -153 -270
v-543c0 -178 -20 -327 -84 -434c-70 -117 -206 -191 -414 -191c-128 0 -268 23 -369 104c-133 106 -161 252 -161 515v643c0 149 -23 170 -154 176v41c70 -4 194 -6 321 -6c123 0 248 2 324 6v-41c-139 -6 -166 -27 -166 -176v-773c0 -274 65 -417 283 -417
c289 0 373 219 373 530v541c0 225 -27 277 -199 295v41c53 -4 148 -6 221 -6c65 0 136 2 178 6z" />
    <glyph glyph-name="Utilde" unicode="&#x168;" horiz-adv-x="1410" 
d="M307 1606l-29 11c38 188 150 275 274 275c192 0 268 -145 430 -145c67 0 125 29 170 111l30 -11c-38 -188 -151 -275 -273 -275c-193 0 -270 146 -432 146c-67 0 -124 -30 -170 -112zM1373 1450v-41c-130 -18 -153 -72 -153 -270v-543c0 -178 -20 -327 -84 -434
c-70 -117 -206 -191 -414 -191c-128 0 -268 23 -369 104c-133 106 -161 252 -161 515v643c0 149 -23 170 -154 176v41c70 -4 194 -6 321 -6c123 0 248 2 324 6v-41c-139 -6 -166 -27 -166 -176v-773c0 -274 65 -417 283 -417c289 0 373 219 373 530v541
c0 225 -27 277 -199 295v41c53 -4 148 -6 221 -6c65 0 136 2 178 6z" />
    <glyph glyph-name="V" unicode="V" horiz-adv-x="1368" 
d="M977 1409v41c92 -4 170 -6 255 -6c60 0 115 2 156 6v-41c-59 -23 -132 -90 -187 -243l-433 -1170c-22 1 -47 2 -71 2c-25 0 -49 -1 -71 -2l-522 1282c-39 98 -89 129 -129 131v41c82 -4 199 -6 312 -6c126 0 244 2 311 6v-41c-95 -4 -144 -17 -144 -76
c0 -23 8 -55 24 -96l362 -917l252 680c39 106 57 187 57 248c0 114 -63 158 -172 161z" />
    <glyph glyph-name="W" unicode="W" horiz-adv-x="1982" 
d="M1583 1409v41c92 -4 170 -6 255 -6c60 0 115 2 156 6v-41c-59 -23 -132 -88 -179 -243l-361 -1170c-22 1 -47 2 -72 2s-48 -1 -70 -2l-302 911l-304 -911c-22 1 -47 2 -72 2s-48 -1 -70 -2l-459 1282c-36 99 -90 129 -129 131v41c81 -4 201 -6 305 -6c109 0 198 2 252 6
v-41c-53 -7 -72 -37 -72 -80c0 -27 7 -58 19 -92l297 -866l209 609l-106 319c-28 85 -68 107 -111 110v41c75 -4 187 -6 292 -6c120 0 230 2 295 6v-41c-92 -4 -140 -14 -140 -76c0 -24 7 -55 21 -96l281 -857l195 620c31 100 46 178 46 238c0 123 -63 168 -176 171z" />
    <glyph glyph-name="Wacute" unicode="&#x1e82;" horiz-adv-x="1982" 
d="M890 1581l-15 25c195 159 238 256 332 306c20 11 42 16 64 16c41 0 82 -20 102 -59c8 -15 11 -31 11 -47c0 -41 -24 -81 -68 -105c-92 -51 -198 -49 -426 -136zM1583 1409v41c92 -4 170 -6 255 -6c60 0 115 2 156 6v-41c-59 -23 -132 -88 -179 -243l-361 -1170
c-22 1 -47 2 -72 2s-48 -1 -70 -2l-302 911l-304 -911c-22 1 -47 2 -72 2s-48 -1 -70 -2l-459 1282c-36 99 -90 129 -129 131v41c81 -4 201 -6 305 -6c109 0 198 2 252 6v-41c-53 -7 -72 -37 -72 -80c0 -27 7 -58 19 -92l297 -866l209 609l-106 319c-28 85 -68 107 -111 110
v41c75 -4 187 -6 292 -6c120 0 230 2 295 6v-41c-92 -4 -140 -14 -140 -76c0 -24 7 -55 21 -96l281 -857l195 620c31 100 46 178 46 238c0 123 -63 168 -176 171z" />
    <glyph glyph-name="Wcircumflex" unicode="&#x174;" horiz-adv-x="1982" 
d="M1463 1606l-10 -30c-178 31 -367 85 -469 132c-85 -47 -241 -101 -387 -132l-10 30c178 75 334 199 420 319h37c83 -119 240 -243 419 -319zM1583 1409v41c92 -4 170 -6 255 -6c60 0 115 2 156 6v-41c-59 -23 -132 -88 -179 -243l-361 -1170c-22 1 -47 2 -72 2
s-48 -1 -70 -2l-302 911l-304 -911c-22 1 -47 2 -72 2s-48 -1 -70 -2l-459 1282c-36 99 -90 129 -129 131v41c81 -4 201 -6 305 -6c109 0 198 2 252 6v-41c-53 -7 -72 -37 -72 -80c0 -27 7 -58 19 -92l297 -866l209 609l-106 319c-28 85 -68 107 -111 110v41
c75 -4 187 -6 292 -6c120 0 230 2 295 6v-41c-92 -4 -140 -14 -140 -76c0 -24 7 -55 21 -96l281 -857l195 620c31 100 46 178 46 238c0 123 -63 168 -176 171z" />
    <glyph glyph-name="Wdieresis" unicode="&#x1e84;" horiz-adv-x="1982" 
d="M780 1569c-85 0 -155 69 -155 154c0 82 70 155 155 155c82 0 154 -73 154 -155c0 -85 -72 -154 -154 -154zM1270 1569c-85 0 -154 69 -154 154c0 82 69 155 154 155c82 0 155 -73 155 -155c0 -85 -73 -154 -155 -154zM1583 1409v41c92 -4 170 -6 255 -6c60 0 115 2 156 6
v-41c-59 -23 -132 -88 -179 -243l-361 -1170c-22 1 -47 2 -72 2s-48 -1 -70 -2l-302 911l-304 -911c-22 1 -47 2 -72 2s-48 -1 -70 -2l-459 1282c-36 99 -90 129 -129 131v41c81 -4 201 -6 305 -6c109 0 198 2 252 6v-41c-53 -7 -72 -37 -72 -80c0 -27 7 -58 19 -92
l297 -866l209 609l-106 319c-28 85 -68 107 -111 110v41c75 -4 187 -6 292 -6c120 0 230 2 295 6v-41c-92 -4 -140 -14 -140 -76c0 -24 7 -55 21 -96l281 -857l195 620c31 100 46 178 46 238c0 123 -63 168 -176 171z" />
    <glyph glyph-name="Wgrave" unicode="&#x1e80;" horiz-adv-x="1982" 
d="M1162 1606l-14 -25c-228 87 -335 85 -426 136c-45 24 -69 64 -69 104c0 16 4 33 12 48c20 39 61 59 102 59c22 0 43 -5 63 -16c95 -50 138 -147 332 -306zM1583 1409v41c92 -4 170 -6 255 -6c60 0 115 2 156 6v-41c-59 -23 -132 -88 -179 -243l-361 -1170
c-22 1 -47 2 -72 2s-48 -1 -70 -2l-302 911l-304 -911c-22 1 -47 2 -72 2s-48 -1 -70 -2l-459 1282c-36 99 -90 129 -129 131v41c81 -4 201 -6 305 -6c109 0 198 2 252 6v-41c-53 -7 -72 -37 -72 -80c0 -27 7 -58 19 -92l297 -866l209 609l-106 319c-28 85 -68 107 -111 110
v41c75 -4 187 -6 292 -6c120 0 230 2 295 6v-41c-92 -4 -140 -14 -140 -76c0 -24 7 -55 21 -96l281 -857l195 620c31 100 46 178 46 238c0 123 -63 168 -176 171z" />
    <glyph glyph-name="X" unicode="X" horiz-adv-x="1415" 
d="M828 847l481 -702c54 -78 75 -98 131 -102v-43c-54 2 -171 8 -280 8c-126 0 -267 -6 -330 -8v43c92 0 135 7 135 34c0 10 -5 21 -15 36l-344 505l-164 -224c-65 -87 -94 -159 -94 -214c0 -85 67 -133 175 -139v-41c-78 4 -256 6 -324 6c-78 0 -145 -2 -188 -6v41
c95 31 193 115 296 250l272 367l-441 648c-54 78 -75 98 -131 102v43c56 -2 179 -8 292 -8c121 0 245 5 314 8v-43c-91 0 -131 -11 -131 -39c0 -11 5 -23 16 -39l305 -445l151 204c67 85 97 155 97 207c0 69 -54 107 -149 113v41c77 -4 189 -6 257 -6c78 0 146 2 189 6v-41
c-90 -26 -183 -113 -258 -214z" />
    <glyph glyph-name="Y" unicode="Y" horiz-adv-x="1275" 
d="M852 1410v41c93 -4 170 -6 255 -6c60 0 115 2 156 6v-41c-59 -23 -121 -88 -196 -236l-242 -480v-477c0 -149 24 -170 153 -176v-41c-73 4 -201 6 -315 6c-126 0 -251 -2 -318 -6v41c131 6 154 27 154 176v348l-394 729c-50 91 -90 114 -119 114v43
c72 -6 148 -10 242 -10c120 0 268 4 385 10v-43c-82 0 -155 -8 -155 -61c0 -12 4 -27 13 -45l312 -598l159 318c56 111 81 193 81 252c0 97 -67 133 -171 136z" />
    <glyph glyph-name="Yacute" unicode="&#xdd;" horiz-adv-x="1275" 
d="M542 1581l-15 25c195 159 238 256 332 306c20 11 42 16 64 16c41 0 82 -20 102 -59c8 -15 11 -31 11 -47c0 -41 -24 -81 -68 -105c-92 -51 -198 -49 -426 -136zM852 1410v41c93 -4 170 -6 255 -6c60 0 115 2 156 6v-41c-59 -23 -121 -88 -196 -236l-242 -480v-477
c0 -149 24 -170 153 -176v-41c-73 4 -201 6 -315 6c-126 0 -251 -2 -318 -6v41c131 6 154 27 154 176v348l-394 729c-50 91 -90 114 -119 114v43c72 -6 148 -10 242 -10c120 0 268 4 385 10v-43c-82 0 -155 -8 -155 -61c0 -12 4 -27 13 -45l312 -598l159 318
c56 111 81 193 81 252c0 97 -67 133 -171 136z" />
    <glyph glyph-name="Ycircumflex" unicode="&#x176;" horiz-adv-x="1275" 
d="M1115 1606l-10 -30c-178 31 -367 85 -469 132c-85 -47 -241 -101 -387 -132l-10 30c178 75 334 199 420 319h37c83 -119 240 -243 419 -319zM852 1410v41c93 -4 170 -6 255 -6c60 0 115 2 156 6v-41c-59 -23 -121 -88 -196 -236l-242 -480v-477c0 -149 24 -170 153 -176
v-41c-73 4 -201 6 -315 6c-126 0 -251 -2 -318 -6v41c131 6 154 27 154 176v348l-394 729c-50 91 -90 114 -119 114v43c72 -6 148 -10 242 -10c120 0 268 4 385 10v-43c-82 0 -155 -8 -155 -61c0 -12 4 -27 13 -45l312 -598l159 318c56 111 81 193 81 252
c0 97 -67 133 -171 136z" />
    <glyph glyph-name="Ydieresis" unicode="&#x178;" horiz-adv-x="1275" 
d="M432 1569c-85 0 -155 69 -155 154c0 82 70 155 155 155c82 0 154 -73 154 -155c0 -85 -72 -154 -154 -154zM922 1569c-85 0 -154 69 -154 154c0 82 69 155 154 155c82 0 155 -73 155 -155c0 -85 -73 -154 -155 -154zM852 1410v41c93 -4 170 -6 255 -6c60 0 115 2 156 6
v-41c-59 -23 -121 -88 -196 -236l-242 -480v-477c0 -149 24 -170 153 -176v-41c-73 4 -201 6 -315 6c-126 0 -251 -2 -318 -6v41c131 6 154 27 154 176v348l-394 729c-50 91 -90 114 -119 114v43c72 -6 148 -10 242 -10c120 0 268 4 385 10v-43c-82 0 -155 -8 -155 -61
c0 -12 4 -27 13 -45l312 -598l159 318c56 111 81 193 81 252c0 97 -67 133 -171 136z" />
    <glyph glyph-name="Ygrave" unicode="&#x1ef2;" horiz-adv-x="1275" 
d="M814 1606l-14 -25c-228 87 -335 85 -426 136c-45 24 -69 64 -69 104c0 16 4 33 12 48c20 39 61 59 102 59c22 0 43 -5 63 -16c95 -50 138 -147 332 -306zM852 1410v41c93 -4 170 -6 255 -6c60 0 115 2 156 6v-41c-59 -23 -121 -88 -196 -236l-242 -480v-477
c0 -149 24 -170 153 -176v-41c-73 4 -201 6 -315 6c-126 0 -251 -2 -318 -6v41c131 6 154 27 154 176v348l-394 729c-50 91 -90 114 -119 114v43c72 -6 148 -10 242 -10c120 0 268 4 385 10v-43c-82 0 -155 -8 -155 -61c0 -12 4 -27 13 -45l312 -598l159 318
c56 111 81 193 81 252c0 97 -67 133 -171 136z" />
    <glyph glyph-name="Z" unicode="Z" horiz-adv-x="1232" 
d="M1140 1409l-712 -1362h225c186 0 396 108 432 445h47c-4 -47 -6 -110 -6 -181c0 -61 1 -188 14 -311c-152 6 -361 6 -510 6c-177 0 -380 0 -550 -6v41l714 1362h-234c-203 0 -370 -97 -409 -420h-47c4 38 6 95 6 156s-4 187 -15 311c137 -6 326 -6 461 -6
c185 0 405 0 584 6v-41z" />
    <glyph glyph-name="Zacute" unicode="&#x179;" horiz-adv-x="1232" 
d="M483 1581l-15 25c195 159 238 256 332 306c20 11 42 16 64 16c41 0 82 -20 102 -59c8 -15 11 -31 11 -47c0 -41 -24 -81 -68 -105c-92 -51 -198 -49 -426 -136zM1140 1409l-712 -1362h225c186 0 396 108 432 445h47c-4 -47 -6 -110 -6 -181c0 -61 1 -188 14 -311
c-152 6 -361 6 -510 6c-177 0 -380 0 -550 -6v41l714 1362h-234c-203 0 -370 -97 -409 -420h-47c4 38 6 95 6 156s-4 187 -15 311c137 -6 326 -6 461 -6c185 0 405 0 584 6v-41z" />
    <glyph glyph-name="Zcaron" unicode="&#x17d;" horiz-adv-x="1232" 
d="M1040 1921l10 -30c-178 -75 -334 -199 -419 -319h-37c-83 119 -241 243 -420 319l10 30c179 -31 368 -85 469 -132c85 47 241 101 387 132zM1140 1409l-712 -1362h225c186 0 396 108 432 445h47c-4 -47 -6 -110 -6 -181c0 -61 1 -188 14 -311c-152 6 -361 6 -510 6
c-177 0 -380 0 -550 -6v41l714 1362h-234c-203 0 -370 -97 -409 -420h-47c4 38 6 95 6 156s-4 187 -15 311c137 -6 326 -6 461 -6c185 0 405 0 584 6v-41z" />
    <glyph glyph-name="Zdotaccent" unicode="&#x17b;" horiz-adv-x="1232" 
d="M618 1985c113 0 186 -60 186 -158c0 -99 -73 -159 -186 -159c-115 0 -187 60 -187 159c0 98 72 158 187 158zM1140 1409l-712 -1362h225c186 0 396 108 432 445h47c-4 -47 -6 -110 -6 -181c0 -61 1 -188 14 -311c-152 6 -361 6 -510 6c-177 0 -380 0 -550 -6v41l714 1362
h-234c-203 0 -370 -97 -409 -420h-47c4 38 6 95 6 156s-4 187 -15 311c137 -6 326 -6 461 -6c185 0 405 0 584 6v-41z" />
    <glyph glyph-name="Cacute.loclPLK" horiz-adv-x="1445" 
d="M745 1554l-27 13c28 171 5 254 35 328c19 44 56 69 100 69c15 0 31 -3 47 -9c44 -19 67 -56 67 -97c0 -16 -4 -33 -11 -50c-31 -74 -106 -115 -211 -254zM1329 0h-47c-8 84 -21 121 -50 121c-12 0 -26 -6 -43 -17c-100 -71 -202 -133 -378 -133c-434 0 -723 273 -723 742
c0 458 299 766 725 766c180 0 286 -64 376 -133c15 -12 29 -18 40 -18c29 0 45 38 53 122h47c-6 -105 -8 -246 -8 -496h-48c-22 188 -48 287 -154 371c-68 66 -162 101 -259 101c-294 0 -408 -343 -408 -705c0 -367 123 -700 416 -700c90 0 189 33 255 99
c106 82 131 196 150 396h48c0 -260 2 -407 8 -516z" />
    <glyph glyph-name="Nacute.loclPLK" horiz-adv-x="1478" 
d="M745 1554l-27 13c28 171 5 254 35 328c19 44 56 69 100 69c15 0 31 -3 47 -9c44 -19 67 -56 67 -97c0 -16 -4 -33 -11 -50c-31 -74 -106 -115 -211 -254zM1419 1450v-41c-131 -18 -154 -72 -154 -270v-1143c-15 1 -32 1 -49 1c-18 0 -36 0 -56 -1l-888 1126v-786
c0 -225 18 -277 199 -295v-41c-53 4 -148 6 -222 6c-64 0 -135 -2 -178 -6v41c131 18 154 72 154 270v922c0 149 -24 170 -154 176v41c43 -4 114 -6 178 -6c65 0 129 2 177 6l792 -977v641c0 225 -18 277 -199 295v41c53 -4 148 -6 222 -6c64 0 135 2 178 6z" />
    <glyph glyph-name="Oacute.loclPLK" horiz-adv-x="1623" 
d="M778 1554l-27 13c28 171 5 254 35 328c19 44 56 69 100 69c15 0 31 -3 47 -9c44 -19 67 -56 67 -97c0 -16 -4 -33 -11 -50c-31 -74 -106 -115 -211 -254zM813 1479c433 0 723 -273 723 -742c0 -458 -300 -766 -725 -766c-434 0 -723 273 -723 742c0 458 299 766 725 766z
M804 1442c-229 0 -376 -297 -376 -721c0 -436 175 -713 391 -713c229 0 377 297 377 721c0 436 -175 713 -392 713z" />
    <glyph glyph-name="Sacute.loclPLK" horiz-adv-x="1196" 
d="M579 1554l-27 13c28 171 5 254 35 328c19 44 56 69 100 69c15 0 31 -3 47 -9c44 -19 67 -56 67 -97c0 -16 -4 -33 -11 -50c-31 -74 -106 -115 -211 -254zM120 539h47c17 -273 111 -514 373 -514c143 0 254 76 254 229c0 168 -127 265 -307 381
c-195 124 -365 239 -365 467c0 258 219 374 459 374c160 0 235 -41 299 -79c33 -20 51 -29 69 -29c27 0 37 31 46 90h47c-7 -81 -11 -179 -11 -467h-47c-14 213 -129 436 -348 436c-131 0 -225 -79 -225 -209c0 -165 125 -232 354 -386c194 -129 346 -240 346 -462
c0 -270 -233 -399 -508 -399c-170 0 -260 39 -329 76c-33 21 -54 29 -70 29c-27 0 -37 -31 -45 -90h-47c6 96 8 227 8 553z" />
    <glyph glyph-name="Zacute.loclPLK" horiz-adv-x="1232" 
d="M587 1554l-27 13c28 171 5 254 35 328c19 44 56 69 100 69c15 0 31 -3 47 -9c44 -19 67 -56 67 -97c0 -16 -4 -33 -11 -50c-31 -74 -106 -115 -211 -254zM1140 1409l-712 -1362h225c186 0 396 108 432 445h47c-4 -47 -6 -110 -6 -181c0 -61 1 -188 14 -311
c-152 6 -361 6 -510 6c-177 0 -380 0 -550 -6v41l714 1362h-234c-203 0 -370 -97 -409 -420h-47c4 38 6 95 6 156s-4 187 -15 311c137 -6 326 -6 461 -6c185 0 405 0 584 6v-41z" />
    <glyph glyph-name="a" unicode="a" horiz-adv-x="1284" 
d="M684 1249l487 -1077c45 -97 89 -129 129 -131v-41c-64 4 -171 6 -269 6c-131 0 -254 -2 -323 -6v41c86 4 133 23 133 78c0 24 -9 55 -27 94l-102 233h-430l-24 -55c-40 -91 -58 -160 -58 -211c0 -100 68 -133 178 -139v-41c-78 4 -149 6 -235 6c-51 0 -128 -2 -166 -6v41
c69 14 119 81 180 220l433 988c16 -1 31 -2 47 -2s32 1 47 2zM694 487l-196 449l-198 -449h394z" />
    <glyph glyph-name="aacute" unicode="&#xe1;" horiz-adv-x="1284" 
d="M471 1413l-14 26c195 158 237 255 332 305c20 11 42 16 63 16c42 0 82 -20 102 -59c8 -16 12 -32 12 -48c0 -40 -24 -80 -68 -104c-92 -51 -198 -49 -427 -136zM684 1249l487 -1077c45 -97 89 -129 129 -131v-41c-64 4 -171 6 -269 6c-131 0 -254 -2 -323 -6v41
c86 4 133 23 133 78c0 24 -9 55 -27 94l-102 233h-430l-24 -55c-40 -91 -58 -160 -58 -211c0 -100 68 -133 178 -139v-41c-78 4 -149 6 -235 6c-51 0 -128 -2 -166 -6v41c69 14 119 81 180 220l433 988c16 -1 31 -2 47 -2s32 1 47 2zM694 487l-196 449l-198 -449h394z" />
    <glyph glyph-name="abreve" unicode="&#x103;" horiz-adv-x="1284" 
d="M1059 1697l24 -23c-56 -124 -202 -274 -448 -274c-247 0 -392 150 -449 274l26 22c71 -55 206 -124 423 -124s352 70 424 125zM684 1249l487 -1077c45 -97 89 -129 129 -131v-41c-64 4 -171 6 -269 6c-131 0 -254 -2 -323 -6v41c86 4 133 23 133 78c0 24 -9 55 -27 94
l-102 233h-430l-24 -55c-40 -91 -58 -160 -58 -211c0 -100 68 -133 178 -139v-41c-78 4 -149 6 -235 6c-51 0 -128 -2 -166 -6v41c69 14 119 81 180 220l433 988c16 -1 31 -2 47 -2s32 1 47 2zM694 487l-196 449l-198 -449h394z" />
    <glyph glyph-name="acircumflex" unicode="&#xe2;" horiz-adv-x="1284" 
d="M1069 1430l-10 -30c-175 31 -361 84 -461 132c-83 -48 -236 -101 -379 -132l-10 30c174 74 328 199 412 319h37c81 -119 236 -243 411 -319zM684 1249l487 -1077c45 -97 89 -129 129 -131v-41c-64 4 -171 6 -269 6c-131 0 -254 -2 -323 -6v41c86 4 133 23 133 78
c0 24 -9 55 -27 94l-102 233h-430l-24 -55c-40 -91 -58 -160 -58 -211c0 -100 68 -133 178 -139v-41c-78 4 -149 6 -235 6c-51 0 -128 -2 -166 -6v41c69 14 119 81 180 220l433 988c16 -1 31 -2 47 -2s32 1 47 2zM694 487l-196 449l-198 -449h394z" />
    <glyph glyph-name="adieresis" unicode="&#xe4;" horiz-adv-x="1284" 
d="M392 1432c-85 0 -155 69 -155 154c0 82 70 154 155 154c82 0 154 -72 154 -154c0 -85 -72 -154 -154 -154zM882 1432c-85 0 -154 69 -154 154c0 82 69 154 154 154c82 0 155 -72 155 -154c0 -85 -73 -154 -155 -154zM684 1249l487 -1077c45 -97 89 -129 129 -131v-41
c-64 4 -171 6 -269 6c-131 0 -254 -2 -323 -6v41c86 4 133 23 133 78c0 24 -9 55 -27 94l-102 233h-430l-24 -55c-40 -91 -58 -160 -58 -211c0 -100 68 -133 178 -139v-41c-78 4 -149 6 -235 6c-51 0 -128 -2 -166 -6v41c69 14 119 81 180 220l433 988c16 -1 31 -2 47 -2
s32 1 47 2zM694 487l-196 449l-198 -449h394z" />
    <glyph glyph-name="agrave" unicode="&#xe0;" horiz-adv-x="1284" 
d="M770 1439l-14 -26c-228 87 -335 85 -426 136c-45 24 -69 64 -69 104c0 16 4 33 12 48c20 39 61 59 102 59c22 0 43 -5 63 -16c95 -50 138 -147 332 -305zM684 1249l487 -1077c45 -97 89 -129 129 -131v-41c-64 4 -171 6 -269 6c-131 0 -254 -2 -323 -6v41
c86 4 133 23 133 78c0 24 -9 55 -27 94l-102 233h-430l-24 -55c-40 -91 -58 -160 -58 -211c0 -100 68 -133 178 -139v-41c-78 4 -149 6 -235 6c-51 0 -128 -2 -166 -6v41c69 14 119 81 180 220l433 988c16 -1 31 -2 47 -2s32 1 47 2zM694 487l-196 449l-198 -449h394z" />
    <glyph glyph-name="amacron" unicode="&#x101;" horiz-adv-x="1284" 
d="M1042 1530h-819v51h819v-51zM684 1249l487 -1077c45 -97 89 -129 129 -131v-41c-64 4 -171 6 -269 6c-131 0 -254 -2 -323 -6v41c86 4 133 23 133 78c0 24 -9 55 -27 94l-102 233h-430l-24 -55c-40 -91 -58 -160 -58 -211c0 -100 68 -133 178 -139v-41
c-78 4 -149 6 -235 6c-51 0 -128 -2 -166 -6v41c69 14 119 81 180 220l433 988c16 -1 31 -2 47 -2s32 1 47 2zM694 487l-196 449l-198 -449h394z" />
    <glyph glyph-name="aogonek" unicode="&#x105;" horiz-adv-x="1284" 
d="M1300 41v-41c-23 1 -51 3 -83 4c-160 -52 -215 -132 -215 -193c0 -55 29 -83 85 -83c47 0 102 25 131 55l28 -29c-73 -97 -159 -139 -281 -139c-119 0 -186 53 -186 140c0 113 135 201 365 250l-113 1c-131 0 -254 -2 -323 -6v41c86 4 133 23 133 78c0 24 -9 55 -27 94
l-102 233h-430l-24 -55c-40 -91 -58 -160 -58 -211c0 -100 68 -133 178 -139v-41c-78 4 -149 6 -235 6c-51 0 -128 -2 -166 -6v41c69 14 119 81 180 220l433 988c16 -1 31 -2 47 -2s32 1 47 2l487 -1077c45 -97 89 -129 129 -131zM694 487l-196 449l-198 -449h394z" />
    <glyph glyph-name="aring" unicode="&#xe5;" horiz-adv-x="1284" 
d="M637 1384c-116 0 -221 77 -221 201c0 122 105 199 221 199c119 0 224 -77 224 -199c0 -124 -105 -201 -224 -201zM637 1741c-78 0 -164 -56 -164 -158c0 -105 86 -156 164 -156c80 0 166 51 166 156c0 102 -86 158 -166 158zM684 1249l487 -1077c45 -97 89 -129 129 -131
v-41c-64 4 -171 6 -269 6c-131 0 -254 -2 -323 -6v41c86 4 133 23 133 78c0 24 -9 55 -27 94l-102 233h-430l-24 -55c-40 -91 -58 -160 -58 -211c0 -100 68 -133 178 -139v-41c-78 4 -149 6 -235 6c-51 0 -128 -2 -166 -6v41c69 14 119 81 180 220l433 988
c16 -1 31 -2 47 -2s32 1 47 2zM694 487l-196 449l-198 -449h394z" />
    <glyph glyph-name="atilde" unicode="&#xe3;" horiz-adv-x="1284" 
d="M1059 1709l31 -12c-45 -188 -151 -275 -273 -275c-193 0 -271 145 -431 145c-71 0 -130 -32 -177 -114l-31 13c45 188 151 275 274 275c192 0 270 -144 430 -144c70 0 130 30 177 112zM684 1249l487 -1077c45 -97 89 -129 129 -131v-41c-64 4 -171 6 -269 6
c-131 0 -254 -2 -323 -6v41c86 4 133 23 133 78c0 24 -9 55 -27 94l-102 233h-430l-24 -55c-40 -91 -58 -160 -58 -211c0 -100 68 -133 178 -139v-41c-78 4 -149 6 -235 6c-51 0 -128 -2 -166 -6v41c69 14 119 81 180 220l433 988c16 -1 31 -2 47 -2s32 1 47 2zM694 487
l-196 449l-198 -449h394z" />
    <glyph glyph-name="ae" unicode="&#xe6;" horiz-adv-x="1701" 
d="M1552 414h47c-4 -38 -6 -90 -6 -148c0 -52 4 -160 14 -266c-128 6 -306 6 -432 6c-117 0 -373 0 -565 -6v41c117 6 137 27 137 176v389h-320l-231 -393c-24 -41 -36 -73 -36 -98c0 -50 49 -70 143 -74v-41c-41 4 -113 6 -187 6c-47 0 -102 -2 -137 -6v41
c43 2 87 40 141 131l594 1003c-23 20 -60 26 -120 29v41c50 -2 104 -3 159 -3l64 108h47l-64 -109c147 -2 294 -2 375 -2c114 0 275 0 391 6c-10 -98 -14 -198 -14 -246c0 -49 2 -96 6 -127h-47c-33 243 -104 326 -250 326h-59c-108 0 -142 -20 -142 -170v-381h76
c135 0 139 123 162 209h47c-6 -69 -7 -115 -7 -152c0 -29 1 -53 1 -77c0 -56 2 -105 12 -230h-47c-23 113 -35 209 -168 209h-76v-389c0 -149 34 -170 142 -170h80c183 0 234 93 270 367zM747 647v381c0 47 -2 81 -10 106l-286 -487h296z" />
    <glyph glyph-name="b" unicode="b" horiz-adv-x="1330" 
d="M791 668v-4c366 -39 471 -172 471 -328c0 -209 -192 -336 -545 -336c-65 0 -192 6 -368 6c-107 0 -217 -2 -279 -6v41c131 6 154 27 154 176v811c0 152 -25 170 -154 176v41c62 -4 175 -6 274 -6c136 0 274 4 326 4c336 0 485 -104 485 -280c0 -134 -97 -238 -364 -295z
M537 668h68c186 0 231 118 231 272c0 172 -54 264 -193 264c-88 0 -106 -35 -106 -176v-360zM537 633v-416c0 -143 18 -170 109 -170c202 0 288 105 288 297c0 184 -83 289 -295 289h-102z" />
    <glyph glyph-name="c" unicode="c" horiz-adv-x="1346" 
d="M1240 0h-47c-7 83 -23 124 -51 124c-12 0 -25 -7 -41 -20c-86 -71 -188 -133 -354 -133c-387 0 -660 232 -660 639c0 398 284 664 657 664c175 0 261 -64 343 -133c15 -13 29 -20 40 -20c28 0 45 41 52 124h47c-6 -92 -8 -213 -8 -430h-47c-29 150 -48 197 -103 262
c-74 89 -173 144 -280 144c-227 0 -373 -227 -373 -603c0 -386 171 -593 387 -593c107 0 216 51 289 143c55 70 73 137 94 283h47c0 -228 2 -355 8 -451z" />
    <glyph glyph-name="cacute" unicode="&#x107;" horiz-adv-x="1346" 
d="M555 1413l-14 26c195 158 237 255 332 305c20 11 42 16 63 16c42 0 82 -20 102 -59c8 -16 12 -32 12 -48c0 -40 -24 -80 -68 -104c-92 -51 -198 -49 -427 -136zM1240 0h-47c-7 83 -23 124 -51 124c-12 0 -25 -7 -41 -20c-86 -71 -188 -133 -354 -133
c-387 0 -660 232 -660 639c0 398 284 664 657 664c175 0 261 -64 343 -133c15 -13 29 -20 40 -20c28 0 45 41 52 124h47c-6 -92 -8 -213 -8 -430h-47c-29 150 -48 197 -103 262c-74 89 -173 144 -280 144c-227 0 -373 -227 -373 -603c0 -386 171 -593 387 -593
c107 0 216 51 289 143c55 70 73 137 94 283h47c0 -228 2 -355 8 -451z" />
    <glyph glyph-name="ccaron" unicode="&#x10d;" horiz-adv-x="1346" 
d="M1139 1733l10 -30c-174 -75 -327 -199 -411 -320h-37c-82 119 -237 244 -412 320l10 30c176 -32 361 -85 461 -133c84 48 236 101 379 133zM1240 0h-47c-7 83 -23 124 -51 124c-12 0 -25 -7 -41 -20c-86 -71 -188 -133 -354 -133c-387 0 -660 232 -660 639
c0 398 284 664 657 664c175 0 261 -64 343 -133c15 -13 29 -20 40 -20c28 0 45 41 52 124h47c-6 -92 -8 -213 -8 -430h-47c-29 150 -48 197 -103 262c-74 89 -173 144 -280 144c-227 0 -373 -227 -373 -603c0 -386 171 -593 387 -593c107 0 216 51 289 143
c55 70 73 137 94 283h47c0 -228 2 -355 8 -451z" />
    <glyph glyph-name="ccedilla" unicode="&#xe7;" horiz-adv-x="1346" 
d="M1185 451h47c0 -228 2 -355 8 -451h-47c-7 83 -23 124 -51 124c-12 0 -25 -7 -41 -20c-83 -69 -181 -129 -338 -133l-32 -104c47 16 98 24 158 24c100 0 153 -44 153 -109c0 -117 -150 -167 -324 -167c-79 0 -146 10 -190 25l10 37c20 -3 60 -9 103 -9
c86 0 186 21 186 84c0 37 -35 53 -93 53c-22 0 -57 -4 -81 -14l54 181c-365 15 -620 245 -620 638c0 398 284 664 657 664c175 0 261 -64 343 -133c15 -13 29 -20 40 -20c28 0 45 41 52 124h47c-6 -92 -8 -213 -8 -430h-47c-29 150 -48 197 -103 262
c-74 89 -173 144 -280 144c-227 0 -373 -227 -373 -603c0 -386 171 -593 387 -593c107 0 216 51 289 143c55 70 73 137 94 283z" />
    <glyph glyph-name="ccircumflex" unicode="&#x109;" horiz-adv-x="1346" 
d="M705 1749h37c81 -119 236 -243 411 -319l-10 -30c-175 31 -361 84 -461 132c-83 -48 -236 -101 -379 -132l-10 30c174 74 328 199 412 319zM1240 0h-47c-7 83 -23 124 -51 124c-12 0 -25 -7 -41 -20c-86 -71 -188 -133 -354 -133c-387 0 -660 232 -660 639
c0 398 284 664 657 664c175 0 261 -64 343 -133c15 -13 29 -20 40 -20c28 0 45 41 52 124h47c-6 -92 -8 -213 -8 -430h-47c-29 150 -48 197 -103 262c-74 89 -173 144 -280 144c-227 0 -373 -227 -373 -603c0 -386 171 -593 387 -593c107 0 216 51 289 143
c55 70 73 137 94 283h47c0 -228 2 -355 8 -451z" />
    <glyph glyph-name="cdotaccent" unicode="&#x10b;" horiz-adv-x="1346" 
d="M718 1744c106 0 174 -59 174 -158s-68 -158 -174 -158c-107 0 -174 59 -174 158s67 158 174 158zM1240 0h-47c-7 83 -23 124 -51 124c-12 0 -25 -7 -41 -20c-86 -71 -188 -133 -354 -133c-387 0 -660 232 -660 639c0 398 284 664 657 664c175 0 261 -64 343 -133
c15 -13 29 -20 40 -20c28 0 45 41 52 124h47c-6 -92 -8 -213 -8 -430h-47c-29 150 -48 197 -103 262c-74 89 -173 144 -280 144c-227 0 -373 -227 -373 -603c0 -386 171 -593 387 -593c107 0 216 51 289 143c55 70 73 137 94 283h47c0 -228 2 -355 8 -451z" />
    <glyph glyph-name="d" unicode="d" horiz-adv-x="1496" 
d="M70 1204v41c51 -3 135 -7 218 -7c19 0 38 1 56 1c106 2 258 6 347 6c481 0 714 -213 714 -606c0 -385 -267 -639 -733 -639c-69 0 -224 6 -323 6c-107 0 -217 -2 -279 -6v41c131 6 154 27 154 176v811c0 152 -25 170 -154 176zM537 1032v-819c0 -143 22 -176 129 -176
c322 0 412 209 412 594c0 387 -105 577 -414 577c-105 0 -127 -34 -127 -176z" />
    <glyph glyph-name="eth" unicode="&#xf0;" horiz-adv-x="1497" 
d="M71 1204v41c51 -3 135 -7 218 -7c19 0 38 1 56 1c106 2 258 6 347 6c481 0 714 -213 714 -606c0 -385 -267 -639 -733 -639c-69 0 -224 6 -323 6c-107 0 -217 -2 -279 -6v41c131 6 154 27 154 176v389h-154v41h154v381c0 152 -25 170 -154 176zM538 606v-393
c0 -143 22 -176 129 -176c322 0 412 209 412 594c0 387 -105 577 -414 577c-105 0 -127 -34 -127 -176v-385h265v-41h-265z" />
    <glyph glyph-name="dcaron" unicode="&#x10f;" horiz-adv-x="1496" 
d="M1109 1733l10 -30c-174 -75 -327 -199 -411 -320h-37c-82 119 -237 244 -412 320l10 30c176 -32 361 -85 461 -133c84 48 236 101 379 133zM70 1204v41c51 -3 135 -7 218 -7c19 0 38 1 56 1c106 2 258 6 347 6c481 0 714 -213 714 -606c0 -385 -267 -639 -733 -639
c-69 0 -224 6 -323 6c-107 0 -217 -2 -279 -6v41c131 6 154 27 154 176v811c0 152 -25 170 -154 176zM537 1032v-819c0 -143 22 -176 129 -176c322 0 412 209 412 594c0 387 -105 577 -414 577c-105 0 -127 -34 -127 -176z" />
    <glyph glyph-name="dcroat" unicode="&#x111;" horiz-adv-x="1497" 
d="M71 1204v41c51 -3 135 -7 218 -7c19 0 38 1 56 1c106 2 258 6 347 6c481 0 714 -213 714 -606c0 -385 -267 -639 -733 -639c-69 0 -224 6 -323 6c-107 0 -217 -2 -279 -6v41c131 6 154 27 154 176v389h-154v41h154v381c0 152 -25 170 -154 176zM538 606v-393
c0 -143 22 -176 129 -176c322 0 412 209 412 594c0 387 -105 577 -414 577c-105 0 -127 -34 -127 -176v-385h265v-41h-265z" />
    <glyph glyph-name="e" unicode="e" horiz-adv-x="1248" 
d="M1098 414h47c-4 -38 -6 -90 -6 -148c0 -52 4 -160 14 -266c-133 6 -317 6 -448 6s-422 0 -635 -6v41c131 6 154 27 154 176v811c0 150 -25 170 -154 176v41c213 -6 504 -6 635 -6c119 0 287 0 407 6c-10 -98 -14 -198 -14 -246c0 -49 2 -96 6 -127h-47
c-42 243 -144 326 -315 326h-76c-99 0 -129 -17 -129 -133v-418h96c144 0 191 135 207 221h47c-6 -69 -7 -119 -7 -159c0 -32 1 -58 1 -82c0 -56 2 -117 12 -242h-47c-16 113 -71 221 -213 221h-96v-426c0 -116 30 -133 129 -133h88c188 0 299 93 344 367z" />
    <glyph glyph-name="eacute" unicode="&#xe9;" horiz-adv-x="1248" 
d="M455 1413l-14 26c195 158 237 255 332 305c20 11 42 16 63 16c42 0 82 -20 102 -59c8 -16 12 -32 12 -48c0 -40 -24 -80 -68 -104c-92 -51 -198 -49 -427 -136zM1098 414h47c-4 -38 -6 -90 -6 -148c0 -52 4 -160 14 -266c-133 6 -317 6 -448 6s-422 0 -635 -6v41
c131 6 154 27 154 176v811c0 150 -25 170 -154 176v41c213 -6 504 -6 635 -6c119 0 287 0 407 6c-10 -98 -14 -198 -14 -246c0 -49 2 -96 6 -127h-47c-42 243 -144 326 -315 326h-76c-99 0 -129 -17 -129 -133v-418h96c144 0 191 135 207 221h47c-6 -69 -7 -119 -7 -159
c0 -32 1 -58 1 -82c0 -56 2 -117 12 -242h-47c-16 113 -71 221 -213 221h-96v-426c0 -116 30 -133 129 -133h88c188 0 299 93 344 367z" />
    <glyph glyph-name="ebreve" unicode="&#x115;" horiz-adv-x="1248" 
d="M1043 1697l24 -23c-56 -124 -202 -274 -448 -274c-247 0 -392 150 -449 274l26 22c71 -55 206 -124 423 -124s352 70 424 125zM1098 414h47c-4 -38 -6 -90 -6 -148c0 -52 4 -160 14 -266c-133 6 -317 6 -448 6s-422 0 -635 -6v41c131 6 154 27 154 176v811
c0 150 -25 170 -154 176v41c213 -6 504 -6 635 -6c119 0 287 0 407 6c-10 -98 -14 -198 -14 -246c0 -49 2 -96 6 -127h-47c-42 243 -144 326 -315 326h-76c-99 0 -129 -17 -129 -133v-418h96c144 0 191 135 207 221h47c-6 -69 -7 -119 -7 -159c0 -32 1 -58 1 -82
c0 -56 2 -117 12 -242h-47c-16 113 -71 221 -213 221h-96v-426c0 -116 30 -133 129 -133h88c188 0 299 93 344 367z" />
    <glyph glyph-name="ecaron" unicode="&#x11b;" horiz-adv-x="1248" 
d="M638 1383h-37c-82 119 -237 244 -412 320l10 30c176 -32 361 -85 461 -133c84 48 236 101 379 133l10 -30c-174 -75 -327 -199 -411 -320zM1098 414h47c-4 -38 -6 -90 -6 -148c0 -52 4 -160 14 -266c-133 6 -317 6 -448 6s-422 0 -635 -6v41c131 6 154 27 154 176v811
c0 150 -25 170 -154 176v41c213 -6 504 -6 635 -6c119 0 287 0 407 6c-10 -98 -14 -198 -14 -246c0 -49 2 -96 6 -127h-47c-42 243 -144 326 -315 326h-76c-99 0 -129 -17 -129 -133v-418h96c144 0 191 135 207 221h47c-6 -69 -7 -119 -7 -159c0 -32 1 -58 1 -82
c0 -56 2 -117 12 -242h-47c-16 113 -71 221 -213 221h-96v-426c0 -116 30 -133 129 -133h88c188 0 299 93 344 367z" />
    <glyph glyph-name="ecircumflex" unicode="&#xea;" horiz-adv-x="1248" 
d="M1053 1430l-10 -30c-175 31 -361 84 -461 132c-83 -48 -236 -101 -379 -132l-10 30c174 74 328 199 412 319h37c81 -119 236 -243 411 -319zM1098 414h47c-4 -38 -6 -90 -6 -148c0 -52 4 -160 14 -266c-133 6 -317 6 -448 6s-422 0 -635 -6v41c131 6 154 27 154 176v811
c0 150 -25 170 -154 176v41c213 -6 504 -6 635 -6c119 0 287 0 407 6c-10 -98 -14 -198 -14 -246c0 -49 2 -96 6 -127h-47c-42 243 -144 326 -315 326h-76c-99 0 -129 -17 -129 -133v-418h96c144 0 191 135 207 221h47c-6 -69 -7 -119 -7 -159c0 -32 1 -58 1 -82
c0 -56 2 -117 12 -242h-47c-16 113 -71 221 -213 221h-96v-426c0 -116 30 -133 129 -133h88c188 0 299 93 344 367z" />
    <glyph glyph-name="edieresis" unicode="&#xeb;" horiz-adv-x="1248" 
d="M376 1432c-85 0 -155 69 -155 154c0 82 70 154 155 154c82 0 154 -72 154 -154c0 -85 -72 -154 -154 -154zM866 1432c-85 0 -154 69 -154 154c0 82 69 154 154 154c82 0 155 -72 155 -154c0 -85 -73 -154 -155 -154zM1098 414h47c-4 -38 -6 -90 -6 -148
c0 -52 4 -160 14 -266c-133 6 -317 6 -448 6s-422 0 -635 -6v41c131 6 154 27 154 176v811c0 150 -25 170 -154 176v41c213 -6 504 -6 635 -6c119 0 287 0 407 6c-10 -98 -14 -198 -14 -246c0 -49 2 -96 6 -127h-47c-42 243 -144 326 -315 326h-76c-99 0 -129 -17 -129 -133
v-418h96c144 0 191 135 207 221h47c-6 -69 -7 -119 -7 -159c0 -32 1 -58 1 -82c0 -56 2 -117 12 -242h-47c-16 113 -71 221 -213 221h-96v-426c0 -116 30 -133 129 -133h88c188 0 299 93 344 367z" />
    <glyph glyph-name="edotaccent" unicode="&#x117;" horiz-adv-x="1248" 
d="M618 1428c-107 0 -174 59 -174 158s67 158 174 158c106 0 174 -59 174 -158s-68 -158 -174 -158zM1098 414h47c-4 -38 -6 -90 -6 -148c0 -52 4 -160 14 -266c-133 6 -317 6 -448 6s-422 0 -635 -6v41c131 6 154 27 154 176v811c0 150 -25 170 -154 176v41
c213 -6 504 -6 635 -6c119 0 287 0 407 6c-10 -98 -14 -198 -14 -246c0 -49 2 -96 6 -127h-47c-42 243 -144 326 -315 326h-76c-99 0 -129 -17 -129 -133v-418h96c144 0 191 135 207 221h47c-6 -69 -7 -119 -7 -159c0 -32 1 -58 1 -82c0 -56 2 -117 12 -242h-47
c-16 113 -71 221 -213 221h-96v-426c0 -116 30 -133 129 -133h88c188 0 299 93 344 367z" />
    <glyph glyph-name="egrave" unicode="&#xe8;" horiz-adv-x="1248" 
d="M754 1439l-14 -26c-228 87 -335 85 -426 136c-45 24 -69 64 -69 104c0 16 4 33 12 48c20 39 61 59 102 59c22 0 43 -5 63 -16c95 -50 138 -147 332 -305zM1098 414h47c-4 -38 -6 -90 -6 -148c0 -52 4 -160 14 -266c-133 6 -317 6 -448 6s-422 0 -635 -6v41
c131 6 154 27 154 176v811c0 150 -25 170 -154 176v41c213 -6 504 -6 635 -6c119 0 287 0 407 6c-10 -98 -14 -198 -14 -246c0 -49 2 -96 6 -127h-47c-42 243 -144 326 -315 326h-76c-99 0 -129 -17 -129 -133v-418h96c144 0 191 135 207 221h47c-6 -69 -7 -119 -7 -159
c0 -32 1 -58 1 -82c0 -56 2 -117 12 -242h-47c-16 113 -71 221 -213 221h-96v-426c0 -116 30 -133 129 -133h88c188 0 299 93 344 367z" />
    <glyph glyph-name="emacron" unicode="&#x113;" horiz-adv-x="1248" 
d="M1026 1530h-819v51h819v-51zM1098 414h47c-4 -38 -6 -90 -6 -148c0 -52 4 -160 14 -266c-133 6 -317 6 -448 6s-422 0 -635 -6v41c131 6 154 27 154 176v811c0 150 -25 170 -154 176v41c213 -6 504 -6 635 -6c119 0 287 0 407 6c-10 -98 -14 -198 -14 -246
c0 -49 2 -96 6 -127h-47c-42 243 -144 326 -315 326h-76c-99 0 -129 -17 -129 -133v-418h96c144 0 191 135 207 221h47c-6 -69 -7 -119 -7 -159c0 -32 1 -58 1 -82c0 -56 2 -117 12 -242h-47c-16 113 -71 221 -213 221h-96v-426c0 -116 30 -133 129 -133h88
c188 0 299 93 344 367z" />
    <glyph glyph-name="eogonek" unicode="&#x119;" horiz-adv-x="1248" 
d="M1098 414h47c-4 -38 -6 -90 -6 -148c0 -52 4 -160 14 -266l-39 2c-155 -52 -209 -131 -209 -191c0 -55 29 -83 85 -83c47 0 102 25 131 55l28 -29c-73 -97 -159 -139 -281 -139c-119 0 -186 53 -186 140c0 112 133 199 358 249c-113 2 -238 2 -335 2
c-131 0 -422 0 -635 -6v41c131 6 154 27 154 176v811c0 150 -25 170 -154 176v41c213 -6 504 -6 635 -6c119 0 287 0 407 6c-10 -98 -14 -198 -14 -246c0 -49 2 -96 6 -127h-47c-42 243 -144 326 -315 326h-76c-99 0 -129 -17 -129 -133v-418h96c144 0 191 135 207 221h47
c-6 -69 -7 -119 -7 -159c0 -32 1 -58 1 -82c0 -56 2 -117 12 -242h-47c-16 113 -71 221 -213 221h-96v-426c0 -116 30 -133 129 -133h88c188 0 299 93 344 367z" />
    <glyph glyph-name="f" unicode="f" horiz-adv-x="1159" 
d="M70 1204v41c213 -6 504 -6 635 -6c119 0 287 0 407 6c-10 -98 -14 -198 -14 -246c0 -49 2 -96 6 -127h-47c-42 243 -144 326 -315 326h-76c-99 0 -129 -17 -129 -133v-418h96c144 0 191 135 207 221h47c-6 -69 -7 -119 -7 -159c0 -32 1 -58 1 -82c0 -56 2 -117 12 -242
h-47c-16 113 -71 221 -213 221h-96v-377c0 -153 50 -182 219 -188v-41c-84 4 -227 6 -362 6c-131 0 -254 -2 -324 -6v41c131 6 154 27 154 176v811c0 150 -25 170 -154 176z" />
    <glyph glyph-name="g" unicode="g" horiz-adv-x="1436" 
d="M1296 0h-41c-4 37 -14 76 -43 76c-26 0 -67 -19 -102 -36c-52 -24 -172 -69 -315 -69c-447 0 -708 232 -708 627c0 416 294 676 709 676c182 0 269 -64 360 -133c16 -13 30 -20 42 -20c27 0 42 37 50 124h48c-7 -88 -9 -203 -9 -409h-47c-18 90 -46 176 -102 241
c-71 78 -152 143 -285 143c-270 0 -438 -235 -438 -599c0 -426 142 -609 407 -609c49 0 88 11 118 29s42 46 42 88v190c0 166 -32 191 -194 197v41c88 -4 231 -6 338 -6c109 0 203 2 262 6v-41c-79 -6 -92 -24 -92 -176v-340z" />
    <glyph glyph-name="gacute" unicode="&#x1f5;" horiz-adv-x="1436" 
d="M616 1413l-14 26c195 158 237 255 332 305c20 11 42 16 63 16c42 0 82 -20 102 -59c8 -16 12 -32 12 -48c0 -40 -24 -80 -68 -104c-92 -51 -198 -49 -427 -136zM1296 0h-41c-4 37 -14 76 -43 76c-26 0 -67 -19 -102 -36c-52 -24 -172 -69 -315 -69
c-447 0 -708 232 -708 627c0 416 294 676 709 676c182 0 269 -64 360 -133c16 -13 30 -20 42 -20c27 0 42 37 50 124h48c-7 -88 -9 -203 -9 -409h-47c-18 90 -46 176 -102 241c-71 78 -152 143 -285 143c-270 0 -438 -235 -438 -599c0 -426 142 -609 407 -609
c49 0 88 11 118 29s42 46 42 88v190c0 166 -32 191 -194 197v41c88 -4 231 -6 338 -6c109 0 203 2 262 6v-41c-79 -6 -92 -24 -92 -176v-340z" />
    <glyph glyph-name="gbreve" unicode="&#x11f;" horiz-adv-x="1436" 
d="M1204 1697l24 -23c-56 -124 -202 -274 -448 -274c-247 0 -392 150 -449 274l26 22c71 -55 206 -124 423 -124s352 70 424 125zM1296 0h-41c-4 37 -14 76 -43 76c-26 0 -67 -19 -102 -36c-52 -24 -172 -69 -315 -69c-447 0 -708 232 -708 627c0 416 294 676 709 676
c182 0 269 -64 360 -133c16 -13 30 -20 42 -20c27 0 42 37 50 124h48c-7 -88 -9 -203 -9 -409h-47c-18 90 -46 176 -102 241c-71 78 -152 143 -285 143c-270 0 -438 -235 -438 -599c0 -426 142 -609 407 -609c49 0 88 11 118 29s42 46 42 88v190c0 166 -32 191 -194 197v41
c88 -4 231 -6 338 -6c109 0 203 2 262 6v-41c-79 -6 -92 -24 -92 -176v-340z" />
    <glyph glyph-name="gcircumflex" unicode="&#x11d;" horiz-adv-x="1436" 
d="M766 1749h37c81 -119 236 -243 411 -319l-10 -30c-175 31 -361 84 -461 132c-83 -48 -236 -101 -379 -132l-10 30c174 74 328 199 412 319zM1296 0h-41c-4 37 -14 76 -43 76c-26 0 -67 -19 -102 -36c-52 -24 -172 -69 -315 -69c-447 0 -708 232 -708 627
c0 416 294 676 709 676c182 0 269 -64 360 -133c16 -13 30 -20 42 -20c27 0 42 37 50 124h48c-7 -88 -9 -203 -9 -409h-47c-18 90 -46 176 -102 241c-71 78 -152 143 -285 143c-270 0 -438 -235 -438 -599c0 -426 142 -609 407 -609c49 0 88 11 118 29s42 46 42 88v190
c0 166 -32 191 -194 197v41c88 -4 231 -6 338 -6c109 0 203 2 262 6v-41c-79 -6 -92 -24 -92 -176v-340z" />
    <glyph glyph-name="gcommaaccent" unicode="&#x123;" horiz-adv-x="1436" 
d="M1296 0h-41c-4 37 -14 76 -43 76c-26 0 -67 -19 -102 -36c-52 -24 -172 -69 -315 -69c-447 0 -708 232 -708 627c0 416 294 676 709 676c182 0 269 -64 360 -133c16 -13 30 -20 42 -20c27 0 42 37 50 124h48c-7 -88 -9 -203 -9 -409h-47c-18 90 -46 176 -102 241
c-71 78 -152 143 -285 143c-270 0 -438 -235 -438 -599c0 -426 142 -609 407 -609c49 0 88 11 118 29s42 46 42 88v190c0 166 -32 191 -194 197v41c88 -4 231 -6 338 -6c109 0 203 2 262 6v-41c-79 -6 -92 -24 -92 -176v-340zM742 -497l-8 42c96 15 155 51 164 113
c-20 -19 -51 -32 -100 -32c-88 0 -145 44 -145 129c0 82 58 133 155 133s167 -58 167 -158c0 -122 -71 -206 -233 -227z" />
    <glyph glyph-name="gdotaccent" unicode="&#x121;" horiz-adv-x="1436" 
d="M811 1744c106 0 174 -59 174 -158s-68 -158 -174 -158c-107 0 -174 59 -174 158s67 158 174 158zM1296 0h-41c-4 37 -14 76 -43 76c-26 0 -67 -19 -102 -36c-52 -24 -172 -69 -315 -69c-447 0 -708 232 -708 627c0 416 294 676 709 676c182 0 269 -64 360 -133
c16 -13 30 -20 42 -20c27 0 42 37 50 124h48c-7 -88 -9 -203 -9 -409h-47c-18 90 -46 176 -102 241c-71 78 -152 143 -285 143c-270 0 -438 -235 -438 -599c0 -426 142 -609 407 -609c49 0 88 11 118 29s42 46 42 88v190c0 166 -32 191 -194 197v41c88 -4 231 -6 338 -6
c109 0 203 2 262 6v-41c-79 -6 -92 -24 -92 -176v-340z" />
    <glyph glyph-name="h" unicode="h" horiz-adv-x="1600" 
d="M1530 1245v-41c-130 -6 -153 -26 -153 -176v-811c0 -149 24 -170 153 -176v-41c-64 4 -178 6 -299 6c-119 0 -246 -2 -321 -6v41c130 6 153 27 153 176v397h-526v-397c0 -149 24 -170 154 -176v-41c-76 4 -203 6 -322 6c-121 0 -234 -2 -299 -6v41c131 6 154 27 154 176
v811c0 150 -25 170 -154 176v41c65 -4 178 -6 299 -6c119 0 246 2 322 6v-41c-131 -6 -154 -26 -154 -176v-373h526v373c0 150 -24 170 -153 176v41c75 -4 202 -6 321 -6c121 0 235 2 299 6z" />
    <glyph glyph-name="hbar" unicode="&#x127;" horiz-adv-x="1600" 
d="M1530 1245v-41c-130 -6 -153 -26 -153 -176v-80h153v-41h-153v-690c0 -149 24 -170 153 -176v-41c-64 4 -178 6 -299 6c-119 0 -246 -2 -321 -6v41c130 6 153 27 153 176v397h-526v-397c0 -149 24 -170 154 -176v-41c-76 4 -203 6 -322 6c-121 0 -234 -2 -299 -6v41
c131 6 154 27 154 176v690h-154v41h154v80c0 150 -25 170 -154 176v41c65 -4 178 -6 299 -6c119 0 246 2 322 6v-41c-131 -6 -154 -26 -154 -176v-80h526v80c0 150 -24 170 -153 176v41c75 -4 202 -6 321 -6c121 0 235 2 299 6zM1063 907h-526v-252h526v252z" />
    <glyph glyph-name="hcircumflex" unicode="&#x125;" horiz-adv-x="1600" 
d="M791 1749h37c81 -119 236 -243 411 -319l-10 -30c-175 31 -361 84 -461 132c-83 -48 -236 -101 -379 -132l-10 30c174 74 328 199 412 319zM1530 1245v-41c-130 -6 -153 -26 -153 -176v-811c0 -149 24 -170 153 -176v-41c-64 4 -178 6 -299 6c-119 0 -246 -2 -321 -6v41
c130 6 153 27 153 176v397h-526v-397c0 -149 24 -170 154 -176v-41c-76 4 -203 6 -322 6c-121 0 -234 -2 -299 -6v41c131 6 154 27 154 176v811c0 150 -25 170 -154 176v41c65 -4 178 -6 299 -6c119 0 246 2 322 6v-41c-131 -6 -154 -26 -154 -176v-373h526v373
c0 150 -24 170 -153 176v41c75 -4 202 -6 321 -6c121 0 235 2 299 6z" />
    <glyph glyph-name="i" unicode="i" horiz-adv-x="761" 
d="M691 1245v-41c-131 -6 -154 -26 -154 -176v-811c0 -149 23 -170 154 -176v-41c-71 4 -195 6 -304 6c-126 0 -250 -2 -317 -6v41c131 6 154 27 154 176v811c0 150 -25 170 -154 176v41c67 -4 191 -6 317 -6c109 0 233 2 304 6z" />
    <glyph glyph-name="dotlessi" unicode="&#x131;" horiz-adv-x="646" 
d="M476 1082v-892c0 -114 35 -147 131 -147v-43c-52 2 -167 8 -274 8c-106 0 -229 -6 -283 -8v43c95 0 131 33 131 147v646c0 123 -32 181 -131 181v43c43 -4 86 -7 127 -7c114 0 213 9 299 29z" />
    <glyph glyph-name="iacute" unicode="&#xed;" horiz-adv-x="761" 
d="M215 1413l-14 26c195 158 237 255 332 305c20 11 42 16 63 16c42 0 82 -20 102 -59c8 -16 12 -32 12 -48c0 -40 -24 -80 -68 -104c-92 -51 -198 -49 -427 -136zM691 1245v-41c-131 -6 -154 -26 -154 -176v-811c0 -149 23 -170 154 -176v-41c-71 4 -195 6 -304 6
c-126 0 -250 -2 -317 -6v41c131 6 154 27 154 176v811c0 150 -25 170 -154 176v41c67 -4 191 -6 317 -6c109 0 233 2 304 6z" />
    <glyph glyph-name="ibreve" unicode="&#x12d;" horiz-adv-x="761" 
d="M803 1697l24 -23c-56 -124 -202 -274 -448 -274c-247 0 -392 150 -449 274l26 22c71 -55 206 -124 423 -124s352 70 424 125zM691 1245v-41c-131 -6 -154 -26 -154 -176v-811c0 -149 23 -170 154 -176v-41c-71 4 -195 6 -304 6c-126 0 -250 -2 -317 -6v41
c131 6 154 27 154 176v811c0 150 -25 170 -154 176v41c67 -4 191 -6 317 -6c109 0 233 2 304 6z" />
    <glyph glyph-name="icircumflex" unicode="&#xee;" horiz-adv-x="761" 
d="M365 1749h37c81 -119 236 -243 411 -319l-10 -30c-175 31 -361 84 -461 132c-83 -48 -236 -101 -379 -132l-10 30c174 74 328 199 412 319zM691 1245v-41c-131 -6 -154 -26 -154 -176v-811c0 -149 23 -170 154 -176v-41c-71 4 -195 6 -304 6c-126 0 -250 -2 -317 -6v41
c131 6 154 27 154 176v811c0 150 -25 170 -154 176v41c67 -4 191 -6 317 -6c109 0 233 2 304 6z" />
    <glyph glyph-name="idieresis" unicode="&#xef;" horiz-adv-x="761" 
d="M136 1740c82 0 154 -72 154 -154c0 -85 -72 -154 -154 -154c-85 0 -155 69 -155 154c0 82 70 154 155 154zM626 1740c82 0 155 -72 155 -154c0 -85 -73 -154 -155 -154c-85 0 -154 69 -154 154c0 82 69 154 154 154zM691 1245v-41c-131 -6 -154 -26 -154 -176v-811
c0 -149 23 -170 154 -176v-41c-71 4 -195 6 -304 6c-126 0 -250 -2 -317 -6v41c131 6 154 27 154 176v811c0 150 -25 170 -154 176v41c67 -4 191 -6 317 -6c109 0 233 2 304 6z" />
    <glyph glyph-name="i.loclTRK" horiz-adv-x="761" 
d="M378 1744c106 0 174 -59 174 -158s-68 -158 -174 -158c-107 0 -174 59 -174 158s67 158 174 158zM691 1245v-41c-131 -6 -154 -26 -154 -176v-811c0 -149 23 -170 154 -176v-41c-71 4 -195 6 -304 6c-126 0 -250 -2 -317 -6v41c131 6 154 27 154 176v811
c0 150 -25 170 -154 176v41c67 -4 191 -6 317 -6c109 0 233 2 304 6z" />
    <glyph glyph-name="igrave" unicode="&#xec;" horiz-adv-x="761" 
d="M514 1439l-14 -26c-228 87 -335 85 -426 136c-45 24 -69 64 -69 104c0 16 4 33 12 48c20 39 61 59 102 59c22 0 43 -5 63 -16c95 -50 138 -147 332 -305zM691 1245v-41c-131 -6 -154 -26 -154 -176v-811c0 -149 23 -170 154 -176v-41c-71 4 -195 6 -304 6
c-126 0 -250 -2 -317 -6v41c131 6 154 27 154 176v811c0 150 -25 170 -154 176v41c67 -4 191 -6 317 -6c109 0 233 2 304 6z" />
    <glyph glyph-name="ij" unicode="&#x133;" horiz-adv-x="1476" 
d="M691 1245v-41c-131 -6 -154 -26 -154 -176v-811c0 -149 23 -170 154 -176v-41c-71 4 -195 6 -304 6c-126 0 -250 -2 -317 -6v41c131 6 154 27 154 176v811c0 150 -25 170 -154 176v41c67 -4 191 -6 317 -6c109 0 233 2 304 6zM1421 1245v-41c-131 -6 -154 -26 -154 -176
v-545v-107c0 -150 -3 -316 -35 -427c-52 -189 -225 -332 -489 -332c-62 0 -139 8 -193 36c-57 30 -83 73 -83 132c0 79 65 133 160 133c89 0 150 -47 150 -130c0 -49 -29 -102 -92 -128c15 -2 35 -4 55 -4c76 0 127 42 159 107c38 64 55 157 55 371v894
c0 150 -24 170 -154 176v41c65 -4 178 -6 299 -6c119 0 246 2 322 6z" />
    <glyph glyph-name="imacron" unicode="&#x12b;" horiz-adv-x="761" 
d="M786 1530h-819v51h819v-51zM691 1245v-41c-131 -6 -154 -26 -154 -176v-811c0 -149 23 -170 154 -176v-41c-71 4 -195 6 -304 6c-126 0 -250 -2 -317 -6v41c131 6 154 27 154 176v811c0 150 -25 170 -154 176v41c67 -4 191 -6 317 -6c109 0 233 2 304 6z" />
    <glyph glyph-name="iogonek" unicode="&#x12f;" horiz-adv-x="761" 
d="M691 1245v-41c-131 -6 -154 -26 -154 -176v-811c0 -149 23 -170 154 -176v-41l-38 2c-156 -51 -210 -131 -210 -191c0 -55 29 -83 85 -83c47 0 102 25 131 55l28 -29c-73 -97 -159 -139 -281 -139c-119 0 -186 53 -186 140c0 112 133 200 359 249c-60 1 -128 2 -192 2
c-126 0 -250 -2 -317 -6v41c131 6 154 27 154 176v811c0 150 -25 170 -154 176v41c67 -4 191 -6 317 -6c109 0 233 2 304 6z" />
    <glyph glyph-name="itilde" unicode="&#x129;" horiz-adv-x="761" 
d="M-47 1453l-31 13c45 188 151 275 274 275c192 0 270 -144 430 -144c70 0 130 30 177 112l31 -12c-45 -188 -151 -275 -273 -275c-193 0 -271 145 -431 145c-71 0 -130 -32 -177 -114zM691 1245v-41c-131 -6 -154 -26 -154 -176v-811c0 -149 23 -170 154 -176v-41
c-71 4 -195 6 -304 6c-126 0 -250 -2 -317 -6v41c131 6 154 27 154 176v811c0 150 -25 170 -154 176v41c67 -4 191 -6 317 -6c109 0 233 2 304 6z" />
    <glyph glyph-name="j" unicode="j" horiz-adv-x="733" 
d="M678 1245v-41c-131 -6 -154 -26 -154 -176v-545v-107c0 -150 -3 -316 -35 -427c-52 -189 -225 -332 -489 -332c-62 0 -139 8 -193 36c-57 30 -83 73 -83 132c0 79 65 133 160 133c89 0 150 -47 150 -130c0 -49 -29 -102 -92 -128c15 -2 35 -4 55 -4c76 0 127 42 159 107
c38 64 55 157 55 371v894c0 150 -24 170 -154 176v41c65 -4 178 -6 299 -6c119 0 246 2 322 6z" />
    <glyph glyph-name="dotlessj" unicode="&#x237;" horiz-adv-x="608" 
d="M466 1082v-889c0 -221 -30 -365 -131 -467c-66 -69 -176 -111 -331 -111c-61 0 -124 8 -182 37c-51 26 -81 73 -81 128c0 84 65 138 163 138c92 0 153 -43 153 -131c0 -54 -31 -106 -102 -132c16 -2 33 -3 47 -3c51 0 100 19 128 58c34 51 41 138 41 335v791
c0 123 -32 181 -131 181v43c43 -4 86 -7 127 -7c114 0 214 9 299 29z" />
    <glyph glyph-name="jcircumflex" unicode="&#x135;" horiz-adv-x="733" 
d="M335 1749h37c81 -119 236 -243 411 -319l-10 -30c-175 31 -361 84 -461 132c-83 -48 -236 -101 -379 -132l-10 30c174 74 328 199 412 319zM678 1245v-41c-131 -6 -154 -26 -154 -176v-545v-107c0 -150 -3 -316 -35 -427c-52 -189 -225 -332 -489 -332
c-62 0 -139 8 -193 36c-57 30 -83 73 -83 132c0 79 65 133 160 133c89 0 150 -47 150 -130c0 -49 -29 -102 -92 -128c15 -2 35 -4 55 -4c76 0 127 42 159 107c38 64 55 157 55 371v894c0 150 -24 170 -154 176v41c65 -4 178 -6 299 -6c119 0 246 2 322 6z" />
    <glyph glyph-name="k" unicode="k" horiz-adv-x="1457" 
d="M875 789l449 -623c43 -58 76 -96 139 -125v-41c-95 4 -216 6 -313 6c-60 0 -147 0 -280 -6v41c87 3 119 14 119 39c0 13 -9 31 -23 53l-268 385c-40 57 -79 99 -161 103v-404c0 -149 23 -170 154 -176v-41c-71 4 -195 6 -304 6c-131 0 -247 -2 -317 -6v41
c131 6 154 27 154 176v811c0 150 -25 170 -154 176v41c70 -4 186 -6 317 -6c109 0 233 2 304 6v-41c-131 -6 -154 -26 -154 -176v-366c117 11 206 53 319 161l125 127c56 53 79 102 79 143c0 66 -61 110 -152 113v39c98 -4 194 -6 315 -6c75 0 134 2 182 6v-39
c-94 -22 -177 -70 -278 -168z" />
    <glyph glyph-name="kcommaaccent" unicode="&#x137;" horiz-adv-x="1457" 
d="M875 789l449 -623c43 -58 76 -96 139 -125v-41c-95 4 -216 6 -313 6c-60 0 -147 0 -280 -6v41c87 3 119 14 119 39c0 13 -9 31 -23 53l-268 385c-40 57 -79 99 -161 103v-404c0 -149 23 -170 154 -176v-41c-71 4 -195 6 -304 6c-131 0 -247 -2 -317 -6v41
c131 6 154 27 154 176v811c0 150 -25 170 -154 176v41c70 -4 186 -6 317 -6c109 0 233 2 304 6v-41c-131 -6 -154 -26 -154 -176v-366c117 11 206 53 319 161l125 127c56 53 79 102 79 143c0 66 -61 110 -152 113v39c98 -4 194 -6 315 -6c75 0 134 2 182 6v-39
c-94 -22 -177 -70 -278 -168zM723 -497l-8 42c96 15 155 51 164 113c-20 -19 -51 -32 -100 -32c-88 0 -145 44 -145 129c0 82 58 133 155 133s167 -58 167 -158c0 -122 -71 -206 -233 -227z" />
    <glyph glyph-name="kgreenlandic" unicode="&#x138;" horiz-adv-x="1210" 
d="M740 676l347 -524c38 -59 74 -101 120 -109v-43c-41 2 -134 8 -215 8c-96 0 -204 -6 -252 -8v43c39 0 61 15 61 39c0 9 -3 20 -10 31l-230 343c-26 41 -53 58 -85 61v-327c0 -114 33 -147 122 -147v-43c-50 2 -162 8 -265 8c-106 0 -229 -6 -283 -8v43
c95 0 131 33 131 147v646c0 123 -32 181 -131 181v43c43 -4 86 -7 127 -7c114 0 213 9 299 29v-524c83 8 128 40 179 99l191 217c21 25 32 49 32 70c0 42 -43 72 -123 75v41c72 -4 151 -7 211 -7c74 0 140 3 186 7v-41c-93 -10 -143 -31 -200 -99z" />
    <glyph glyph-name="l" unicode="l" horiz-adv-x="1205" 
d="M691 1245v-41c-131 -6 -154 -26 -154 -176v-835c0 -128 30 -146 129 -146h80c168 0 307 107 352 412h47c-4 -44 -6 -103 -6 -168c0 -57 4 -175 14 -291c-133 6 -317 6 -448 6s-422 0 -635 -6v41c131 6 154 27 154 176v811c0 150 -25 170 -154 176v41c70 -4 193 -6 324 -6
c109 0 226 2 297 6z" />
    <glyph glyph-name="lacute" unicode="&#x13a;" horiz-adv-x="1205" 
d="M228 1413l-14 26c195 158 237 255 332 305c20 11 42 16 63 16c42 0 82 -20 102 -59c8 -16 12 -32 12 -48c0 -40 -24 -80 -68 -104c-92 -51 -198 -49 -427 -136zM691 1245v-41c-131 -6 -154 -26 -154 -176v-835c0 -128 30 -146 129 -146h80c168 0 307 107 352 412h47
c-4 -44 -6 -103 -6 -168c0 -57 4 -175 14 -291c-133 6 -317 6 -448 6s-422 0 -635 -6v41c131 6 154 27 154 176v811c0 150 -25 170 -154 176v41c70 -4 193 -6 324 -6c109 0 226 2 297 6z" />
    <glyph glyph-name="lcaron" unicode="&#x13e;" horiz-adv-x="1205" 
d="M763 1202v43c41 -3 75 -4 106 -4c69 0 118 6 168 16c7 -14 11 -49 11 -73c0 -87 -95 -209 -236 -402l-28 9c32 204 41 289 41 329c0 54 -11 82 -62 82zM691 1245v-41c-131 -6 -154 -26 -154 -176v-835c0 -128 30 -146 129 -146h80c168 0 307 107 352 412h47
c-4 -44 -6 -103 -6 -168c0 -57 4 -175 14 -291c-133 6 -317 6 -448 6s-422 0 -635 -6v41c131 6 154 27 154 176v811c0 150 -25 170 -154 176v41c70 -4 193 -6 324 -6c109 0 226 2 297 6z" />
    <glyph glyph-name="lcommaaccent" unicode="&#x13c;" horiz-adv-x="1205" 
d="M691 1245v-41c-131 -6 -154 -26 -154 -176v-835c0 -128 30 -146 129 -146h80c168 0 307 107 352 412h47c-4 -44 -6 -103 -6 -168c0 -57 4 -175 14 -291c-133 6 -317 6 -448 6s-422 0 -635 -6v41c131 6 154 27 154 176v811c0 150 -25 170 -154 176v41c70 -4 193 -6 324 -6
c109 0 226 2 297 6zM596 -497l-8 42c96 15 155 51 164 113c-20 -19 -51 -32 -100 -32c-88 0 -145 44 -145 129c0 82 58 133 155 133s167 -58 167 -158c0 -122 -71 -206 -233 -227z" />
    <glyph glyph-name="ldot" unicode="&#x140;" horiz-adv-x="1230" 
d="M690 1245v-41c-131 -6 -154 -26 -154 -176v-835c0 -128 30 -146 129 -146h80c168 0 307 107 352 412h47c-4 -44 -6 -103 -6 -168c0 -57 4 -175 14 -291c-133 6 -317 6 -448 6s-422 0 -635 -6v41c131 6 154 27 154 176v811c0 150 -25 170 -154 176v41c70 -4 193 -6 324 -6
c109 0 226 2 297 6zM1006 893c107 0 175 -60 175 -159c0 -98 -68 -158 -175 -158s-174 60 -174 158c0 99 67 159 174 159z" />
    <glyph glyph-name="lslash" unicode="&#x142;" horiz-adv-x="1206" 
d="M1099 459h47c-4 -44 -6 -103 -6 -168c0 -57 4 -175 14 -291c-133 6 -317 6 -448 6s-422 0 -635 -6v41c131 6 154 27 154 176v208l-154 -88v47l154 88v556c0 150 -25 170 -154 176v41c70 -4 193 -6 324 -6c109 0 226 2 297 6v-41c-131 -6 -154 -26 -154 -176v-424l354 201
v-47l-354 -201v-364c0 -128 30 -146 129 -146h80c168 0 307 107 352 412z" />
    <glyph glyph-name="m" unicode="m" horiz-adv-x="1807" 
d="M1743 1245v-41c-139 -6 -166 -26 -166 -176v-811c0 -149 27 -170 166 -176v-41c-73 4 -196 6 -309 6c-141 0 -274 -2 -349 -6v41c140 6 166 27 166 176v899l-469 -1126h-32l-476 1124v-840c0 -174 34 -215 211 -233v-41c-60 4 -149 6 -233 6c-65 0 -136 -2 -178 -6v41
c130 18 153 59 153 233v754c0 150 -26 170 -166 176v41c73 -4 202 -6 326 -6c68 0 132 2 183 6l339 -816l342 810h183c113 0 236 2 309 6z" />
    <glyph glyph-name="n" unicode="n" horiz-adv-x="1413" 
d="M1353 1245v-41c-130 -18 -153 -59 -153 -233v-975c-18 1 -36 1 -54 1c-19 0 -37 0 -55 -1l-819 1018v-740c0 -174 34 -215 211 -233v-41c-60 4 -149 6 -234 6c-64 0 -135 -2 -178 -6v41c131 18 154 59 154 233v754c0 150 -24 170 -154 176v41c43 -4 114 -6 178 -6
c93 0 181 2 250 6l654 -811v537c0 174 -34 215 -211 233v41c60 -4 149 -6 233 -6c65 0 136 2 178 6z" />
    <glyph glyph-name="nacute" unicode="&#x144;" horiz-adv-x="1413" 
d="M595 1413l-14 26c195 158 237 255 332 305c20 11 42 16 63 16c42 0 82 -20 102 -59c8 -16 12 -32 12 -48c0 -40 -24 -80 -68 -104c-92 -51 -198 -49 -427 -136zM1353 1245v-41c-130 -18 -153 -59 -153 -233v-975c-18 1 -36 1 -54 1c-19 0 -37 0 -55 -1l-819 1018v-740
c0 -174 34 -215 211 -233v-41c-60 4 -149 6 -234 6c-64 0 -135 -2 -178 -6v41c131 18 154 59 154 233v754c0 150 -24 170 -154 176v41c43 -4 114 -6 178 -6c93 0 181 2 250 6l654 -811v537c0 174 -34 215 -211 233v41c60 -4 149 -6 233 -6c65 0 136 2 178 6z" />
    <glyph glyph-name="ncaron" unicode="&#x148;" horiz-adv-x="1413" 
d="M1179 1733l10 -30c-174 -75 -327 -199 -411 -320h-37c-82 119 -237 244 -412 320l10 30c176 -32 361 -85 461 -133c84 48 236 101 379 133zM1353 1245v-41c-130 -18 -153 -59 -153 -233v-975c-18 1 -36 1 -54 1c-19 0 -37 0 -55 -1l-819 1018v-740
c0 -174 34 -215 211 -233v-41c-60 4 -149 6 -234 6c-64 0 -135 -2 -178 -6v41c131 18 154 59 154 233v754c0 150 -24 170 -154 176v41c43 -4 114 -6 178 -6c93 0 181 2 250 6l654 -811v537c0 174 -34 215 -211 233v41c60 -4 149 -6 233 -6c65 0 136 2 178 6z" />
    <glyph glyph-name="ncommaaccent" unicode="&#x146;" horiz-adv-x="1413" 
d="M1353 1245v-41c-130 -18 -153 -59 -153 -233v-975c-18 1 -36 1 -54 1c-19 0 -37 0 -55 -1l-819 1018v-740c0 -174 34 -215 211 -233v-41c-60 4 -149 6 -234 6c-64 0 -135 -2 -178 -6v41c131 18 154 59 154 233v754c0 150 -24 170 -154 176v41c43 -4 114 -6 178 -6
c93 0 181 2 250 6l654 -811v537c0 174 -34 215 -211 233v41c60 -4 149 -6 233 -6c65 0 136 2 178 6zM659 -497l-8 42c96 15 155 51 164 113c-20 -19 -51 -32 -100 -32c-88 0 -145 44 -145 129c0 82 58 133 155 133s167 -58 167 -158c0 -122 -71 -206 -233 -227z" />
    <glyph glyph-name="eng" unicode="&#x14b;" horiz-adv-x="1408" 
d="M985 1204v41c50 -4 119 -6 189 -6c65 0 135 2 178 6v-41c-129 -6 -154 -26 -154 -176v-897c0 -423 -115 -516 -296 -516c-132 0 -238 48 -238 164c0 87 65 138 159 138c90 0 152 -49 152 -127c0 -54 -30 -108 -93 -134c13 -2 27 -3 41 -3c145 0 214 118 226 348
c-20 -1 -40 -2 -59 -5l-819 1018v-797c0 -149 26 -170 166 -176v-41c-50 4 -119 6 -189 6c-64 0 -135 -2 -178 -6v41c131 6 154 27 154 176v811c0 150 -25 170 -154 176v41c43 -4 114 -6 178 -6c92 0 180 2 250 6l653 -811v594c0 150 -26 170 -166 176z" />
    <glyph glyph-name="ntilde" unicode="&#xf1;" horiz-adv-x="1413" 
d="M333 1453l-31 13c45 188 151 275 274 275c192 0 270 -144 430 -144c70 0 130 30 177 112l31 -12c-45 -188 -151 -275 -273 -275c-193 0 -271 145 -431 145c-71 0 -130 -32 -177 -114zM1353 1245v-41c-130 -18 -153 -59 -153 -233v-975c-18 1 -36 1 -54 1
c-19 0 -37 0 -55 -1l-819 1018v-740c0 -174 34 -215 211 -233v-41c-60 4 -149 6 -234 6c-64 0 -135 -2 -178 -6v41c131 18 154 59 154 233v754c0 150 -24 170 -154 176v41c43 -4 114 -6 178 -6c93 0 181 2 250 6l654 -811v537c0 174 -34 215 -211 233v41
c60 -4 149 -6 233 -6c65 0 136 2 178 6z" />
    <glyph glyph-name="o" unicode="o" horiz-adv-x="1555" 
d="M779 1274c413 0 690 -232 690 -639c0 -397 -287 -664 -692 -664c-414 0 -691 232 -691 639c0 398 287 664 693 664zM770 1237c-217 0 -356 -256 -356 -619c0 -374 166 -610 371 -610c217 0 356 256 356 619c0 374 -165 610 -371 610z" />
    <glyph glyph-name="oacute" unicode="&#xf3;" horiz-adv-x="1555" 
d="M609 1413l-14 26c195 158 237 255 332 305c20 11 42 16 63 16c42 0 82 -20 102 -59c8 -16 12 -32 12 -48c0 -40 -24 -80 -68 -104c-92 -51 -198 -49 -427 -136zM779 1274c413 0 690 -232 690 -639c0 -397 -287 -664 -692 -664c-414 0 -691 232 -691 639
c0 398 287 664 693 664zM770 1237c-217 0 -356 -256 -356 -619c0 -374 166 -610 371 -610c217 0 356 256 356 619c0 374 -165 610 -371 610z" />
    <glyph glyph-name="obreve" unicode="&#x14f;" horiz-adv-x="1555" 
d="M1197 1697l24 -23c-56 -124 -202 -274 -448 -274c-247 0 -392 150 -449 274l26 22c71 -55 206 -124 423 -124s352 70 424 125zM779 1274c413 0 690 -232 690 -639c0 -397 -287 -664 -692 -664c-414 0 -691 232 -691 639c0 398 287 664 693 664zM770 1237
c-217 0 -356 -256 -356 -619c0 -374 166 -610 371 -610c217 0 356 256 356 619c0 374 -165 610 -371 610z" />
    <glyph glyph-name="ocircumflex" unicode="&#xf4;" horiz-adv-x="1555" 
d="M759 1749h37c81 -119 236 -243 411 -319l-10 -30c-175 31 -361 84 -461 132c-83 -48 -236 -101 -379 -132l-10 30c174 74 328 199 412 319zM779 1274c413 0 690 -232 690 -639c0 -397 -287 -664 -692 -664c-414 0 -691 232 -691 639c0 398 287 664 693 664zM770 1237
c-217 0 -356 -256 -356 -619c0 -374 166 -610 371 -610c217 0 356 256 356 619c0 374 -165 610 -371 610z" />
    <glyph glyph-name="odieresis" unicode="&#xf6;" horiz-adv-x="1555" 
d="M530 1740c82 0 154 -72 154 -154c0 -85 -72 -154 -154 -154c-85 0 -155 69 -155 154c0 82 70 154 155 154zM1020 1740c82 0 155 -72 155 -154c0 -85 -73 -154 -155 -154c-85 0 -154 69 -154 154c0 82 69 154 154 154zM779 1274c413 0 690 -232 690 -639
c0 -397 -287 -664 -692 -664c-414 0 -691 232 -691 639c0 398 287 664 693 664zM770 1237c-217 0 -356 -256 -356 -619c0 -374 166 -610 371 -610c217 0 356 256 356 619c0 374 -165 610 -371 610z" />
    <glyph glyph-name="ograve" unicode="&#xf2;" horiz-adv-x="1555" 
d="M908 1439l-14 -26c-228 87 -335 85 -426 136c-45 24 -69 64 -69 104c0 16 4 33 12 48c20 39 61 59 102 59c22 0 43 -5 63 -16c95 -50 138 -147 332 -305zM779 1274c413 0 690 -232 690 -639c0 -397 -287 -664 -692 -664c-414 0 -691 232 -691 639c0 398 287 664 693 664z
M770 1237c-217 0 -356 -256 -356 -619c0 -374 166 -610 371 -610c217 0 356 256 356 619c0 374 -165 610 -371 610z" />
    <glyph glyph-name="ohungarumlaut" unicode="&#x151;" horiz-adv-x="1555" 
d="M460 1429l-20 23c150 168 190 271 264 330c24 18 50 26 75 26c37 0 71 -17 93 -48c14 -20 21 -41 21 -62c0 -35 -19 -70 -56 -97c-75 -54 -183 -73 -377 -172zM892 1429l-20 23c150 168 190 271 265 330c23 18 49 26 75 26c36 0 71 -17 93 -48c14 -19 21 -40 21 -61
c0 -35 -19 -70 -57 -98c-75 -54 -182 -73 -377 -172zM779 1274c413 0 690 -232 690 -639c0 -397 -287 -664 -692 -664c-414 0 -691 232 -691 639c0 398 287 664 693 664zM770 1237c-217 0 -356 -256 -356 -619c0 -374 166 -610 371 -610c217 0 356 256 356 619
c0 374 -165 610 -371 610z" />
    <glyph glyph-name="omacron" unicode="&#x14d;" horiz-adv-x="1555" 
d="M1180 1530h-819v51h819v-51zM779 1274c413 0 690 -232 690 -639c0 -397 -287 -664 -692 -664c-414 0 -691 232 -691 639c0 398 287 664 693 664zM770 1237c-217 0 -356 -256 -356 -619c0 -374 166 -610 371 -610c217 0 356 256 356 619c0 374 -165 610 -371 610z" />
    <glyph glyph-name="oslash" unicode="&#xf8;" horiz-adv-x="1555" 
d="M1324 1366l-132 -194c175 -105 278 -288 278 -537c0 -397 -287 -664 -692 -664c-137 0 -259 25 -361 74l-141 -192l-40 28l137 188c-180 104 -286 289 -286 541c0 398 287 664 693 664c141 0 266 -27 369 -79l136 198zM496 223l549 831c-68 117 -165 183 -274 183
c-217 0 -356 -256 -356 -619c0 -159 30 -294 81 -395zM1070 1005l-546 -833c67 -105 160 -164 262 -164c217 0 356 256 356 619c0 151 -27 279 -72 378z" />
    <glyph glyph-name="otilde" unicode="&#xf5;" horiz-adv-x="1555" 
d="M347 1453l-31 13c45 188 151 275 274 275c192 0 270 -144 430 -144c70 0 130 30 177 112l31 -12c-45 -188 -151 -275 -273 -275c-193 0 -271 145 -431 145c-71 0 -130 -32 -177 -114zM779 1274c413 0 690 -232 690 -639c0 -397 -287 -664 -692 -664
c-414 0 -691 232 -691 639c0 398 287 664 693 664zM770 1237c-217 0 -356 -256 -356 -619c0 -374 166 -610 371 -610c217 0 356 256 356 619c0 374 -165 610 -371 610z" />
    <glyph glyph-name="oe" unicode="&#x153;" horiz-adv-x="1945" 
d="M1796 414h47c-4 -38 -6 -90 -6 -148c0 -52 4 -160 14 -266c-130 6 -311 6 -440 6c-108 0 -326 0 -510 -4c-52 -19 -107 -31 -163 -31c-414 0 -649 232 -649 639c0 398 258 664 651 664c62 0 125 -13 180 -31c183 -4 387 -4 491 -4c116 0 281 0 399 6
c-10 -98 -14 -198 -14 -246c0 -49 2 -96 6 -127h-47c-33 243 -120 326 -266 326h-51c-108 0 -142 -20 -142 -170v-381h60c134 0 146 123 170 209h47c-6 -69 -7 -115 -7 -152c0 -29 1 -53 1 -77c0 -56 2 -105 12 -230h-47c-23 113 -44 209 -176 209h-60v-389
c0 -149 34 -170 142 -170h63c184 0 259 93 295 367zM983 217v811c0 158 -133 209 -251 209c-193 0 -315 -231 -315 -619c0 -399 146 -610 329 -610c106 0 237 63 237 209z" />
    <glyph glyph-name="p" unicode="p" horiz-adv-x="1261" 
d="M537 504v-287c0 -149 27 -170 166 -176v-41c-81 4 -218 6 -346 6c-117 0 -225 -2 -287 -6v41c131 6 154 27 154 176v811c0 150 -25 170 -154 176v41c62 -4 175 -6 274 -6c144 0 290 4 347 4c365 0 526 -129 526 -342c0 -186 -125 -397 -592 -397h-88zM537 545h68
c235 0 284 155 284 334c0 215 -59 325 -225 325c-105 0 -127 -35 -127 -176v-483z" />
    <glyph glyph-name="thorn" unicode="&#xfe;" horiz-adv-x="1230" 
d="M537 264v-47c0 -149 23 -170 154 -176v-41c-71 4 -195 6 -304 6c-126 0 -250 -2 -317 -6v41c131 6 154 27 154 176v811c0 150 -25 170 -154 176v41c67 -4 191 -6 317 -6c109 0 233 2 304 6v-41c-131 -6 -154 -26 -154 -176v-26c54 1 99 2 123 2c353 0 527 -142 527 -342
c0 -175 -126 -398 -592 -398h-58zM537 305h37c215 0 285 156 285 334c0 215 -86 326 -250 326h-72v-660z" />
    <glyph glyph-name="q" unicode="q" horiz-adv-x="1557" 
d="M1687 -63l32 -15c-56 -198 -203 -307 -436 -307c-291 0 -572 145 -831 231c-53 -25 -118 -43 -171 -43c-56 0 -96 16 -96 54c0 34 36 55 112 55c45 0 104 -11 155 -29c98 25 161 64 239 92c-365 31 -603 258 -603 635c0 398 287 664 693 664c413 0 690 -232 690 -639
c0 -377 -259 -637 -632 -662c-129 -13 -201 -73 -328 -105c13 -1 28 -2 44 -2h8c84 0 202 11 295 11c18 0 34 0 49 -1c191 -8 342 -58 492 -58c168 0 239 35 288 119zM416 618c0 -374 166 -610 371 -610c217 0 356 256 356 619c0 374 -165 610 -371 610
c-217 0 -356 -256 -356 -619z" />
    <glyph glyph-name="r" unicode="r" 
d="M1366 113l29 -27c-61 -70 -135 -115 -264 -115c-165 0 -240 74 -263 167l-59 241c-32 160 -93 190 -204 190h-68v-352c0 -149 24 -170 154 -176v-41c-79 4 -211 6 -334 6c-117 0 -225 -2 -287 -6v41c131 6 154 27 154 176v811c0 152 -25 170 -154 176v41
c62 -4 175 -6 274 -6c136 0 274 4 326 4c379 0 547 -124 547 -313c0 -145 -103 -308 -472 -345c20 -2 39 -4 60 -7c176 -21 307 -69 344 -221l43 -183c19 -80 44 -106 86 -106c31 0 63 20 88 45zM537 610h88c219 0 264 132 264 298c0 190 -64 296 -246 296
c-88 0 -106 -35 -106 -176v-418z" />
    <glyph glyph-name="racute" unicode="&#x155;" 
d="M523 1413l-14 26c195 158 237 255 332 305c20 11 42 16 63 16c42 0 82 -20 102 -59c8 -16 12 -32 12 -48c0 -40 -24 -80 -68 -104c-92 -51 -198 -49 -427 -136zM1366 113l29 -27c-61 -70 -135 -115 -264 -115c-165 0 -240 74 -263 167l-59 241c-32 160 -93 190 -204 190
h-68v-352c0 -149 24 -170 154 -176v-41c-79 4 -211 6 -334 6c-117 0 -225 -2 -287 -6v41c131 6 154 27 154 176v811c0 152 -25 170 -154 176v41c62 -4 175 -6 274 -6c136 0 274 4 326 4c379 0 547 -124 547 -313c0 -145 -103 -308 -472 -345c20 -2 39 -4 60 -7
c176 -21 307 -69 344 -221l43 -183c19 -80 44 -106 86 -106c31 0 63 20 88 45zM537 610h88c219 0 264 132 264 298c0 190 -64 296 -246 296c-88 0 -106 -35 -106 -176v-418z" />
    <glyph glyph-name="rcaron" unicode="&#x159;" 
d="M706 1383h-37c-82 119 -237 244 -412 320l10 30c176 -32 361 -85 461 -133c84 48 236 101 379 133l10 -30c-174 -75 -327 -199 -411 -320zM1366 113l29 -27c-61 -70 -135 -115 -264 -115c-165 0 -240 74 -263 167l-59 241c-32 160 -93 190 -204 190h-68v-352
c0 -149 24 -170 154 -176v-41c-79 4 -211 6 -334 6c-117 0 -225 -2 -287 -6v41c131 6 154 27 154 176v811c0 152 -25 170 -154 176v41c62 -4 175 -6 274 -6c136 0 274 4 326 4c379 0 547 -124 547 -313c0 -145 -103 -308 -472 -345c20 -2 39 -4 60 -7
c176 -21 307 -69 344 -221l43 -183c19 -80 44 -106 86 -106c31 0 63 20 88 45zM537 610h88c219 0 264 132 264 298c0 190 -64 296 -246 296c-88 0 -106 -35 -106 -176v-418z" />
    <glyph glyph-name="rcommaaccent" unicode="&#x157;" 
d="M1366 113l29 -27c-61 -70 -135 -115 -264 -115c-165 0 -240 74 -263 167l-59 241c-32 160 -93 190 -204 190h-68v-352c0 -149 24 -170 154 -176v-41c-79 4 -211 6 -334 6c-117 0 -225 -2 -287 -6v41c131 6 154 27 154 176v811c0 152 -25 170 -154 176v41
c62 -4 175 -6 274 -6c136 0 274 4 326 4c379 0 547 -124 547 -313c0 -145 -103 -308 -472 -345c20 -2 39 -4 60 -7c176 -21 307 -69 344 -221l43 -183c19 -80 44 -106 86 -106c31 0 63 20 88 45zM537 610h88c219 0 264 132 264 298c0 190 -64 296 -246 296
c-88 0 -106 -35 -106 -176v-418zM653 -497l-8 42c96 15 155 51 164 113c-20 -19 -51 -32 -100 -32c-88 0 -145 44 -145 129c0 82 58 133 155 133s167 -58 167 -158c0 -122 -71 -206 -233 -227z" />
    <glyph glyph-name="s" unicode="s" horiz-adv-x="1183" 
d="M119 485h47c19 -280 150 -467 409 -467c111 0 228 53 228 188c0 118 -100 185 -282 289c-212 121 -400 248 -400 447c0 222 207 332 471 332c139 0 224 -39 287 -76c32 -19 51 -29 69 -29c27 0 37 33 45 91h47c-6 -74 -10 -164 -10 -426h-47c-29 241 -160 395 -370 395
c-137 0 -228 -67 -228 -161c0 -130 140 -201 330 -316c197 -112 381 -226 381 -433c0 -231 -216 -348 -506 -348c-149 0 -247 47 -316 80c-34 17 -55 25 -71 25c-27 0 -37 -31 -45 -90h-47c6 85 8 206 8 499z" />
    <glyph glyph-name="sacute" unicode="&#x15b;" horiz-adv-x="1183" 
d="M440 1413l-14 26c195 158 237 255 332 305c20 11 42 16 63 16c42 0 82 -20 102 -59c8 -16 12 -32 12 -48c0 -40 -24 -80 -68 -104c-92 -51 -198 -49 -427 -136zM119 485h47c19 -280 150 -467 409 -467c111 0 228 53 228 188c0 118 -100 185 -282 289
c-212 121 -400 248 -400 447c0 222 207 332 471 332c139 0 224 -39 287 -76c32 -19 51 -29 69 -29c27 0 37 33 45 91h47c-6 -74 -10 -164 -10 -426h-47c-29 241 -160 395 -370 395c-137 0 -228 -67 -228 -161c0 -130 140 -201 330 -316c197 -112 381 -226 381 -433
c0 -231 -216 -348 -506 -348c-149 0 -247 47 -316 80c-34 17 -55 25 -71 25c-27 0 -37 -31 -45 -90h-47c6 85 8 206 8 499z" />
    <glyph glyph-name="scaron" unicode="&#x161;" horiz-adv-x="1183" 
d="M1024 1733l10 -30c-174 -75 -327 -199 -411 -320h-37c-82 119 -237 244 -412 320l10 30c176 -32 361 -85 461 -133c84 48 236 101 379 133zM119 485h47c19 -280 150 -467 409 -467c111 0 228 53 228 188c0 118 -100 185 -282 289c-212 121 -400 248 -400 447
c0 222 207 332 471 332c139 0 224 -39 287 -76c32 -19 51 -29 69 -29c27 0 37 33 45 91h47c-6 -74 -10 -164 -10 -426h-47c-29 241 -160 395 -370 395c-137 0 -228 -67 -228 -161c0 -130 140 -201 330 -316c197 -112 381 -226 381 -433c0 -231 -216 -348 -506 -348
c-149 0 -247 47 -316 80c-34 17 -55 25 -71 25c-27 0 -37 -31 -45 -90h-47c6 85 8 206 8 499z" />
    <glyph glyph-name="scedilla" unicode="&#x15f;" horiz-adv-x="1183" 
d="M1030 834h-47c-29 241 -160 395 -370 395c-137 0 -228 -67 -228 -161c0 -130 140 -201 330 -316c197 -112 381 -226 381 -433c0 -229 -213 -346 -499 -348l-32 -104c47 16 98 24 158 24c100 0 153 -44 153 -109c0 -117 -150 -167 -324 -167c-79 0 -146 10 -190 25l10 37
c20 -3 60 -9 103 -9c86 0 186 21 186 84c0 37 -35 53 -93 53c-22 0 -57 -4 -81 -14l55 182c-123 8 -207 49 -268 78c-34 17 -55 25 -71 25c-27 0 -37 -31 -45 -90h-47c6 85 8 206 8 499h47c19 -280 150 -467 409 -467c111 0 228 53 228 188c0 118 -100 185 -282 289
c-212 121 -400 248 -400 447c0 222 207 332 471 332c139 0 224 -39 287 -76c32 -19 51 -29 69 -29c27 0 37 33 45 91h47c-6 -74 -10 -164 -10 -426z" />
    <glyph glyph-name="scircumflex" unicode="&#x15d;" horiz-adv-x="1183" 
d="M590 1749h37c81 -119 236 -243 411 -319l-10 -30c-175 31 -361 84 -461 132c-83 -48 -236 -101 -379 -132l-10 30c174 74 328 199 412 319zM119 485h47c19 -280 150 -467 409 -467c111 0 228 53 228 188c0 118 -100 185 -282 289c-212 121 -400 248 -400 447
c0 222 207 332 471 332c139 0 224 -39 287 -76c32 -19 51 -29 69 -29c27 0 37 33 45 91h47c-6 -74 -10 -164 -10 -426h-47c-29 241 -160 395 -370 395c-137 0 -228 -67 -228 -161c0 -130 140 -201 330 -316c197 -112 381 -226 381 -433c0 -231 -216 -348 -506 -348
c-149 0 -247 47 -316 80c-34 17 -55 25 -71 25c-27 0 -37 -31 -45 -90h-47c6 85 8 206 8 499z" />
    <glyph glyph-name="scommaaccent" unicode="&#x219;" horiz-adv-x="1183" 
d="M119 485h47c19 -280 150 -467 409 -467c111 0 228 53 228 188c0 118 -100 185 -282 289c-212 121 -400 248 -400 447c0 222 207 332 471 332c139 0 224 -39 287 -76c32 -19 51 -29 69 -29c27 0 37 33 45 91h47c-6 -74 -10 -164 -10 -426h-47c-29 241 -160 395 -370 395
c-137 0 -228 -67 -228 -161c0 -130 140 -201 330 -316c197 -112 381 -226 381 -433c0 -231 -216 -348 -506 -348c-149 0 -247 47 -316 80c-34 17 -55 25 -71 25c-27 0 -37 -31 -45 -90h-47c6 85 8 206 8 499zM530 -497l-8 42c96 15 155 51 164 113c-20 -19 -51 -32 -100 -32
c-88 0 -145 44 -145 129c0 82 58 133 155 133s167 -58 167 -158c0 -122 -71 -206 -233 -227z" />
    <glyph glyph-name="germandbls" unicode="&#xdf;" horiz-adv-x="1498" 
d="M171 217v391c0 461 238 666 642 666c223 0 404 -53 542 -158l-293 -396c222 -74 373 -194 373 -380c0 -216 -215 -369 -505 -369c-104 0 -167 15 -220 40c-81 38 -119 110 -119 193c0 106 70 173 157 173c88 0 149 -65 149 -162c0 -93 -57 -152 -122 -179
c19 -15 66 -21 93 -21c127 0 227 114 227 334c0 224 -121 366 -344 435l289 414c-44 29 -130 39 -188 39c-201 0 -355 -103 -355 -504v-516c0 -137 13 -174 88 -176v-41c-74 0 -125 6 -274 6c-85 0 -224 -2 -293 -6v41c129 6 153 27 153 176z" />
    <glyph glyph-name="t" unicode="t" horiz-adv-x="1329" 
d="M113 786h-47c4 43 6 110 6 181c0 54 -4 167 -15 278c178 -6 427 -6 602 -6c179 0 432 0 613 6c-10 -111 -15 -224 -15 -278c0 -71 3 -138 7 -181h-47c-56 304 -138 412 -332 412h-64v-960c0 -166 35 -191 207 -197v-41c-74 4 -254 6 -369 6c-122 0 -292 -2 -358 -6v41
c172 6 207 31 207 197v960h-64c-194 0 -276 -108 -331 -412z" />
    <glyph glyph-name="tbar" unicode="&#x167;" horiz-adv-x="1331" 
d="M114 786h-47c4 43 6 110 6 181c0 54 -4 167 -15 278c178 -6 427 -6 602 -6c179 0 432 0 613 6c-10 -111 -15 -224 -15 -278c0 -71 3 -138 7 -181h-47c-56 304 -138 412 -332 412h-64v-551h212v-41h-212v-368c0 -166 35 -191 207 -197v-41c-74 4 -254 6 -369 6
c-122 0 -292 -2 -358 -6v41c172 6 207 31 207 197v368h-239v41h239v551h-64c-194 0 -276 -108 -331 -412z" />
    <glyph glyph-name="tcaron" unicode="&#x165;" horiz-adv-x="1329" 
d="M1084 1733l10 -30c-174 -75 -327 -199 -411 -320h-37c-82 119 -237 244 -412 320l10 30c176 -32 361 -85 461 -133c84 48 236 101 379 133zM113 786h-47c4 43 6 110 6 181c0 54 -4 167 -15 278c178 -6 427 -6 602 -6c179 0 432 0 613 6c-10 -111 -15 -224 -15 -278
c0 -71 3 -138 7 -181h-47c-56 304 -138 412 -332 412h-64v-960c0 -166 35 -191 207 -197v-41c-74 4 -254 6 -369 6c-122 0 -292 -2 -358 -6v41c172 6 207 31 207 197v960h-64c-194 0 -276 -108 -331 -412z" />
    <glyph glyph-name="tcedilla" unicode="&#x163;" horiz-adv-x="1329" 
d="M113 786h-47c4 43 6 110 6 181c0 54 -4 167 -15 278c178 -6 427 -6 602 -6c179 0 432 0 613 6c-10 -111 -15 -224 -15 -278c0 -71 3 -138 7 -181h-47c-56 304 -138 412 -332 412h-64v-960c0 -166 35 -191 207 -197v-41c-66 4 -218 6 -331 6l-43 -139c47 16 98 24 158 24
c100 0 153 -44 153 -109c0 -117 -150 -167 -324 -167c-79 0 -146 10 -190 25l10 37c20 -3 60 -9 103 -9c86 0 186 21 186 84c0 37 -35 53 -93 53c-22 0 -57 -4 -81 -14l65 215c-120 0 -277 -2 -340 -6v41c172 6 207 31 207 197v960h-64c-194 0 -276 -108 -331 -412z" />
    <glyph glyph-name="uni021B" unicode="&#x21b;" horiz-adv-x="1329" 
d="M113 786h-47c4 43 6 110 6 181c0 54 -4 167 -15 278c178 -6 427 -6 602 -6c179 0 432 0 613 6c-10 -111 -15 -224 -15 -278c0 -71 3 -138 7 -181h-47c-56 304 -138 412 -332 412h-64v-960c0 -166 35 -191 207 -197v-41c-74 4 -254 6 -369 6c-122 0 -292 -2 -358 -6v41
c172 6 207 31 207 197v960h-64c-194 0 -276 -108 -331 -412zM590 -497l-8 42c96 15 155 51 164 113c-20 -19 -51 -32 -100 -32c-88 0 -145 44 -145 129c0 82 58 133 155 133s167 -58 167 -158c0 -122 -71 -206 -233 -227z" />
    <glyph glyph-name="u" unicode="u" 
d="M1339 1245v-41c-141 -18 -165 -71 -165 -270v-379c0 -182 -23 -313 -84 -414c-66 -102 -201 -170 -367 -170c-138 0 -265 24 -361 90c-141 108 -176 222 -176 488v479c0 150 -24 170 -153 176v41c67 -4 185 -6 311 -6c114 0 236 2 309 6v-41c-130 -6 -153 -26 -153 -176
v-514c0 -253 29 -459 291 -459c263 0 335 204 335 477v377c0 225 -26 277 -198 295v41c53 -4 148 -6 221 -6c70 0 145 2 190 6z" />
    <glyph glyph-name="uacute" unicode="&#xfa;" 
d="M535 1413l-14 26c195 158 237 255 332 305c20 11 42 16 63 16c42 0 82 -20 102 -59c8 -16 12 -32 12 -48c0 -40 -24 -80 -68 -104c-92 -51 -198 -49 -427 -136zM1339 1245v-41c-141 -18 -165 -71 -165 -270v-379c0 -182 -23 -313 -84 -414c-66 -102 -201 -170 -367 -170
c-138 0 -265 24 -361 90c-141 108 -176 222 -176 488v479c0 150 -24 170 -153 176v41c67 -4 185 -6 311 -6c114 0 236 2 309 6v-41c-130 -6 -153 -26 -153 -176v-514c0 -253 29 -459 291 -459c263 0 335 204 335 477v377c0 225 -26 277 -198 295v41c53 -4 148 -6 221 -6
c70 0 145 2 190 6z" />
    <glyph glyph-name="ubreve" unicode="&#x16d;" 
d="M1123 1697l24 -23c-56 -124 -202 -274 -448 -274c-247 0 -392 150 -449 274l26 22c71 -55 206 -124 423 -124s352 70 424 125zM1339 1245v-41c-141 -18 -165 -71 -165 -270v-379c0 -182 -23 -313 -84 -414c-66 -102 -201 -170 -367 -170c-138 0 -265 24 -361 90
c-141 108 -176 222 -176 488v479c0 150 -24 170 -153 176v41c67 -4 185 -6 311 -6c114 0 236 2 309 6v-41c-130 -6 -153 -26 -153 -176v-514c0 -253 29 -459 291 -459c263 0 335 204 335 477v377c0 225 -26 277 -198 295v41c53 -4 148 -6 221 -6c70 0 145 2 190 6z" />
    <glyph glyph-name="ucircumflex" unicode="&#xfb;" 
d="M685 1749h37c81 -119 236 -243 411 -319l-10 -30c-175 31 -361 84 -461 132c-83 -48 -236 -101 -379 -132l-10 30c174 74 328 199 412 319zM1339 1245v-41c-141 -18 -165 -71 -165 -270v-379c0 -182 -23 -313 -84 -414c-66 -102 -201 -170 -367 -170
c-138 0 -265 24 -361 90c-141 108 -176 222 -176 488v479c0 150 -24 170 -153 176v41c67 -4 185 -6 311 -6c114 0 236 2 309 6v-41c-130 -6 -153 -26 -153 -176v-514c0 -253 29 -459 291 -459c263 0 335 204 335 477v377c0 225 -26 277 -198 295v41c53 -4 148 -6 221 -6
c70 0 145 2 190 6z" />
    <glyph glyph-name="udieresis" unicode="&#xfc;" 
d="M456 1740c82 0 154 -72 154 -154c0 -85 -72 -154 -154 -154c-85 0 -155 69 -155 154c0 82 70 154 155 154zM946 1740c82 0 155 -72 155 -154c0 -85 -73 -154 -155 -154c-85 0 -154 69 -154 154c0 82 69 154 154 154zM1339 1245v-41c-141 -18 -165 -71 -165 -270v-379
c0 -182 -23 -313 -84 -414c-66 -102 -201 -170 -367 -170c-138 0 -265 24 -361 90c-141 108 -176 222 -176 488v479c0 150 -24 170 -153 176v41c67 -4 185 -6 311 -6c114 0 236 2 309 6v-41c-130 -6 -153 -26 -153 -176v-514c0 -253 29 -459 291 -459c263 0 335 204 335 477
v377c0 225 -26 277 -198 295v41c53 -4 148 -6 221 -6c70 0 145 2 190 6z" />
    <glyph glyph-name="ugrave" unicode="&#xf9;" 
d="M834 1439l-14 -26c-228 87 -335 85 -426 136c-45 24 -69 64 -69 104c0 16 4 33 12 48c20 39 61 59 102 59c22 0 43 -5 63 -16c95 -50 138 -147 332 -305zM1339 1245v-41c-141 -18 -165 -71 -165 -270v-379c0 -182 -23 -313 -84 -414c-66 -102 -201 -170 -367 -170
c-138 0 -265 24 -361 90c-141 108 -176 222 -176 488v479c0 150 -24 170 -153 176v41c67 -4 185 -6 311 -6c114 0 236 2 309 6v-41c-130 -6 -153 -26 -153 -176v-514c0 -253 29 -459 291 -459c263 0 335 204 335 477v377c0 225 -26 277 -198 295v41c53 -4 148 -6 221 -6
c70 0 145 2 190 6z" />
    <glyph glyph-name="uhungarumlaut" unicode="&#x171;" 
d="M386 1429l-20 23c150 168 190 271 264 330c24 18 50 26 75 26c37 0 71 -17 93 -48c14 -20 21 -41 21 -62c0 -35 -19 -70 -56 -97c-75 -54 -183 -73 -377 -172zM818 1429l-20 23c150 168 190 271 265 330c23 18 49 26 75 26c36 0 71 -17 93 -48c14 -19 21 -40 21 -61
c0 -35 -19 -70 -57 -98c-75 -54 -182 -73 -377 -172zM1339 1245v-41c-141 -18 -165 -71 -165 -270v-379c0 -182 -23 -313 -84 -414c-66 -102 -201 -170 -367 -170c-138 0 -265 24 -361 90c-141 108 -176 222 -176 488v479c0 150 -24 170 -153 176v41c67 -4 185 -6 311 -6
c114 0 236 2 309 6v-41c-130 -6 -153 -26 -153 -176v-514c0 -253 29 -459 291 -459c263 0 335 204 335 477v377c0 225 -26 277 -198 295v41c53 -4 148 -6 221 -6c70 0 145 2 190 6z" />
    <glyph glyph-name="umacron" unicode="&#x16b;" 
d="M1106 1530h-819v51h819v-51zM1339 1245v-41c-141 -18 -165 -71 -165 -270v-379c0 -182 -23 -313 -84 -414c-66 -102 -201 -170 -367 -170c-138 0 -265 24 -361 90c-141 108 -176 222 -176 488v479c0 150 -24 170 -153 176v41c67 -4 185 -6 311 -6c114 0 236 2 309 6v-41
c-130 -6 -153 -26 -153 -176v-514c0 -253 29 -459 291 -459c263 0 335 204 335 477v377c0 225 -26 277 -198 295v41c53 -4 148 -6 221 -6c70 0 145 2 190 6z" />
    <glyph glyph-name="uogonek" unicode="&#x173;" 
d="M928 1204v41c53 -4 148 -6 221 -6c70 0 145 2 190 6v-41c-141 -18 -165 -71 -165 -270v-379c0 -182 -23 -313 -84 -414c-47 -73 -131 -129 -235 -155c-124 -50 -168 -120 -168 -175s29 -83 85 -83c47 0 102 25 131 55l28 -29c-73 -97 -159 -139 -281 -139
c-119 0 -186 53 -186 140c0 91 87 165 239 216c-130 2 -250 27 -341 90c-141 108 -176 222 -176 488v479c0 150 -24 170 -153 176v41c67 -4 185 -6 311 -6c114 0 236 2 309 6v-41c-130 -6 -153 -26 -153 -176v-514c0 -253 29 -459 291 -459c263 0 335 204 335 477v377
c0 225 -26 277 -198 295z" />
    <glyph glyph-name="uring" unicode="&#x16f;" 
d="M701 1784c119 0 224 -77 224 -199c0 -124 -105 -201 -224 -201c-116 0 -221 77 -221 201c0 122 105 199 221 199zM701 1741c-78 0 -164 -56 -164 -158c0 -105 86 -156 164 -156c80 0 166 51 166 156c0 102 -86 158 -166 158zM1339 1245v-41c-141 -18 -165 -71 -165 -270
v-379c0 -182 -23 -313 -84 -414c-66 -102 -201 -170 -367 -170c-138 0 -265 24 -361 90c-141 108 -176 222 -176 488v479c0 150 -24 170 -153 176v41c67 -4 185 -6 311 -6c114 0 236 2 309 6v-41c-130 -6 -153 -26 -153 -176v-514c0 -253 29 -459 291 -459
c263 0 335 204 335 477v377c0 225 -26 277 -198 295v41c53 -4 148 -6 221 -6c70 0 145 2 190 6z" />
    <glyph glyph-name="utilde" unicode="&#x169;" 
d="M273 1453l-31 13c45 188 151 275 274 275c192 0 270 -144 430 -144c70 0 130 30 177 112l31 -12c-45 -188 -151 -275 -273 -275c-193 0 -271 145 -431 145c-71 0 -130 -32 -177 -114zM1339 1245v-41c-141 -18 -165 -71 -165 -270v-379c0 -182 -23 -313 -84 -414
c-66 -102 -201 -170 -367 -170c-138 0 -265 24 -361 90c-141 108 -176 222 -176 488v479c0 150 -24 170 -153 176v41c67 -4 185 -6 311 -6c114 0 236 2 309 6v-41c-130 -6 -153 -26 -153 -176v-514c0 -253 29 -459 291 -459c263 0 335 204 335 477v377
c0 225 -26 277 -198 295v41c53 -4 148 -6 221 -6c70 0 145 2 190 6z" />
    <glyph glyph-name="v" unicode="v" horiz-adv-x="1284" 
d="M897 1204v41c78 -4 166 -6 252 -6c51 0 111 2 149 6v-41c-70 -26 -127 -98 -191 -252l-403 -956c-15 2 -31 3 -47 3s-32 -1 -48 -3l-505 1077c-45 98 -89 129 -129 131v41c64 -4 171 -6 269 -6c131 0 254 2 323 6v-41c-86 -4 -133 -23 -133 -78c0 -24 9 -55 27 -94
l330 -716l206 481c45 108 66 191 66 253c0 107 -63 150 -166 154z" />
    <glyph glyph-name="w" unicode="w" horiz-adv-x="1880" 
d="M1490 1204v41c78 -4 150 -6 236 -6c51 0 128 2 166 6v-41c-68 -25 -134 -97 -190 -253l-343 -955c-15 2 -31 3 -47 3s-32 -1 -48 -3l-307 753l-302 -753c-16 2 -32 3 -48 3s-31 -1 -47 -3l-456 1077c-43 98 -89 129 -129 131v41c64 -4 171 -6 269 -6c121 0 234 2 299 6
v-41c-66 -4 -103 -29 -103 -84c0 -23 7 -52 21 -88l278 -698l194 475l-108 264c-38 95 -90 129 -129 131v41c64 -4 171 -6 268 -6c126 0 244 2 311 6v-41c-87 -4 -127 -24 -127 -80c0 -24 7 -54 21 -92l261 -698l162 454c40 110 58 194 58 256c0 113 -61 156 -160 160z" />
    <glyph glyph-name="wacute" unicode="&#x1e83;" horiz-adv-x="1880" 
d="M811 1413l-14 26c195 158 237 255 332 305c20 11 42 16 63 16c42 0 82 -20 102 -59c8 -16 12 -32 12 -48c0 -40 -24 -80 -68 -104c-92 -51 -198 -49 -427 -136zM1490 1204v41c78 -4 150 -6 236 -6c51 0 128 2 166 6v-41c-68 -25 -134 -97 -190 -253l-343 -955
c-15 2 -31 3 -47 3s-32 -1 -48 -3l-307 753l-302 -753c-16 2 -32 3 -48 3s-31 -1 -47 -3l-456 1077c-43 98 -89 129 -129 131v41c64 -4 171 -6 269 -6c121 0 234 2 299 6v-41c-66 -4 -103 -29 -103 -84c0 -23 7 -52 21 -88l278 -698l194 475l-108 264
c-38 95 -90 129 -129 131v41c64 -4 171 -6 268 -6c126 0 244 2 311 6v-41c-87 -4 -127 -24 -127 -80c0 -24 7 -54 21 -92l261 -698l162 454c40 110 58 194 58 256c0 113 -61 156 -160 160z" />
    <glyph glyph-name="wcircumflex" unicode="&#x175;" horiz-adv-x="1880" 
d="M1409 1430l-10 -30c-175 31 -361 84 -461 132c-83 -48 -236 -101 -379 -132l-10 30c174 74 328 199 412 319h37c81 -119 236 -243 411 -319zM1490 1204v41c78 -4 150 -6 236 -6c51 0 128 2 166 6v-41c-68 -25 -134 -97 -190 -253l-343 -955c-15 2 -31 3 -47 3
s-32 -1 -48 -3l-307 753l-302 -753c-16 2 -32 3 -48 3s-31 -1 -47 -3l-456 1077c-43 98 -89 129 -129 131v41c64 -4 171 -6 269 -6c121 0 234 2 299 6v-41c-66 -4 -103 -29 -103 -84c0 -23 7 -52 21 -88l278 -698l194 475l-108 264c-38 95 -90 129 -129 131v41
c64 -4 171 -6 268 -6c126 0 244 2 311 6v-41c-87 -4 -127 -24 -127 -80c0 -24 7 -54 21 -92l261 -698l162 454c40 110 58 194 58 256c0 113 -61 156 -160 160z" />
    <glyph glyph-name="wdieresis" unicode="&#x1e85;" horiz-adv-x="1880" 
d="M732 1432c-85 0 -155 69 -155 154c0 82 70 154 155 154c82 0 154 -72 154 -154c0 -85 -72 -154 -154 -154zM1222 1432c-85 0 -154 69 -154 154c0 82 69 154 154 154c82 0 155 -72 155 -154c0 -85 -73 -154 -155 -154zM1490 1204v41c78 -4 150 -6 236 -6c51 0 128 2 166 6
v-41c-68 -25 -134 -97 -190 -253l-343 -955c-15 2 -31 3 -47 3s-32 -1 -48 -3l-307 753l-302 -753c-16 2 -32 3 -48 3s-31 -1 -47 -3l-456 1077c-43 98 -89 129 -129 131v41c64 -4 171 -6 269 -6c121 0 234 2 299 6v-41c-66 -4 -103 -29 -103 -84c0 -23 7 -52 21 -88
l278 -698l194 475l-108 264c-38 95 -90 129 -129 131v41c64 -4 171 -6 268 -6c126 0 244 2 311 6v-41c-87 -4 -127 -24 -127 -80c0 -24 7 -54 21 -92l261 -698l162 454c40 110 58 194 58 256c0 113 -61 156 -160 160z" />
    <glyph glyph-name="wgrave" unicode="&#x1e81;" horiz-adv-x="1880" 
d="M1110 1439l-14 -26c-228 87 -335 85 -426 136c-45 24 -69 64 -69 104c0 16 4 33 12 48c20 39 61 59 102 59c22 0 43 -5 63 -16c95 -50 138 -147 332 -305zM1490 1204v41c78 -4 150 -6 236 -6c51 0 128 2 166 6v-41c-68 -25 -134 -97 -190 -253l-343 -955
c-15 2 -31 3 -47 3s-32 -1 -48 -3l-307 753l-302 -753c-16 2 -32 3 -48 3s-31 -1 -47 -3l-456 1077c-43 98 -89 129 -129 131v41c64 -4 171 -6 269 -6c121 0 234 2 299 6v-41c-66 -4 -103 -29 -103 -84c0 -23 7 -52 21 -88l278 -698l194 475l-108 264
c-38 95 -90 129 -129 131v41c64 -4 171 -6 268 -6c126 0 244 2 311 6v-41c-87 -4 -127 -24 -127 -80c0 -24 7 -54 21 -92l261 -698l162 454c40 110 58 194 58 256c0 113 -61 156 -160 160z" />
    <glyph glyph-name="x" unicode="x" horiz-adv-x="1319" 
d="M783 729l418 -584c52 -75 76 -96 127 -102v-43c-51 2 -164 7 -265 7c-125 0 -263 -5 -325 -7v43c85 0 128 7 128 34c0 9 -5 21 -16 36l-289 404l-164 -204c-48 -59 -69 -109 -69 -150c0 -73 67 -116 172 -122v-41c-78 4 -240 6 -305 6c-66 0 -126 -3 -175 -6v41
c87 36 194 125 258 202l255 313l-389 545c-54 77 -74 98 -127 102v43c50 -2 163 -7 264 -7c138 0 263 5 326 7v-43c-85 0 -128 -8 -128 -34c0 -9 5 -21 15 -35l262 -366l128 159c52 62 77 120 77 167c0 63 -46 105 -133 110v41c78 -4 190 -6 256 -6c74 0 134 2 174 6v-41
c-73 -22 -157 -88 -224 -169z" />
    <glyph glyph-name="y" unicode="y" horiz-adv-x="1228" 
d="M825 1203v42c84 -5 154 -7 231 -7c51 0 120 2 157 7v-42c-57 -23 -108 -85 -182 -219l-235 -432v-323c0 -159 32 -182 191 -188v-41c-71 4 -245 6 -353 6c-116 0 -279 -2 -342 -6v41c159 6 191 29 191 188v221l-367 637c-49 84 -79 108 -119 115v43
c77 -6 148 -10 242 -10c112 0 242 4 360 10v-43c-65 0 -129 -6 -129 -56c0 -16 7 -37 22 -63l276 -484l132 239c55 103 80 180 80 236c0 88 -60 125 -155 129z" />
    <glyph glyph-name="yacute" unicode="&#xfd;" horiz-adv-x="1228" 
d="M463 1413l-14 26c195 158 237 255 332 305c20 11 42 16 63 16c42 0 82 -20 102 -59c8 -16 12 -32 12 -48c0 -40 -24 -80 -68 -104c-92 -51 -198 -49 -427 -136zM825 1203v42c84 -5 154 -7 231 -7c51 0 120 2 157 7v-42c-57 -23 -108 -85 -182 -219l-235 -432v-323
c0 -159 32 -182 191 -188v-41c-71 4 -245 6 -353 6c-116 0 -279 -2 -342 -6v41c159 6 191 29 191 188v221l-367 637c-49 84 -79 108 -119 115v43c77 -6 148 -10 242 -10c112 0 242 4 360 10v-43c-65 0 -129 -6 -129 -56c0 -16 7 -37 22 -63l276 -484l132 239
c55 103 80 180 80 236c0 88 -60 125 -155 129z" />
    <glyph glyph-name="ycircumflex" unicode="&#x177;" horiz-adv-x="1228" 
d="M1061 1430l-10 -30c-175 31 -361 84 -461 132c-83 -48 -236 -101 -379 -132l-10 30c174 74 328 199 412 319h37c81 -119 236 -243 411 -319zM825 1203v42c84 -5 154 -7 231 -7c51 0 120 2 157 7v-42c-57 -23 -108 -85 -182 -219l-235 -432v-323c0 -159 32 -182 191 -188
v-41c-71 4 -245 6 -353 6c-116 0 -279 -2 -342 -6v41c159 6 191 29 191 188v221l-367 637c-49 84 -79 108 -119 115v43c77 -6 148 -10 242 -10c112 0 242 4 360 10v-43c-65 0 -129 -6 -129 -56c0 -16 7 -37 22 -63l276 -484l132 239c55 103 80 180 80 236
c0 88 -60 125 -155 129z" />
    <glyph glyph-name="ydieresis" unicode="&#xff;" horiz-adv-x="1228" 
d="M384 1432c-85 0 -155 69 -155 154c0 82 70 154 155 154c82 0 154 -72 154 -154c0 -85 -72 -154 -154 -154zM874 1432c-85 0 -154 69 -154 154c0 82 69 154 154 154c82 0 155 -72 155 -154c0 -85 -73 -154 -155 -154zM825 1203v42c84 -5 154 -7 231 -7c51 0 120 2 157 7
v-42c-57 -23 -108 -85 -182 -219l-235 -432v-323c0 -159 32 -182 191 -188v-41c-71 4 -245 6 -353 6c-116 0 -279 -2 -342 -6v41c159 6 191 29 191 188v221l-367 637c-49 84 -79 108 -119 115v43c77 -6 148 -10 242 -10c112 0 242 4 360 10v-43c-65 0 -129 -6 -129 -56
c0 -16 7 -37 22 -63l276 -484l132 239c55 103 80 180 80 236c0 88 -60 125 -155 129z" />
    <glyph glyph-name="ygrave" unicode="&#x1ef3;" horiz-adv-x="1228" 
d="M762 1439l-14 -26c-228 87 -335 85 -426 136c-45 24 -69 64 -69 104c0 16 4 33 12 48c20 39 61 59 102 59c22 0 43 -5 63 -16c95 -50 138 -147 332 -305zM825 1203v42c84 -5 154 -7 231 -7c51 0 120 2 157 7v-42c-57 -23 -108 -85 -182 -219l-235 -432v-323
c0 -159 32 -182 191 -188v-41c-71 4 -245 6 -353 6c-116 0 -279 -2 -342 -6v41c159 6 191 29 191 188v221l-367 637c-49 84 -79 108 -119 115v43c77 -6 148 -10 242 -10c112 0 242 4 360 10v-43c-65 0 -129 -6 -129 -56c0 -16 7 -37 22 -63l276 -484l132 239
c55 103 80 180 80 236c0 88 -60 125 -155 129z" />
    <glyph glyph-name="z" unicode="z" horiz-adv-x="1185" 
d="M1080 1204l-643 -1157h217c211 0 329 108 381 416h47c-4 -52 -6 -117 -6 -193c0 -53 4 -162 14 -270c-141 6 -343 6 -483 6c-167 0 -353 0 -514 -6v41l643 1157h-215c-203 0 -318 -102 -369 -391h-47c4 43 6 110 6 180c0 51 -4 155 -14 258c153 -6 363 -6 514 -6
c153 0 322 0 469 6v-41z" />
    <glyph glyph-name="zacute" unicode="&#x17a;" horiz-adv-x="1185" 
d="M433 1413l-14 26c195 158 237 255 332 305c20 11 42 16 63 16c42 0 82 -20 102 -59c8 -16 12 -32 12 -48c0 -40 -24 -80 -68 -104c-92 -51 -198 -49 -427 -136zM1080 1204l-643 -1157h217c211 0 329 108 381 416h47c-4 -52 -6 -117 -6 -193c0 -53 4 -162 14 -270
c-141 6 -343 6 -483 6c-167 0 -353 0 -514 -6v41l643 1157h-215c-203 0 -318 -102 -369 -391h-47c4 43 6 110 6 180c0 51 -4 155 -14 258c153 -6 363 -6 514 -6c153 0 322 0 469 6v-41z" />
    <glyph glyph-name="zcaron" unicode="&#x17e;" horiz-adv-x="1185" 
d="M1017 1733l10 -30c-174 -75 -327 -199 -411 -320h-37c-82 119 -237 244 -412 320l10 30c176 -32 361 -85 461 -133c84 48 236 101 379 133zM1080 1204l-643 -1157h217c211 0 329 108 381 416h47c-4 -52 -6 -117 -6 -193c0 -53 4 -162 14 -270c-141 6 -343 6 -483 6
c-167 0 -353 0 -514 -6v41l643 1157h-215c-203 0 -318 -102 -369 -391h-47c4 43 6 110 6 180c0 51 -4 155 -14 258c153 -6 363 -6 514 -6c153 0 322 0 469 6v-41z" />
    <glyph glyph-name="zdotaccent" unicode="&#x17c;" horiz-adv-x="1185" 
d="M596 1744c106 0 174 -59 174 -158s-68 -158 -174 -158c-107 0 -174 59 -174 158s67 158 174 158zM1080 1204l-643 -1157h217c211 0 329 108 381 416h47c-4 -52 -6 -117 -6 -193c0 -53 4 -162 14 -270c-141 6 -343 6 -483 6c-167 0 -353 0 -514 -6v41l643 1157h-215
c-203 0 -318 -102 -369 -391h-47c4 43 6 110 6 180c0 51 -4 155 -14 258c153 -6 363 -6 514 -6c153 0 322 0 469 6v-41z" />
    <glyph glyph-name="cacute.loclPLK" horiz-adv-x="1346" 
d="M670 1432l-27 12c28 171 5 254 35 328c19 44 56 69 100 69c15 0 31 -3 47 -9c44 -19 67 -55 67 -96c0 -17 -4 -33 -11 -50c-31 -75 -106 -116 -211 -254zM1240 0h-47c-7 83 -23 124 -51 124c-12 0 -25 -7 -41 -20c-86 -71 -188 -133 -354 -133c-387 0 -660 232 -660 639
c0 398 284 664 657 664c175 0 261 -64 343 -133c15 -13 29 -20 40 -20c28 0 45 41 52 124h47c-6 -92 -8 -213 -8 -430h-47c-29 150 -48 197 -103 262c-74 89 -173 144 -280 144c-227 0 -373 -227 -373 -603c0 -386 171 -593 387 -593c107 0 216 51 289 143
c55 70 73 137 94 283h47c0 -228 2 -355 8 -451z" />
    <glyph glyph-name="nacute.loclPLK" horiz-adv-x="1413" 
d="M710 1432l-27 12c28 171 5 254 35 328c19 44 56 69 100 69c15 0 31 -3 47 -9c44 -19 67 -55 67 -96c0 -17 -4 -33 -11 -50c-31 -75 -106 -116 -211 -254zM1353 1245v-41c-130 -18 -153 -59 -153 -233v-975c-18 1 -36 1 -54 1c-19 0 -37 0 -55 -1l-819 1018v-740
c0 -174 34 -215 211 -233v-41c-60 4 -149 6 -234 6c-64 0 -135 -2 -178 -6v41c131 18 154 59 154 233v754c0 150 -24 170 -154 176v41c43 -4 114 -6 178 -6c93 0 181 2 250 6l654 -811v537c0 174 -34 215 -211 233v41c60 -4 149 -6 233 -6c65 0 136 2 178 6z" />
    <glyph glyph-name="oacute.loclPLK" horiz-adv-x="1555" 
d="M724 1432l-27 12c28 171 5 254 35 328c19 44 56 69 100 69c15 0 31 -3 47 -9c44 -19 67 -55 67 -96c0 -17 -4 -33 -11 -50c-31 -75 -106 -116 -211 -254zM779 1274c413 0 690 -232 690 -639c0 -397 -287 -664 -692 -664c-414 0 -691 232 -691 639c0 398 287 664 693 664z
M770 1237c-217 0 -356 -256 -356 -619c0 -374 166 -610 371 -610c217 0 356 256 356 619c0 374 -165 610 -371 610z" />
    <glyph glyph-name="sacute.loclPLK" horiz-adv-x="1183" 
d="M555 1432l-27 12c28 171 5 254 35 328c19 44 56 69 100 69c15 0 31 -3 47 -9c44 -19 67 -55 67 -96c0 -17 -4 -33 -11 -50c-31 -75 -106 -116 -211 -254zM119 485h47c19 -280 150 -467 409 -467c111 0 228 53 228 188c0 118 -100 185 -282 289
c-212 121 -400 248 -400 447c0 222 207 332 471 332c139 0 224 -39 287 -76c32 -19 51 -29 69 -29c27 0 37 33 45 91h47c-6 -74 -10 -164 -10 -426h-47c-29 241 -160 395 -370 395c-137 0 -228 -67 -228 -161c0 -130 140 -201 330 -316c197 -112 381 -226 381 -433
c0 -231 -216 -348 -506 -348c-149 0 -247 47 -316 80c-34 17 -55 25 -71 25c-27 0 -37 -31 -45 -90h-47c6 85 8 206 8 499z" />
    <glyph glyph-name="zacute.loclPLK" horiz-adv-x="1185" 
d="M548 1432l-27 12c28 171 5 254 35 328c19 44 56 69 100 69c15 0 31 -3 47 -9c44 -19 67 -55 67 -96c0 -17 -4 -33 -11 -50c-31 -75 -106 -116 -211 -254zM1080 1204l-643 -1157h217c211 0 329 108 381 416h47c-4 -52 -6 -117 -6 -193c0 -53 4 -162 14 -270
c-141 6 -343 6 -483 6c-167 0 -353 0 -514 -6v41l643 1157h-215c-203 0 -318 -102 -369 -391h-47c4 43 6 110 6 180c0 51 -4 155 -14 258c153 -6 363 -6 514 -6c153 0 322 0 469 6v-41z" />
    <glyph glyph-name="ordfeminine" unicode="&#xaa;" horiz-adv-x="988" 
d="M542 1235v37c0 123 -46 168 -127 168c-37 0 -77 -9 -111 -31c58 -16 89 -67 89 -117c0 -75 -66 -118 -138 -118c-81 0 -135 46 -135 116c0 66 48 114 111 142c73 33 151 47 262 47c219 0 311 -78 311 -260v-345c0 -39 11 -53 39 -53c22 0 43 8 59 23l23 -31
c-55 -43 -132 -76 -234 -76c-111 0 -145 37 -149 97c-70 -68 -158 -97 -246 -97c-110 0 -203 49 -203 161c0 115 97 164 285 222c77 25 164 62 164 115zM542 872v302c-9 -23 -30 -43 -83 -80c-65 -45 -93 -93 -93 -156s34 -104 79 -104c35 0 67 12 97 38z" />
    <glyph glyph-name="ordmasculine" unicode="&#xba;" horiz-adv-x="959" 
d="M480 1479c223 0 399 -127 399 -371s-176 -371 -399 -371c-224 0 -400 127 -400 371s176 371 400 371zM480 1442c-72 0 -127 -96 -127 -334s55 -334 127 -334c71 0 126 96 126 334s-55 334 -126 334z" />
    <glyph glyph-name="uni0410" unicode="&#x410;" horiz-adv-x="1366" 
d="M754 1454l497 -1282c38 -98 90 -129 129 -131v-41c-81 4 -199 6 -311 6c-127 0 -244 -2 -312 -6v41c98 4 144 19 144 75c0 24 -8 56 -24 97l-123 336h-445l-55 -142c-39 -100 -56 -173 -56 -227c0 -108 70 -136 182 -139v-41c-93 4 -170 6 -255 6c-60 0 -116 -2 -157 -6
v41c60 11 120 64 178 215l466 1198c22 -2 46 -3 71 -3c24 0 49 1 71 3zM739 590l-203 551l-212 -551h415z" />
    <glyph glyph-name="uni0411" unicode="&#x411;" horiz-adv-x="1328" 
d="M548 862l121 1c445 0 594 -209 594 -433c0 -235 -166 -429 -584 -429c-67 0 -159 5 -310 5c-99 0 -231 -2 -300 -6v41c129 6 153 27 153 176v1016c0 149 -23 170 -153 176v41c223 -6 530 -6 667 -6c118 0 284 0 404 6c-10 -121 -14 -244 -14 -303c0 -54 2 -106 6 -139
h-47c-54 300 -161 395 -336 395h-60c-119 0 -141 -18 -141 -146v-395zM548 823v-606c0 -139 18 -176 118 -176c203 0 257 146 257 380c0 241 -61 402 -294 402h-81z" />
    <glyph glyph-name="uni0412" unicode="&#x412;" horiz-adv-x="1375" 
d="M799 766v-4c383 -29 515 -199 515 -365c0 -258 -214 -397 -565 -397c-64 0 -191 6 -365 6c-121 0 -246 -2 -315 -6v41c130 6 153 27 153 176v1016c0 149 -24 170 -153 176v41c69 -4 196 -6 311 -6c134 0 270 4 322 4c338 0 506 -133 506 -322c0 -145 -123 -307 -409 -360
zM548 770h88c193 0 240 156 240 334c0 201 -56 305 -201 305c-105 0 -127 -35 -127 -176v-463zM548 735v-518c0 -143 24 -170 141 -170c200 0 285 129 285 359c0 208 -97 329 -340 329h-86z" />
    <glyph glyph-name="uni0413" unicode="&#x413;" horiz-adv-x="1172" 
d="M69 1409v41c223 -6 530 -6 667 -6c116 0 279 0 396 6c-11 -124 -15 -250 -15 -311s2 -118 7 -156h-48c-54 318 -161 420 -352 420h-35c-119 0 -141 -18 -141 -146v-1040c0 -149 30 -170 182 -176v-41c-79 4 -212 6 -338 6c-131 0 -254 -2 -323 -6v41
c129 6 153 27 153 176v1016c0 149 -23 170 -153 176z" />
    <glyph glyph-name="uni0403" unicode="&#x403;" horiz-adv-x="1172" 
d="M425 1581l-15 25c195 159 238 256 332 306c20 11 42 16 64 16c41 0 82 -20 102 -59c8 -15 11 -31 11 -47c0 -41 -24 -81 -68 -105c-92 -51 -198 -49 -426 -136zM69 1409v41c223 -6 530 -6 667 -6c116 0 279 0 396 6c-11 -124 -15 -250 -15 -311s2 -118 7 -156h-48
c-54 318 -161 420 -352 420h-35c-119 0 -141 -18 -141 -146v-1040c0 -149 30 -170 182 -176v-41c-79 4 -212 6 -338 6c-131 0 -254 -2 -323 -6v41c129 6 153 27 153 176v1016c0 149 -23 170 -153 176z" />
    <glyph glyph-name="uni0490" unicode="&#x490;" horiz-adv-x="1130" 
d="M1049 1773h47c-4 -35 -6 -85 -6 -140c0 -44 2 -144 15 -234c-117 4 -259 4 -391 4c-139 0 -166 -21 -166 -170v-1016c0 -149 30 -170 182 -176v-41c-79 4 -212 6 -338 6c-131 0 -254 -2 -323 -6v41c129 6 153 27 153 176v1016c0 149 -23 170 -153 176v41
c120 -4 266 -7 370 -7c89 0 186 7 250 7c190 0 318 112 360 323z" />
    <glyph glyph-name="uni0414" unicode="&#x414;" horiz-adv-x="1336" 
d="M1245 41h62c-10 -106 -14 -214 -14 -266c0 -54 2 -100 6 -133h-47c-43 271 -156 358 -348 358h-497c-192 0 -305 -87 -348 -358h-47c4 33 6 79 6 133c0 52 -4 160 -14 266h37c315 0 346 647 380 1192c1 17 2 32 2 46c0 103 -37 125 -167 130v41c57 -4 145 -6 211 -6
c61 0 120 6 180 6c104 0 176 -6 293 -6c102 0 245 2 317 6v-41c-139 -6 -166 -27 -166 -176v-1016c0 -149 24 -176 154 -176zM766 217v1016c0 149 -37 176 -142 176h-26c-88 0 -119 -31 -129 -176c-37 -402 -36 -1030 -290 -1192h421c139 0 166 27 166 176z" />
    <glyph glyph-name="uni0415" unicode="&#x415;" horiz-adv-x="1298" 
d="M1150 483h47c-4 -44 -6 -105 -6 -172c0 -61 2 -188 14 -311c-139 6 -331 6 -469 6c-137 0 -444 0 -667 -6v41c130 6 153 27 153 176v1016c0 149 -24 170 -153 176v41c223 -6 530 -6 667 -6c125 0 302 0 428 6c-10 -121 -14 -244 -14 -303c0 -54 2 -106 6 -139h-47
c-41 300 -148 395 -336 395h-84c-119 0 -141 -18 -141 -146v-507h66c164 0 222 159 244 270h47c-6 -87 -7 -146 -7 -193c0 -38 1 -68 1 -98c0 -67 2 -135 12 -291h-47c-21 144 -86 271 -250 271h-66v-516c0 -128 22 -146 141 -146h101c183 0 309 106 360 436z" />
    <glyph glyph-name="uni0401" unicode="&#x401;" horiz-adv-x="1298" 
d="M399 1569c-85 0 -155 69 -155 154c0 82 70 155 155 155c82 0 154 -73 154 -155c0 -85 -72 -154 -154 -154zM889 1569c-85 0 -154 69 -154 154c0 82 69 155 154 155c82 0 155 -73 155 -155c0 -85 -73 -154 -155 -154zM1150 483h47c-4 -44 -6 -105 -6 -172
c0 -61 2 -188 14 -311c-139 6 -331 6 -469 6c-137 0 -444 0 -667 -6v41c130 6 153 27 153 176v1016c0 149 -24 170 -153 176v41c223 -6 530 -6 667 -6c125 0 302 0 428 6c-10 -121 -14 -244 -14 -303c0 -54 2 -106 6 -139h-47c-41 300 -148 395 -336 395h-84
c-119 0 -141 -18 -141 -146v-507h66c164 0 222 159 244 270h47c-6 -87 -7 -146 -7 -193c0 -38 1 -68 1 -98c0 -67 2 -135 12 -291h-47c-21 144 -86 271 -250 271h-66v-516c0 -128 22 -146 141 -146h101c183 0 309 106 360 436z" />
    <glyph glyph-name="uni0416" unicode="&#x416;" horiz-adv-x="2107" 
d="M2097 115l28 -25c-71 -81 -151 -119 -272 -119c-147 0 -245 49 -276 222l-55 312c-32 163 -82 234 -278 234h-28v-522c0 -149 23 -170 154 -176v-41c-70 4 -193 6 -324 6c-114 0 -236 -2 -309 -6v41c129 6 153 27 153 176v522h-28c-195 0 -246 -71 -277 -234l-55 -312
c-31 -173 -129 -222 -277 -222c-121 0 -200 38 -272 119l28 25c27 -31 48 -47 83 -47c52 0 73 37 96 147l59 274c45 199 202 267 454 282l-372 444c-109 127 -209 176 -298 195v40c49 -4 113 -6 193 -6c121 0 202 2 302 6v-40c-94 -3 -150 -42 -150 -110
c0 -49 30 -113 95 -190l120 -146c108 -125 186 -184 299 -190v459c0 149 -22 170 -153 176v41c73 -4 195 -6 309 -6c131 0 254 2 324 6v-41c-130 -6 -154 -27 -154 -176v-459c113 5 190 65 300 190l120 146c65 77 94 141 94 190c0 68 -56 107 -150 110v40
c100 -4 181 -6 302 -6c81 0 144 2 194 6v-40c-89 -19 -190 -68 -298 -195l-373 -444c253 -15 410 -83 454 -282l60 -274c22 -110 44 -147 96 -147c34 0 55 16 82 47z" />
    <glyph glyph-name="uni0417" unicode="&#x417;" horiz-adv-x="1232" 
d="M141 1456h47c9 -72 19 -110 51 -110c14 0 28 7 51 22c82 57 156 111 339 111c275 0 467 -118 466 -310c-1 -228 -272 -356 -477 -401c261 -4 555 -123 555 -378c0 -271 -319 -419 -641 -419c-140 0 -275 29 -369 97c-58 41 -112 106 -112 188c0 105 79 167 173 167
c98 0 162 -56 162 -163c0 -83 -59 -149 -156 -172c49 -40 147 -72 269 -72c227 0 361 130 361 369c0 189 -85 357 -275 365c-26 -15 -56 -27 -87 -27c-23 0 -44 10 -44 35c0 20 16 33 47 33c28 0 58 -7 86 -13c154 62 193 204 193 354c0 203 -80 288 -227 288
c-231 0 -341 -202 -356 -439h-47c0 258 -3 381 -9 475z" />
    <glyph glyph-name="uni0418" unicode="&#x418;" horiz-adv-x="1680" 
d="M1611 1450v-41c-129 -6 -154 -27 -154 -176v-1016c0 -149 25 -170 154 -176v-41c-70 4 -193 6 -324 6c-113 0 -236 -2 -309 -6v41c130 6 154 27 154 176v959l-584 -988c4 -123 33 -141 154 -147v-41c-74 4 -196 6 -310 6c-131 0 -254 -2 -323 -6v41c129 6 153 27 153 176
v1016c0 149 -24 170 -153 176v41c69 -4 192 -6 323 -6c114 0 236 2 310 6v-41c-130 -6 -154 -27 -154 -176v-958l584 990c-4 120 -34 138 -154 144v41c73 -4 196 -6 309 -6c131 0 254 2 324 6z" />
    <glyph glyph-name="uni0419" unicode="&#x419;" horiz-adv-x="1680" 
d="M479 1649c-71 36 -120 84 -120 151c0 77 65 136 161 136c95 0 166 -56 166 -137c0 -73 -57 -117 -126 -133c79 -36 197 -48 281 -48c82 0 200 12 279 49c-74 18 -123 63 -123 132c0 80 69 137 164 137c94 0 163 -58 163 -136c0 -66 -50 -114 -123 -151
c-78 -40 -202 -72 -360 -72c-160 0 -284 32 -362 72zM1611 1450v-41c-129 -6 -154 -27 -154 -176v-1016c0 -149 25 -170 154 -176v-41c-70 4 -193 6 -324 6c-113 0 -236 -2 -309 -6v41c130 6 154 27 154 176v959l-584 -988c4 -123 33 -141 154 -147v-41c-74 4 -196 6 -310 6
c-131 0 -254 -2 -323 -6v41c129 6 153 27 153 176v1016c0 149 -24 170 -153 176v41c69 -4 192 -6 323 -6c114 0 236 2 310 6v-41c-130 -6 -154 -27 -154 -176v-958l584 990c-4 120 -34 138 -154 144v41c73 -4 196 -6 309 -6c131 0 254 2 324 6z" />
    <glyph glyph-name="uni041A" unicode="&#x41a;" horiz-adv-x="1477" 
d="M1429 115l28 -25c-71 -81 -151 -119 -272 -119c-147 0 -245 49 -277 222l-54 312c-32 163 -82 234 -278 234h-28v-522c0 -149 24 -170 154 -176v-41c-74 4 -196 6 -310 6c-131 0 -254 -2 -323 -6v41c130 6 153 27 153 176v1016c0 149 -24 170 -153 176v41
c69 -4 192 -6 323 -6c114 0 236 2 310 6v-41c-131 -6 -154 -27 -154 -176v-459c113 5 197 65 307 190l120 146c65 77 95 141 95 190c0 68 -56 107 -150 110v40c99 -4 181 -6 301 -6c81 0 145 2 194 6v-40c-89 -19 -188 -69 -298 -195l-379 -444c252 -15 409 -83 453 -282
l60 -274c22 -110 44 -147 96 -147c34 0 55 16 82 47z" />
    <glyph glyph-name="uni040C" unicode="&#x40c;" horiz-adv-x="1477" 
d="M682 1581l-15 25c195 159 238 256 332 306c20 11 42 16 64 16c41 0 82 -20 102 -59c8 -15 11 -31 11 -47c0 -41 -24 -81 -68 -105c-92 -51 -198 -49 -426 -136zM1429 115l28 -25c-71 -81 -151 -119 -272 -119c-147 0 -245 49 -277 222l-54 312c-32 163 -82 234 -278 234
h-28v-522c0 -149 24 -170 154 -176v-41c-74 4 -196 6 -310 6c-131 0 -254 -2 -323 -6v41c130 6 153 27 153 176v1016c0 149 -24 170 -153 176v41c69 -4 192 -6 323 -6c114 0 236 2 310 6v-41c-131 -6 -154 -27 -154 -176v-459c113 5 197 65 307 190l120 146
c65 77 95 141 95 190c0 68 -56 107 -150 110v40c99 -4 181 -6 301 -6c81 0 145 2 194 6v-40c-89 -19 -188 -69 -298 -195l-379 -444c252 -15 409 -83 453 -282l60 -274c22 -110 44 -147 96 -147c34 0 55 16 82 47z" />
    <glyph glyph-name="uni041B" unicode="&#x41b;" horiz-adv-x="1474" 
d="M1413 1450v-41c-140 -6 -166 -27 -166 -176v-1016c0 -149 26 -170 166 -176v-41c-72 4 -201 6 -334 6c-129 0 -261 -2 -340 -6v41c152 6 182 27 182 176v1016c0 149 -36 176 -141 176h-14c-99 0 -131 -31 -142 -176c-42 -481 -35 -1262 -428 -1262
c-123 0 -224 75 -224 190c0 107 82 176 186 176c90 0 151 -47 151 -127c0 -99 -68 -164 -163 -189c13 -7 33 -11 50 -11c316 0 348 658 381 1223c1 17 2 32 2 46c0 103 -37 125 -168 130v41c58 -4 146 -6 211 -6c62 0 121 6 180 6c105 0 177 -6 293 -6c102 0 246 2 318 6z
" />
    <glyph glyph-name="uni041C" unicode="&#x41c;" horiz-adv-x="1899" 
d="M1831 1450v-41c-131 -6 -154 -27 -154 -176v-1016c0 -149 24 -170 154 -176v-41c-76 4 -203 6 -322 6c-131 0 -254 -2 -324 -6v41c140 6 166 27 166 176v1066l-493 -1286h-33l-553 1321v-982c0 -225 18 -277 199 -295v-41c-53 4 -148 6 -222 6c-64 0 -135 -2 -178 -6v41
c131 18 154 72 154 270v922c0 149 -24 170 -154 176v41c43 -4 114 -6 178 -6c119 0 235 2 324 6l413 -996l378 990h145c119 0 246 2 322 6z" />
    <glyph glyph-name="uni041D" unicode="&#x41d;" horiz-adv-x="1639" 
d="M1570 1450v-41c-131 -6 -154 -27 -154 -176v-1016c0 -149 25 -170 154 -176v-41c-67 4 -185 6 -311 6c-119 0 -246 -2 -322 -6v41c131 6 154 27 154 176v492h-543v-492c0 -149 24 -170 154 -176v-41c-74 4 -196 6 -310 6c-131 0 -254 -2 -323 -6v41c130 6 153 27 153 176
v1016c0 149 -24 170 -153 176v41c69 -4 192 -6 323 -6c114 0 236 2 310 6v-41c-131 -6 -154 -27 -154 -176v-483h543v483c0 149 -24 170 -154 176v41c76 -4 203 -6 322 -6c126 0 244 2 311 6z" />
    <glyph glyph-name="uni041E" unicode="&#x41e;" horiz-adv-x="1623" 
d="M813 1479c433 0 723 -273 723 -742c0 -458 -300 -766 -725 -766c-434 0 -723 273 -723 742c0 458 299 766 725 766zM804 1442c-229 0 -376 -297 -376 -721c0 -436 175 -713 391 -713c229 0 377 297 377 721c0 436 -175 713 -392 713z" />
    <glyph glyph-name="uni041F" unicode="&#x41f;" horiz-adv-x="1639" 
d="M1570 1450v-41c-129 -6 -154 -27 -154 -176v-1016c0 -149 25 -170 154 -176v-41c-70 4 -193 6 -324 6c-113 0 -236 -2 -309 -6v41c130 6 154 27 154 176v1016c0 149 -27 176 -166 176h-211c-139 0 -166 -27 -166 -176v-1016c0 -149 24 -170 154 -176v-41
c-74 4 -196 6 -310 6c-131 0 -254 -2 -323 -6v41c129 6 153 27 153 176v1016c0 149 -24 170 -153 176v41c69 -4 192 -6 323 -6c160 0 334 6 430 6c97 0 265 -6 424 -6c131 0 254 2 324 6z" />
    <glyph glyph-name="uni0420" unicode="&#x420;" horiz-adv-x="1312" 
d="M548 586v-357c0 -160 37 -182 219 -184v-45c-84 3 -227 6 -373 6c-118 0 -236 -3 -325 -6v41c130 6 153 27 153 176v1016c0 149 -24 170 -153 176v41c69 -4 196 -6 311 -6c134 0 270 4 322 4c381 0 567 -166 567 -404c0 -198 -129 -458 -612 -458h-109zM548 627h88
c242 0 293 186 293 395c0 258 -68 387 -254 387c-105 0 -127 -35 -127 -176v-606z" />
    <glyph glyph-name="uni0421" unicode="&#x421;" horiz-adv-x="1445" 
d="M1329 0h-47c-8 84 -21 121 -50 121c-12 0 -26 -6 -43 -17c-100 -71 -202 -133 -378 -133c-434 0 -723 273 -723 742c0 458 299 766 725 766c180 0 286 -64 376 -133c15 -12 29 -18 40 -18c29 0 45 38 53 122h47c-6 -105 -8 -246 -8 -496h-48c-22 188 -48 287 -154 371
c-68 66 -162 101 -259 101c-294 0 -408 -343 -408 -705c0 -367 123 -700 416 -700c90 0 189 33 255 99c106 82 131 196 150 396h48c0 -260 2 -407 8 -516z" />
    <glyph glyph-name="uni0422" unicode="&#x422;" horiz-adv-x="1368" 
d="M107 946h-47c4 38 6 95 6 156c0 68 -4 209 -14 348c185 -6 450 -6 633 -6s446 0 631 6c-11 -139 -15 -280 -15 -348c0 -61 2 -118 6 -156h-47c-69 345 -177 457 -368 457h-45v-1169c0 -167 37 -191 219 -193v-41c-87 3 -239 6 -390 6s-293 -3 -374 -6v41
c182 2 219 26 219 193v1169h-45c-193 0 -299 -111 -369 -457z" />
    <glyph glyph-name="uni0423" unicode="&#x423;" horiz-adv-x="1351" 
d="M970 1409v41c93 -4 170 -6 256 -6c59 0 115 2 156 6v-41c-60 -23 -116 -91 -195 -236l-403 -811l-97 -194c-35 -72 -61 -109 -90 -137c-43 -43 -108 -60 -171 -60c-141 0 -227 73 -227 171s82 160 182 160c104 0 175 -46 175 -129c0 -79 -61 -130 -136 -154
c8 -5 23 -7 40 -7c80 0 136 57 185 159l48 99l-578 1014c-52 89 -95 119 -135 124v42c54 -4 188 -6 271 -6c95 0 255 1 327 6v-42c-57 -2 -105 -22 -105 -79c0 -22 7 -50 23 -84l362 -642l208 418c54 109 78 190 78 249c0 100 -69 136 -174 139z" />
    <glyph glyph-name="uni040E" unicode="&#x40e;" horiz-adv-x="1351" 
d="M334 1649c-71 36 -120 84 -120 151c0 77 65 136 161 136c95 0 166 -56 166 -137c0 -73 -57 -117 -126 -133c79 -36 197 -48 281 -48c82 0 200 12 279 49c-74 18 -123 63 -123 132c0 80 69 137 164 137c94 0 163 -58 163 -136c0 -66 -50 -114 -123 -151
c-78 -40 -202 -72 -360 -72c-160 0 -284 32 -362 72zM970 1409v41c93 -4 170 -6 256 -6c59 0 115 2 156 6v-41c-60 -23 -116 -91 -195 -236l-403 -811l-97 -194c-35 -72 -61 -109 -90 -137c-43 -43 -108 -60 -171 -60c-141 0 -227 73 -227 171s82 160 182 160
c104 0 175 -46 175 -129c0 -79 -61 -130 -136 -154c8 -5 23 -7 40 -7c80 0 136 57 185 159l48 99l-578 1014c-52 89 -95 119 -135 124v42c54 -4 188 -6 271 -6c95 0 255 1 327 6v-42c-57 -2 -105 -22 -105 -79c0 -22 7 -50 23 -84l362 -642l208 418c54 109 78 190 78 249
c0 100 -69 136 -174 139z" />
    <glyph glyph-name="uni0424" unicode="&#x424;" horiz-adv-x="1891" 
d="M1109 1384v-74c481 -34 749 -227 749 -573c0 -335 -274 -555 -749 -595v-76c0 -151 24 -170 154 -177v-41c-74 5 -196 7 -309 7c-132 0 -254 -2 -324 -7v41c131 7 154 27 154 177v75c-483 35 -751 235 -751 592c0 325 275 537 751 576v75c0 151 -25 170 -154 177v41
c70 -5 192 -7 324 -7c113 0 235 2 309 7v-41c-131 -7 -154 -27 -154 -177zM784 178v1096c-291 -41 -411 -210 -411 -533c0 -346 135 -517 411 -563zM1109 1272v-1095c290 43 409 219 409 552c0 336 -134 499 -409 543z" />
    <glyph glyph-name="uni0425" unicode="&#x425;" horiz-adv-x="1415" 
d="M828 847l481 -702c54 -78 75 -98 131 -102v-43c-54 2 -171 8 -280 8c-126 0 -267 -6 -330 -8v43c92 0 135 7 135 34c0 10 -5 21 -15 36l-344 505l-164 -224c-65 -87 -94 -159 -94 -214c0 -85 67 -133 175 -139v-41c-78 4 -256 6 -324 6c-78 0 -145 -2 -188 -6v41
c95 31 193 115 296 250l272 367l-441 648c-54 78 -75 98 -131 102v43c56 -2 179 -8 292 -8c121 0 245 5 314 8v-43c-91 0 -131 -11 -131 -39c0 -11 5 -23 16 -39l305 -445l151 204c67 85 97 155 97 207c0 69 -54 107 -149 113v41c77 -4 189 -6 257 -6c78 0 146 2 189 6v-41
c-90 -26 -183 -113 -258 -214z" />
    <glyph glyph-name="uni0427" unicode="&#x427;" horiz-adv-x="1537" 
d="M1468 1450v-41c-131 -6 -154 -27 -154 -176v-1016c0 -149 23 -170 154 -176v-41c-89 3 -207 6 -325 6c-146 0 -289 -3 -373 -6v45c182 2 219 24 219 184v399c-74 -32 -230 -75 -394 -75c-125 0 -230 26 -303 72c-94 59 -122 142 -122 286v333c0 135 -30 161 -150 164v42
c66 -3 196 -7 315 -7c118 0 236 4 302 7v-42c-114 -3 -142 -29 -142 -164v-390c0 -160 26 -236 203 -236c110 0 220 20 291 48v567c0 149 -24 170 -154 176v41c70 -4 193 -6 324 -6c114 0 236 2 309 6z" />
    <glyph glyph-name="uni0426" unicode="&#x426;" horiz-adv-x="1658" 
d="M1570 1450v-41c-129 -6 -154 -27 -154 -176v-1016c0 -149 25 -176 154 -176h62c-10 -106 -14 -214 -14 -266c0 -54 2 -100 6 -133h-47c-43 271 -156 358 -348 358h-410c-96 0 -267 6 -427 6c-131 0 -254 -2 -323 -6v41c129 6 153 27 153 176v1016c0 149 -24 170 -153 176
v41c69 -4 192 -6 323 -6c114 0 236 2 310 6v-41c-130 -6 -154 -27 -154 -176v-1016c0 -149 27 -176 166 -176h211c139 0 166 27 166 176v1016c0 149 -24 170 -154 176v41c73 -4 196 -6 309 -6c131 0 254 2 324 6z" />
    <glyph glyph-name="uni0428" unicode="&#x428;" horiz-adv-x="2296" 
d="M2227 1450v-41c-131 -6 -154 -27 -154 -176v-1016c0 -149 23 -170 154 -176v-41c-67 4 -185 6 -311 6c-133 0 -275 -6 -388 -6c-98 0 -255 6 -373 6c-127 0 -274 -6 -384 -6c-115 0 -259 6 -391 6c-126 0 -244 -2 -311 -6v41c129 6 153 27 153 176v1016
c0 149 -24 170 -153 176v41c69 -4 192 -6 323 -6c106 0 220 2 289 6v-41c-113 -6 -133 -27 -133 -176v-1016c0 -149 27 -176 166 -176h105c139 0 166 27 166 176v1016c0 149 -19 170 -133 176v41c69 -4 183 -6 289 -6c123 0 237 2 303 6v-41c-114 -6 -133 -27 -133 -176
v-1016c0 -149 35 -172 166 -176h105c139 0 166 27 166 176v1016c0 149 -19 170 -133 176v41c69 -4 183 -6 288 -6c131 0 254 2 324 6z" />
    <glyph glyph-name="uni0429" unicode="&#x429;" horiz-adv-x="2298" 
d="M2211 1450v-41c-131 -6 -154 -27 -154 -176v-1016c0 -149 24 -176 154 -176h62c-10 -106 -14 -214 -14 -266c0 -54 2 -100 6 -133h-47c-43 271 -156 358 -349 358h-349c-99 0 -255 6 -374 6c-127 0 -273 -6 -383 -6c-107 0 -251 6 -383 6c-126 0 -244 -2 -311 -6v41
c129 6 153 27 153 176v1016c0 149 -24 170 -153 176v41c69 -4 192 -6 323 -6c106 0 220 2 289 6v-41c-113 -6 -133 -27 -133 -176v-1016c0 -149 27 -176 166 -176h97c139 0 166 27 166 176v1016c0 149 -19 170 -133 176v41c69 -4 183 -6 289 -6c122 0 237 2 303 6v-41
c-114 -6 -133 -27 -133 -176v-1016c0 -149 35 -176 165 -176h97c140 0 166 27 166 176v1016c0 149 -19 170 -133 176v41c69 -4 183 -6 289 -6c131 0 254 2 324 6z" />
    <glyph glyph-name="uni040F" unicode="&#x40f;" horiz-adv-x="1639" 
d="M1570 1450v-41c-129 -6 -154 -27 -154 -176v-1016c0 -149 25 -170 154 -176v-41c-70 4 -193 6 -324 6h-75l7 -1c-179 0 -303 -92 -332 -363h-47c-29 271 -152 363 -332 363l6 1h-81c-131 0 -254 -2 -323 -6v41c129 6 153 27 153 176v1016c0 149 -24 170 -153 176v41
c69 -4 192 -6 323 -6c114 0 236 2 310 6v-41c-130 -6 -154 -27 -154 -176v-1016c0 -149 27 -176 166 -176h211c139 0 166 27 166 176v1016c0 149 -24 170 -154 176v41c73 -4 196 -6 309 -6c131 0 254 2 324 6z" />
    <glyph glyph-name="uni042F" unicode="&#x42f;" horiz-adv-x="1428" 
d="M1359 1450v-41c-129 -6 -153 -27 -153 -176v-1016c0 -149 23 -170 153 -176v-41c-69 4 -192 6 -323 6c-114 0 -236 -2 -309 -6v41c129 6 153 27 153 176v471h-149c-128 0 -161 -120 -191 -291l-37 -204c-30 -171 -129 -222 -274 -222c-117 0 -197 35 -267 119l28 25
c26 -31 48 -47 84 -47c51 0 73 38 95 147l42 211c35 174 157 238 391 268l11 2c-353 38 -454 207 -454 383c0 234 186 369 568 369c51 0 187 -4 321 -4c115 0 242 2 311 6zM880 729v504c0 141 -21 176 -127 176c-186 0 -254 -125 -254 -334c0 -194 52 -346 293 -346h88z" />
    <glyph glyph-name="uni042C" unicode="&#x42c;" horiz-adv-x="1311" 
d="M548 862l121 1c445 0 594 -188 594 -413c0 -237 -166 -449 -584 -449c-63 0 -167 5 -301 5c-112 0 -240 -2 -309 -6v41c129 6 153 27 153 176v1016c0 149 -24 170 -153 176v41c69 -4 192 -6 323 -6c121 0 249 2 326 6v-41c-144 -6 -170 -27 -170 -176v-371zM548 823v-606
c0 -141 18 -176 120 -176c201 0 255 148 255 380c0 236 -61 402 -287 402h-88z" />
    <glyph glyph-name="uni042A" unicode="&#x42a;" horiz-adv-x="1620" 
d="M858 862l121 1c445 0 594 -206 594 -425c0 -230 -166 -437 -584 -437c-64 0 -167 5 -302 5c-111 0 -239 -2 -309 -6v41c130 6 154 27 154 176v1186h-70c-186 0 -328 -103 -364 -420h-47c4 47 6 110 6 180c0 56 -2 174 -14 287c146 -6 344 -6 496 -6c120 0 336 1 489 6
v-41c-144 -6 -170 -27 -170 -176v-371zM858 823v-606c0 -141 18 -176 120 -176c200 0 255 148 255 380c0 236 -62 402 -287 402h-88z" />
    <glyph glyph-name="uni042B" unicode="&#x42b;" horiz-adv-x="2057" 
d="M548 862l121 1c445 0 594 -188 594 -413c0 -237 -166 -449 -584 -449c-63 0 -167 5 -301 5c-112 0 -240 -2 -309 -6v41c129 6 153 27 153 176v1016c0 149 -24 170 -153 176v41c69 -4 192 -6 323 -6c121 0 249 2 326 6v-41c-144 -6 -170 -27 -170 -176v-371zM1988 1450
v-41c-131 -6 -154 -27 -154 -176v-1016c0 -149 24 -170 154 -176v-41c-74 4 -196 6 -309 6c-132 0 -254 -2 -324 -6v41c131 6 154 27 154 176v1016c0 149 -25 170 -154 176v41c70 -4 192 -6 324 -6c113 0 235 2 309 6zM548 823v-606c0 -141 18 -176 120 -176
c201 0 255 148 255 380c0 236 -61 402 -287 402h-88z" />
    <glyph glyph-name="uni0409" unicode="&#x409;" horiz-adv-x="2014" 
d="M1247 823h121c445 0 594 -182 594 -397c0 -227 -157 -415 -549 -426h-6h-29c-35 0 -114 2 -185 5l-114 1c-129 0 -261 -2 -340 -6v41c152 6 182 27 182 176v1016c0 149 -36 176 -141 176h-14c-99 0 -131 -31 -142 -176c-42 -481 -35 -1262 -428 -1262
c-123 0 -224 75 -224 190c0 107 82 176 186 176c90 0 151 -47 151 -127c0 -99 -68 -164 -163 -189c13 -7 33 -11 50 -11c316 0 348 658 381 1223c1 17 2 32 2 46c0 103 -37 125 -168 130v41c58 -4 146 -6 211 -6c62 0 121 6 180 6c105 0 177 -6 293 -6c102 0 246 2 318 6
v-41c-140 -6 -166 -27 -166 -176v-410zM1247 783v-566c0 -144 24 -168 152 -175c176 10 223 146 223 363c0 223 -61 378 -294 378h-81z" />
    <glyph glyph-name="uni040A" unicode="&#x40a;" horiz-adv-x="2176" 
d="M1416 754h121c445 0 595 -167 595 -364c0 -207 -161 -383 -562 -390h-2h-21c-34 0 -115 2 -185 6h-103c-119 0 -246 -2 -322 -6v41c131 6 154 27 154 176v492h-543v-492c0 -149 24 -170 154 -176v-41c-74 4 -196 6 -310 6c-131 0 -254 -2 -323 -6v41
c130 6 153 27 153 176v1016c0 149 -24 170 -153 176v41c69 -4 192 -6 323 -6c114 0 236 2 310 6v-41c-131 -6 -154 -27 -154 -176v-483h543v483c0 149 -24 170 -154 176v41c76 -4 203 -6 322 -6c126 0 244 2 311 6v-41c-131 -6 -154 -27 -154 -176v-479zM1416 714v-497
c0 -146 24 -169 147 -176c181 8 229 138 229 332c0 203 -64 341 -307 341h-69z" />
    <glyph glyph-name="uni0405" unicode="&#x405;" horiz-adv-x="1196" 
d="M120 539h47c17 -273 111 -514 373 -514c143 0 254 76 254 229c0 168 -127 265 -307 381c-195 124 -365 239 -365 467c0 258 219 374 459 374c160 0 235 -41 299 -79c33 -20 51 -29 69 -29c27 0 37 31 46 90h47c-7 -81 -11 -179 -11 -467h-47c-14 213 -129 436 -348 436
c-131 0 -225 -79 -225 -209c0 -165 125 -232 354 -386c194 -129 346 -240 346 -462c0 -270 -233 -399 -508 -399c-170 0 -260 39 -329 76c-33 21 -54 29 -70 29c-27 0 -37 -31 -45 -90h-47c6 96 8 227 8 553z" />
    <glyph glyph-name="uni0404" unicode="&#x404;" horiz-adv-x="1450" 
d="M1273 516h48c0 -260 2 -407 8 -516h-47c-8 84 -21 121 -50 121c-12 0 -26 -6 -43 -17c-100 -71 -202 -133 -378 -133c-434 0 -723 273 -723 742c0 458 299 766 725 766c180 0 286 -64 376 -133c15 -12 29 -18 40 -18c29 0 45 38 53 122h47c-6 -91 -8 -209 -8 -422h-48
c-33 153 -57 216 -154 297c-67 68 -162 101 -259 101c-294 0 -408 -343 -408 -705c0 -21 0 -42 1 -63c47 164 142 244 238 244c146 0 231 -144 358 -144c50 0 117 29 141 125l33 -10c-34 -218 -136 -326 -249 -326c-149 0 -224 143 -362 143c-58 0 -118 -28 -155 -97
c26 -313 152 -572 411 -572c90 0 189 33 255 99c106 82 131 196 150 396z" />
    <glyph glyph-name="uni042D" unicode="&#x42d;" horiz-adv-x="1445" 
d="M125 1450h47c8 -84 23 -121 52 -121c11 0 25 6 41 17c96 70 224 133 402 133c430 0 690 -287 690 -752c0 -462 -284 -756 -725 -756c-178 0 -283 63 -377 133c-16 12 -30 18 -41 18c-29 0 -44 -38 -51 -122h-47c6 92 8 225 8 442h47c29 -153 64 -245 151 -317
c65 -66 164 -99 254 -99c294 0 416 333 416 700c0 24 0 49 -1 73c-47 -160 -141 -236 -234 -236c-148 0 -232 144 -360 144c-50 0 -116 -31 -141 -125l-34 8c36 220 137 328 250 328c149 0 226 -143 363 -143c56 0 116 26 153 91c-20 306 -114 565 -370 565
c-97 0 -216 -33 -283 -101c-98 -82 -132 -166 -154 -351h-47c0 238 -3 371 -9 471z" />
    <glyph glyph-name="uni0406" unicode="&#x406;" horiz-adv-x="770" 
d="M702 1450v-41c-131 -6 -154 -27 -154 -176v-1016c0 -149 24 -170 154 -176v-41c-74 4 -196 6 -310 6c-131 0 -254 -2 -323 -6v41c130 6 153 27 153 176v1016c0 149 -24 170 -153 176v41c69 -4 192 -6 323 -6c114 0 236 2 310 6z" />
    <glyph glyph-name="uni0407" unicode="&#x407;" horiz-adv-x="770" 
d="M147 1878c82 0 154 -73 154 -155c0 -85 -72 -154 -154 -154c-85 0 -155 69 -155 154c0 82 70 155 155 155zM637 1878c82 0 155 -73 155 -155c0 -85 -73 -154 -155 -154c-85 0 -154 69 -154 154c0 82 69 155 154 155zM702 1450v-41c-131 -6 -154 -27 -154 -176v-1016
c0 -149 24 -170 154 -176v-41c-74 4 -196 6 -310 6c-131 0 -254 -2 -323 -6v41c130 6 153 27 153 176v1016c0 149 -24 170 -153 176v41c69 -4 192 -6 323 -6c114 0 236 2 310 6z" />
    <glyph glyph-name="uni0408" unicode="&#x408;" horiz-adv-x="746" 
d="M691 1450v-41c-131 -6 -154 -27 -154 -176v-750v-107c0 -150 -3 -316 -35 -427c-55 -189 -241 -334 -518 -334c-73 0 -154 12 -206 38c-72 36 -101 86 -101 149c0 83 66 138 164 138c93 0 155 -47 155 -135c0 -60 -35 -112 -105 -134c18 -12 53 -15 74 -15
c103 0 176 62 207 147c37 106 39 211 39 494v936c0 149 -24 170 -153 176v41c67 -4 185 -6 311 -6c119 0 246 2 322 6z" />
    <glyph glyph-name="uni040B" unicode="&#x40b;" horiz-adv-x="1835" 
d="M1666 453v-247c0 -135 29 -161 149 -164v-42c-65 3 -196 7 -314 7c-119 0 -237 -4 -302 -7v42c113 3 141 29 141 164v304c0 160 -26 235 -202 235c-111 0 -220 -19 -291 -47v-464c0 -167 37 -191 219 -193v-41c-87 3 -239 6 -390 6s-293 -3 -374 -6v41
c182 2 219 26 219 193v1169h-45c-193 0 -299 -111 -369 -457h-47c4 38 6 95 6 156c0 68 -4 209 -14 348c185 -6 450 -6 633 -6s446 0 631 6c-11 -139 -15 -280 -15 -348c0 -61 2 -118 6 -156h-47c-69 345 -177 457 -368 457h-45v-667c74 32 229 75 393 75
c126 0 231 -26 303 -72c94 -59 123 -142 123 -286z" />
    <glyph glyph-name="uni042E" unicode="&#x42e;" horiz-adv-x="2211" 
d="M548 746h217c14 440 292 733 680 733c406 0 678 -273 678 -742c0 -458 -282 -766 -680 -766c-404 0 -675 270 -678 734h-217v-488c0 -149 24 -170 154 -176v-41c-74 4 -196 6 -310 6c-131 0 -254 -2 -323 -6v41c130 6 153 27 153 176v1016c0 149 -24 170 -153 176v41
c69 -4 192 -6 323 -6c114 0 236 2 310 6v-41c-131 -6 -154 -27 -154 -176v-487zM1451 8c203 0 332 297 332 721c0 436 -154 713 -346 713c-202 0 -332 -297 -332 -721c0 -436 155 -713 346 -713z" />
    <glyph glyph-name="uni0402" unicode="&#x402;" horiz-adv-x="1846" 
d="M847 1403v-689c93 75 246 138 444 138c289 0 512 -145 512 -444s-237 -437 -511 -437c-168 0 -345 77 -345 245c0 104 77 166 175 166c95 0 158 -58 158 -153c0 -93 -61 -152 -157 -179c24 -18 73 -36 123 -36c150 0 246 123 246 385c0 224 -67 387 -312 387
c-133 0 -271 -50 -333 -115v-694c-83 21 -187 29 -298 29c-78 0 -167 -2 -247 -6v41c182 2 219 26 219 193v1169h-45c-193 0 -299 -111 -369 -457h-47c4 38 6 95 6 156c0 68 -4 209 -14 348c185 -6 450 -6 633 -6s446 0 631 6c-11 -129 -15 -260 -15 -324
c0 -60 2 -117 6 -155h-47c-69 289 -176 432 -368 432h-45z" />
    <glyph glyph-name="uni0430" unicode="&#x430;" horiz-adv-x="1284" 
d="M684 1249l487 -1077c45 -97 89 -129 129 -131v-41c-64 4 -171 6 -269 6c-131 0 -254 -2 -323 -6v41c86 4 133 23 133 78c0 24 -9 55 -27 94l-102 233h-430l-24 -55c-40 -91 -58 -160 -58 -211c0 -100 68 -133 178 -139v-41c-78 4 -149 6 -235 6c-51 0 -128 -2 -166 -6v41
c69 14 119 81 180 220l433 988c16 -1 31 -2 47 -2s32 1 47 2zM694 487l-196 449l-198 -449h394z" />
    <glyph glyph-name="uni0431" unicode="&#x431;" horiz-adv-x="1301" 
d="M537 712h80c439 0 618 -121 618 -344c0 -231 -171 -367 -534 -367c-60 0 -200 5 -355 5c-102 0 -214 -2 -276 -6v41c129 6 154 27 154 176v811c0 150 -23 170 -154 176v41c62 -4 172 -6 282 -6c154 0 341 4 376 4c121 0 265 0 387 2c-10 -98 -14 -198 -14 -246
c0 -49 2 -96 6 -127h-47c-43 243 -144 326 -316 326h-92c-86 0 -115 -20 -115 -133v-353zM537 673v-456c0 -142 20 -174 120 -174c180 0 250 109 250 315c0 180 -65 315 -289 315h-81z" />
    <glyph glyph-name="uni0432" unicode="&#x432;" horiz-adv-x="1330" 
d="M791 668v-4c366 -39 471 -172 471 -328c0 -209 -192 -336 -545 -336c-65 0 -192 6 -368 6c-107 0 -217 -2 -279 -6v41c131 6 154 27 154 176v811c0 152 -25 170 -154 176v41c62 -4 175 -6 274 -6c136 0 274 4 326 4c336 0 485 -104 485 -280c0 -134 -97 -238 -364 -295z
M537 668h68c186 0 231 118 231 272c0 172 -54 264 -193 264c-88 0 -106 -35 -106 -176v-360zM537 633v-416c0 -143 18 -170 109 -170c202 0 288 105 288 297c0 184 -83 289 -295 289h-102z" />
    <glyph glyph-name="uni0433" unicode="&#x433;" horiz-adv-x="1129" 
d="M70 1204v41c95 -2 205 -6 309 -6h37c120 0 229 4 297 4c114 0 244 0 359 2c-11 -119 -15 -240 -15 -299c0 -65 2 -124 6 -168h-47c-44 311 -146 420 -340 420h-21c-89 0 -118 -19 -118 -134v-835c0 -153 50 -182 219 -188v-41c-84 4 -227 6 -362 6
c-131 0 -254 -2 -324 -6v41c131 6 154 27 154 176v811c0 150 -23 170 -154 176z" />
    <glyph glyph-name="uni0453" unicode="&#x453;" horiz-adv-x="1129" 
d="M399 1413l-14 26c195 158 237 255 332 305c20 11 42 16 63 16c42 0 82 -20 102 -59c8 -16 12 -32 12 -48c0 -40 -24 -80 -68 -104c-92 -51 -198 -49 -427 -136zM70 1204v41c95 -2 205 -6 309 -6h37c120 0 229 4 297 4c114 0 244 0 359 2c-11 -119 -15 -240 -15 -299
c0 -65 2 -124 6 -168h-47c-44 311 -146 420 -340 420h-21c-89 0 -118 -19 -118 -134v-835c0 -153 50 -182 219 -188v-41c-84 4 -227 6 -362 6c-131 0 -254 -2 -324 -6v41c131 6 154 27 154 176v811c0 150 -23 170 -154 176z" />
    <glyph glyph-name="uni0491" unicode="&#x491;" horiz-adv-x="1071" 
d="M982 1568h47c-4 -34 -6 -85 -6 -139c0 -45 1 -144 14 -235c-110 4 -242 4 -371 4c-99 0 -129 -19 -129 -158v-811c0 -153 50 -182 219 -188v-41c-84 4 -227 6 -362 6c-131 0 -254 -2 -324 -6v41c131 6 154 27 154 176v811c0 150 -23 170 -154 176v41
c101 -4 221 -6 314 -6c80 0 214 4 293 14c173 23 268 125 305 315z" />
    <glyph glyph-name="uni0434" unicode="&#x434;" horiz-adv-x="1323" 
d="M1230 41h62c-10 -106 -14 -214 -14 -266c0 -54 2 -100 6 -133h-47c-43 271 -156 358 -349 358h-476c-192 0 -306 -87 -348 -358h-47c4 33 6 79 6 133c0 52 -4 160 -14 266h57c316 0 349 544 381 987c1 18 2 33 2 48c0 101 -38 123 -168 128v41c54 -4 137 -5 199 -5
c46 0 77 5 139 5c148 0 208 -6 305 -6c109 0 235 2 306 6v-41c-131 -6 -154 -26 -154 -176v-811c0 -149 24 -176 154 -176zM763 217v811c0 152 -19 176 -121 176h-27c-105 0 -108 -30 -121 -176c-31 -327 -34 -842 -278 -987h387c131 0 160 27 160 176z" />
    <glyph glyph-name="uni0435" unicode="&#x435;" horiz-adv-x="1248" 
d="M1098 414h47c-4 -38 -6 -90 -6 -148c0 -52 4 -160 14 -266c-133 6 -317 6 -448 6s-422 0 -635 -6v41c131 6 154 27 154 176v811c0 150 -25 170 -154 176v41c213 -6 504 -6 635 -6c119 0 287 0 407 6c-10 -98 -14 -198 -14 -246c0 -49 2 -96 6 -127h-47
c-42 243 -144 326 -315 326h-76c-99 0 -129 -17 -129 -133v-418h96c144 0 191 135 207 221h47c-6 -69 -7 -119 -7 -159c0 -32 1 -58 1 -82c0 -56 2 -117 12 -242h-47c-16 113 -71 221 -213 221h-96v-426c0 -116 30 -133 129 -133h88c188 0 299 93 344 367z" />
    <glyph glyph-name="uni0451" unicode="&#x451;" horiz-adv-x="1248" 
d="M376 1432c-85 0 -155 69 -155 154c0 82 70 154 155 154c82 0 154 -72 154 -154c0 -85 -72 -154 -154 -154zM866 1432c-85 0 -154 69 -154 154c0 82 69 154 154 154c82 0 155 -72 155 -154c0 -85 -73 -154 -155 -154zM1098 414h47c-4 -38 -6 -90 -6 -148
c0 -52 4 -160 14 -266c-133 6 -317 6 -448 6s-422 0 -635 -6v41c131 6 154 27 154 176v811c0 150 -25 170 -154 176v41c213 -6 504 -6 635 -6c119 0 287 0 407 6c-10 -98 -14 -198 -14 -246c0 -49 2 -96 6 -127h-47c-42 243 -144 326 -315 326h-76c-99 0 -129 -17 -129 -133
v-418h96c144 0 191 135 207 221h47c-6 -69 -7 -119 -7 -159c0 -32 1 -58 1 -82c0 -56 2 -117 12 -242h-47c-16 113 -71 221 -213 221h-96v-426c0 -116 30 -133 129 -133h88c188 0 299 93 344 367z" />
    <glyph glyph-name="uni0436" unicode="&#x436;" horiz-adv-x="2064" 
d="M2008 115l29 -25c-68 -81 -149 -119 -268 -119c-138 0 -236 41 -275 222l-60 276c-27 108 -67 168 -206 168h-43v-415c0 -149 23 -170 154 -176v-41c-71 4 -195 6 -304 6c-126 0 -250 -2 -317 -6v41c131 6 154 27 154 176v415h-49c-139 0 -181 -59 -206 -168l-60 -276
c-39 -181 -138 -222 -276 -222c-114 0 -195 38 -261 119l28 25c27 -31 48 -47 84 -47c42 0 67 29 97 147l50 188c49 194 238 246 421 263l-379 372c-101 98 -184 146 -278 168v39c48 -4 107 -6 182 -6c121 0 217 2 315 6v-39c-86 -3 -145 -46 -145 -112
c0 -41 23 -90 75 -144l109 -119c98 -105 186 -141 293 -154v356c0 150 -25 170 -154 176v41c67 -4 191 -6 317 -6c109 0 233 2 304 6v-41c-131 -6 -154 -26 -154 -176v-356c107 13 194 50 292 154l110 119c52 54 75 103 75 144c0 66 -59 109 -146 112v39
c99 -4 195 -6 316 -6c75 0 133 2 182 6v-39c-95 -22 -178 -70 -278 -168l-376 -369c27 -2 50 -5 74 -9c172 -27 303 -96 346 -257l48 -188c30 -113 51 -147 97 -147c36 0 57 16 83 47z" />
    <glyph glyph-name="uni0437" unicode="&#x437;" horiz-adv-x="1133" 
d="M129 1260h47c8 -57 16 -91 48 -91c14 0 29 5 66 28c57 32 130 77 282 77c241 0 417 -96 417 -270c0 -199 -228 -307 -469 -338c275 0 547 -95 547 -328c0 -229 -230 -367 -595 -367c-133 0 -245 24 -318 68c-63 37 -101 92 -101 158c0 82 58 144 156 144
c95 0 163 -56 163 -144c0 -77 -54 -127 -123 -145c27 -24 104 -42 179 -42c220 0 313 133 313 318c0 151 -62 275 -184 310c-18 5 -43 9 -70 9c-27 -14 -57 -26 -87 -26c-25 0 -44 10 -44 34s18 33 45 33c29 0 59 -6 88 -12c132 48 172 148 172 297c0 165 -52 246 -180 246
c-177 0 -282 -151 -295 -369h-47c0 258 -4 338 -10 410z" />
    <glyph glyph-name="uni0438" unicode="&#x438;" horiz-adv-x="1641" 
d="M1571 1245v-41c-130 -6 -153 -26 -153 -176v-811c0 -149 24 -170 153 -176v-41c-64 4 -178 6 -299 6c-119 0 -246 -2 -321 -6v41c130 6 153 27 153 176v758l-566 -802c5 -109 37 -127 153 -132v-41c-76 4 -203 6 -322 6c-121 0 -234 -2 -299 -6v41c131 6 154 27 154 176
v811c0 150 -25 170 -154 176v41c65 -4 178 -6 299 -6c119 0 246 2 322 6v-41c-131 -6 -154 -26 -154 -176v-778l567 803c-3 127 -32 145 -153 151v41c75 -4 202 -6 321 -6c126 0 252 7 299 6z" />
    <glyph glyph-name="uni0439" unicode="&#x439;" horiz-adv-x="1641" 
d="M462 1484c-71 36 -120 84 -120 152c0 77 65 136 161 136c95 0 166 -56 166 -138c0 -72 -57 -116 -126 -133c79 -36 197 -48 281 -48c82 0 200 12 279 49c-74 18 -123 63 -123 132c0 81 69 138 164 138c94 0 163 -58 163 -136c0 -66 -50 -115 -123 -152
c-78 -39 -202 -72 -360 -72c-160 0 -284 33 -362 72zM1571 1245v-41c-130 -6 -153 -26 -153 -176v-811c0 -149 24 -170 153 -176v-41c-64 4 -178 6 -299 6c-119 0 -246 -2 -321 -6v41c130 6 153 27 153 176v758l-566 -802c5 -109 37 -127 153 -132v-41c-76 4 -203 6 -322 6
c-121 0 -234 -2 -299 -6v41c131 6 154 27 154 176v811c0 150 -25 170 -154 176v41c65 -4 178 -6 299 -6c119 0 246 2 322 6v-41c-131 -6 -154 -26 -154 -176v-778l567 803c-3 127 -32 145 -153 151v41c75 -4 202 -6 321 -6c126 0 252 7 299 6z" />
    <glyph glyph-name="uni043A" unicode="&#x43a;" horiz-adv-x="1450" 
d="M1393 115l28 -25c-68 -81 -148 -119 -269 -119c-134 0 -234 40 -273 222l-53 237c-26 113 -61 207 -240 207h-49v-420c0 -149 23 -170 154 -176v-41c-71 4 -195 6 -304 6c-126 0 -250 -2 -317 -6v41c131 6 154 27 154 176v811c0 150 -25 170 -154 176v41
c67 -4 191 -6 317 -6c109 0 233 2 304 6v-41c-131 -6 -154 -26 -154 -176v-352c110 12 194 48 292 151l115 123c50 54 72 103 72 144c0 66 -56 109 -141 112v39c98 -4 200 -6 298 -6s151 2 200 6v-39c-95 -22 -179 -69 -279 -168l-377 -371c194 -14 396 -63 447 -264
l49 -188c30 -118 54 -147 97 -147c35 0 56 16 83 47z" />
    <glyph glyph-name="uni045C" unicode="&#x45c;" horiz-adv-x="1450" 
d="M589 1413l-14 26c195 158 237 255 332 305c20 11 42 16 63 16c42 0 82 -20 102 -59c8 -16 12 -32 12 -48c0 -40 -24 -80 -68 -104c-92 -51 -198 -49 -427 -136zM1393 115l28 -25c-68 -81 -148 -119 -269 -119c-134 0 -234 40 -273 222l-53 237c-26 113 -61 207 -240 207
h-49v-420c0 -149 23 -170 154 -176v-41c-71 4 -195 6 -304 6c-126 0 -250 -2 -317 -6v41c131 6 154 27 154 176v811c0 150 -25 170 -154 176v41c67 -4 191 -6 317 -6c109 0 233 2 304 6v-41c-131 -6 -154 -26 -154 -176v-352c110 12 194 48 292 151l115 123
c50 54 72 103 72 144c0 66 -56 109 -141 112v39c98 -4 200 -6 298 -6s151 2 200 6v-39c-95 -22 -179 -69 -279 -168l-377 -371c194 -14 396 -63 447 -264l49 -188c30 -118 54 -147 97 -147c35 0 56 16 83 47z" />
    <glyph glyph-name="uni043B" unicode="&#x43b;" horiz-adv-x="1426" 
d="M1356 1245v-41c-130 -6 -153 -26 -153 -176v-811c0 -149 23 -170 153 -176v-41c-68 4 -189 6 -307 6s-244 -2 -313 -6v41c130 6 153 27 153 176v811c0 152 -19 176 -121 176h-26c-104 0 -109 -27 -122 -176c-38 -425 -38 -1057 -403 -1057c-121 0 -224 73 -224 192
c0 105 82 174 188 174c88 0 149 -47 149 -133c0 -90 -69 -159 -163 -183c14 -7 32 -11 55 -11c290 0 323 563 352 1018c1 16 2 31 2 45c0 104 -35 126 -168 131v41c54 -4 138 -5 194 -5c65 0 66 5 170 5c117 0 172 -6 302 -6c75 0 211 2 282 6z" />
    <glyph glyph-name="uni043C" unicode="&#x43c;" horiz-adv-x="1807" 
d="M1743 1245v-41c-139 -6 -166 -26 -166 -176v-811c0 -149 27 -170 166 -176v-41c-73 4 -196 6 -309 6c-141 0 -274 -2 -349 -6v41c140 6 166 27 166 176v899l-469 -1126h-32l-476 1124v-840c0 -174 34 -215 211 -233v-41c-60 4 -149 6 -233 6c-65 0 -136 -2 -178 -6v41
c130 18 153 59 153 233v754c0 150 -26 170 -166 176v41c73 -4 202 -6 326 -6c68 0 132 2 183 6l339 -816l342 810h183c113 0 236 2 309 6z" />
    <glyph glyph-name="uni043D" unicode="&#x43d;" horiz-adv-x="1600" 
d="M1530 1245v-41c-130 -6 -153 -26 -153 -176v-811c0 -149 24 -170 153 -176v-41c-64 4 -178 6 -299 6c-119 0 -246 -2 -321 -6v41c130 6 153 27 153 176v397h-526v-397c0 -149 24 -170 154 -176v-41c-76 4 -203 6 -322 6c-121 0 -234 -2 -299 -6v41c131 6 154 27 154 176
v811c0 150 -25 170 -154 176v41c65 -4 178 -6 299 -6c119 0 246 2 322 6v-41c-131 -6 -154 -26 -154 -176v-373h526v373c0 150 -24 170 -153 176v41c75 -4 202 -6 321 -6c121 0 235 2 299 6z" />
    <glyph glyph-name="uni043E" unicode="&#x43e;" horiz-adv-x="1555" 
d="M779 1274c413 0 690 -232 690 -639c0 -397 -287 -664 -692 -664c-414 0 -691 232 -691 639c0 398 287 664 693 664zM770 1237c-217 0 -356 -256 -356 -619c0 -374 166 -610 371 -610c217 0 356 256 356 619c0 374 -165 610 -371 610z" />
    <glyph glyph-name="uni043F" unicode="&#x43f;" horiz-adv-x="1600" 
d="M1530 1245v-41c-130 -6 -153 -26 -153 -176v-811c0 -149 24 -170 153 -176v-41c-64 4 -178 6 -299 6c-119 0 -246 -2 -321 -6v41c130 6 153 27 153 176v811c0 150 -24 176 -153 176h-219c-131 0 -154 -26 -154 -176v-811c0 -149 24 -170 154 -176v-41
c-76 4 -203 6 -322 6c-121 0 -234 -2 -299 -6v41c131 6 154 27 154 176v811c0 150 -25 170 -154 176v41c65 -4 178 -6 299 -6c123 0 256 6 432 6c175 0 307 -6 430 -6c121 0 235 2 299 6z" />
    <glyph glyph-name="uni0440" unicode="&#x440;" horiz-adv-x="1261" 
d="M537 504v-287c0 -149 27 -170 166 -176v-41c-81 4 -218 6 -346 6c-117 0 -225 -2 -287 -6v41c131 6 154 27 154 176v811c0 150 -25 170 -154 176v41c62 -4 175 -6 274 -6c144 0 290 4 347 4c365 0 526 -129 526 -342c0 -186 -125 -397 -592 -397h-88zM537 545h68
c235 0 284 155 284 334c0 215 -59 325 -225 325c-105 0 -127 -35 -127 -176v-483z" />
    <glyph glyph-name="uni0441" unicode="&#x441;" horiz-adv-x="1346" 
d="M1240 0h-47c-7 83 -23 124 -51 124c-12 0 -25 -7 -41 -20c-86 -71 -188 -133 -354 -133c-387 0 -660 232 -660 639c0 398 284 664 657 664c175 0 261 -64 343 -133c15 -13 29 -20 40 -20c28 0 45 41 52 124h47c-6 -92 -8 -213 -8 -430h-47c-29 150 -48 197 -103 262
c-74 89 -173 144 -280 144c-227 0 -373 -227 -373 -603c0 -386 171 -593 387 -593c107 0 216 51 289 143c55 70 73 137 94 283h47c0 -228 2 -355 8 -451z" />
    <glyph glyph-name="uni0442" unicode="&#x442;" horiz-adv-x="1329" 
d="M113 786h-47c4 43 6 110 6 181c0 54 -4 167 -15 278c178 -6 427 -6 602 -6c179 0 432 0 613 6c-10 -111 -15 -224 -15 -278c0 -71 3 -138 7 -181h-47c-56 304 -138 412 -332 412h-64v-960c0 -166 35 -191 207 -197v-41c-74 4 -254 6 -369 6c-122 0 -292 -2 -358 -6v41
c172 6 207 31 207 197v960h-64c-194 0 -276 -108 -331 -412z" />
    <glyph glyph-name="uni0443" unicode="&#x443;" horiz-adv-x="1282" 
d="M918 1203v42c92 -4 154 -6 230 -6c52 0 113 2 158 6v-42c-56 -23 -109 -88 -183 -219l-357 -618l-114 -198c-43 -74 -72 -111 -102 -139c-45 -41 -102 -58 -170 -58c-140 0 -226 73 -226 174c0 88 72 157 187 157c97 0 170 -46 170 -132c0 -73 -60 -126 -137 -150
c8 -6 25 -7 37 -7c83 0 136 53 195 157l56 99l-524 811c-54 84 -104 121 -136 123v42c62 -4 188 -6 274 -6c92 0 236 1 324 6v-42c-58 -3 -112 -21 -112 -74c0 -23 10 -53 35 -92l303 -481l162 282c59 104 84 181 84 238c0 86 -61 123 -154 127z" />
    <glyph glyph-name="uni045E" unicode="&#x45e;" horiz-adv-x="1282" 
d="M316 1484c-71 36 -120 84 -120 152c0 77 65 136 161 136c95 0 166 -56 166 -138c0 -72 -57 -116 -126 -133c79 -36 197 -48 281 -48c82 0 200 12 279 49c-74 18 -123 63 -123 132c0 81 69 138 164 138c94 0 163 -58 163 -136c0 -66 -50 -115 -123 -152
c-78 -39 -202 -72 -360 -72c-160 0 -284 33 -362 72zM918 1203v42c92 -4 154 -6 230 -6c52 0 113 2 158 6v-42c-56 -23 -109 -88 -183 -219l-357 -618l-114 -198c-43 -74 -72 -111 -102 -139c-45 -41 -102 -58 -170 -58c-140 0 -226 73 -226 174c0 88 72 157 187 157
c97 0 170 -46 170 -132c0 -73 -60 -126 -137 -150c8 -6 25 -7 37 -7c83 0 136 53 195 157l56 99l-524 811c-54 84 -104 121 -136 123v42c62 -4 188 -6 274 -6c92 0 236 1 324 6v-42c-58 -3 -112 -21 -112 -74c0 -23 10 -53 35 -92l303 -481l162 282c59 104 84 181 84 238
c0 86 -61 123 -154 127z" />
    <glyph glyph-name="uni0444" unicode="&#x444;" horiz-adv-x="1785" 
d="M1042 1171v-45c453 -29 705 -194 705 -492c0 -292 -258 -480 -705 -514v-46c0 -150 23 -170 154 -176v-41c-71 4 -195 6 -303 6c-132 0 -248 -2 -318 -6v41c131 6 154 26 154 176v47c-445 32 -692 206 -692 512c0 279 254 456 692 491v47c0 150 -24 170 -154 177v41
c70 -5 186 -7 318 -7c108 0 232 2 303 7v-41c-131 -7 -154 -27 -154 -177zM1042 1090v-936c270 37 378 189 378 473c0 286 -123 426 -378 463zM729 158v932c-259 -38 -364 -183 -364 -451c0 -292 118 -439 364 -481z" />
    <glyph glyph-name="uni0445" unicode="&#x445;" horiz-adv-x="1319" 
d="M783 729l418 -584c52 -75 76 -96 127 -102v-43c-51 2 -164 7 -265 7c-125 0 -263 -5 -325 -7v43c85 0 128 7 128 34c0 9 -5 21 -16 36l-289 404l-164 -204c-48 -59 -69 -109 -69 -150c0 -73 67 -116 172 -122v-41c-78 4 -240 6 -305 6c-66 0 -126 -3 -175 -6v41
c87 36 194 125 258 202l255 313l-389 545c-54 77 -74 98 -127 102v43c50 -2 163 -7 264 -7c138 0 263 5 326 7v-43c-85 0 -128 -8 -128 -34c0 -9 5 -21 15 -35l262 -366l128 159c52 62 77 120 77 167c0 63 -46 105 -133 110v41c78 -4 190 -6 256 -6c74 0 134 2 174 6v-41
c-73 -22 -157 -88 -224 -169z" />
    <glyph glyph-name="uni0447" unicode="&#x447;" horiz-adv-x="1498" 
d="M1428 1245v-41c-130 -6 -153 -26 -153 -176v-811c0 -149 23 -170 153 -176v-41c-85 3 -195 6 -324 6c-131 0 -278 -3 -362 -6v45c182 2 219 24 219 184v315c-74 -33 -213 -69 -362 -69c-124 0 -231 25 -305 72c-95 60 -123 142 -123 287v205c0 135 -30 161 -150 164v42
c66 -3 198 -7 314 -7s228 4 290 7v-42c-114 -3 -141 -29 -141 -164v-263c0 -165 29 -235 221 -235c93 0 192 16 256 41v446c0 150 -24 170 -153 176v41c69 -4 196 -6 316 -6s233 2 304 6z" />
    <glyph glyph-name="uni0446" unicode="&#x446;" horiz-adv-x="1611" 
d="M1518 1245v-41c-131 -6 -154 -26 -154 -176v-811c0 -149 25 -176 154 -176h62c-10 -106 -14 -214 -14 -266c0 -54 2 -100 6 -133h-47c-43 271 -156 358 -348 358h-375c-176 0 -310 6 -433 6c-121 0 -234 -2 -299 -6v41c131 6 154 27 154 176v811c0 150 -25 170 -154 176
v41c65 -4 178 -6 299 -6c119 0 246 2 322 6v-41c-131 -6 -154 -26 -154 -176v-811c0 -149 24 -176 154 -176h206c131 0 154 27 154 176v811c0 150 -24 170 -154 176v41c76 -4 203 -6 322 -6c121 0 234 2 299 6z" />
    <glyph glyph-name="uni0448" unicode="&#x448;" horiz-adv-x="2212" 
d="M2142 1245v-41c-130 -6 -153 -26 -153 -176v-811c0 -149 23 -170 153 -176v-41c-65 4 -178 6 -299 6c-133 0 -274 -6 -375 -6c-94 0 -240 6 -349 6c-122 0 -264 -6 -371 -6c-101 0 -240 6 -367 6c-126 0 -244 -2 -311 -6v41c129 6 154 27 154 176v811
c0 150 -25 170 -154 176v41c70 -4 193 -6 324 -6c100 0 209 2 276 6v-41c-113 -6 -133 -26 -133 -176v-811c0 -149 27 -176 166 -176h81c139 0 165 27 165 176v811c0 150 -19 170 -133 176v41c70 -4 183 -6 289 -6c118 0 228 2 291 6v-41c-114 -6 -133 -26 -133 -176v-811
c0 -149 36 -176 166 -176h80c140 0 166 27 166 176v811c0 150 -19 170 -133 176v41c69 -4 183 -6 289 -6c126 0 244 2 311 6z" />
    <glyph glyph-name="uni0449" unicode="&#x449;" horiz-adv-x="2235" 
d="M2142 1245v-41c-130 -6 -153 -26 -153 -176v-811c0 -149 24 -176 153 -176h62c-10 -106 -14 -214 -14 -266c0 -54 2 -100 6 -133h-47c-42 271 -155 358 -348 358h-333c-94 0 -240 6 -349 6c-122 0 -264 -6 -371 -6c-101 0 -240 6 -367 6c-126 0 -244 -2 -311 -6v41
c129 6 154 27 154 176v811c0 150 -25 170 -154 176v41c70 -4 193 -6 324 -6c100 0 209 2 276 6v-41c-113 -6 -133 -26 -133 -176v-811c0 -149 27 -176 166 -176h81c139 0 165 27 165 176v811c0 150 -19 170 -133 176v41c70 -4 183 -6 289 -6c118 0 228 2 291 6v-41
c-114 -6 -133 -26 -133 -176v-811c0 -149 36 -176 166 -176h80c140 0 166 27 166 176v811c0 150 -19 170 -133 176v41c69 -4 183 -6 289 -6c126 0 244 2 311 6z" />
    <glyph glyph-name="uni045F" unicode="&#x45f;" horiz-adv-x="1589" 
d="M1519 1245v-41c-131 -6 -154 -26 -154 -176v-811c0 -149 24 -170 154 -176v-41c-65 4 -178 6 -299 6c-32 0 -64 0 -97 -1c-163 -11 -274 -108 -301 -363h-47c-27 253 -136 351 -298 363c-37 1 -73 1 -108 1c-121 0 -234 -2 -299 -6v41c131 6 154 27 154 176v811
c0 150 -25 170 -154 176v41c65 -4 178 -6 299 -6c119 0 246 2 322 6v-41c-131 -6 -154 -26 -154 -176v-811c0 -149 24 -176 148 -176h213c131 0 154 27 154 176v811c0 150 -24 170 -154 176v41c76 -4 203 -6 322 -6c121 0 234 2 299 6z" />
    <glyph glyph-name="uni044C" unicode="&#x44c;" horiz-adv-x="1266" 
d="M537 716h96c463 -2 584 -156 584 -344c0 -236 -167 -370 -535 -370c-54 0 -197 4 -338 4c-99 0 -212 -2 -274 -6v41c129 6 154 26 154 176v811c0 150 -23 170 -154 176v41c62 -4 170 -6 287 -6c128 0 265 2 346 6v-41c-139 -6 -166 -26 -166 -176v-312zM537 676v-459
c0 -141 20 -176 119 -176c172 0 233 110 233 315c0 173 -48 320 -276 320h-76z" />
    <glyph glyph-name="uni044A" unicode="&#x44a;" horiz-adv-x="1564" 
d="M835 716h96c463 -2 584 -156 584 -344c0 -236 -167 -370 -535 -370c-55 0 -197 4 -338 4c-100 0 -212 -2 -274 -6v41c129 6 153 26 153 176v981h-63c-179 0 -304 -108 -346 -412h-47c4 45 6 103 6 168c0 57 -4 175 -14 291c171 -5 366 -6 598 -6c128 0 265 2 346 6v-41
c-140 -6 -166 -26 -166 -176v-312zM835 676v-459c0 -141 20 -176 119 -176c172 0 233 110 233 315c0 173 -48 320 -276 320h-76z" />
    <glyph glyph-name="uni044B" unicode="&#x44b;" horiz-adv-x="1941" 
d="M537 716h96c463 -2 584 -156 584 -344c0 -236 -167 -370 -535 -370c-54 0 -197 4 -338 4c-99 0 -212 -2 -274 -6v41c129 6 154 26 154 176v811c0 150 -23 170 -154 176v41c62 -4 170 -6 287 -6c128 0 265 2 346 6v-41c-139 -6 -166 -26 -166 -176v-312zM1871 1245v-41
c-131 -6 -154 -26 -154 -176v-811c0 -149 23 -170 154 -176v-41c-71 4 -195 6 -303 6c-127 0 -251 -2 -318 -6v41c131 6 154 27 154 176v811c0 150 -24 170 -154 176v41c67 -4 191 -6 318 -6c108 0 232 2 303 6zM537 676v-459c0 -141 20 -176 119 -176
c172 0 233 110 233 315c0 173 -48 320 -276 320h-76z" />
    <glyph glyph-name="uni0459" unicode="&#x459;" horiz-adv-x="1953" 
d="M1203 716h111c463 -1 583 -156 583 -344c0 -236 -165 -372 -541 -372c-32 0 -64 1 -94 4c-62 1 -138 2 -213 2c-118 0 -244 -2 -313 -6v41c130 6 153 27 153 176v811c0 152 -19 176 -121 176h-26c-104 0 -109 -27 -122 -176c-38 -425 -38 -1057 -403 -1057
c-121 0 -224 73 -224 192c0 105 82 174 188 174c88 0 149 -47 149 -133c0 -90 -69 -159 -163 -183c14 -7 32 -11 55 -11c290 0 323 563 352 1018c1 16 2 31 2 45c0 104 -35 126 -168 131v41c54 -4 138 -5 194 -5c65 0 66 5 170 5c117 0 172 -6 302 -6c75 0 211 2 282 6v-41
c-130 -6 -153 -26 -153 -176v-312zM1203 676v-459c0 -142 21 -168 135 -175h7c161 0 225 109 225 314c0 173 -48 320 -277 320h-90z" />
    <glyph glyph-name="uni045A" unicode="&#x45a;" horiz-adv-x="2086" 
d="M1354 679h96c467 -2 584 -144 584 -330c0 -227 -173 -347 -530 -347c-63 0 -201 4 -341 4c-101 0 -214 -2 -276 -6v41c130 6 154 26 154 176v422h-504v-422c0 -149 23 -170 154 -176v-41c-71 4 -195 6 -304 6c-126 0 -250 -2 -317 -6v41c131 6 154 27 154 176v811
c0 150 -25 170 -154 176v41c67 -4 191 -6 317 -6c109 0 233 2 304 6v-41c-131 -6 -154 -26 -154 -176v-348h504v348c0 150 -23 170 -154 176v41c62 -4 168 -6 293 -6c120 0 259 2 340 6v-41c-139 -6 -166 -26 -166 -176v-349zM1354 639v-422c0 -138 20 -176 115 -176
c176 0 237 107 237 297c0 173 -46 301 -276 301h-76z" />
    <glyph glyph-name="uni0454" unicode="&#x454;" horiz-adv-x="1356" 
d="M1185 451h47c0 -228 2 -355 8 -451h-47c-7 81 -21 124 -51 124c-11 0 -25 -7 -41 -20c-94 -73 -176 -133 -364 -133c-368 0 -650 232 -650 634c0 405 285 669 655 669c181 0 259 -62 345 -133c15 -13 28 -19 40 -19c28 0 45 39 52 123h47c-6 -82 -8 -188 -8 -381h-47
c-22 97 -50 156 -100 214c-76 89 -175 143 -284 143c-225 0 -372 -230 -372 -596l1 -45c46 134 138 198 227 198c124 0 193 -122 302 -122c47 0 111 21 135 89l31 -8c-34 -175 -136 -264 -245 -264c-130 0 -183 123 -303 123c-50 0 -108 -22 -143 -79
c28 -324 186 -492 380 -492c105 0 219 51 291 141c53 67 76 149 94 285z" />
    <glyph glyph-name="uni044D" unicode="&#x44d;" horiz-adv-x="1356" 
d="M131 1245h47c8 -85 24 -123 51 -123c12 0 25 6 41 19c90 69 175 133 360 133c363 0 640 -248 640 -651s-277 -652 -654 -652c-184 0 -265 60 -360 133c-17 13 -31 20 -42 20c-28 0 -42 -39 -50 -124h-47c6 86 8 199 8 401h47c16 -98 45 -174 94 -235
c72 -89 185 -141 293 -141c212 0 383 204 383 606c0 18 0 35 -1 53c-47 -126 -141 -189 -230 -189c-123 0 -196 119 -303 119c-45 0 -101 -21 -122 -87l-31 6c34 171 134 258 238 258c127 0 177 -120 295 -120c48 0 111 20 149 76c-27 293 -157 474 -348 474
c-109 0 -227 -57 -301 -144c-48 -55 -81 -130 -102 -262h-47c0 217 -2 338 -8 430z" />
    <glyph glyph-name="uni044E" unicode="&#x44e;" horiz-adv-x="2111" 
d="M537 655h227c19 373 276 619 630 619c377 0 629 -232 629 -639c0 -397 -262 -664 -631 -664c-377 0 -629 232 -629 639v4h-226v-397c0 -149 23 -170 154 -176v-41c-71 4 -195 6 -304 6c-126 0 -250 -2 -317 -6v41c131 6 154 27 154 176v811c0 150 -25 170 -154 176v41
c67 -4 191 -6 317 -6c109 0 233 2 304 6v-41c-131 -6 -154 -26 -154 -176v-373zM1400 8c181 0 295 256 295 619c0 374 -139 610 -309 610c-180 0 -295 -256 -295 -619c0 -374 139 -610 309 -610z" />
    <glyph glyph-name="uni044F" unicode="&#x44f;" horiz-adv-x="1372" 
d="M1302 1245v-41c-130 -6 -154 -26 -154 -176v-811c0 -149 23 -170 154 -176v-41c-63 4 -171 6 -287 6c-129 0 -265 -2 -346 -6v41c139 6 166 27 166 176v358h-108c-118 0 -170 -85 -200 -250l-34 -159c-23 -132 -113 -195 -271 -195c-107 0 -188 34 -251 113l27 26
c25 -26 52 -44 84 -44c44 0 69 33 86 109l35 160c33 167 159 225 366 252l8 1c-314 26 -422 166 -422 324c0 207 142 331 534 331c55 0 198 -4 338 -4c100 0 212 2 275 6zM835 618v410c0 141 -20 176 -119 176c-172 0 -233 -102 -233 -290c0 -161 47 -296 276 -296h76z" />
    <glyph glyph-name="uni0452" unicode="&#x452;" horiz-adv-x="1794" 
d="M822 1198v-640c91 75 244 136 435 136c268 0 498 -123 498 -369c0 -238 -235 -354 -490 -354c-164 0 -343 76 -343 245c0 104 77 166 176 166c94 0 157 -58 157 -153c0 -93 -60 -152 -156 -179c24 -18 74 -36 121 -36c124 0 223 115 223 302c0 180 -81 313 -297 313
c-125 0 -263 -50 -324 -113v-535c-79 21 -179 29 -285 29c-77 0 -167 -2 -247 -6v41c182 2 219 25 219 193v960h-63c-195 0 -276 -108 -332 -412h-47c4 43 6 110 6 181c0 54 -4 167 -14 278c177 -6 426 -6 602 -6c179 0 431 0 612 6c-10 -111 -14 -224 -14 -278
c0 -71 2 -138 6 -181h-47c-56 304 -138 412 -332 412h-64z" />
    <glyph glyph-name="uni0455" unicode="&#x455;" horiz-adv-x="1183" 
d="M119 485h47c19 -280 150 -467 409 -467c111 0 228 53 228 188c0 118 -100 185 -282 289c-212 121 -400 248 -400 447c0 222 207 332 471 332c139 0 224 -39 287 -76c32 -19 51 -29 69 -29c27 0 37 33 45 91h47c-6 -74 -10 -164 -10 -426h-47c-29 241 -160 395 -370 395
c-137 0 -228 -67 -228 -161c0 -130 140 -201 330 -316c197 -112 381 -226 381 -433c0 -231 -216 -348 -506 -348c-149 0 -247 47 -316 80c-34 17 -55 25 -71 25c-27 0 -37 -31 -45 -90h-47c6 85 8 206 8 499z" />
    <glyph glyph-name="uni0456" unicode="&#x456;" horiz-adv-x="761" 
d="M691 1245v-41c-131 -6 -154 -26 -154 -176v-811c0 -149 23 -170 154 -176v-41c-71 4 -195 6 -304 6c-126 0 -250 -2 -317 -6v41c131 6 154 27 154 176v811c0 150 -25 170 -154 176v41c67 -4 191 -6 317 -6c109 0 233 2 304 6z" />
    <glyph glyph-name="uni0457" unicode="&#x457;" horiz-adv-x="761" 
d="M136 1740c82 0 154 -72 154 -154c0 -85 -72 -154 -154 -154c-85 0 -155 69 -155 154c0 82 70 154 155 154zM626 1740c82 0 155 -72 155 -154c0 -85 -73 -154 -155 -154c-85 0 -154 69 -154 154c0 82 69 154 154 154zM691 1245v-41c-131 -6 -154 -26 -154 -176v-811
c0 -149 23 -170 154 -176v-41c-71 4 -195 6 -304 6c-126 0 -250 -2 -317 -6v41c131 6 154 27 154 176v811c0 150 -25 170 -154 176v41c67 -4 191 -6 317 -6c109 0 233 2 304 6z" />
    <glyph glyph-name="uni0458" unicode="&#x458;" horiz-adv-x="733" 
d="M678 1245v-41c-131 -6 -154 -26 -154 -176v-545v-107c0 -150 -3 -316 -35 -427c-52 -189 -225 -332 -489 -332c-62 0 -139 8 -193 36c-57 30 -83 73 -83 132c0 79 65 133 160 133c89 0 150 -47 150 -130c0 -49 -29 -102 -92 -128c15 -2 35 -4 55 -4c76 0 127 42 159 107
c38 64 55 157 55 371v894c0 150 -24 170 -154 176v41c65 -4 178 -6 299 -6c119 0 246 2 322 6z" />
    <glyph glyph-name="uni045B" unicode="&#x45b;" horiz-adv-x="1703" 
d="M1562 334v-127c0 -135 29 -161 149 -164v-42c-63 3 -187 7 -303 7s-236 -4 -301 -7v42c114 3 141 29 141 164v185c0 165 -28 235 -208 235c-81 0 -162 -14 -224 -35v-354c0 -166 24 -191 154 -197v-41c-64 4 -215 6 -324 6c-110 0 -284 -2 -350 -6v41
c172 6 207 31 207 197v960h-88c-175 0 -264 -97 -307 -375h-47c4 36 6 92 6 137c0 64 -4 174 -15 285c178 -6 427 -6 603 -6c179 0 431 0 612 6c-10 -111 -14 -221 -14 -285c0 -45 2 -102 6 -137h-47c-44 278 -133 375 -308 375h-88v-566c75 29 191 61 324 61
c120 0 226 -27 299 -72c94 -60 123 -142 123 -287z" />
    </font>
</defs>
</svg>
