<?xml version="1.0" standalone="no"?>
<!DOCTYPE svg PUBLIC "-//W3C//DTD SVG 1.1//EN" "http://www.w3.org/Graphics/SVG/1.1/DTD/svg11.dtd" >
<svg xmlns="http://www.w3.org/2000/svg" xmlns:xlink="http://www.w3.org/1999/xlink" version="1.1">
<metadata>
Created by FontForge 20190801 at Wed Jun 12 15:48:29 2013
 By Jimmy Wärting
Copyright (c) 2010-2012 by Claus Eggers Srensen (es@forthehearts.net), with Reserved Font Name 'Playfair'.
</metadata>
<defs>
<font id="PlayfairDisplaySC-Regular" horiz-adv-x="694" >
  <font-face 
    font-family="Playfair Display SC"
    font-weight="400"
    font-stretch="normal"
    units-per-em="2048"
    panose-1="0 0 5 0 0 0 0 0 0 0"
    ascent="1638"
    descent="-410"
    x-height="1245"
    cap-height="1450"
    bbox="-547 -494 2179 2017"
    underline-thickness="50"
    underline-position="-100"
    stemh="41"
    stemv="47"
    unicode-range="U+000D-25CA"
  />
<missing-glyph horiz-adv-x="1151" 
d="M1028 0h-905v1581h905v-1581zM197 1520v-1459h757v1459h-757z" />
    <glyph glyph-name=".notdef" horiz-adv-x="1151" 
d="M1028 0h-905v1581h905v-1581zM197 1520v-1459h757v1459h-757z" />
    <glyph glyph-name="A" unicode="A" horiz-adv-x="1290" 
d="M662 1460l499 -1288c41 -104 99 -129 142 -131v-41c-56 4 -142 6 -220 6c-106 0 -204 -2 -262 -6v41c99 4 145 19 145 76c0 24 -8 55 -24 96l-126 336h-494l-84 -217c-28 -71 -41 -126 -41 -168c0 -89 61 -120 178 -123v-41c-78 4 -164 6 -236 6c-69 0 -112 -2 -153 -6
v41c53 12 114 55 161 178l482 1241h33zM801 590l-229 611l-235 -611h464z" />
    <glyph glyph-name="Aacute" unicode="&#xc1;" horiz-adv-x="1290" 
d="M522 1581l-14 27c188 143 258 233 344 288c22 14 43 20 62 20c27 0 49 -13 63 -34c7 -12 11 -25 11 -38c0 -27 -16 -56 -54 -81c-88 -53 -201 -75 -412 -182zM662 1460l499 -1288c41 -104 99 -129 142 -131v-41c-56 4 -142 6 -220 6c-106 0 -204 -2 -262 -6v41
c99 4 145 19 145 76c0 24 -8 55 -24 96l-126 336h-494l-84 -217c-28 -71 -41 -126 -41 -168c0 -89 61 -120 178 -123v-41c-78 4 -164 6 -236 6c-69 0 -112 -2 -153 -6v41c53 12 114 55 161 178l482 1241h33zM801 590l-229 611l-235 -611h464z" />
    <glyph glyph-name="Abreve" unicode="&#x102;" horiz-adv-x="1290" 
d="M1016 1862l24 -23c-65 -106 -198 -237 -407 -237s-342 131 -408 237l27 21c63 -62 184 -131 381 -131c196 0 319 71 383 133zM662 1460l499 -1288c41 -104 99 -129 142 -131v-41c-56 4 -142 6 -220 6c-106 0 -204 -2 -262 -6v41c99 4 145 19 145 76c0 24 -8 55 -24 96
l-126 336h-494l-84 -217c-28 -71 -41 -126 -41 -168c0 -89 61 -120 178 -123v-41c-78 4 -164 6 -236 6c-69 0 -112 -2 -153 -6v41c53 12 114 55 161 178l482 1241h33zM801 590l-229 611l-235 -611h464z" />
    <glyph glyph-name="Acircumflex" unicode="&#xc2;" horiz-adv-x="1290" 
d="M1035 1606l-11 -29c-164 35 -338 92 -432 143c-78 -51 -219 -108 -350 -143l-10 29c178 61 319 166 383 270h37c63 -104 204 -209 383 -270zM662 1460l499 -1288c41 -104 99 -129 142 -131v-41c-56 4 -142 6 -220 6c-106 0 -204 -2 -262 -6v41c99 4 145 19 145 76
c0 24 -8 55 -24 96l-126 336h-494l-84 -217c-28 -71 -41 -126 -41 -168c0 -89 61 -120 178 -123v-41c-78 4 -164 6 -236 6c-69 0 -112 -2 -153 -6v41c53 12 114 55 161 178l482 1241h33zM801 590l-229 611l-235 -611h464z" />
    <glyph glyph-name="Adieresis" unicode="&#xc4;" horiz-adv-x="1290" 
d="M416 1581c-66 0 -119 53 -119 119c0 63 53 119 119 119c63 0 119 -56 119 -119c0 -66 -56 -119 -119 -119zM850 1581c-65 0 -119 53 -119 119c0 63 54 119 119 119c64 0 119 -56 119 -119c0 -66 -55 -119 -119 -119zM662 1460l499 -1288c41 -104 99 -129 142 -131v-41
c-56 4 -142 6 -220 6c-106 0 -204 -2 -262 -6v41c99 4 145 19 145 76c0 24 -8 55 -24 96l-126 336h-494l-84 -217c-28 -71 -41 -126 -41 -168c0 -89 61 -120 178 -123v-41c-78 4 -164 6 -236 6c-69 0 -112 -2 -153 -6v41c53 12 114 55 161 178l482 1241h33zM801 590
l-229 611l-235 -611h464z" />
    <glyph glyph-name="Agrave" unicode="&#xc0;" horiz-adv-x="1290" 
d="M770 1608l-14 -27c-211 107 -324 129 -412 182c-38 25 -54 54 -54 81c0 13 4 26 11 38c14 21 36 34 63 34c19 0 40 -6 62 -20c86 -55 156 -145 344 -288zM662 1460l499 -1288c41 -104 99 -129 142 -131v-41c-56 4 -142 6 -220 6c-106 0 -204 -2 -262 -6v41
c99 4 145 19 145 76c0 24 -8 55 -24 96l-126 336h-494l-84 -217c-28 -71 -41 -126 -41 -168c0 -89 61 -120 178 -123v-41c-78 4 -164 6 -236 6c-69 0 -112 -2 -153 -6v41c53 12 114 55 161 178l482 1241h33zM801 590l-229 611l-235 -611h464z" />
    <glyph glyph-name="Amacron" unicode="&#x100;" horiz-adv-x="1290" 
d="M993 1677h-721v52h721v-52zM662 1460l499 -1288c41 -104 99 -129 142 -131v-41c-56 4 -142 6 -220 6c-106 0 -204 -2 -262 -6v41c99 4 145 19 145 76c0 24 -8 55 -24 96l-126 336h-494l-84 -217c-28 -71 -41 -126 -41 -168c0 -89 61 -120 178 -123v-41
c-78 4 -164 6 -236 6c-69 0 -112 -2 -153 -6v41c53 12 114 55 161 178l482 1241h33zM801 590l-229 611l-235 -611h464z" />
    <glyph glyph-name="Aogonek" unicode="&#x104;" horiz-adv-x="1290" 
d="M1280 -219l30 -27c-63 -96 -141 -139 -231 -139c-98 0 -162 53 -162 133c0 106 101 198 279 257c-37 1 -76 1 -113 1c-106 0 -204 -2 -262 -6v41c99 4 145 19 145 76c0 24 -8 55 -24 96l-126 336h-494l-84 -217c-28 -71 -41 -126 -41 -168c0 -89 61 -120 178 -123v-41
c-78 4 -164 6 -236 6c-69 0 -112 -2 -153 -6v41c53 12 114 55 161 178l482 1241h33l499 -1288c41 -104 99 -129 142 -131v-41l-38 2c-152 -44 -198 -131 -198 -199c0 -53 32 -90 88 -90c51 0 98 31 125 68zM801 590l-229 611l-235 -611h464z" />
    <glyph glyph-name="Aring" unicode="&#xc5;" horiz-adv-x="1290" 
d="M633 1520c-104 0 -196 71 -196 188c0 115 92 186 196 186c107 0 199 -71 199 -186c0 -117 -92 -188 -199 -188zM633 1851c-65 0 -139 -51 -139 -145c0 -96 74 -143 139 -143c68 0 142 47 142 143c0 94 -74 145 -142 145zM662 1460l499 -1288c41 -104 99 -129 142 -131
v-41c-56 4 -142 6 -220 6c-106 0 -204 -2 -262 -6v41c99 4 145 19 145 76c0 24 -8 55 -24 96l-126 336h-494l-84 -217c-28 -71 -41 -126 -41 -168c0 -89 61 -120 178 -123v-41c-78 4 -164 6 -236 6c-69 0 -112 -2 -153 -6v41c53 12 114 55 161 178l482 1241h33zM801 590
l-229 611l-235 -611h464z" />
    <glyph glyph-name="Atilde" unicode="&#xc3;" horiz-adv-x="1290" 
d="M992 1804l30 -6c-12 -135 -112 -217 -227 -217c-151 0 -256 158 -397 158c-57 0 -103 -27 -127 -115l-31 6c12 135 113 217 227 217c152 0 256 -157 398 -157c55 0 102 26 127 114zM662 1460l499 -1288c41 -104 99 -129 142 -131v-41c-56 4 -142 6 -220 6
c-106 0 -204 -2 -262 -6v41c99 4 145 19 145 76c0 24 -8 55 -24 96l-126 336h-494l-84 -217c-28 -71 -41 -126 -41 -168c0 -89 61 -120 178 -123v-41c-78 4 -164 6 -236 6c-69 0 -112 -2 -153 -6v41c53 12 114 55 161 178l482 1241h33zM801 590l-229 611l-235 -611h464z" />
    <glyph glyph-name="AE" unicode="&#xc6;" horiz-adv-x="1749" 
d="M1595 410h47c-4 -37 -6 -91 -6 -148c0 -51 4 -158 15 -262c-127 6 -303 6 -428 6c-103 0 -322 0 -492 -6v41c107 6 125 27 125 176v492h-358l-299 -496c-25 -42 -38 -75 -38 -100c0 -49 49 -68 142 -72v-41c-41 4 -113 6 -186 6c-47 0 -103 -2 -137 -6v41
c43 2 83 35 141 131l718 1184c-21 40 -64 49 -149 53v41c63 -2 134 -3 203 -4l82 135h49l-82 -136c113 -1 218 -1 281 -1c112 0 272 0 387 6c-11 -96 -15 -195 -15 -242c0 -49 2 -96 7 -127h-48c-20 242 -45 322 -213 322h-129c-139 0 -165 -21 -165 -170v-483h149
c143 0 137 147 150 229h47c-6 -78 -8 -130 -8 -171c0 -30 1 -54 1 -79c0 -59 3 -115 13 -250h-47c-13 111 -15 230 -156 230h-149v-492c0 -149 26 -170 165 -170h150c201 0 211 92 233 363zM856 750v483c0 25 -1 47 -3 65l-330 -548h333z" />
    <glyph glyph-name="B" unicode="B" horiz-adv-x="1276" 
d="M766 770v-4c324 -43 418 -203 418 -369c0 -233 -185 -397 -492 -397c-61 0 -184 6 -352 6c-96 0 -197 -2 -254 -6v41c139 6 166 27 166 176v1016c0 149 -27 170 -166 176v41c57 -4 160 -6 250 -6c129 0 260 4 309 4c287 0 432 -133 432 -322c0 -145 -82 -286 -311 -356z
M442 770h138c241 0 301 156 301 334c0 201 -82 305 -287 305c-125 0 -152 -35 -152 -176v-463zM442 735v-518c0 -143 27 -170 154 -170c268 0 383 129 383 359c0 208 -105 329 -365 329h-172z" />
    <glyph glyph-name="C" unicode="C" horiz-adv-x="1409" 
d="M1276 0h-47c-7 84 -21 121 -50 121c-11 0 -25 -6 -42 -17c-101 -71 -203 -133 -379 -133c-389 0 -649 273 -649 742c0 458 270 766 651 766c180 0 287 -64 377 -133c15 -12 28 -18 40 -18c28 0 45 38 52 122h47c-6 -100 -8 -233 -8 -471h-47c-29 174 -45 229 -103 303
c-86 111 -221 160 -362 160c-267 0 -443 -277 -443 -721c0 -457 199 -709 463 -709c123 0 273 45 350 156c60 80 74 158 95 324h47c0 -248 2 -388 8 -492z" />
    <glyph glyph-name="Cacute" unicode="&#x106;" horiz-adv-x="1409" 
d="M634 1581l-14 27c188 143 258 233 344 288c22 14 43 20 62 20c27 0 49 -13 63 -34c7 -12 11 -25 11 -38c0 -27 -16 -56 -54 -81c-88 -53 -201 -75 -412 -182zM1276 0h-47c-7 84 -21 121 -50 121c-11 0 -25 -6 -42 -17c-101 -71 -203 -133 -379 -133
c-389 0 -649 273 -649 742c0 458 270 766 651 766c180 0 287 -64 377 -133c15 -12 28 -18 40 -18c28 0 45 38 52 122h47c-6 -100 -8 -233 -8 -471h-47c-29 174 -45 229 -103 303c-86 111 -221 160 -362 160c-267 0 -443 -277 -443 -721c0 -457 199 -709 463 -709
c123 0 273 45 350 156c60 80 74 158 95 324h47c0 -248 2 -388 8 -492z" />
    <glyph glyph-name="Ccaron" unicode="&#x10c;" horiz-adv-x="1409" 
d="M1130 1896l11 -28c-179 -62 -320 -166 -383 -271h-37c-64 105 -205 209 -383 271l10 28c164 -34 338 -92 432 -143c78 51 219 109 350 143zM1276 0h-47c-7 84 -21 121 -50 121c-11 0 -25 -6 -42 -17c-101 -71 -203 -133 -379 -133c-389 0 -649 273 -649 742
c0 458 270 766 651 766c180 0 287 -64 377 -133c15 -12 28 -18 40 -18c28 0 45 38 52 122h47c-6 -100 -8 -233 -8 -471h-47c-29 174 -45 229 -103 303c-86 111 -221 160 -362 160c-267 0 -443 -277 -443 -721c0 -457 199 -709 463 -709c123 0 273 45 350 156
c60 80 74 158 95 324h47c0 -248 2 -388 8 -492z" />
    <glyph glyph-name="Ccedilla" unicode="&#xc7;" horiz-adv-x="1409" 
d="M1221 492h47c0 -248 2 -388 8 -492h-47c-7 84 -21 121 -50 121c-11 0 -25 -6 -42 -17c-98 -69 -196 -129 -361 -133l-41 -118c35 8 76 14 121 14c76 0 125 -35 125 -96c0 -115 -133 -156 -231 -156c-76 0 -133 10 -170 23l8 36c14 -2 45 -6 78 -6c80 0 184 19 184 92
c0 39 -31 58 -86 58c-22 0 -69 -4 -100 -15l56 169c-368 17 -611 287 -611 741c0 458 270 766 651 766c180 0 287 -64 377 -133c15 -12 28 -18 40 -18c28 0 45 38 52 122h47c-6 -100 -8 -233 -8 -471h-47c-29 174 -45 229 -103 303c-86 111 -221 160 -362 160
c-267 0 -443 -277 -443 -721c0 -457 199 -709 463 -709c123 0 273 45 350 156c60 80 74 158 95 324z" />
    <glyph glyph-name="Ccircumflex" unicode="&#x108;" horiz-adv-x="1409" 
d="M727 1876h37c63 -104 204 -209 383 -270l-11 -29c-164 35 -338 92 -432 143c-78 -51 -219 -108 -350 -143l-10 29c178 61 319 166 383 270zM1276 0h-47c-7 84 -21 121 -50 121c-11 0 -25 -6 -42 -17c-101 -71 -203 -133 -379 -133c-389 0 -649 273 -649 742
c0 458 270 766 651 766c180 0 287 -64 377 -133c15 -12 28 -18 40 -18c28 0 45 38 52 122h47c-6 -100 -8 -233 -8 -471h-47c-29 174 -45 229 -103 303c-86 111 -221 160 -362 160c-267 0 -443 -277 -443 -721c0 -457 199 -709 463 -709c123 0 273 45 350 156
c60 80 74 158 95 324h47c0 -248 2 -388 8 -492z" />
    <glyph glyph-name="Cdotaccent" unicode="&#x10a;" horiz-adv-x="1409" 
d="M772 1843c71 0 131 -59 131 -131s-60 -131 -131 -131c-72 0 -131 59 -131 131s59 131 131 131zM1276 0h-47c-7 84 -21 121 -50 121c-11 0 -25 -6 -42 -17c-101 -71 -203 -133 -379 -133c-389 0 -649 273 -649 742c0 458 270 766 651 766c180 0 287 -64 377 -133
c15 -12 28 -18 40 -18c28 0 45 38 52 122h47c-6 -100 -8 -233 -8 -471h-47c-29 174 -45 229 -103 303c-86 111 -221 160 -362 160c-267 0 -443 -277 -443 -721c0 -457 199 -709 463 -709c123 0 273 45 350 156c60 80 74 158 95 324h47c0 -248 2 -388 8 -492z" />
    <glyph glyph-name="D" unicode="D" horiz-adv-x="1481" 
d="M86 1409v41c47 -3 124 -7 200 -7c17 0 33 1 50 1c94 2 231 6 309 6c488 0 723 -252 723 -709c0 -446 -270 -741 -741 -741c-62 0 -199 6 -287 6c-96 0 -197 -2 -254 -6v41c139 6 166 27 166 176v1016c0 149 -27 170 -166 176zM442 1237v-1024c0 -143 27 -176 154 -176
c446 0 567 250 567 696c0 459 -145 680 -569 680c-125 0 -152 -35 -152 -176z" />
    <glyph glyph-name="Eth" unicode="&#xd0;" horiz-adv-x="1483" 
d="M88 1409v41c47 -3 124 -7 200 -7c17 0 33 1 50 1c94 2 231 6 309 6c488 0 723 -252 723 -709c0 -446 -270 -741 -741 -741c-62 0 -199 6 -287 6c-96 0 -197 -2 -254 -6v41c139 6 166 27 166 176v492h-166v41h166v483c0 149 -27 170 -166 176zM444 709v-496
c0 -143 27 -176 154 -176c446 0 567 250 567 696c0 459 -145 680 -569 680c-125 0 -152 -35 -152 -176v-487h285v-41h-285z" />
    <glyph glyph-name="Dcaron" unicode="&#x10e;" horiz-adv-x="1481" 
d="M1030 1896l11 -28c-179 -62 -320 -166 -383 -271h-37c-64 105 -205 209 -383 271l10 28c164 -34 338 -92 432 -143c78 51 219 109 350 143zM86 1409v41c47 -3 124 -7 200 -7c17 0 33 1 50 1c94 2 231 6 309 6c488 0 723 -252 723 -709c0 -446 -270 -741 -741 -741
c-62 0 -199 6 -287 6c-96 0 -197 -2 -254 -6v41c139 6 166 27 166 176v1016c0 149 -27 170 -166 176zM442 1237v-1024c0 -143 27 -176 154 -176c446 0 567 250 567 696c0 459 -145 680 -569 680c-125 0 -152 -35 -152 -176z" />
    <glyph glyph-name="Dcroat" unicode="&#x110;" horiz-adv-x="1483" 
d="M88 1409v41c47 -3 124 -7 200 -7c17 0 33 1 50 1c94 2 231 6 309 6c488 0 723 -252 723 -709c0 -446 -270 -741 -741 -741c-62 0 -199 6 -287 6c-96 0 -197 -2 -254 -6v41c139 6 166 27 166 176v492h-166v41h166v483c0 149 -27 170 -166 176zM444 709v-496
c0 -143 27 -176 154 -176c446 0 567 250 567 696c0 459 -145 680 -569 680c-125 0 -152 -35 -152 -176v-487h285v-41h-285z" />
    <glyph glyph-name="E" unicode="E" horiz-adv-x="1247" 
d="M1094 410h47c-4 -37 -6 -91 -6 -148c0 -51 4 -158 14 -262c-139 6 -332 6 -469 6c-123 0 -393 0 -594 -6v41c139 6 166 27 166 176v1016c0 149 -27 170 -166 176v41c201 -6 471 -6 594 -6c125 0 301 0 428 6c-10 -96 -14 -195 -14 -242c0 -49 2 -96 6 -127h-47
c-27 242 -58 322 -275 322h-170c-139 0 -166 -21 -166 -170v-483h136c178 0 174 172 190 270h47c-6 -87 -7 -146 -7 -193c0 -38 1 -68 1 -98c0 -67 2 -135 12 -291h-47c-16 131 -18 271 -196 271h-136v-492c0 -149 27 -170 166 -170h150c256 0 307 92 336 363z" />
    <glyph glyph-name="Eacute" unicode="&#xc9;" horiz-adv-x="1247" 
d="M516 1581l-14 27c188 143 258 233 344 288c22 14 43 20 62 20c27 0 49 -13 63 -34c7 -12 11 -25 11 -38c0 -27 -16 -56 -54 -81c-88 -53 -201 -75 -412 -182zM1094 410h47c-4 -37 -6 -91 -6 -148c0 -51 4 -158 14 -262c-139 6 -332 6 -469 6c-123 0 -393 0 -594 -6v41
c139 6 166 27 166 176v1016c0 149 -27 170 -166 176v41c201 -6 471 -6 594 -6c125 0 301 0 428 6c-10 -96 -14 -195 -14 -242c0 -49 2 -96 6 -127h-47c-27 242 -58 322 -275 322h-170c-139 0 -166 -21 -166 -170v-483h136c178 0 174 172 190 270h47c-6 -87 -7 -146 -7 -193
c0 -38 1 -68 1 -98c0 -67 2 -135 12 -291h-47c-16 131 -18 271 -196 271h-136v-492c0 -149 27 -170 166 -170h150c256 0 307 92 336 363z" />
    <glyph glyph-name="Ebreve" unicode="&#x114;" horiz-adv-x="1247" 
d="M1010 1862l24 -23c-65 -106 -198 -237 -407 -237s-342 131 -408 237l27 21c63 -62 184 -131 381 -131c196 0 319 71 383 133zM1094 410h47c-4 -37 -6 -91 -6 -148c0 -51 4 -158 14 -262c-139 6 -332 6 -469 6c-123 0 -393 0 -594 -6v41c139 6 166 27 166 176v1016
c0 149 -27 170 -166 176v41c201 -6 471 -6 594 -6c125 0 301 0 428 6c-10 -96 -14 -195 -14 -242c0 -49 2 -96 6 -127h-47c-27 242 -58 322 -275 322h-170c-139 0 -166 -21 -166 -170v-483h136c178 0 174 172 190 270h47c-6 -87 -7 -146 -7 -193c0 -38 1 -68 1 -98
c0 -67 2 -135 12 -291h-47c-16 131 -18 271 -196 271h-136v-492c0 -149 27 -170 166 -170h150c256 0 307 92 336 363z" />
    <glyph glyph-name="Ecaron" unicode="&#x11a;" horiz-adv-x="1247" 
d="M640 1597h-37c-64 105 -205 209 -383 271l10 28c164 -34 338 -92 432 -143c78 51 219 109 350 143l11 -28c-179 -62 -320 -166 -383 -271zM1094 410h47c-4 -37 -6 -91 -6 -148c0 -51 4 -158 14 -262c-139 6 -332 6 -469 6c-123 0 -393 0 -594 -6v41c139 6 166 27 166 176
v1016c0 149 -27 170 -166 176v41c201 -6 471 -6 594 -6c125 0 301 0 428 6c-10 -96 -14 -195 -14 -242c0 -49 2 -96 6 -127h-47c-27 242 -58 322 -275 322h-170c-139 0 -166 -21 -166 -170v-483h136c178 0 174 172 190 270h47c-6 -87 -7 -146 -7 -193c0 -38 1 -68 1 -98
c0 -67 2 -135 12 -291h-47c-16 131 -18 271 -196 271h-136v-492c0 -149 27 -170 166 -170h150c256 0 307 92 336 363z" />
    <glyph glyph-name="Ecircumflex" unicode="&#xca;" horiz-adv-x="1247" 
d="M1029 1606l-11 -29c-164 35 -338 92 -432 143c-78 -51 -219 -108 -350 -143l-10 29c178 61 319 166 383 270h37c63 -104 204 -209 383 -270zM1094 410h47c-4 -37 -6 -91 -6 -148c0 -51 4 -158 14 -262c-139 6 -332 6 -469 6c-123 0 -393 0 -594 -6v41
c139 6 166 27 166 176v1016c0 149 -27 170 -166 176v41c201 -6 471 -6 594 -6c125 0 301 0 428 6c-10 -96 -14 -195 -14 -242c0 -49 2 -96 6 -127h-47c-27 242 -58 322 -275 322h-170c-139 0 -166 -21 -166 -170v-483h136c178 0 174 172 190 270h47c-6 -87 -7 -146 -7 -193
c0 -38 1 -68 1 -98c0 -67 2 -135 12 -291h-47c-16 131 -18 271 -196 271h-136v-492c0 -149 27 -170 166 -170h150c256 0 307 92 336 363z" />
    <glyph glyph-name="Edieresis" unicode="&#xcb;" horiz-adv-x="1247" 
d="M410 1581c-66 0 -119 53 -119 119c0 63 53 119 119 119c63 0 119 -56 119 -119c0 -66 -56 -119 -119 -119zM844 1581c-65 0 -119 53 -119 119c0 63 54 119 119 119c64 0 119 -56 119 -119c0 -66 -55 -119 -119 -119zM1094 410h47c-4 -37 -6 -91 -6 -148
c0 -51 4 -158 14 -262c-139 6 -332 6 -469 6c-123 0 -393 0 -594 -6v41c139 6 166 27 166 176v1016c0 149 -27 170 -166 176v41c201 -6 471 -6 594 -6c125 0 301 0 428 6c-10 -96 -14 -195 -14 -242c0 -49 2 -96 6 -127h-47c-27 242 -58 322 -275 322h-170
c-139 0 -166 -21 -166 -170v-483h136c178 0 174 172 190 270h47c-6 -87 -7 -146 -7 -193c0 -38 1 -68 1 -98c0 -67 2 -135 12 -291h-47c-16 131 -18 271 -196 271h-136v-492c0 -149 27 -170 166 -170h150c256 0 307 92 336 363z" />
    <glyph glyph-name="Edotaccent" unicode="&#x116;" horiz-adv-x="1247" 
d="M654 1581c-72 0 -131 59 -131 131s59 131 131 131c71 0 131 -59 131 -131s-60 -131 -131 -131zM1094 410h47c-4 -37 -6 -91 -6 -148c0 -51 4 -158 14 -262c-139 6 -332 6 -469 6c-123 0 -393 0 -594 -6v41c139 6 166 27 166 176v1016c0 149 -27 170 -166 176v41
c201 -6 471 -6 594 -6c125 0 301 0 428 6c-10 -96 -14 -195 -14 -242c0 -49 2 -96 6 -127h-47c-27 242 -58 322 -275 322h-170c-139 0 -166 -21 -166 -170v-483h136c178 0 174 172 190 270h47c-6 -87 -7 -146 -7 -193c0 -38 1 -68 1 -98c0 -67 2 -135 12 -291h-47
c-16 131 -18 271 -196 271h-136v-492c0 -149 27 -170 166 -170h150c256 0 307 92 336 363z" />
    <glyph glyph-name="Egrave" unicode="&#xc8;" horiz-adv-x="1247" 
d="M764 1608l-14 -27c-211 107 -324 129 -412 182c-38 25 -54 54 -54 81c0 13 4 26 11 38c14 21 36 34 63 34c19 0 40 -6 62 -20c86 -55 156 -145 344 -288zM1094 410h47c-4 -37 -6 -91 -6 -148c0 -51 4 -158 14 -262c-139 6 -332 6 -469 6c-123 0 -393 0 -594 -6v41
c139 6 166 27 166 176v1016c0 149 -27 170 -166 176v41c201 -6 471 -6 594 -6c125 0 301 0 428 6c-10 -96 -14 -195 -14 -242c0 -49 2 -96 6 -127h-47c-27 242 -58 322 -275 322h-170c-139 0 -166 -21 -166 -170v-483h136c178 0 174 172 190 270h47c-6 -87 -7 -146 -7 -193
c0 -38 1 -68 1 -98c0 -67 2 -135 12 -291h-47c-16 131 -18 271 -196 271h-136v-492c0 -149 27 -170 166 -170h150c256 0 307 92 336 363z" />
    <glyph glyph-name="Emacron" unicode="&#x112;" horiz-adv-x="1247" 
d="M987 1677h-721v52h721v-52zM1094 410h47c-4 -37 -6 -91 -6 -148c0 -51 4 -158 14 -262c-139 6 -332 6 -469 6c-123 0 -393 0 -594 -6v41c139 6 166 27 166 176v1016c0 149 -27 170 -166 176v41c201 -6 471 -6 594 -6c125 0 301 0 428 6c-10 -96 -14 -195 -14 -242
c0 -49 2 -96 6 -127h-47c-27 242 -58 322 -275 322h-170c-139 0 -166 -21 -166 -170v-483h136c178 0 174 172 190 270h47c-6 -87 -7 -146 -7 -193c0 -38 1 -68 1 -98c0 -67 2 -135 12 -291h-47c-16 131 -18 271 -196 271h-136v-492c0 -149 27 -170 166 -170h150
c256 0 307 92 336 363z" />
    <glyph glyph-name="Eogonek" unicode="&#x118;" horiz-adv-x="1247" 
d="M1151 -219l30 -27c-63 -96 -141 -139 -231 -139c-98 0 -162 53 -162 133c0 105 99 196 274 255c-126 3 -272 3 -382 3c-123 0 -393 0 -594 -6v41c139 6 166 27 166 176v1016c0 149 -27 170 -166 176v41c201 -6 471 -6 594 -6c125 0 301 0 428 6
c-10 -96 -14 -195 -14 -242c0 -49 2 -96 6 -127h-47c-27 242 -58 322 -275 322h-170c-139 0 -166 -21 -166 -170v-483h136c178 0 174 172 190 270h47c-6 -87 -7 -146 -7 -193c0 -38 1 -68 1 -98c0 -67 2 -135 12 -291h-47c-16 131 -18 271 -196 271h-136v-492
c0 -149 27 -170 166 -170h150c256 0 307 92 336 363h47c-4 -37 -6 -91 -6 -148c0 -50 4 -154 13 -256c1 -2 1 -4 1 -6l-18 1c-148 -45 -193 -131 -193 -198c0 -53 32 -90 88 -90c51 0 98 31 125 68z" />
    <glyph glyph-name="F" unicode="F" horiz-adv-x="1165" 
d="M86 1409v41c201 -6 471 -6 594 -6c125 0 301 0 428 6c-10 -104 -14 -211 -14 -262c0 -66 2 -125 6 -168h-47c-29 285 -60 383 -316 383h-129c-139 0 -166 -21 -166 -170v-504h150c178 0 174 172 190 270h47c-6 -86 -7 -145 -7 -193c0 -37 1 -67 1 -97
c0 -68 2 -136 13 -291h-48c-16 131 -18 270 -196 270h-150v-471c0 -149 35 -170 207 -176v-41c-71 4 -190 6 -301 6c-106 0 -205 -2 -262 -6v41c139 6 166 27 166 176v1016c0 149 -27 170 -166 176z" />
    <glyph glyph-name="G" unicode="G" horiz-adv-x="1440" 
d="M1266 0h-41c-2 47 -21 117 -56 117c-16 0 -26 -4 -67 -35c-90 -68 -187 -111 -320 -111c-424 0 -671 273 -671 729c0 478 278 779 659 779c178 0 272 -64 369 -133c16 -13 28 -21 41 -21c26 0 43 39 51 125h47c-6 -100 -8 -233 -8 -471h-47c-19 115 -39 225 -103 303
c-80 100 -217 160 -354 160c-272 0 -451 -279 -451 -719c0 -492 154 -711 488 -711c98 0 172 35 213 64c51 35 59 61 59 112v197c0 166 -35 190 -207 197v41c72 -5 197 -7 289 -7c90 0 164 2 213 7v-41c-90 -7 -104 -25 -104 -176v-406z" />
    <glyph glyph-name="Gacute" unicode="&#x1f4;" horiz-adv-x="1440" 
d="M628 1581l-14 27c188 143 258 233 344 288c22 14 43 20 62 20c27 0 49 -13 63 -34c7 -12 11 -25 11 -38c0 -27 -16 -56 -54 -81c-88 -53 -201 -75 -412 -182zM1266 0h-41c-2 47 -21 117 -56 117c-16 0 -26 -4 -67 -35c-90 -68 -187 -111 -320 -111
c-424 0 -671 273 -671 729c0 478 278 779 659 779c178 0 272 -64 369 -133c16 -13 28 -21 41 -21c26 0 43 39 51 125h47c-6 -100 -8 -233 -8 -471h-47c-19 115 -39 225 -103 303c-80 100 -217 160 -354 160c-272 0 -451 -279 -451 -719c0 -492 154 -711 488 -711
c98 0 172 35 213 64c51 35 59 61 59 112v197c0 166 -35 190 -207 197v41c72 -5 197 -7 289 -7c90 0 164 2 213 7v-41c-90 -7 -104 -25 -104 -176v-406z" />
    <glyph glyph-name="Gbreve" unicode="&#x11e;" horiz-adv-x="1440" 
d="M1122 1862l24 -23c-65 -106 -198 -237 -407 -237s-342 131 -408 237l27 21c63 -62 184 -131 381 -131c196 0 319 71 383 133zM1266 0h-41c-2 47 -21 117 -56 117c-16 0 -26 -4 -67 -35c-90 -68 -187 -111 -320 -111c-424 0 -671 273 -671 729c0 478 278 779 659 779
c178 0 272 -64 369 -133c16 -13 28 -21 41 -21c26 0 43 39 51 125h47c-6 -100 -8 -233 -8 -471h-47c-19 115 -39 225 -103 303c-80 100 -217 160 -354 160c-272 0 -451 -279 -451 -719c0 -492 154 -711 488 -711c98 0 172 35 213 64c51 35 59 61 59 112v197
c0 166 -35 190 -207 197v41c72 -5 197 -7 289 -7c90 0 164 2 213 7v-41c-90 -7 -104 -25 -104 -176v-406z" />
    <glyph glyph-name="Gcircumflex" unicode="&#x11c;" horiz-adv-x="1440" 
d="M721 1876h37c63 -104 204 -209 383 -270l-11 -29c-164 35 -338 92 -432 143c-78 -51 -219 -108 -350 -143l-10 29c178 61 319 166 383 270zM1266 0h-41c-2 47 -21 117 -56 117c-16 0 -26 -4 -67 -35c-90 -68 -187 -111 -320 -111c-424 0 -671 273 -671 729
c0 478 278 779 659 779c178 0 272 -64 369 -133c16 -13 28 -21 41 -21c26 0 43 39 51 125h47c-6 -100 -8 -233 -8 -471h-47c-19 115 -39 225 -103 303c-80 100 -217 160 -354 160c-272 0 -451 -279 -451 -719c0 -492 154 -711 488 -711c98 0 172 35 213 64
c51 35 59 61 59 112v197c0 166 -35 190 -207 197v41c72 -5 197 -7 289 -7c90 0 164 2 213 7v-41c-90 -7 -104 -25 -104 -176v-406z" />
    <glyph glyph-name="Gcommaaccent" unicode="&#x122;" horiz-adv-x="1440" 
d="M1266 0h-41c-2 47 -21 117 -56 117c-16 0 -26 -4 -67 -35c-90 -68 -187 -111 -320 -111c-424 0 -671 273 -671 729c0 478 278 779 659 779c178 0 272 -64 369 -133c16 -13 28 -21 41 -21c26 0 43 39 51 125h47c-6 -100 -8 -233 -8 -471h-47c-19 115 -39 225 -103 303
c-80 100 -217 160 -354 160c-272 0 -451 -279 -451 -719c0 -492 154 -711 488 -711c98 0 172 35 213 64c51 35 59 61 59 112v197c0 166 -35 190 -207 197v41c72 -5 197 -7 289 -7c90 0 164 2 213 7v-41c-90 -7 -104 -25 -104 -176v-406zM725 -494l-14 37
c63 19 127 64 127 129c-21 -18 -52 -32 -86 -32c-60 0 -107 38 -107 110c0 62 51 109 115 109c80 0 133 -64 133 -144c0 -98 -37 -161 -168 -209z" />
    <glyph glyph-name="Gdotaccent" unicode="&#x120;" horiz-adv-x="1440" 
d="M766 1843c71 0 131 -59 131 -131s-60 -131 -131 -131c-72 0 -131 59 -131 131s59 131 131 131zM1266 0h-41c-2 47 -21 117 -56 117c-16 0 -26 -4 -67 -35c-90 -68 -187 -111 -320 -111c-424 0 -671 273 -671 729c0 478 278 779 659 779c178 0 272 -64 369 -133
c16 -13 28 -21 41 -21c26 0 43 39 51 125h47c-6 -100 -8 -233 -8 -471h-47c-19 115 -39 225 -103 303c-80 100 -217 160 -354 160c-272 0 -451 -279 -451 -719c0 -492 154 -711 488 -711c98 0 172 35 213 64c51 35 59 61 59 112v197c0 166 -35 190 -207 197v41
c72 -5 197 -7 289 -7c90 0 164 2 213 7v-41c-90 -7 -104 -25 -104 -176v-406z" />
    <glyph glyph-name="H" unicode="H" horiz-adv-x="1550" 
d="M1464 1450v-41c-139 -6 -166 -27 -166 -176v-1016c0 -149 27 -170 166 -176v-41c-57 4 -155 6 -262 6c-94 0 -196 -2 -260 -6v41c139 6 166 27 166 176v492h-666v-492c0 -149 27 -170 166 -176v-41c-63 4 -166 6 -260 6c-106 0 -205 -2 -262 -6v41c139 6 166 27 166 176
v1016c0 149 -27 170 -166 176v41c57 -4 156 -6 262 -6c94 0 197 2 260 6v-41c-139 -6 -166 -27 -166 -176v-483h666v483c0 149 -27 170 -166 176v41c64 -4 166 -6 260 -6c107 0 205 2 262 6z" />
    <glyph glyph-name="Hbar" unicode="&#x126;" horiz-adv-x="1550" 
d="M1464 1450v-41c-139 -6 -166 -27 -166 -176v-141h166v-41h-166v-834c0 -149 27 -170 166 -176v-41c-57 4 -155 6 -262 6c-94 0 -196 -2 -260 -6v41c139 6 166 27 166 176v492h-666v-492c0 -149 27 -170 166 -176v-41c-63 4 -166 6 -260 6c-106 0 -205 -2 -262 -6v41
c139 6 166 27 166 176v834h-166v41h166v141c0 149 -27 170 -166 176v41c57 -4 156 -6 262 -6c94 0 197 2 260 6v-41c-139 -6 -166 -27 -166 -176v-141h666v141c0 149 -27 170 -166 176v41c64 -4 166 -6 260 -6c107 0 205 2 262 6zM1108 1051h-666v-301h666v301z" />
    <glyph glyph-name="Hcircumflex" unicode="&#x124;" horiz-adv-x="1550" 
d="M762 1876h37c63 -104 204 -209 383 -270l-11 -29c-164 35 -338 92 -432 143c-78 -51 -219 -108 -350 -143l-10 29c178 61 319 166 383 270zM1464 1450v-41c-139 -6 -166 -27 -166 -176v-1016c0 -149 27 -170 166 -176v-41c-57 4 -155 6 -262 6c-94 0 -196 -2 -260 -6v41
c139 6 166 27 166 176v492h-666v-492c0 -149 27 -170 166 -176v-41c-63 4 -166 6 -260 6c-106 0 -205 -2 -262 -6v41c139 6 166 27 166 176v1016c0 149 -27 170 -166 176v41c57 -4 156 -6 262 -6c94 0 197 2 260 6v-41c-139 -6 -166 -27 -166 -176v-483h666v483
c0 149 -27 170 -166 176v41c64 -4 166 -6 260 -6c107 0 205 2 262 6z" />
    <glyph glyph-name="I" unicode="I" 
d="M608 1450v-41c-139 -6 -166 -27 -166 -176v-1016c0 -149 27 -170 166 -176v-41c-63 4 -166 6 -260 6c-106 0 -205 -2 -262 -6v41c139 6 166 27 166 176v1016c0 149 -27 170 -166 176v41c57 -4 156 -6 262 -6c94 0 197 2 260 6z" />
    <glyph glyph-name="IJ" unicode="&#x132;" horiz-adv-x="1325" 
d="M608 1450v-41c-139 -6 -166 -27 -166 -176v-1016c0 -149 27 -170 166 -176v-41c-63 4 -166 6 -260 6c-106 0 -205 -2 -262 -6v41c139 6 166 27 166 176v1016c0 149 -27 170 -166 176v41c57 -4 156 -6 262 -6c94 0 197 2 260 6zM1253 1450v-41c-139 -6 -166 -27 -166 -176
v-750c0 -170 -2 -397 -35 -534c-45 -189 -198 -334 -432 -334c-76 0 -135 18 -172 37c-67 35 -98 84 -98 141c0 64 45 109 108 109c64 0 113 -41 113 -111c0 -59 -35 -94 -86 -104c27 -27 96 -33 131 -33c119 0 209 65 246 174c28 86 35 186 35 469v936
c0 149 -27 170 -166 176v41c57 -4 155 -6 262 -6c94 0 196 2 260 6z" />
    <glyph glyph-name="Iacute" unicode="&#xcd;" 
d="M237 1581l-14 27c188 143 258 233 344 288c22 14 43 20 62 20c27 0 49 -13 63 -34c7 -12 11 -25 11 -38c0 -27 -16 -56 -54 -81c-88 -53 -201 -75 -412 -182zM608 1450v-41c-139 -6 -166 -27 -166 -176v-1016c0 -149 27 -170 166 -176v-41c-63 4 -166 6 -260 6
c-106 0 -205 -2 -262 -6v41c139 6 166 27 166 176v1016c0 149 -27 170 -166 176v41c57 -4 156 -6 262 -6c94 0 197 2 260 6z" />
    <glyph glyph-name="Ibreve" unicode="&#x12c;" 
d="M731 1862l24 -23c-65 -106 -198 -237 -407 -237s-342 131 -408 237l27 21c63 -62 184 -131 381 -131c196 0 319 71 383 133zM608 1450v-41c-139 -6 -166 -27 -166 -176v-1016c0 -149 27 -170 166 -176v-41c-63 4 -166 6 -260 6c-106 0 -205 -2 -262 -6v41
c139 6 166 27 166 176v1016c0 149 -27 170 -166 176v41c57 -4 156 -6 262 -6c94 0 197 2 260 6z" />
    <glyph glyph-name="Icircumflex" unicode="&#xce;" 
d="M330 1876h37c63 -104 204 -209 383 -270l-11 -29c-164 35 -338 92 -432 143c-78 -51 -219 -108 -350 -143l-10 29c178 61 319 166 383 270zM608 1450v-41c-139 -6 -166 -27 -166 -176v-1016c0 -149 27 -170 166 -176v-41c-63 4 -166 6 -260 6c-106 0 -205 -2 -262 -6v41
c139 6 166 27 166 176v1016c0 149 -27 170 -166 176v41c57 -4 156 -6 262 -6c94 0 197 2 260 6z" />
    <glyph glyph-name="Idieresis" unicode="&#xcf;" 
d="M131 1819c63 0 119 -56 119 -119c0 -66 -56 -119 -119 -119c-66 0 -119 53 -119 119c0 63 53 119 119 119zM565 1819c64 0 119 -56 119 -119c0 -66 -55 -119 -119 -119c-65 0 -119 53 -119 119c0 63 54 119 119 119zM608 1450v-41c-139 -6 -166 -27 -166 -176v-1016
c0 -149 27 -170 166 -176v-41c-63 4 -166 6 -260 6c-106 0 -205 -2 -262 -6v41c139 6 166 27 166 176v1016c0 149 -27 170 -166 176v41c57 -4 156 -6 262 -6c94 0 197 2 260 6z" />
    <glyph glyph-name="Idotaccent" unicode="&#x130;" 
d="M348 1964c71 0 131 -60 131 -131c0 -72 -60 -131 -131 -131c-72 0 -131 59 -131 131c0 71 59 131 131 131zM608 1450v-41c-139 -6 -166 -27 -166 -176v-1016c0 -149 27 -170 166 -176v-41c-63 4 -166 6 -260 6c-106 0 -205 -2 -262 -6v41c139 6 166 27 166 176v1016
c0 149 -27 170 -166 176v41c57 -4 156 -6 262 -6c94 0 197 2 260 6z" />
    <glyph glyph-name="Igrave" unicode="&#xcc;" 
d="M485 1608l-14 -27c-211 107 -324 129 -412 182c-38 25 -54 54 -54 81c0 13 4 26 11 38c14 21 36 34 63 34c19 0 40 -6 62 -20c86 -55 156 -145 344 -288zM608 1450v-41c-139 -6 -166 -27 -166 -176v-1016c0 -149 27 -170 166 -176v-41c-63 4 -166 6 -260 6
c-106 0 -205 -2 -262 -6v41c139 6 166 27 166 176v1016c0 149 -27 170 -166 176v41c57 -4 156 -6 262 -6c94 0 197 2 260 6z" />
    <glyph glyph-name="Imacron" unicode="&#x12a;" 
d="M708 1677h-721v52h721v-52zM608 1450v-41c-139 -6 -166 -27 -166 -176v-1016c0 -149 27 -170 166 -176v-41c-63 4 -166 6 -260 6c-106 0 -205 -2 -262 -6v41c139 6 166 27 166 176v1016c0 149 -27 170 -166 176v41c57 -4 156 -6 262 -6c94 0 197 2 260 6z" />
    <glyph glyph-name="Iogonek" unicode="&#x12e;" 
d="M610 -219l30 -27c-63 -96 -141 -139 -231 -139c-98 0 -162 53 -162 133c0 106 100 197 276 256c-54 1 -116 2 -175 2c-106 0 -205 -2 -262 -6v41c139 6 166 27 166 176v1016c0 149 -27 170 -166 176v41c57 -4 156 -6 262 -6c94 0 197 2 260 6v-41
c-139 -6 -166 -27 -166 -176v-1016c0 -149 27 -170 166 -176v-41l-18 1c-148 -45 -193 -131 -193 -198c0 -53 32 -90 88 -90c51 0 98 31 125 68z" />
    <glyph glyph-name="Itilde" unicode="&#x128;" 
d="M-14 1624l-31 6c12 135 113 217 227 217c152 0 256 -157 398 -157c55 0 102 26 127 114l30 -6c-12 -135 -112 -217 -227 -217c-151 0 -256 158 -397 158c-57 0 -103 -27 -127 -115zM608 1450v-41c-139 -6 -166 -27 -166 -176v-1016c0 -149 27 -170 166 -176v-41
c-63 4 -166 6 -260 6c-106 0 -205 -2 -262 -6v41c139 6 166 27 166 176v1016c0 149 -27 170 -166 176v41c57 -4 156 -6 262 -6c94 0 197 2 260 6z" />
    <glyph glyph-name="J" unicode="J" horiz-adv-x="668" 
d="M596 1450v-41c-139 -6 -166 -27 -166 -176v-750c0 -170 -2 -397 -35 -534c-45 -189 -198 -334 -432 -334c-76 0 -135 18 -172 37c-67 35 -98 84 -98 141c0 64 45 109 108 109c64 0 113 -41 113 -111c0 -59 -35 -94 -86 -104c27 -27 96 -33 131 -33c119 0 209 65 246 174
c28 86 35 186 35 469v936c0 149 -27 170 -166 176v41c57 -4 155 -6 262 -6c94 0 196 2 260 6z" />
    <glyph glyph-name="Jcircumflex" unicode="&#x134;" horiz-adv-x="668" 
d="M318 1876h37c63 -104 204 -209 383 -270l-11 -29c-164 35 -338 92 -432 143c-78 -51 -219 -108 -350 -143l-10 29c178 61 319 166 383 270zM596 1450v-41c-139 -6 -166 -27 -166 -176v-750c0 -170 -2 -397 -35 -534c-45 -189 -198 -334 -432 -334c-76 0 -135 18 -172 37
c-67 35 -98 84 -98 141c0 64 45 109 108 109c64 0 113 -41 113 -111c0 -59 -35 -94 -86 -104c27 -27 96 -33 131 -33c119 0 209 65 246 174c28 86 35 186 35 469v936c0 149 -27 170 -166 176v41c57 -4 155 -6 262 -6c94 0 196 2 260 6z" />
    <glyph glyph-name="K" unicode="K" horiz-adv-x="1341" 
d="M684 832l475 -666c45 -68 96 -105 180 -125v-41c-65 4 -178 6 -245 6c-47 0 -111 0 -211 -6v41c63 3 94 15 94 43c0 13 -7 29 -21 49l-299 451c-82 124 -120 144 -215 149v-516c0 -149 27 -170 166 -176v-41c-63 4 -166 6 -260 6c-106 0 -205 -2 -262 -6v41
c139 6 166 27 166 176v1016c0 149 -27 170 -166 176v41c57 -4 156 -6 262 -6c94 0 197 2 260 6v-41c-139 -6 -166 -27 -166 -176v-459c111 4 184 51 234 115l196 250c67 85 105 151 105 196c0 47 -40 72 -127 74v41c78 -4 164 -6 235 -6c70 0 134 2 175 6v-41
c-84 -12 -164 -49 -242 -149z" />
    <glyph glyph-name="Kcommaaccent" unicode="&#x136;" horiz-adv-x="1341" 
d="M684 832l475 -666c45 -68 96 -105 180 -125v-41c-65 4 -178 6 -245 6c-47 0 -111 0 -211 -6v41c63 3 94 15 94 43c0 13 -7 29 -21 49l-299 451c-82 124 -120 144 -215 149v-516c0 -149 27 -170 166 -176v-41c-63 4 -166 6 -260 6c-106 0 -205 -2 -262 -6v41
c139 6 166 27 166 176v1016c0 149 -27 170 -166 176v41c57 -4 156 -6 262 -6c94 0 197 2 260 6v-41c-139 -6 -166 -27 -166 -176v-459c111 4 184 51 234 115l196 250c67 85 105 151 105 196c0 47 -40 72 -127 74v41c78 -4 164 -6 235 -6c70 0 134 2 175 6v-41
c-84 -12 -164 -49 -242 -149zM662 -494l-14 37c63 19 127 64 127 129c-21 -18 -52 -32 -86 -32c-60 0 -107 38 -107 110c0 62 51 109 115 109c80 0 133 -64 133 -144c0 -98 -37 -161 -168 -209z" />
    <glyph glyph-name="L" unicode="L" horiz-adv-x="1204" 
d="M608 1450v-41c-139 -6 -166 -27 -166 -176v-1016c0 -149 27 -170 166 -170h150c256 0 307 98 336 383h47c-4 -43 -6 -102 -6 -168c0 -51 4 -158 14 -262c-139 6 -332 6 -469 6c-123 0 -393 0 -594 -6v41c139 6 166 27 166 176v1016c0 149 -27 170 -166 176v41
c57 -4 156 -6 262 -6c94 0 197 2 260 6z" />
    <glyph glyph-name="Lacute" unicode="&#x139;" horiz-adv-x="1204" 
d="M237 1581l-14 27c188 143 258 233 344 288c22 14 43 20 62 20c27 0 49 -13 63 -34c7 -12 11 -25 11 -38c0 -27 -16 -56 -54 -81c-88 -53 -201 -75 -412 -182zM608 1450v-41c-139 -6 -166 -27 -166 -176v-1016c0 -149 27 -170 166 -170h150c256 0 307 98 336 383h47
c-4 -43 -6 -102 -6 -168c0 -51 4 -158 14 -262c-139 6 -332 6 -469 6c-123 0 -393 0 -594 -6v41c139 6 166 27 166 176v1016c0 149 -27 170 -166 176v41c57 -4 156 -6 262 -6c94 0 197 2 260 6z" />
    <glyph glyph-name="Lcaron" unicode="&#x13d;" horiz-adv-x="1204" 
d="M680 1407v43c32 -3 60 -4 84 -4c54 0 93 6 133 16c6 -14 10 -49 10 -73c0 -89 -70 -213 -178 -410l-29 8c33 209 41 297 41 338c0 53 -10 82 -61 82zM608 1450v-41c-139 -6 -166 -27 -166 -176v-1016c0 -149 27 -170 166 -170h150c256 0 307 98 336 383h47
c-4 -43 -6 -102 -6 -168c0 -51 4 -158 14 -262c-139 6 -332 6 -469 6c-123 0 -393 0 -594 -6v41c139 6 166 27 166 176v1016c0 149 -27 170 -166 176v41c57 -4 156 -6 262 -6c94 0 197 2 260 6z" />
    <glyph glyph-name="Lcommaaccent" unicode="&#x13b;" horiz-adv-x="1204" 
d="M608 1450v-41c-139 -6 -166 -27 -166 -176v-1016c0 -149 27 -170 166 -170h150c256 0 307 98 336 383h47c-4 -43 -6 -102 -6 -168c0 -51 4 -158 14 -262c-139 6 -332 6 -469 6c-123 0 -393 0 -594 -6v41c139 6 166 27 166 176v1016c0 149 -27 170 -166 176v41
c57 -4 156 -6 262 -6c94 0 197 2 260 6zM633 -494l-14 37c63 19 127 64 127 129c-21 -18 -52 -32 -86 -32c-60 0 -107 38 -107 110c0 62 51 109 115 109c80 0 133 -64 133 -144c0 -98 -37 -161 -168 -209z" />
    <glyph glyph-name="Ldot" unicode="&#x13f;" horiz-adv-x="1268" 
d="M608 1450v-41c-139 -6 -166 -27 -166 -176v-1016c0 -149 27 -170 166 -170h150c256 0 307 98 336 383h47c-4 -43 -6 -102 -6 -168c0 -51 4 -158 14 -262c-139 6 -332 6 -469 6c-123 0 -393 0 -594 -6v41c139 6 166 27 166 176v1016c0 149 -27 170 -166 176v41
c57 -4 156 -6 262 -6c94 0 197 2 260 6zM1081 860c72 0 131 -59 131 -131c0 -71 -59 -131 -131 -131s-131 60 -131 131c0 72 59 131 131 131z" />
    <glyph glyph-name="Lslash" unicode="&#x141;" horiz-adv-x="1204" 
d="M1094 430h47c-4 -43 -6 -102 -6 -168c0 -51 4 -158 14 -262c-139 6 -332 6 -469 6c-123 0 -393 0 -594 -6v41c139 6 166 27 166 176v309l-166 -96v47l166 96v660c0 149 -27 170 -166 176v41c57 -4 156 -6 262 -6c94 0 197 2 260 6v-41c-139 -6 -166 -27 -166 -176v-570
l527 306v-47l-527 -306v-399c0 -149 27 -170 166 -170h150c256 0 307 98 336 383z" />
    <glyph glyph-name="M" unicode="M" horiz-adv-x="1784" 
d="M1698 1450v-41c-139 -6 -166 -27 -166 -176v-1016c0 -149 27 -170 166 -176v-41c-64 4 -166 6 -260 6c-107 0 -205 -2 -262 -6v41c139 6 165 27 165 176v1096l-493 -1323h-33l-516 1329v-1081c0 -150 27 -191 186 -197v-41c-49 4 -139 6 -209 6c-69 0 -145 -2 -190 -6v41
c139 6 166 47 166 197v995c0 149 -27 170 -166 176v41c45 -4 121 -6 190 -6c60 0 130 2 175 6l450 -1188l440 1182h97c94 0 196 2 260 6z" />
    <glyph glyph-name="N" unicode="N" horiz-adv-x="1446" 
d="M1372 1450v-41c-139 -6 -166 -47 -166 -197v-1222h-47l-860 1329v-1081c0 -150 27 -191 186 -197v-41c-49 4 -139 6 -209 6c-69 0 -145 -2 -190 -6v41c139 6 166 47 166 197v995c0 149 -27 170 -166 176v41c45 -4 121 -6 190 -6c60 0 115 2 160 6l723 -1114v876
c0 150 -26 191 -186 197v41c49 -4 139 -6 209 -6c69 0 145 2 190 6z" />
    <glyph glyph-name="Nacute" unicode="&#x143;" horiz-adv-x="1446" 
d="M655 1581l-14 27c188 143 258 233 344 288c22 14 43 20 62 20c27 0 49 -13 63 -34c7 -12 11 -25 11 -38c0 -27 -16 -56 -54 -81c-88 -53 -201 -75 -412 -182zM1372 1450v-41c-139 -6 -166 -47 -166 -197v-1222h-47l-860 1329v-1081c0 -150 27 -191 186 -197v-41
c-49 4 -139 6 -209 6c-69 0 -145 -2 -190 -6v41c139 6 166 47 166 197v995c0 149 -27 170 -166 176v41c45 -4 121 -6 190 -6c60 0 115 2 160 6l723 -1114v876c0 150 -26 191 -186 197v41c49 -4 139 -6 209 -6c69 0 145 2 190 6z" />
    <glyph glyph-name="Ncaron" unicode="&#x147;" horiz-adv-x="1446" 
d="M1151 1896l11 -28c-179 -62 -320 -166 -383 -271h-37c-64 105 -205 209 -383 271l10 28c164 -34 338 -92 432 -143c78 51 219 109 350 143zM1372 1450v-41c-139 -6 -166 -47 -166 -197v-1222h-47l-860 1329v-1081c0 -150 27 -191 186 -197v-41c-49 4 -139 6 -209 6
c-69 0 -145 -2 -190 -6v41c139 6 166 47 166 197v995c0 149 -27 170 -166 176v41c45 -4 121 -6 190 -6c60 0 115 2 160 6l723 -1114v876c0 150 -26 191 -186 197v41c49 -4 139 -6 209 -6c69 0 145 2 190 6z" />
    <glyph glyph-name="Ncommaaccent" unicode="&#x145;" horiz-adv-x="1446" 
d="M1372 1450v-41c-139 -6 -166 -47 -166 -197v-1222h-47l-860 1329v-1081c0 -150 27 -191 186 -197v-41c-49 4 -139 6 -209 6c-69 0 -145 -2 -190 -6v41c139 6 166 47 166 197v995c0 149 -27 170 -166 176v41c45 -4 121 -6 190 -6c60 0 115 2 160 6l723 -1114v876
c0 150 -26 191 -186 197v41c49 -4 139 -6 209 -6c69 0 145 2 190 6zM705 -494l-14 37c63 19 127 64 127 129c-21 -18 -52 -32 -86 -32c-60 0 -107 38 -107 110c0 62 51 109 115 109c80 0 133 -64 133 -144c0 -98 -37 -161 -168 -209z" />
    <glyph glyph-name="Eng" unicode="&#x14a;" horiz-adv-x="1444" 
d="M993 1409v41c49 -4 119 -6 189 -6c69 0 145 2 190 6v-41c-139 -6 -166 -27 -166 -176v-1047c0 -471 -129 -571 -291 -571c-96 0 -184 35 -184 127c0 63 43 102 96 102c56 0 103 -43 103 -96c0 -37 -23 -76 -53 -94c12 -2 30 -4 47 -4c145 0 215 131 231 346l-856 1323
v-1102c0 -149 27 -170 166 -176v-41c-49 4 -119 6 -189 6c-69 0 -145 -2 -190 -6v41c139 6 166 27 166 176v1016c0 149 -27 170 -166 176v41c45 -4 121 -6 190 -6c68 0 138 2 189 6l694 -1073v856c0 149 -26 170 -166 176z" />
    <glyph glyph-name="Ntilde" unicode="&#xd1;" horiz-adv-x="1446" 
d="M404 1624l-31 6c12 135 113 217 227 217c152 0 256 -157 398 -157c55 0 102 26 127 114l30 -6c-12 -135 -112 -217 -227 -217c-151 0 -256 158 -397 158c-57 0 -103 -27 -127 -115zM1372 1450v-41c-139 -6 -166 -47 -166 -197v-1222h-47l-860 1329v-1081
c0 -150 27 -191 186 -197v-41c-49 4 -139 6 -209 6c-69 0 -145 -2 -190 -6v41c139 6 166 47 166 197v995c0 149 -27 170 -166 176v41c45 -4 121 -6 190 -6c60 0 115 2 160 6l723 -1114v876c0 150 -26 191 -186 197v41c49 -4 139 -6 209 -6c69 0 145 2 190 6z" />
    <glyph glyph-name="O" unicode="O" horiz-adv-x="1518" 
d="M760 1479c389 0 649 -273 649 -742c0 -458 -270 -766 -651 -766c-389 0 -649 273 -649 742c0 458 270 766 651 766zM752 1442c-267 0 -439 -297 -439 -721c0 -436 201 -713 453 -713c266 0 438 297 438 721c0 436 -200 713 -452 713z" />
    <glyph glyph-name="Oacute" unicode="&#xd3;" horiz-adv-x="1518" 
d="M645 1581l-14 27c188 143 258 233 344 288c22 14 43 20 62 20c27 0 49 -13 63 -34c7 -12 11 -25 11 -38c0 -27 -16 -56 -54 -81c-88 -53 -201 -75 -412 -182zM760 1479c389 0 649 -273 649 -742c0 -458 -270 -766 -651 -766c-389 0 -649 273 -649 742
c0 458 270 766 651 766zM752 1442c-267 0 -439 -297 -439 -721c0 -436 201 -713 453 -713c266 0 438 297 438 721c0 436 -200 713 -452 713z" />
    <glyph glyph-name="Obreve" unicode="&#x14e;" horiz-adv-x="1518" 
d="M1139 1862l24 -23c-65 -106 -198 -237 -407 -237s-342 131 -408 237l27 21c63 -62 184 -131 381 -131c196 0 319 71 383 133zM760 1479c389 0 649 -273 649 -742c0 -458 -270 -766 -651 -766c-389 0 -649 273 -649 742c0 458 270 766 651 766zM752 1442
c-267 0 -439 -297 -439 -721c0 -436 201 -713 453 -713c266 0 438 297 438 721c0 436 -200 713 -452 713z" />
    <glyph glyph-name="Ocircumflex" unicode="&#xd4;" horiz-adv-x="1518" 
d="M738 1876h37c63 -104 204 -209 383 -270l-11 -29c-164 35 -338 92 -432 143c-78 -51 -219 -108 -350 -143l-10 29c178 61 319 166 383 270zM760 1479c389 0 649 -273 649 -742c0 -458 -270 -766 -651 -766c-389 0 -649 273 -649 742c0 458 270 766 651 766zM752 1442
c-267 0 -439 -297 -439 -721c0 -436 201 -713 453 -713c266 0 438 297 438 721c0 436 -200 713 -452 713z" />
    <glyph glyph-name="Odieresis" unicode="&#xd6;" horiz-adv-x="1518" 
d="M539 1819c63 0 119 -56 119 -119c0 -66 -56 -119 -119 -119c-66 0 -119 53 -119 119c0 63 53 119 119 119zM973 1819c64 0 119 -56 119 -119c0 -66 -55 -119 -119 -119c-65 0 -119 53 -119 119c0 63 54 119 119 119zM760 1479c389 0 649 -273 649 -742
c0 -458 -270 -766 -651 -766c-389 0 -649 273 -649 742c0 458 270 766 651 766zM752 1442c-267 0 -439 -297 -439 -721c0 -436 201 -713 453 -713c266 0 438 297 438 721c0 436 -200 713 -452 713z" />
    <glyph glyph-name="Ograve" unicode="&#xd2;" horiz-adv-x="1518" 
d="M893 1608l-14 -27c-211 107 -324 129 -412 182c-38 25 -54 54 -54 81c0 13 4 26 11 38c14 21 36 34 63 34c19 0 40 -6 62 -20c86 -55 156 -145 344 -288zM760 1479c389 0 649 -273 649 -742c0 -458 -270 -766 -651 -766c-389 0 -649 273 -649 742c0 458 270 766 651 766z
M752 1442c-267 0 -439 -297 -439 -721c0 -436 201 -713 453 -713c266 0 438 297 438 721c0 436 -200 713 -452 713z" />
    <glyph glyph-name="Ohungarumlaut" unicode="&#x150;" horiz-adv-x="1518" 
d="M471 1581l-18 25c98 98 161 215 239 282c24 21 48 30 69 30c23 0 43 -10 56 -26c12 -13 19 -29 19 -47c0 -25 -13 -52 -43 -78c-80 -65 -207 -106 -322 -186zM854 1581l-18 25c98 98 161 215 239 282c24 21 48 30 69 30c23 0 43 -10 56 -26c12 -13 19 -29 19 -47
c0 -25 -13 -52 -43 -78c-80 -65 -207 -106 -322 -186zM760 1479c389 0 649 -273 649 -742c0 -458 -270 -766 -651 -766c-389 0 -649 273 -649 742c0 458 270 766 651 766zM752 1442c-267 0 -439 -297 -439 -721c0 -436 201 -713 453 -713c266 0 438 297 438 721
c0 436 -200 713 -452 713z" />
    <glyph glyph-name="Omacron" unicode="&#x14c;" horiz-adv-x="1518" 
d="M1116 1677h-721v52h721v-52zM760 1479c389 0 649 -273 649 -742c0 -458 -270 -766 -651 -766c-389 0 -649 273 -649 742c0 458 270 766 651 766zM752 1442c-267 0 -439 -297 -439 -721c0 -436 201 -713 453 -713c266 0 438 297 438 721c0 436 -200 713 -452 713z" />
    <glyph glyph-name="Oslash" unicode="&#xd8;" horiz-adv-x="1518" 
d="M1356 1556l-161 -236c135 -126 214 -325 214 -583c0 -458 -270 -766 -651 -766c-156 0 -291 44 -398 127l-167 -248l-43 29l172 252c-135 127 -213 325 -213 582c0 458 270 766 651 766c156 0 292 -44 398 -127l159 231zM416 249l657 999c-81 124 -195 194 -321 194
c-267 0 -439 -297 -439 -721c0 -191 39 -352 103 -472zM1101 1201l-655 -1001c81 -123 194 -192 320 -192c266 0 438 297 438 721c0 191 -38 352 -103 472z" />
    <glyph glyph-name="Otilde" unicode="&#xd5;" horiz-adv-x="1518" 
d="M394 1624l-31 6c12 135 113 217 227 217c152 0 256 -157 398 -157c55 0 102 26 127 114l30 -6c-12 -135 -112 -217 -227 -217c-151 0 -256 158 -397 158c-57 0 -103 -27 -127 -115zM760 1479c389 0 649 -273 649 -742c0 -458 -270 -766 -651 -766
c-389 0 -649 273 -649 742c0 458 270 766 651 766zM752 1442c-267 0 -439 -297 -439 -721c0 -436 201 -713 453 -713c266 0 438 297 438 721c0 436 -200 713 -452 713z" />
    <glyph glyph-name="OE" unicode="&#x152;" horiz-adv-x="1901" 
d="M1747 410h47c-4 -37 -6 -91 -6 -148c0 -51 4 -158 14 -262c-127 6 -303 6 -428 6c-94 0 -287 0 -448 -4c-54 -20 -109 -31 -168 -31c-389 0 -649 273 -649 742c0 458 270 766 651 766c65 0 125 -11 180 -31c164 -4 342 -4 434 -4c113 0 273 0 387 6
c-10 -96 -14 -195 -14 -242c0 -49 2 -96 6 -127h-47c-27 242 -57 322 -274 322h-68c-139 0 -166 -21 -166 -170v-483h88c178 0 174 147 191 229h47c-6 -71 -7 -120 -7 -159c0 -35 1 -63 1 -91c0 -59 2 -115 12 -250h-47c-17 111 -19 230 -197 230h-88v-492
c0 -149 27 -170 166 -170h47c256 0 307 92 336 363zM1008 217v1016c0 149 -117 209 -256 209c-267 0 -439 -297 -439 -721c0 -436 201 -713 453 -713c106 0 242 60 242 209z" />
    <glyph glyph-name="P" unicode="P" horiz-adv-x="1198" 
d="M442 586v-369c0 -149 35 -170 207 -176v-41c-71 4 -190 6 -301 6c-106 0 -205 -2 -262 -6v41c139 6 166 27 166 176v1016c0 149 -27 170 -166 176v41c57 -4 160 -6 250 -6c129 0 260 4 309 4c330 0 494 -166 494 -404c0 -198 -115 -458 -539 -458h-158zM442 627h138
c290 0 354 186 354 395c0 258 -92 387 -340 387c-125 0 -152 -35 -152 -176v-606z" />
    <glyph glyph-name="Thorn" unicode="&#xde;" horiz-adv-x="1188" 
d="M442 283v-66c0 -149 27 -170 166 -176v-41c-63 4 -166 6 -260 6c-106 0 -205 -2 -262 -6v41c139 6 166 27 166 176v1016c0 149 -27 170 -166 176v41c57 -4 156 -6 262 -6c94 0 197 2 260 6v-41c-139 -6 -166 -27 -166 -176v-91c83 1 155 3 189 3c330 0 493 -174 493 -400
c0 -206 -114 -462 -538 -462h-144zM442 324h123c291 0 355 190 355 409c0 244 -93 373 -340 373c-42 0 -92 -1 -138 -2v-780z" />
    <glyph glyph-name="Q" unicode="Q" horiz-adv-x="1518" 
d="M1532 -47l31 -12c-33 -113 -76 -185 -129 -234c-52 -47 -138 -92 -277 -92c-217 0 -397 129 -659 217c-19 6 -37 10 -49 14c-54 -18 -117 -30 -170 -30c-56 0 -95 12 -95 41c0 26 35 43 111 43c45 0 102 -6 154 -17c95 25 155 64 231 92c-345 34 -571 301 -571 738
c0 458 270 766 651 766c389 0 649 -273 649 -742c0 -432 -240 -730 -586 -763v-1c-123 -14 -182 -65 -303 -100c205 -41 490 -98 649 -98c197 0 301 55 363 178zM313 721c0 -436 201 -713 453 -713c266 0 438 297 438 721c0 436 -200 713 -452 713
c-267 0 -439 -297 -439 -721z" />
    <glyph glyph-name="R" unicode="R" horiz-adv-x="1327" 
d="M1321 125l31 -23c-58 -84 -109 -131 -219 -131c-103 0 -181 47 -220 222l-45 204c-39 174 -69 291 -231 291h-195v-471c0 -149 27 -170 166 -176v-41c-63 4 -166 6 -260 6c-106 0 -205 -2 -262 -6v41c139 6 166 27 166 176v1016c0 149 -27 170 -166 176v41
c57 -4 160 -6 250 -6c129 0 260 4 309 4c330 0 494 -156 494 -356c0 -142 -89 -346 -398 -394l25 -4c182 -30 248 -100 287 -270l51 -209c25 -119 48 -168 105 -168c50 0 74 30 112 78zM442 729h138c290 0 354 152 354 340c0 215 -92 340 -340 340
c-125 0 -152 -35 -152 -176v-504z" />
    <glyph glyph-name="Racute" unicode="&#x154;" horiz-adv-x="1327" 
d="M495 1581l-14 27c188 143 258 233 344 288c22 14 43 20 62 20c27 0 49 -13 63 -34c7 -12 11 -25 11 -38c0 -27 -16 -56 -54 -81c-88 -53 -201 -75 -412 -182zM1321 125l31 -23c-58 -84 -109 -131 -219 -131c-103 0 -181 47 -220 222l-45 204c-39 174 -69 291 -231 291
h-195v-471c0 -149 27 -170 166 -176v-41c-63 4 -166 6 -260 6c-106 0 -205 -2 -262 -6v41c139 6 166 27 166 176v1016c0 149 -27 170 -166 176v41c57 -4 160 -6 250 -6c129 0 260 4 309 4c330 0 494 -156 494 -356c0 -142 -89 -346 -398 -394l25 -4
c182 -30 248 -100 287 -270l51 -209c25 -119 48 -168 105 -168c50 0 74 30 112 78zM442 729h138c290 0 354 152 354 340c0 215 -92 340 -340 340c-125 0 -152 -35 -152 -176v-504z" />
    <glyph glyph-name="Rcaron" unicode="&#x158;" horiz-adv-x="1327" 
d="M619 1597h-37c-64 105 -205 209 -383 271l10 28c164 -34 338 -92 432 -143c78 51 219 109 350 143l11 -28c-179 -62 -320 -166 -383 -271zM1321 125l31 -23c-58 -84 -109 -131 -219 -131c-103 0 -181 47 -220 222l-45 204c-39 174 -69 291 -231 291h-195v-471
c0 -149 27 -170 166 -176v-41c-63 4 -166 6 -260 6c-106 0 -205 -2 -262 -6v41c139 6 166 27 166 176v1016c0 149 -27 170 -166 176v41c57 -4 160 -6 250 -6c129 0 260 4 309 4c330 0 494 -156 494 -356c0 -142 -89 -346 -398 -394l25 -4c182 -30 248 -100 287 -270l51 -209
c25 -119 48 -168 105 -168c50 0 74 30 112 78zM442 729h138c290 0 354 152 354 340c0 215 -92 340 -340 340c-125 0 -152 -35 -152 -176v-504z" />
    <glyph glyph-name="Rcommaaccent" unicode="&#x156;" horiz-adv-x="1327" 
d="M1321 125l31 -23c-58 -84 -109 -131 -219 -131c-103 0 -181 47 -220 222l-45 204c-39 174 -69 291 -231 291h-195v-471c0 -149 27 -170 166 -176v-41c-63 4 -166 6 -260 6c-106 0 -205 -2 -262 -6v41c139 6 166 27 166 176v1016c0 149 -27 170 -166 176v41
c57 -4 160 -6 250 -6c129 0 260 4 309 4c330 0 494 -156 494 -356c0 -142 -89 -346 -398 -394l25 -4c182 -30 248 -100 287 -270l51 -209c25 -119 48 -168 105 -168c50 0 74 30 112 78zM442 729h138c290 0 354 152 354 340c0 215 -92 340 -340 340
c-125 0 -152 -35 -152 -176v-504zM643 -494l-14 37c63 19 127 64 127 129c-21 -18 -52 -32 -86 -32c-60 0 -107 38 -107 110c0 62 51 109 115 109c80 0 133 -64 133 -144c0 -98 -37 -161 -168 -209z" />
    <glyph glyph-name="S" unicode="S" horiz-adv-x="1106" 
d="M137 477h47c17 -248 111 -465 373 -465c133 0 266 80 266 273c0 166 -129 260 -319 374c-195 117 -365 228 -365 459c0 242 183 355 385 355c135 0 195 -39 250 -76c33 -21 51 -29 70 -29c26 0 37 31 45 90h47c-6 -72 -10 -160 -10 -418h-47c-15 195 -109 394 -336 394
c-146 0 -250 -97 -250 -238c0 -186 160 -260 344 -375c213 -133 369 -241 369 -461c0 -260 -197 -389 -435 -389c-145 0 -221 39 -280 76c-33 21 -53 29 -70 29c-26 0 -37 -31 -45 -90h-47c6 84 8 202 8 491z" />
    <glyph glyph-name="Sacute" unicode="&#x15a;" horiz-adv-x="1106" 
d="M452 1581l-14 27c188 143 258 233 344 288c22 14 43 20 62 20c27 0 49 -13 63 -34c7 -12 11 -25 11 -38c0 -27 -16 -56 -54 -81c-88 -53 -201 -75 -412 -182zM137 477h47c17 -248 111 -465 373 -465c133 0 266 80 266 273c0 166 -129 260 -319 374
c-195 117 -365 228 -365 459c0 242 183 355 385 355c135 0 195 -39 250 -76c33 -21 51 -29 70 -29c26 0 37 31 45 90h47c-6 -72 -10 -160 -10 -418h-47c-15 195 -109 394 -336 394c-146 0 -250 -97 -250 -238c0 -186 160 -260 344 -375c213 -133 369 -241 369 -461
c0 -260 -197 -389 -435 -389c-145 0 -221 39 -280 76c-33 21 -53 29 -70 29c-26 0 -37 -31 -45 -90h-47c6 84 8 202 8 491z" />
    <glyph glyph-name="Scaron" unicode="&#x160;" horiz-adv-x="1106" 
d="M948 1896l11 -28c-179 -62 -320 -166 -383 -271h-37c-64 105 -205 209 -383 271l10 28c164 -34 338 -92 432 -143c78 51 219 109 350 143zM137 477h47c17 -248 111 -465 373 -465c133 0 266 80 266 273c0 166 -129 260 -319 374c-195 117 -365 228 -365 459
c0 242 183 355 385 355c135 0 195 -39 250 -76c33 -21 51 -29 70 -29c26 0 37 31 45 90h47c-6 -72 -10 -160 -10 -418h-47c-15 195 -109 394 -336 394c-146 0 -250 -97 -250 -238c0 -186 160 -260 344 -375c213 -133 369 -241 369 -461c0 -260 -197 -389 -435 -389
c-145 0 -221 39 -280 76c-33 21 -53 29 -70 29c-26 0 -37 -31 -45 -90h-47c6 84 8 202 8 491z" />
    <glyph glyph-name="Scedilla" unicode="&#x15e;" horiz-adv-x="1106" 
d="M926 1040h-47c-15 195 -109 394 -336 394c-146 0 -250 -97 -250 -238c0 -186 160 -260 344 -375c213 -133 369 -241 369 -461c0 -251 -183 -380 -410 -389l-41 -118c35 8 76 14 121 14c76 0 125 -35 125 -96c0 -115 -133 -156 -231 -156c-76 0 -133 10 -170 23l8 36
c14 -2 45 -6 78 -6c80 0 184 19 184 92c0 39 -31 58 -86 58c-22 0 -69 -4 -100 -15l56 169c-125 5 -194 41 -249 75c-33 21 -53 29 -70 29c-26 0 -37 -31 -45 -90h-47c6 84 8 202 8 491h47c17 -248 111 -465 373 -465c133 0 266 80 266 273c0 166 -129 260 -319 374
c-195 117 -365 228 -365 459c0 242 183 355 385 355c135 0 195 -39 250 -76c33 -21 51 -29 70 -29c26 0 37 31 45 90h47c-6 -72 -10 -160 -10 -418z" />
    <glyph glyph-name="Scircumflex" unicode="&#x15c;" horiz-adv-x="1106" 
d="M545 1876h37c63 -104 204 -209 383 -270l-11 -29c-164 35 -338 92 -432 143c-78 -51 -219 -108 -350 -143l-10 29c178 61 319 166 383 270zM137 477h47c17 -248 111 -465 373 -465c133 0 266 80 266 273c0 166 -129 260 -319 374c-195 117 -365 228 -365 459
c0 242 183 355 385 355c135 0 195 -39 250 -76c33 -21 51 -29 70 -29c26 0 37 31 45 90h47c-6 -72 -10 -160 -10 -418h-47c-15 195 -109 394 -336 394c-146 0 -250 -97 -250 -238c0 -186 160 -260 344 -375c213 -133 369 -241 369 -461c0 -260 -197 -389 -435 -389
c-145 0 -221 39 -280 76c-33 21 -53 29 -70 29c-26 0 -37 -31 -45 -90h-47c6 84 8 202 8 491z" />
    <glyph glyph-name="Scommaaccent" unicode="&#x218;" horiz-adv-x="1106" 
d="M137 477h47c17 -248 111 -465 373 -465c133 0 266 80 266 273c0 166 -129 260 -319 374c-195 117 -365 228 -365 459c0 242 183 355 385 355c135 0 195 -39 250 -76c33 -21 51 -29 70 -29c26 0 37 31 45 90h47c-6 -72 -10 -160 -10 -418h-47c-15 195 -109 394 -336 394
c-146 0 -250 -97 -250 -238c0 -186 160 -260 344 -375c213 -133 369 -241 369 -461c0 -260 -197 -389 -435 -389c-145 0 -221 39 -280 76c-33 21 -53 29 -70 29c-26 0 -37 -31 -45 -90h-47c6 84 8 202 8 491zM539 -494l-14 37c63 19 127 64 127 129c-21 -18 -52 -32 -86 -32
c-60 0 -107 38 -107 110c0 62 51 109 115 109c80 0 133 -64 133 -144c0 -98 -37 -161 -168 -209z" />
    <glyph glyph-name="uni1E9E" unicode="&#x1e9e;" horiz-adv-x="1395" 
d="M199 217v567c0 482 202 695 555 695c172 0 307 -52 428 -146l-310 -489c250 -53 443 -215 443 -447c0 -231 -193 -426 -508 -426c-96 0 -156 19 -195 37c-71 35 -100 88 -100 142c0 63 45 108 109 108c63 0 112 -41 112 -111c0 -59 -35 -94 -86 -104
c31 -27 111 -33 150 -33c211 0 313 193 313 393c0 261 -172 418 -422 455l322 524c-54 41 -152 60 -234 60c-201 0 -387 -113 -387 -533v-692c0 -137 19 -174 113 -176v-41c-62 0 -109 6 -234 6c-71 0 -178 -2 -235 -6v41c139 6 166 27 166 176z" />
    <glyph glyph-name="T" unicode="T" horiz-adv-x="1272" 
d="M115 1020h-47c4 43 6 102 6 168c0 51 -4 158 -15 262c170 -6 410 -6 578 -6s405 0 575 6c-10 -104 -14 -211 -14 -262c0 -66 2 -125 6 -168h-47c-29 285 -59 383 -315 383h-111v-1165c0 -166 35 -191 207 -197v-41c-72 4 -190 6 -301 6c-123 0 -238 -2 -303 -6v41
c172 6 207 31 207 197v1165h-111c-256 0 -287 -98 -315 -383z" />
    <glyph glyph-name="Tbar" unicode="&#x166;" horiz-adv-x="1284" 
d="M119 1020h-47c4 43 6 102 6 168c0 51 -4 158 -15 262c170 -6 410 -6 578 -6s405 0 575 6c-10 -104 -14 -211 -14 -262c0 -66 2 -125 6 -168h-47c-29 285 -59 383 -315 383h-111v-653h328v-41h-328v-471c0 -166 35 -191 207 -197v-41c-72 4 -190 6 -301 6
c-123 0 -238 -2 -303 -6v41c172 6 207 31 207 197v471h-330v41h330v653h-111c-256 0 -287 -98 -315 -383z" />
    <glyph glyph-name="Tcaron" unicode="&#x164;" horiz-adv-x="1272" 
d="M1022 1896l11 -28c-179 -62 -320 -166 -383 -271h-37c-64 105 -205 209 -383 271l10 28c164 -34 338 -92 432 -143c78 51 219 109 350 143zM115 1020h-47c4 43 6 102 6 168c0 51 -4 158 -15 262c170 -6 410 -6 578 -6s405 0 575 6c-10 -104 -14 -211 -14 -262
c0 -66 2 -125 6 -168h-47c-29 285 -59 383 -315 383h-111v-1165c0 -166 35 -191 207 -197v-41c-72 4 -190 6 -301 6c-123 0 -238 -2 -303 -6v41c172 6 207 31 207 197v1165h-111c-256 0 -287 -98 -315 -383z" />
    <glyph glyph-name="Tcedilla" unicode="&#x162;" horiz-adv-x="1272" 
d="M115 1020h-47c4 43 6 102 6 168c0 51 -4 158 -15 262c170 -6 410 -6 578 -6s405 0 575 6c-10 -104 -14 -211 -14 -262c0 -66 2 -125 6 -168h-47c-29 285 -59 383 -315 383h-111v-1165c0 -166 35 -191 207 -197v-41c-67 4 -175 6 -279 6l-53 -153c35 8 76 14 121 14
c76 0 125 -35 125 -96c0 -115 -133 -156 -231 -156c-76 0 -133 10 -170 23l8 36c14 -2 45 -6 78 -6c80 0 184 19 184 92c0 39 -31 58 -86 58c-22 0 -69 -4 -100 -15l68 203c-110 0 -210 -2 -269 -6v41c172 6 207 31 207 197v1165h-111c-256 0 -287 -98 -315 -383z" />
    <glyph glyph-name="uni021A" unicode="&#x21a;" horiz-adv-x="1272" 
d="M115 1020h-47c4 43 6 102 6 168c0 51 -4 158 -15 262c170 -6 410 -6 578 -6s405 0 575 6c-10 -104 -14 -211 -14 -262c0 -66 2 -125 6 -168h-47c-29 285 -59 383 -315 383h-111v-1165c0 -166 35 -191 207 -197v-41c-72 4 -190 6 -301 6c-123 0 -238 -2 -303 -6v41
c172 6 207 31 207 197v1165h-111c-256 0 -287 -98 -315 -383zM590 -494l-14 37c63 19 127 64 127 129c-21 -18 -52 -32 -86 -32c-60 0 -107 38 -107 110c0 62 51 109 115 109c80 0 133 -64 133 -144c0 -98 -37 -161 -168 -209z" />
    <glyph glyph-name="U" unicode="U" horiz-adv-x="1397" 
d="M1341 1450v-41c-139 -6 -165 -47 -165 -197v-616c0 -190 -23 -330 -84 -434c-68 -115 -207 -191 -375 -191c-131 0 -254 27 -344 111c-121 113 -152 229 -152 508v643c0 149 -26 170 -166 176v41c58 -4 156 -6 262 -6c95 0 197 2 261 6v-41c-140 -6 -166 -27 -166 -176
v-678c0 -281 32 -512 323 -512c309 0 393 225 393 530v639c0 150 -47 191 -186 197v41c49 -4 139 -6 209 -6s145 2 190 6z" />
    <glyph glyph-name="Uacute" unicode="&#xda;" horiz-adv-x="1397" 
d="M610 1581l-14 27c188 143 258 233 344 288c22 14 43 20 62 20c27 0 49 -13 63 -34c7 -12 11 -25 11 -38c0 -27 -16 -56 -54 -81c-88 -53 -201 -75 -412 -182zM1341 1450v-41c-139 -6 -165 -47 -165 -197v-616c0 -190 -23 -330 -84 -434c-68 -115 -207 -191 -375 -191
c-131 0 -254 27 -344 111c-121 113 -152 229 -152 508v643c0 149 -26 170 -166 176v41c58 -4 156 -6 262 -6c95 0 197 2 261 6v-41c-140 -6 -166 -27 -166 -176v-678c0 -281 32 -512 323 -512c309 0 393 225 393 530v639c0 150 -47 191 -186 197v41c49 -4 139 -6 209 -6
s145 2 190 6z" />
    <glyph glyph-name="Ubreve" unicode="&#x16c;" horiz-adv-x="1397" 
d="M1104 1862l24 -23c-65 -106 -198 -237 -407 -237s-342 131 -408 237l27 21c63 -62 184 -131 381 -131c196 0 319 71 383 133zM1341 1450v-41c-139 -6 -165 -47 -165 -197v-616c0 -190 -23 -330 -84 -434c-68 -115 -207 -191 -375 -191c-131 0 -254 27 -344 111
c-121 113 -152 229 -152 508v643c0 149 -26 170 -166 176v41c58 -4 156 -6 262 -6c95 0 197 2 261 6v-41c-140 -6 -166 -27 -166 -176v-678c0 -281 32 -512 323 -512c309 0 393 225 393 530v639c0 150 -47 191 -186 197v41c49 -4 139 -6 209 -6s145 2 190 6z" />
    <glyph glyph-name="Ucircumflex" unicode="&#xdb;" horiz-adv-x="1397" 
d="M703 1876h37c63 -104 204 -209 383 -270l-11 -29c-164 35 -338 92 -432 143c-78 -51 -219 -108 -350 -143l-10 29c178 61 319 166 383 270zM1341 1450v-41c-139 -6 -165 -47 -165 -197v-616c0 -190 -23 -330 -84 -434c-68 -115 -207 -191 -375 -191
c-131 0 -254 27 -344 111c-121 113 -152 229 -152 508v643c0 149 -26 170 -166 176v41c58 -4 156 -6 262 -6c95 0 197 2 261 6v-41c-140 -6 -166 -27 -166 -176v-678c0 -281 32 -512 323 -512c309 0 393 225 393 530v639c0 150 -47 191 -186 197v41c49 -4 139 -6 209 -6
s145 2 190 6z" />
    <glyph glyph-name="Udieresis" unicode="&#xdc;" horiz-adv-x="1397" 
d="M504 1819c63 0 119 -56 119 -119c0 -66 -56 -119 -119 -119c-66 0 -119 53 -119 119c0 63 53 119 119 119zM938 1819c64 0 119 -56 119 -119c0 -66 -55 -119 -119 -119c-65 0 -119 53 -119 119c0 63 54 119 119 119zM1341 1450v-41c-139 -6 -165 -47 -165 -197v-616
c0 -190 -23 -330 -84 -434c-68 -115 -207 -191 -375 -191c-131 0 -254 27 -344 111c-121 113 -152 229 -152 508v643c0 149 -26 170 -166 176v41c58 -4 156 -6 262 -6c95 0 197 2 261 6v-41c-140 -6 -166 -27 -166 -176v-678c0 -281 32 -512 323 -512c309 0 393 225 393 530
v639c0 150 -47 191 -186 197v41c49 -4 139 -6 209 -6s145 2 190 6z" />
    <glyph glyph-name="Ugrave" unicode="&#xd9;" horiz-adv-x="1397" 
d="M858 1608l-14 -27c-211 107 -324 129 -412 182c-38 25 -54 54 -54 81c0 13 4 26 11 38c14 21 36 34 63 34c19 0 40 -6 62 -20c86 -55 156 -145 344 -288zM1341 1450v-41c-139 -6 -165 -47 -165 -197v-616c0 -190 -23 -330 -84 -434c-68 -115 -207 -191 -375 -191
c-131 0 -254 27 -344 111c-121 113 -152 229 -152 508v643c0 149 -26 170 -166 176v41c58 -4 156 -6 262 -6c95 0 197 2 261 6v-41c-140 -6 -166 -27 -166 -176v-678c0 -281 32 -512 323 -512c309 0 393 225 393 530v639c0 150 -47 191 -186 197v41c49 -4 139 -6 209 -6
s145 2 190 6z" />
    <glyph glyph-name="Uhungarumlaut" unicode="&#x170;" horiz-adv-x="1397" 
d="M436 1581l-18 25c98 98 161 215 239 282c24 21 48 30 69 30c23 0 43 -10 56 -26c12 -13 19 -29 19 -47c0 -25 -13 -52 -43 -78c-80 -65 -207 -106 -322 -186zM819 1581l-18 25c98 98 161 215 239 282c24 21 48 30 69 30c23 0 43 -10 56 -26c12 -13 19 -29 19 -47
c0 -25 -13 -52 -43 -78c-80 -65 -207 -106 -322 -186zM1341 1450v-41c-139 -6 -165 -47 -165 -197v-616c0 -190 -23 -330 -84 -434c-68 -115 -207 -191 -375 -191c-131 0 -254 27 -344 111c-121 113 -152 229 -152 508v643c0 149 -26 170 -166 176v41c58 -4 156 -6 262 -6
c95 0 197 2 261 6v-41c-140 -6 -166 -27 -166 -176v-678c0 -281 32 -512 323 -512c309 0 393 225 393 530v639c0 150 -47 191 -186 197v41c49 -4 139 -6 209 -6s145 2 190 6z" />
    <glyph glyph-name="Umacron" unicode="&#x16a;" horiz-adv-x="1397" 
d="M1081 1677h-721v52h721v-52zM1341 1450v-41c-139 -6 -165 -47 -165 -197v-616c0 -190 -23 -330 -84 -434c-68 -115 -207 -191 -375 -191c-131 0 -254 27 -344 111c-121 113 -152 229 -152 508v643c0 149 -26 170 -166 176v41c58 -4 156 -6 262 -6c95 0 197 2 261 6v-41
c-140 -6 -166 -27 -166 -176v-678c0 -281 32 -512 323 -512c309 0 393 225 393 530v639c0 150 -47 191 -186 197v41c49 -4 139 -6 209 -6s145 2 190 6z" />
    <glyph glyph-name="Uogonek" unicode="&#x172;" horiz-adv-x="1397" 
d="M942 1409v41c49 -4 139 -6 209 -6s145 2 190 6v-41c-139 -6 -165 -47 -165 -197v-616c0 -190 -23 -330 -84 -434c-51 -86 -141 -150 -253 -177c-113 -47 -149 -122 -149 -182c0 -53 32 -90 88 -90c51 0 98 31 125 68l30 -27c-63 -96 -141 -139 -231 -139
c-98 0 -162 53 -162 133c0 88 69 166 194 223h-17c-131 0 -254 27 -344 111c-121 113 -152 229 -152 508v643c0 149 -26 170 -166 176v41c58 -4 156 -6 262 -6c95 0 197 2 261 6v-41c-140 -6 -166 -27 -166 -176v-678c0 -281 32 -512 323 -512c309 0 393 225 393 530v639
c0 150 -47 191 -186 197z" />
    <glyph glyph-name="Uring" unicode="&#x16e;" horiz-adv-x="1397" 
d="M721 2017c107 0 199 -72 199 -186c0 -117 -92 -189 -199 -189c-104 0 -196 72 -196 189c0 114 92 186 196 186zM721 1974c-65 0 -139 -51 -139 -145c0 -97 74 -144 139 -144c68 0 142 47 142 144c0 94 -74 145 -142 145zM1341 1450v-41c-139 -6 -165 -47 -165 -197v-616
c0 -190 -23 -330 -84 -434c-68 -115 -207 -191 -375 -191c-131 0 -254 27 -344 111c-121 113 -152 229 -152 508v643c0 149 -26 170 -166 176v41c58 -4 156 -6 262 -6c95 0 197 2 261 6v-41c-140 -6 -166 -27 -166 -176v-678c0 -281 32 -512 323 -512c309 0 393 225 393 530
v639c0 150 -47 191 -186 197v41c49 -4 139 -6 209 -6s145 2 190 6z" />
    <glyph glyph-name="Utilde" unicode="&#x168;" horiz-adv-x="1397" 
d="M359 1624l-31 6c12 135 113 217 227 217c152 0 256 -157 398 -157c55 0 102 26 127 114l30 -6c-12 -135 -112 -217 -227 -217c-151 0 -256 158 -397 158c-57 0 -103 -27 -127 -115zM1341 1450v-41c-139 -6 -165 -47 -165 -197v-616c0 -190 -23 -330 -84 -434
c-68 -115 -207 -191 -375 -191c-131 0 -254 27 -344 111c-121 113 -152 229 -152 508v643c0 149 -26 170 -166 176v41c58 -4 156 -6 262 -6c95 0 197 2 261 6v-41c-140 -6 -166 -27 -166 -176v-678c0 -281 32 -512 323 -512c309 0 393 225 393 530v639
c0 150 -47 191 -186 197v41c49 -4 139 -6 209 -6s145 2 190 6z" />
    <glyph glyph-name="V" unicode="V" horiz-adv-x="1290" 
d="M915 1409v41c78 -4 164 -6 236 -6c70 0 113 2 154 6v-41c-54 -12 -115 -55 -162 -178l-481 -1241h-17h-16l-500 1288c-41 104 -98 129 -141 131v41c55 -4 141 -6 219 -6c106 0 205 2 262 6v-41c-98 -4 -145 -19 -145 -76c0 -24 8 -55 24 -96l371 -984l334 865
c27 70 41 125 41 167c0 90 -62 121 -179 124z" />
    <glyph glyph-name="W" unicode="W" horiz-adv-x="1853" 
d="M1468 1409v41c78 -4 164 -6 236 -6c70 0 113 2 154 6v-41c-54 -12 -123 -53 -162 -178l-387 -1241h-17h-16l-356 1055l-326 -1055h-16h-17l-434 1288c-37 106 -98 129 -141 131v41c55 -4 141 -6 219 -6c90 0 172 2 221 6v-41c-71 -5 -100 -24 -100 -71
c0 -25 8 -58 22 -101l300 -913l248 793l-54 161c-35 106 -84 129 -121 131v41c49 -4 129 -6 199 -6c106 0 204 2 262 6v-41c-91 -4 -140 -10 -140 -73c0 -24 7 -56 21 -99l294 -911l253 792c22 69 33 123 33 165c0 93 -56 123 -175 126z" />
    <glyph glyph-name="Wacute" unicode="&#x1e82;" horiz-adv-x="1853" 
d="M839 1581l-14 27c188 143 258 233 344 288c22 14 43 20 62 20c27 0 49 -13 63 -34c7 -12 11 -25 11 -38c0 -27 -16 -56 -54 -81c-88 -53 -201 -75 -412 -182zM1468 1409v41c78 -4 164 -6 236 -6c70 0 113 2 154 6v-41c-54 -12 -123 -53 -162 -178l-387 -1241h-17h-16
l-356 1055l-326 -1055h-16h-17l-434 1288c-37 106 -98 129 -141 131v41c55 -4 141 -6 219 -6c90 0 172 2 221 6v-41c-71 -5 -100 -24 -100 -71c0 -25 8 -58 22 -101l300 -913l248 793l-54 161c-35 106 -84 129 -121 131v41c49 -4 129 -6 199 -6c106 0 204 2 262 6v-41
c-91 -4 -140 -10 -140 -73c0 -24 7 -56 21 -99l294 -911l253 792c22 69 33 123 33 165c0 93 -56 123 -175 126z" />
    <glyph glyph-name="Wcircumflex" unicode="&#x174;" horiz-adv-x="1853" 
d="M1352 1606l-11 -29c-164 35 -338 92 -432 143c-78 -51 -219 -108 -350 -143l-10 29c178 61 319 166 383 270h37c63 -104 204 -209 383 -270zM1468 1409v41c78 -4 164 -6 236 -6c70 0 113 2 154 6v-41c-54 -12 -123 -53 -162 -178l-387 -1241h-17h-16l-356 1055
l-326 -1055h-16h-17l-434 1288c-37 106 -98 129 -141 131v41c55 -4 141 -6 219 -6c90 0 172 2 221 6v-41c-71 -5 -100 -24 -100 -71c0 -25 8 -58 22 -101l300 -913l248 793l-54 161c-35 106 -84 129 -121 131v41c49 -4 129 -6 199 -6c106 0 204 2 262 6v-41
c-91 -4 -140 -10 -140 -73c0 -24 7 -56 21 -99l294 -911l253 792c22 69 33 123 33 165c0 93 -56 123 -175 126z" />
    <glyph glyph-name="Wdieresis" unicode="&#x1e84;" horiz-adv-x="1853" 
d="M733 1581c-66 0 -119 53 -119 119c0 63 53 119 119 119c63 0 119 -56 119 -119c0 -66 -56 -119 -119 -119zM1167 1581c-65 0 -119 53 -119 119c0 63 54 119 119 119c64 0 119 -56 119 -119c0 -66 -55 -119 -119 -119zM1468 1409v41c78 -4 164 -6 236 -6c70 0 113 2 154 6
v-41c-54 -12 -123 -53 -162 -178l-387 -1241h-17h-16l-356 1055l-326 -1055h-16h-17l-434 1288c-37 106 -98 129 -141 131v41c55 -4 141 -6 219 -6c90 0 172 2 221 6v-41c-71 -5 -100 -24 -100 -71c0 -25 8 -58 22 -101l300 -913l248 793l-54 161c-35 106 -84 129 -121 131
v41c49 -4 129 -6 199 -6c106 0 204 2 262 6v-41c-91 -4 -140 -10 -140 -73c0 -24 7 -56 21 -99l294 -911l253 792c22 69 33 123 33 165c0 93 -56 123 -175 126z" />
    <glyph glyph-name="Wgrave" unicode="&#x1e80;" horiz-adv-x="1853" 
d="M1087 1608l-14 -27c-211 107 -324 129 -412 182c-38 25 -54 54 -54 81c0 13 4 26 11 38c14 21 36 34 63 34c19 0 40 -6 62 -20c86 -55 156 -145 344 -288zM1468 1409v41c78 -4 164 -6 236 -6c70 0 113 2 154 6v-41c-54 -12 -123 -53 -162 -178l-387 -1241h-17h-16
l-356 1055l-326 -1055h-16h-17l-434 1288c-37 106 -98 129 -141 131v41c55 -4 141 -6 219 -6c90 0 172 2 221 6v-41c-71 -5 -100 -24 -100 -71c0 -25 8 -58 22 -101l300 -913l248 793l-54 161c-35 106 -84 129 -121 131v41c49 -4 129 -6 199 -6c106 0 204 2 262 6v-41
c-91 -4 -140 -10 -140 -73c0 -24 7 -56 21 -99l294 -911l253 792c22 69 33 123 33 165c0 93 -56 123 -175 126z" />
    <glyph glyph-name="X" unicode="X" horiz-adv-x="1298" 
d="M723 793l424 -648c51 -79 76 -98 137 -102v-43c-35 2 -106 8 -176 8c-111 0 -234 -6 -289 -8v43c101 0 146 6 146 33c0 10 -5 22 -15 37l-350 536l-221 -330c-54 -80 -78 -139 -78 -180c0 -73 73 -95 182 -98v-41c-77 4 -204 6 -276 6c-70 0 -133 -2 -174 -6v41
c84 12 155 76 231 188l309 461l-401 615c-51 79 -76 98 -137 102v43c35 -2 106 -8 176 -8c111 0 213 4 289 8v-43c-98 0 -137 -15 -137 -45c0 -12 7 -27 18 -45l319 -488l201 301c61 91 89 154 89 197c0 60 -57 80 -159 82v41c78 -4 164 -6 236 -6c70 0 133 2 174 6v-41
c-84 -12 -156 -76 -231 -188z" />
    <glyph glyph-name="Y" unicode="Y" horiz-adv-x="1210" 
d="M815 1409v41c78 -4 164 -6 236 -6c69 0 112 2 153 6v-41c-53 -12 -102 -61 -164 -182l-321 -637v-373c0 -149 26 -170 166 -176v-41c-64 4 -166 6 -260 6c-107 0 -205 -2 -263 -6v41c140 6 166 27 166 176v309l-415 766c-56 101 -90 115 -119 115v43c53 -4 110 -6 180 -6
c90 0 199 0 287 6v-43c-78 0 -144 -18 -144 -79c0 -19 6 -42 21 -71l341 -653l261 520c38 77 56 134 56 176c0 81 -67 106 -181 109z" />
    <glyph glyph-name="Yacute" unicode="&#xdd;" horiz-adv-x="1210" 
d="M512 1581l-14 27c188 143 258 233 344 288c22 14 43 20 62 20c27 0 49 -13 63 -34c7 -12 11 -25 11 -38c0 -27 -16 -56 -54 -81c-88 -53 -201 -75 -412 -182zM815 1409v41c78 -4 164 -6 236 -6c69 0 112 2 153 6v-41c-53 -12 -102 -61 -164 -182l-321 -637v-373
c0 -149 26 -170 166 -176v-41c-64 4 -166 6 -260 6c-107 0 -205 -2 -263 -6v41c140 6 166 27 166 176v309l-415 766c-56 101 -90 115 -119 115v43c53 -4 110 -6 180 -6c90 0 199 0 287 6v-43c-78 0 -144 -18 -144 -79c0 -19 6 -42 21 -71l341 -653l261 520
c38 77 56 134 56 176c0 81 -67 106 -181 109z" />
    <glyph glyph-name="Ycircumflex" unicode="&#x176;" horiz-adv-x="1210" 
d="M1025 1606l-11 -29c-164 35 -338 92 -432 143c-78 -51 -219 -108 -350 -143l-10 29c178 61 319 166 383 270h37c63 -104 204 -209 383 -270zM815 1409v41c78 -4 164 -6 236 -6c69 0 112 2 153 6v-41c-53 -12 -102 -61 -164 -182l-321 -637v-373c0 -149 26 -170 166 -176
v-41c-64 4 -166 6 -260 6c-107 0 -205 -2 -263 -6v41c140 6 166 27 166 176v309l-415 766c-56 101 -90 115 -119 115v43c53 -4 110 -6 180 -6c90 0 199 0 287 6v-43c-78 0 -144 -18 -144 -79c0 -19 6 -42 21 -71l341 -653l261 520c38 77 56 134 56 176
c0 81 -67 106 -181 109z" />
    <glyph glyph-name="Ydieresis" unicode="&#x178;" horiz-adv-x="1210" 
d="M406 1581c-66 0 -119 53 -119 119c0 63 53 119 119 119c63 0 119 -56 119 -119c0 -66 -56 -119 -119 -119zM840 1581c-65 0 -119 53 -119 119c0 63 54 119 119 119c64 0 119 -56 119 -119c0 -66 -55 -119 -119 -119zM815 1409v41c78 -4 164 -6 236 -6c69 0 112 2 153 6
v-41c-53 -12 -102 -61 -164 -182l-321 -637v-373c0 -149 26 -170 166 -176v-41c-64 4 -166 6 -260 6c-107 0 -205 -2 -263 -6v41c140 6 166 27 166 176v309l-415 766c-56 101 -90 115 -119 115v43c53 -4 110 -6 180 -6c90 0 199 0 287 6v-43c-78 0 -144 -18 -144 -79
c0 -19 6 -42 21 -71l341 -653l261 520c38 77 56 134 56 176c0 81 -67 106 -181 109z" />
    <glyph glyph-name="Ygrave" unicode="&#x1ef2;" horiz-adv-x="1210" 
d="M760 1608l-14 -27c-211 107 -324 129 -412 182c-38 25 -54 54 -54 81c0 13 4 26 11 38c14 21 36 34 63 34c19 0 40 -6 62 -20c86 -55 156 -145 344 -288zM815 1409v41c78 -4 164 -6 236 -6c69 0 112 2 153 6v-41c-53 -12 -102 -61 -164 -182l-321 -637v-373
c0 -149 26 -170 166 -176v-41c-64 4 -166 6 -260 6c-107 0 -205 -2 -263 -6v41c140 6 166 27 166 176v309l-415 766c-56 101 -90 115 -119 115v43c53 -4 110 -6 180 -6c90 0 199 0 287 6v-43c-78 0 -144 -18 -144 -79c0 -19 6 -42 21 -71l341 -653l261 520
c38 77 56 134 56 176c0 81 -67 106 -181 109z" />
    <glyph glyph-name="Z" unicode="Z" horiz-adv-x="1217" 
d="M1126 1409l-847 -1362h432c256 0 307 98 336 383h47c-4 -43 -7 -102 -7 -168c0 -51 5 -158 15 -262c-152 6 -361 6 -510 6c-162 0 -350 0 -506 -6v41l854 1362h-430c-256 0 -307 -98 -336 -383h-47c4 43 6 102 6 168c0 51 -4 158 -14 262c151 -6 360 -6 510 -6
c155 0 348 0 497 6v-41z" />
    <glyph glyph-name="Zacute" unicode="&#x179;" horiz-adv-x="1217" 
d="M493 1581l-14 27c188 143 258 233 344 288c22 14 43 20 62 20c27 0 49 -13 63 -34c7 -12 11 -25 11 -38c0 -27 -16 -56 -54 -81c-88 -53 -201 -75 -412 -182zM1126 1409l-847 -1362h432c256 0 307 98 336 383h47c-4 -43 -7 -102 -7 -168c0 -51 5 -158 15 -262
c-152 6 -361 6 -510 6c-162 0 -350 0 -506 -6v41l854 1362h-430c-256 0 -307 -98 -336 -383h-47c4 43 6 102 6 168c0 51 -4 158 -14 262c151 -6 360 -6 510 -6c155 0 348 0 497 6v-41z" />
    <glyph glyph-name="Zcaron" unicode="&#x17d;" horiz-adv-x="1217" 
d="M989 1896l11 -28c-179 -62 -320 -166 -383 -271h-37c-64 105 -205 209 -383 271l10 28c164 -34 338 -92 432 -143c78 51 219 109 350 143zM1126 1409l-847 -1362h432c256 0 307 98 336 383h47c-4 -43 -7 -102 -7 -168c0 -51 5 -158 15 -262c-152 6 -361 6 -510 6
c-162 0 -350 0 -506 -6v41l854 1362h-430c-256 0 -307 -98 -336 -383h-47c4 43 6 102 6 168c0 51 -4 158 -14 262c151 -6 360 -6 510 -6c155 0 348 0 497 6v-41z" />
    <glyph glyph-name="Zdotaccent" unicode="&#x17b;" horiz-adv-x="1217" 
d="M604 1964c71 0 131 -60 131 -131c0 -72 -60 -131 -131 -131c-72 0 -131 59 -131 131c0 71 59 131 131 131zM1126 1409l-847 -1362h432c256 0 307 98 336 383h47c-4 -43 -7 -102 -7 -168c0 -51 5 -158 15 -262c-152 6 -361 6 -510 6c-162 0 -350 0 -506 -6v41l854 1362
h-430c-256 0 -307 -98 -336 -383h-47c4 43 6 102 6 168c0 51 -4 158 -14 262c151 -6 360 -6 510 -6c155 0 348 0 497 6v-41z" />
    <glyph glyph-name="Cacute.loclPLK" horiz-adv-x="1409" 
d="M714 1554l-27 13c39 141 31 233 60 305c15 34 41 48 69 48c12 0 25 -3 37 -7c26 -13 46 -39 46 -71c0 -11 -2 -22 -7 -34c-33 -71 -100 -129 -178 -254zM1276 0h-47c-7 84 -21 121 -50 121c-11 0 -25 -6 -42 -17c-101 -71 -203 -133 -379 -133c-389 0 -649 273 -649 742
c0 458 270 766 651 766c180 0 287 -64 377 -133c15 -12 28 -18 40 -18c28 0 45 38 52 122h47c-6 -100 -8 -233 -8 -471h-47c-29 174 -45 229 -103 303c-86 111 -221 160 -362 160c-267 0 -443 -277 -443 -721c0 -457 199 -709 463 -709c123 0 273 45 350 156
c60 80 74 158 95 324h47c0 -248 2 -388 8 -492z" />
    <glyph glyph-name="Nacute.loclPLK" horiz-adv-x="1446" 
d="M735 1554l-27 13c39 141 31 233 60 305c15 34 41 48 69 48c12 0 25 -3 37 -7c26 -13 46 -39 46 -71c0 -11 -2 -22 -7 -34c-33 -71 -100 -129 -178 -254zM1372 1450v-41c-139 -6 -166 -47 -166 -197v-1222h-47l-860 1329v-1081c0 -150 27 -191 186 -197v-41
c-49 4 -139 6 -209 6c-69 0 -145 -2 -190 -6v41c139 6 166 47 166 197v995c0 149 -27 170 -166 176v41c45 -4 121 -6 190 -6c60 0 115 2 160 6l723 -1114v876c0 150 -26 191 -186 197v41c49 -4 139 -6 209 -6c69 0 145 2 190 6z" />
    <glyph glyph-name="Oacute.loclPLK" horiz-adv-x="1518" 
d="M725 1554l-27 13c39 141 31 233 60 305c15 34 41 48 69 48c12 0 25 -3 37 -7c26 -13 46 -39 46 -71c0 -11 -2 -22 -7 -34c-33 -71 -100 -129 -178 -254zM760 1479c389 0 649 -273 649 -742c0 -458 -270 -766 -651 -766c-389 0 -649 273 -649 742c0 458 270 766 651 766z
M752 1442c-267 0 -439 -297 -439 -721c0 -436 201 -713 453 -713c266 0 438 297 438 721c0 436 -200 713 -452 713z" />
    <glyph glyph-name="Sacute.loclPLK" horiz-adv-x="1106" 
d="M532 1554l-27 13c39 141 31 233 60 305c15 34 41 48 69 48c12 0 25 -3 37 -7c26 -13 46 -39 46 -71c0 -11 -2 -22 -7 -34c-33 -71 -100 -129 -178 -254zM137 477h47c17 -248 111 -465 373 -465c133 0 266 80 266 273c0 166 -129 260 -319 374c-195 117 -365 228 -365 459
c0 242 183 355 385 355c135 0 195 -39 250 -76c33 -21 51 -29 70 -29c26 0 37 31 45 90h47c-6 -72 -10 -160 -10 -418h-47c-15 195 -109 394 -336 394c-146 0 -250 -97 -250 -238c0 -186 160 -260 344 -375c213 -133 369 -241 369 -461c0 -260 -197 -389 -435 -389
c-145 0 -221 39 -280 76c-33 21 -53 29 -70 29c-26 0 -37 -31 -45 -90h-47c6 84 8 202 8 491z" />
    <glyph glyph-name="Zacute.loclPLK" horiz-adv-x="1217" 
d="M573 1554l-27 13c39 141 31 233 60 305c15 34 41 48 69 48c12 0 25 -3 37 -7c26 -13 46 -39 46 -71c0 -11 -2 -22 -7 -34c-33 -71 -100 -129 -178 -254zM1126 1409l-847 -1362h432c256 0 307 98 336 383h47c-4 -43 -7 -102 -7 -168c0 -51 5 -158 15 -262
c-152 6 -361 6 -510 6c-162 0 -350 0 -506 -6v41l854 1362h-430c-256 0 -307 -98 -336 -383h-47c4 43 6 102 6 168c0 51 -4 158 -14 262c151 -6 360 -6 510 -6c155 0 348 0 497 6v-41z" />
    <glyph glyph-name="a" unicode="a" horiz-adv-x="1262" 
d="M647 1255l479 -1083c45 -102 99 -129 142 -131v-41c-56 4 -142 6 -219 6c-107 0 -205 -2 -263 -6v41c98 4 147 20 147 75c0 24 -9 56 -28 97l-103 233h-500l-69 -153c-22 -51 -34 -94 -34 -131c0 -70 47 -112 159 -121v-41c-41 4 -112 6 -186 6c-47 0 -143 -2 -178 -6v41
c78 20 127 96 168 190l452 1024h33zM784 487l-231 521l-233 -521h464z" />
    <glyph glyph-name="aacute" unicode="&#xe1;" horiz-adv-x="1262" 
d="M479 1450l-15 27c189 143 258 233 344 288c23 14 44 20 62 20c28 0 50 -13 63 -34c8 -12 12 -25 12 -39c0 -26 -17 -55 -55 -80c-88 -53 -200 -76 -411 -182zM647 1255l479 -1083c45 -102 99 -129 142 -131v-41c-56 4 -142 6 -219 6c-107 0 -205 -2 -263 -6v41
c98 4 147 20 147 75c0 24 -9 56 -28 97l-103 233h-500l-69 -153c-22 -51 -34 -94 -34 -131c0 -70 47 -112 159 -121v-41c-41 4 -112 6 -186 6c-47 0 -143 -2 -178 -6v41c78 20 127 96 168 190l452 1024h33zM784 487l-231 521l-233 -521h464z" />
    <glyph glyph-name="abreve" unicode="&#x103;" horiz-adv-x="1262" 
d="M968 1696l25 -23c-62 -106 -189 -237 -387 -237c-199 0 -326 131 -387 237l26 21c60 -62 174 -131 361 -131c186 0 303 71 362 133zM647 1255l479 -1083c45 -102 99 -129 142 -131v-41c-56 4 -142 6 -219 6c-107 0 -205 -2 -263 -6v41c98 4 147 20 147 75
c0 24 -9 56 -28 97l-103 233h-500l-69 -153c-22 -51 -34 -94 -34 -131c0 -70 47 -112 159 -121v-41c-41 4 -112 6 -186 6c-47 0 -143 -2 -178 -6v41c78 20 127 96 168 190l452 1024h33zM784 487l-231 521l-233 -521h464z" />
    <glyph glyph-name="acircumflex" unicode="&#xe2;" horiz-adv-x="1262" 
d="M991 1479l-10 -29c-156 35 -322 92 -412 143c-74 -51 -207 -108 -330 -143l-10 29c168 61 303 166 363 270h37c59 -104 194 -209 362 -270zM647 1255l479 -1083c45 -102 99 -129 142 -131v-41c-56 4 -142 6 -219 6c-107 0 -205 -2 -263 -6v41c98 4 147 20 147 75
c0 24 -9 56 -28 97l-103 233h-500l-69 -153c-22 -51 -34 -94 -34 -131c0 -70 47 -112 159 -121v-41c-41 4 -112 6 -186 6c-47 0 -143 -2 -178 -6v41c78 20 127 96 168 190l452 1024h33zM784 487l-231 521l-233 -521h464z" />
    <glyph glyph-name="adieresis" unicode="&#xe4;" horiz-adv-x="1262" 
d="M391 1462c-66 0 -119 54 -119 119c0 64 53 119 119 119c63 0 119 -55 119 -119c0 -65 -56 -119 -119 -119zM825 1462c-65 0 -119 54 -119 119c0 64 54 119 119 119c64 0 119 -55 119 -119c0 -65 -55 -119 -119 -119zM647 1255l479 -1083c45 -102 99 -129 142 -131v-41
c-56 4 -142 6 -219 6c-107 0 -205 -2 -263 -6v41c98 4 147 20 147 75c0 24 -9 56 -28 97l-103 233h-500l-69 -153c-22 -51 -34 -94 -34 -131c0 -70 47 -112 159 -121v-41c-41 4 -112 6 -186 6c-47 0 -143 -2 -178 -6v41c78 20 127 96 168 190l452 1024h33zM784 487l-231 521
l-233 -521h464z" />
    <glyph glyph-name="agrave" unicode="&#xe0;" horiz-adv-x="1262" 
d="M729 1477l-14 -27c-211 106 -324 129 -412 182c-38 25 -54 54 -54 81c0 13 4 26 11 38c14 21 36 34 63 34c19 0 40 -6 62 -20c86 -55 156 -145 344 -288zM647 1255l479 -1083c45 -102 99 -129 142 -131v-41c-56 4 -142 6 -219 6c-107 0 -205 -2 -263 -6v41
c98 4 147 20 147 75c0 24 -9 56 -28 97l-103 233h-500l-69 -153c-22 -51 -34 -94 -34 -131c0 -70 47 -112 159 -121v-41c-41 4 -112 6 -186 6c-47 0 -143 -2 -178 -6v41c78 20 127 96 168 190l452 1024h33zM784 487l-231 521l-233 -521h464z" />
    <glyph glyph-name="amacron" unicode="&#x101;" horiz-adv-x="1262" 
d="M964 1530h-721v51h721v-51zM647 1255l479 -1083c45 -102 99 -129 142 -131v-41c-56 4 -142 6 -219 6c-107 0 -205 -2 -263 -6v41c98 4 147 20 147 75c0 24 -9 56 -28 97l-103 233h-500l-69 -153c-22 -51 -34 -94 -34 -131c0 -70 47 -112 159 -121v-41
c-41 4 -112 6 -186 6c-47 0 -143 -2 -178 -6v41c78 20 127 96 168 190l452 1024h33zM784 487l-231 521l-233 -521h464z" />
    <glyph glyph-name="aogonek" unicode="&#x105;" horiz-adv-x="1262" 
d="M1268 41v-41c-19 1 -41 2 -66 3c-154 -44 -201 -131 -201 -200c0 -53 32 -90 88 -90c51 0 98 31 125 68l30 -27c-63 -96 -141 -139 -231 -139c-98 0 -162 53 -162 133c0 107 102 198 281 257l-83 1c-107 0 -205 -2 -263 -6v41c98 4 147 20 147 75c0 24 -9 56 -28 97
l-103 233h-500l-69 -153c-22 -51 -34 -94 -34 -131c0 -70 47 -112 159 -121v-41c-41 4 -112 6 -186 6c-47 0 -143 -2 -178 -6v41c78 20 127 96 168 190l452 1024h33l479 -1083c45 -102 99 -129 142 -131zM784 487l-231 521l-233 -521h464z" />
    <glyph glyph-name="aring" unicode="&#xe5;" horiz-adv-x="1262" 
d="M608 1397c-104 0 -196 71 -196 188c0 115 92 187 196 187c107 0 199 -72 199 -187c0 -117 -92 -188 -199 -188zM608 1729c-65 0 -139 -52 -139 -146c0 -96 74 -143 139 -143c68 0 142 47 142 143c0 94 -74 146 -142 146zM647 1255l479 -1083c45 -102 99 -129 142 -131
v-41c-56 4 -142 6 -219 6c-107 0 -205 -2 -263 -6v41c98 4 147 20 147 75c0 24 -9 56 -28 97l-103 233h-500l-69 -153c-22 -51 -34 -94 -34 -131c0 -70 47 -112 159 -121v-41c-41 4 -112 6 -186 6c-47 0 -143 -2 -178 -6v41c78 20 127 96 168 190l452 1024h33zM784 487
l-231 521l-233 -521h464z" />
    <glyph glyph-name="atilde" unicode="&#xe3;" horiz-adv-x="1262" 
d="M972 1677l35 -10c-31 -135 -113 -217 -227 -217c-152 0 -260 158 -398 158c-65 0 -114 -31 -143 -119l-35 10c31 135 113 217 227 217c152 0 261 -157 398 -157c63 0 114 30 143 118zM647 1255l479 -1083c45 -102 99 -129 142 -131v-41c-56 4 -142 6 -219 6
c-107 0 -205 -2 -263 -6v41c98 4 147 20 147 75c0 24 -9 56 -28 97l-103 233h-500l-69 -153c-22 -51 -34 -94 -34 -131c0 -70 47 -112 159 -121v-41c-41 4 -112 6 -186 6c-47 0 -143 -2 -178 -6v41c78 20 127 96 168 190l452 1024h33zM784 487l-231 521l-233 -521h464z" />
    <glyph glyph-name="ae" unicode="&#xe6;" horiz-adv-x="1624" 
d="M1456 389h47c-4 -37 -6 -90 -6 -147c0 -47 4 -146 14 -242c-120 6 -288 6 -407 6c-103 0 -322 0 -492 -6v41c107 6 125 27 125 176v389h-304l-222 -393c-24 -42 -35 -74 -35 -99c0 -50 48 -69 141 -73v-41c-41 4 -112 6 -186 6c-47 0 -102 -2 -137 -6v41
c43 2 84 35 141 131l570 999c-24 24 -65 30 -134 33v41c55 -2 114 -3 174 -4l62 109h47l-62 -110c124 -1 243 -1 312 -1c106 0 258 0 366 6c-10 -88 -14 -178 -14 -221c0 -49 2 -96 6 -127h-47c-20 225 -45 301 -213 301h-108c-140 0 -166 -20 -166 -170v-381h149
c144 0 137 135 150 209h47c-6 -69 -7 -115 -7 -152c0 -29 1 -53 1 -77c0 -56 2 -105 12 -230h-47c-12 101 -14 209 -156 209h-149v-389c0 -149 26 -170 166 -170h129c200 0 211 86 233 342zM737 647v381c0 43 -2 76 -9 100l-272 -481h281z" />
    <glyph glyph-name="b" unicode="b" horiz-adv-x="1235" 
d="M745 668v-4c308 -39 398 -185 398 -328c0 -197 -176 -336 -471 -336c-58 0 -174 6 -332 6c-96 0 -197 -2 -254 -6v41c139 6 166 27 166 176v811c0 152 -27 170 -166 176v41c57 -4 160 -6 250 -6c121 0 244 4 289 4c272 0 411 -117 411 -280c0 -121 -75 -238 -291 -295z
M442 668h117c225 0 281 118 281 272c0 172 -76 264 -267 264c-108 0 -131 -35 -131 -176v-360zM442 633v-416c0 -143 23 -170 133 -170c254 0 363 105 363 297c0 184 -98 289 -344 289h-152z" />
    <glyph glyph-name="c" unicode="c" horiz-adv-x="1317" 
d="M1190 0h-47c-7 83 -23 124 -51 124c-12 0 -25 -7 -41 -20c-86 -71 -177 -133 -332 -133c-365 0 -608 232 -608 639c0 398 254 664 610 664c147 0 233 -64 315 -133c16 -13 29 -20 40 -20c29 0 45 41 52 124h48c-7 -92 -9 -213 -9 -430h-47c-28 150 -51 195 -102 262
c-78 103 -189 156 -305 156c-242 0 -398 -232 -398 -615c0 -395 183 -606 412 -606c117 0 236 51 313 156c54 72 74 137 95 283h47c0 -228 2 -355 8 -451z" />
    <glyph glyph-name="cacute" unicode="&#x107;" horiz-adv-x="1317" 
d="M571 1450l-15 27c189 143 258 233 344 288c23 14 44 20 62 20c28 0 50 -13 63 -34c8 -12 12 -25 12 -39c0 -26 -17 -55 -55 -80c-88 -53 -200 -76 -411 -182zM1190 0h-47c-7 83 -23 124 -51 124c-12 0 -25 -7 -41 -20c-86 -71 -177 -133 -332 -133
c-365 0 -608 232 -608 639c0 398 254 664 610 664c147 0 233 -64 315 -133c16 -13 29 -20 40 -20c29 0 45 41 52 124h48c-7 -92 -9 -213 -9 -430h-47c-28 150 -51 195 -102 262c-78 103 -189 156 -305 156c-242 0 -398 -232 -398 -615c0 -395 183 -606 412 -606
c117 0 236 51 313 156c54 72 74 137 95 283h47c0 -228 2 -355 8 -451z" />
    <glyph glyph-name="ccaron" unicode="&#x10d;" horiz-adv-x="1317" 
d="M1069 1733l10 -29c-168 -62 -303 -166 -362 -270h-37c-60 104 -195 208 -363 270l10 29c156 -35 322 -93 412 -144c74 51 207 109 330 144zM1190 0h-47c-7 83 -23 124 -51 124c-12 0 -25 -7 -41 -20c-86 -71 -177 -133 -332 -133c-365 0 -608 232 -608 639
c0 398 254 664 610 664c147 0 233 -64 315 -133c16 -13 29 -20 40 -20c29 0 45 41 52 124h48c-7 -92 -9 -213 -9 -430h-47c-28 150 -51 195 -102 262c-78 103 -189 156 -305 156c-242 0 -398 -232 -398 -615c0 -395 183 -606 412 -606c117 0 236 51 313 156
c54 72 74 137 95 283h47c0 -228 2 -355 8 -451z" />
    <glyph glyph-name="ccedilla" unicode="&#xe7;" horiz-adv-x="1317" 
d="M1135 451h47c0 -228 2 -355 8 -451h-47c-7 83 -23 124 -51 124c-12 0 -25 -7 -41 -20c-83 -68 -170 -128 -314 -133l-41 -118c35 8 76 14 121 14c76 0 125 -35 125 -96c0 -115 -133 -156 -231 -156c-76 0 -133 10 -170 23l8 36c14 -2 45 -6 78 -6c80 0 184 19 184 92
c0 39 -31 58 -86 58c-22 0 -69 -4 -100 -15l56 169c-344 15 -570 245 -570 638c0 398 254 664 610 664c147 0 233 -64 315 -133c16 -13 29 -20 40 -20c29 0 45 41 52 124h48c-7 -92 -9 -213 -9 -430h-47c-28 150 -51 195 -102 262c-78 103 -189 156 -305 156
c-242 0 -398 -232 -398 -615c0 -395 183 -606 412 -606c117 0 236 51 313 156c54 72 74 137 95 283z" />
    <glyph glyph-name="ccircumflex" unicode="&#x109;" horiz-adv-x="1317" 
d="M684 1749h37c59 -104 194 -209 362 -270l-10 -29c-156 35 -322 92 -412 143c-74 -51 -207 -108 -330 -143l-10 29c168 61 303 166 363 270zM1190 0h-47c-7 83 -23 124 -51 124c-12 0 -25 -7 -41 -20c-86 -71 -177 -133 -332 -133c-365 0 -608 232 -608 639
c0 398 254 664 610 664c147 0 233 -64 315 -133c16 -13 29 -20 40 -20c29 0 45 41 52 124h48c-7 -92 -9 -213 -9 -430h-47c-28 150 -51 195 -102 262c-78 103 -189 156 -305 156c-242 0 -398 -232 -398 -615c0 -395 183 -606 412 -606c117 0 236 51 313 156
c54 72 74 137 95 283h47c0 -228 2 -355 8 -451z" />
    <glyph glyph-name="cdotaccent" unicode="&#x10b;" horiz-adv-x="1317" 
d="M700 1712c71 0 131 -59 131 -131s-60 -131 -131 -131c-72 0 -131 59 -131 131s59 131 131 131zM1190 0h-47c-7 83 -23 124 -51 124c-12 0 -25 -7 -41 -20c-86 -71 -177 -133 -332 -133c-365 0 -608 232 -608 639c0 398 254 664 610 664c147 0 233 -64 315 -133
c16 -13 29 -20 40 -20c29 0 45 41 52 124h48c-7 -92 -9 -213 -9 -430h-47c-28 150 -51 195 -102 262c-78 103 -189 156 -305 156c-242 0 -398 -232 -398 -615c0 -395 183 -606 412 -606c117 0 236 51 313 156c54 72 74 137 95 283h47c0 -228 2 -355 8 -451z" />
    <glyph glyph-name="d" unicode="d" horiz-adv-x="1399" 
d="M86 1204v41c47 -3 124 -7 200 -7c17 0 33 1 50 1c94 2 231 6 309 6c430 0 641 -213 641 -606c0 -385 -237 -639 -659 -639c-62 0 -199 6 -287 6c-96 0 -197 -2 -254 -6v41c139 6 166 27 166 176v811c0 152 -27 170 -166 176zM442 1032v-819c0 -143 27 -176 154 -176
c381 0 485 209 485 594c0 387 -123 577 -487 577c-125 0 -152 -34 -152 -176z" />
    <glyph glyph-name="eth" unicode="&#xf0;" horiz-adv-x="1401" 
d="M88 1204v41c47 -3 124 -7 200 -7c17 0 33 1 50 1c94 2 231 6 309 6c430 0 641 -213 641 -606c0 -385 -237 -639 -659 -639c-62 0 -199 6 -287 6c-96 0 -197 -2 -254 -6v41c139 6 166 27 166 176v389h-166v41h166v381c0 152 -27 170 -166 176zM444 606v-393
c0 -143 27 -176 154 -176c381 0 485 209 485 594c0 387 -123 577 -487 577c-125 0 -152 -34 -152 -176v-385h283v-41h-283z" />
    <glyph glyph-name="dcaron" unicode="&#x10f;" horiz-adv-x="1399" 
d="M1014 1733l10 -29c-168 -62 -303 -166 -362 -270h-37c-60 104 -195 208 -363 270l10 29c156 -35 322 -93 412 -144c74 51 207 109 330 144zM86 1204v41c47 -3 124 -7 200 -7c17 0 33 1 50 1c94 2 231 6 309 6c430 0 641 -213 641 -606c0 -385 -237 -639 -659 -639
c-62 0 -199 6 -287 6c-96 0 -197 -2 -254 -6v41c139 6 166 27 166 176v811c0 152 -27 170 -166 176zM442 1032v-819c0 -143 27 -176 154 -176c381 0 485 209 485 594c0 387 -123 577 -487 577c-125 0 -152 -34 -152 -176z" />
    <glyph glyph-name="dcroat" unicode="&#x111;" horiz-adv-x="1401" 
d="M88 1204v41c47 -3 124 -7 200 -7c17 0 33 1 50 1c94 2 231 6 309 6c430 0 641 -213 641 -606c0 -385 -237 -639 -659 -639c-62 0 -199 6 -287 6c-96 0 -197 -2 -254 -6v41c139 6 166 27 166 176v389h-166v41h166v381c0 152 -27 170 -166 176zM444 606v-393
c0 -143 27 -176 154 -176c381 0 485 209 485 594c0 387 -123 577 -487 577c-125 0 -152 -34 -152 -176v-385h283v-41h-283z" />
    <glyph glyph-name="e" unicode="e" horiz-adv-x="1219" 
d="M1053 389h47c-4 -37 -6 -90 -6 -147c0 -47 4 -146 14 -242c-133 6 -317 6 -449 6c-118 0 -378 0 -573 -6v41c139 6 166 27 166 176v811c0 150 -27 170 -166 176v41c195 -6 455 -6 573 -6c119 0 287 0 408 6c-10 -88 -14 -178 -14 -221c0 -49 2 -96 6 -127h-47
c-21 225 -86 301 -254 301h-150c-139 0 -166 -20 -166 -170v-381h170c142 0 158 135 170 209h47c-6 -69 -7 -115 -7 -152c0 -29 1 -53 1 -77c0 -56 2 -105 13 -230h-48c-12 101 -34 209 -176 209h-170v-389c0 -149 27 -170 166 -170h150c200 0 272 86 295 342z" />
    <glyph glyph-name="eacute" unicode="&#xe9;" horiz-adv-x="1219" 
d="M483 1450l-15 27c189 143 258 233 344 288c23 14 44 20 62 20c28 0 50 -13 63 -34c8 -12 12 -25 12 -39c0 -26 -17 -55 -55 -80c-88 -53 -200 -76 -411 -182zM1053 389h47c-4 -37 -6 -90 -6 -147c0 -47 4 -146 14 -242c-133 6 -317 6 -449 6c-118 0 -378 0 -573 -6v41
c139 6 166 27 166 176v811c0 150 -27 170 -166 176v41c195 -6 455 -6 573 -6c119 0 287 0 408 6c-10 -88 -14 -178 -14 -221c0 -49 2 -96 6 -127h-47c-21 225 -86 301 -254 301h-150c-139 0 -166 -20 -166 -170v-381h170c142 0 158 135 170 209h47c-6 -69 -7 -115 -7 -152
c0 -29 1 -53 1 -77c0 -56 2 -105 13 -230h-48c-12 101 -34 209 -176 209h-170v-389c0 -149 27 -170 166 -170h150c200 0 272 86 295 342z" />
    <glyph glyph-name="ebreve" unicode="&#x115;" horiz-adv-x="1219" 
d="M972 1696l25 -23c-62 -106 -189 -237 -387 -237c-199 0 -326 131 -387 237l26 21c60 -62 174 -131 361 -131c186 0 303 71 362 133zM1053 389h47c-4 -37 -6 -90 -6 -147c0 -47 4 -146 14 -242c-133 6 -317 6 -449 6c-118 0 -378 0 -573 -6v41c139 6 166 27 166 176v811
c0 150 -27 170 -166 176v41c195 -6 455 -6 573 -6c119 0 287 0 408 6c-10 -88 -14 -178 -14 -221c0 -49 2 -96 6 -127h-47c-21 225 -86 301 -254 301h-150c-139 0 -166 -20 -166 -170v-381h170c142 0 158 135 170 209h47c-6 -69 -7 -115 -7 -152c0 -29 1 -53 1 -77
c0 -56 2 -105 13 -230h-48c-12 101 -34 209 -176 209h-170v-389c0 -149 27 -170 166 -170h150c200 0 272 86 295 342z" />
    <glyph glyph-name="ecaron" unicode="&#x11b;" horiz-adv-x="1219" 
d="M629 1434h-37c-60 104 -195 208 -363 270l10 29c156 -35 322 -93 412 -144c74 51 207 109 330 144l10 -29c-168 -62 -303 -166 -362 -270zM1053 389h47c-4 -37 -6 -90 -6 -147c0 -47 4 -146 14 -242c-133 6 -317 6 -449 6c-118 0 -378 0 -573 -6v41c139 6 166 27 166 176
v811c0 150 -27 170 -166 176v41c195 -6 455 -6 573 -6c119 0 287 0 408 6c-10 -88 -14 -178 -14 -221c0 -49 2 -96 6 -127h-47c-21 225 -86 301 -254 301h-150c-139 0 -166 -20 -166 -170v-381h170c142 0 158 135 170 209h47c-6 -69 -7 -115 -7 -152c0 -29 1 -53 1 -77
c0 -56 2 -105 13 -230h-48c-12 101 -34 209 -176 209h-170v-389c0 -149 27 -170 166 -170h150c200 0 272 86 295 342z" />
    <glyph glyph-name="ecircumflex" unicode="&#xea;" horiz-adv-x="1219" 
d="M995 1479l-10 -29c-156 35 -322 92 -412 143c-74 -51 -207 -108 -330 -143l-10 29c168 61 303 166 363 270h37c59 -104 194 -209 362 -270zM1053 389h47c-4 -37 -6 -90 -6 -147c0 -47 4 -146 14 -242c-133 6 -317 6 -449 6c-118 0 -378 0 -573 -6v41
c139 6 166 27 166 176v811c0 150 -27 170 -166 176v41c195 -6 455 -6 573 -6c119 0 287 0 408 6c-10 -88 -14 -178 -14 -221c0 -49 2 -96 6 -127h-47c-21 225 -86 301 -254 301h-150c-139 0 -166 -20 -166 -170v-381h170c142 0 158 135 170 209h47c-6 -69 -7 -115 -7 -152
c0 -29 1 -53 1 -77c0 -56 2 -105 13 -230h-48c-12 101 -34 209 -176 209h-170v-389c0 -149 27 -170 166 -170h150c200 0 272 86 295 342z" />
    <glyph glyph-name="edieresis" unicode="&#xeb;" horiz-adv-x="1219" 
d="M395 1462c-66 0 -119 54 -119 119c0 64 53 119 119 119c63 0 119 -55 119 -119c0 -65 -56 -119 -119 -119zM829 1462c-65 0 -119 54 -119 119c0 64 54 119 119 119c64 0 119 -55 119 -119c0 -65 -55 -119 -119 -119zM1053 389h47c-4 -37 -6 -90 -6 -147
c0 -47 4 -146 14 -242c-133 6 -317 6 -449 6c-118 0 -378 0 -573 -6v41c139 6 166 27 166 176v811c0 150 -27 170 -166 176v41c195 -6 455 -6 573 -6c119 0 287 0 408 6c-10 -88 -14 -178 -14 -221c0 -49 2 -96 6 -127h-47c-21 225 -86 301 -254 301h-150
c-139 0 -166 -20 -166 -170v-381h170c142 0 158 135 170 209h47c-6 -69 -7 -115 -7 -152c0 -29 1 -53 1 -77c0 -56 2 -105 13 -230h-48c-12 101 -34 209 -176 209h-170v-389c0 -149 27 -170 166 -170h150c200 0 272 86 295 342z" />
    <glyph glyph-name="edotaccent" unicode="&#x117;" horiz-adv-x="1219" 
d="M612 1450c-72 0 -131 59 -131 131s59 131 131 131c71 0 131 -59 131 -131s-60 -131 -131 -131zM1053 389h47c-4 -37 -6 -90 -6 -147c0 -47 4 -146 14 -242c-133 6 -317 6 -449 6c-118 0 -378 0 -573 -6v41c139 6 166 27 166 176v811c0 150 -27 170 -166 176v41
c195 -6 455 -6 573 -6c119 0 287 0 408 6c-10 -88 -14 -178 -14 -221c0 -49 2 -96 6 -127h-47c-21 225 -86 301 -254 301h-150c-139 0 -166 -20 -166 -170v-381h170c142 0 158 135 170 209h47c-6 -69 -7 -115 -7 -152c0 -29 1 -53 1 -77c0 -56 2 -105 13 -230h-48
c-12 101 -34 209 -176 209h-170v-389c0 -149 27 -170 166 -170h150c200 0 272 86 295 342z" />
    <glyph glyph-name="egrave" unicode="&#xe8;" horiz-adv-x="1219" 
d="M733 1477l-14 -27c-211 106 -324 129 -412 182c-38 25 -54 54 -54 81c0 13 4 26 11 38c14 21 36 34 63 34c19 0 40 -6 62 -20c86 -55 156 -145 344 -288zM1053 389h47c-4 -37 -6 -90 -6 -147c0 -47 4 -146 14 -242c-133 6 -317 6 -449 6c-118 0 -378 0 -573 -6v41
c139 6 166 27 166 176v811c0 150 -27 170 -166 176v41c195 -6 455 -6 573 -6c119 0 287 0 408 6c-10 -88 -14 -178 -14 -221c0 -49 2 -96 6 -127h-47c-21 225 -86 301 -254 301h-150c-139 0 -166 -20 -166 -170v-381h170c142 0 158 135 170 209h47c-6 -69 -7 -115 -7 -152
c0 -29 1 -53 1 -77c0 -56 2 -105 13 -230h-48c-12 101 -34 209 -176 209h-170v-389c0 -149 27 -170 166 -170h150c200 0 272 86 295 342z" />
    <glyph glyph-name="emacron" unicode="&#x113;" horiz-adv-x="1219" 
d="M968 1530h-721v51h721v-51zM1053 389h47c-4 -37 -6 -90 -6 -147c0 -47 4 -146 14 -242c-133 6 -317 6 -449 6c-118 0 -378 0 -573 -6v41c139 6 166 27 166 176v811c0 150 -27 170 -166 176v41c195 -6 455 -6 573 -6c119 0 287 0 408 6c-10 -88 -14 -178 -14 -221
c0 -49 2 -96 6 -127h-47c-21 225 -86 301 -254 301h-150c-139 0 -166 -20 -166 -170v-381h170c142 0 158 135 170 209h47c-6 -69 -7 -115 -7 -152c0 -29 1 -53 1 -77c0 -56 2 -105 13 -230h-48c-12 101 -34 209 -176 209h-170v-389c0 -149 27 -170 166 -170h150
c200 0 272 86 295 342z" />
    <glyph glyph-name="eogonek" unicode="&#x119;" horiz-adv-x="1219" 
d="M1110 -219l30 -27c-63 -96 -141 -139 -231 -139c-98 0 -162 53 -162 133c0 105 100 196 274 255c-119 3 -257 3 -362 3c-118 0 -378 0 -573 -6v41c139 6 166 27 166 176v811c0 150 -27 170 -166 176v41c195 -6 455 -6 573 -6c119 0 287 0 408 6
c-10 -88 -14 -178 -14 -221c0 -49 2 -96 6 -127h-47c-21 225 -86 301 -254 301h-150c-139 0 -166 -20 -166 -170v-381h170c142 0 158 135 170 209h47c-6 -69 -7 -115 -7 -152c0 -29 1 -53 1 -77c0 -56 2 -105 13 -230h-48c-12 101 -34 209 -176 209h-170v-389
c0 -149 27 -170 166 -170h150c200 0 272 86 295 342h47c-4 -37 -6 -90 -6 -147c0 -46 4 -142 13 -236c1 -2 1 -4 1 -6l-18 1c-148 -45 -193 -131 -193 -198c0 -53 32 -90 88 -90c51 0 98 31 125 68z" />
    <glyph glyph-name="f" unicode="f" horiz-adv-x="1128" 
d="M86 1204v41c195 -6 455 -6 573 -6c119 0 287 0 408 6c-10 -88 -14 -178 -14 -221c0 -49 2 -96 6 -127h-47c-21 225 -86 301 -254 301h-150c-139 0 -166 -20 -166 -170v-381h170c142 0 158 135 170 209h47c-6 -69 -7 -115 -7 -152c0 -29 1 -53 1 -77c0 -56 2 -105 13 -230
h-48c-12 101 -34 209 -176 209h-170v-389c0 -149 35 -170 207 -176v-41c-71 4 -190 6 -301 6c-106 0 -205 -2 -262 -6v41c139 6 166 27 166 176v811c0 150 -27 170 -166 176z" />
    <glyph glyph-name="g" unicode="g" horiz-adv-x="1354" 
d="M1184 0h-41c-2 31 -10 49 -31 49c-18 0 -68 -24 -90 -33c-53 -18 -156 -45 -268 -45c-412 0 -643 232 -643 627c0 416 254 676 610 676c170 0 252 -64 336 -133c16 -13 30 -20 41 -20c27 0 43 37 51 124h47c-6 -88 -8 -203 -8 -409h-47c-19 90 -45 176 -103 241
c-80 92 -170 160 -321 160c-248 0 -402 -238 -402 -616c0 -426 160 -609 457 -609c64 0 115 6 158 17c49 12 63 34 63 77v177c0 166 -35 190 -207 196v41c74 -4 197 -6 289 -6c90 0 164 2 213 6v-41c-88 -6 -104 -24 -104 -176v-303z" />
    <glyph glyph-name="gacute" unicode="&#x1f5;" horiz-adv-x="1354" 
d="M602 1450l-15 27c189 143 258 233 344 288c23 14 44 20 62 20c28 0 50 -13 63 -34c8 -12 12 -25 12 -39c0 -26 -17 -55 -55 -80c-88 -53 -200 -76 -411 -182zM1184 0h-41c-2 31 -10 49 -31 49c-18 0 -68 -24 -90 -33c-53 -18 -156 -45 -268 -45c-412 0 -643 232 -643 627
c0 416 254 676 610 676c170 0 252 -64 336 -133c16 -13 30 -20 41 -20c27 0 43 37 51 124h47c-6 -88 -8 -203 -8 -409h-47c-19 90 -45 176 -103 241c-80 92 -170 160 -321 160c-248 0 -402 -238 -402 -616c0 -426 160 -609 457 -609c64 0 115 6 158 17c49 12 63 34 63 77
v177c0 166 -35 190 -207 196v41c74 -4 197 -6 289 -6c90 0 164 2 213 6v-41c-88 -6 -104 -24 -104 -176v-303z" />
    <glyph glyph-name="gbreve" unicode="&#x11f;" horiz-adv-x="1354" 
d="M1091 1696l25 -23c-62 -106 -189 -237 -387 -237c-199 0 -326 131 -387 237l26 21c60 -62 174 -131 361 -131c186 0 303 71 362 133zM1184 0h-41c-2 31 -10 49 -31 49c-18 0 -68 -24 -90 -33c-53 -18 -156 -45 -268 -45c-412 0 -643 232 -643 627c0 416 254 676 610 676
c170 0 252 -64 336 -133c16 -13 30 -20 41 -20c27 0 43 37 51 124h47c-6 -88 -8 -203 -8 -409h-47c-19 90 -45 176 -103 241c-80 92 -170 160 -321 160c-248 0 -402 -238 -402 -616c0 -426 160 -609 457 -609c64 0 115 6 158 17c49 12 63 34 63 77v177
c0 166 -35 190 -207 196v41c74 -4 197 -6 289 -6c90 0 164 2 213 6v-41c-88 -6 -104 -24 -104 -176v-303z" />
    <glyph glyph-name="gcircumflex" unicode="&#x11d;" horiz-adv-x="1354" 
d="M715 1749h37c59 -104 194 -209 362 -270l-10 -29c-156 35 -322 92 -412 143c-74 -51 -207 -108 -330 -143l-10 29c168 61 303 166 363 270zM1184 0h-41c-2 31 -10 49 -31 49c-18 0 -68 -24 -90 -33c-53 -18 -156 -45 -268 -45c-412 0 -643 232 -643 627
c0 416 254 676 610 676c170 0 252 -64 336 -133c16 -13 30 -20 41 -20c27 0 43 37 51 124h47c-6 -88 -8 -203 -8 -409h-47c-19 90 -45 176 -103 241c-80 92 -170 160 -321 160c-248 0 -402 -238 -402 -616c0 -426 160 -609 457 -609c64 0 115 6 158 17c49 12 63 34 63 77
v177c0 166 -35 190 -207 196v41c74 -4 197 -6 289 -6c90 0 164 2 213 6v-41c-88 -6 -104 -24 -104 -176v-303z" />
    <glyph glyph-name="gcommaaccent" unicode="&#x123;" horiz-adv-x="1354" 
d="M1184 0h-41c-2 31 -10 49 -31 49c-18 0 -68 -24 -90 -33c-53 -18 -156 -45 -268 -45c-412 0 -643 232 -643 627c0 416 254 676 610 676c170 0 252 -64 336 -133c16 -13 30 -20 41 -20c27 0 43 37 51 124h47c-6 -88 -8 -203 -8 -409h-47c-19 90 -45 176 -103 241
c-80 92 -170 160 -321 160c-248 0 -402 -238 -402 -616c0 -426 160 -609 457 -609c64 0 115 6 158 17c49 12 63 34 63 77v177c0 166 -35 190 -207 196v41c74 -4 197 -6 289 -6c90 0 164 2 213 6v-41c-88 -6 -104 -24 -104 -176v-303zM717 -494l-14 37c63 19 129 64 127 129
c-21 -18 -52 -32 -86 -32c-60 0 -107 38 -107 110c0 62 51 109 115 109c80 0 133 -64 133 -144c0 -98 -37 -161 -168 -209z" />
    <glyph glyph-name="gdotaccent" unicode="&#x121;" horiz-adv-x="1354" 
d="M760 1712c71 0 131 -59 131 -131s-60 -131 -131 -131c-72 0 -131 59 -131 131s59 131 131 131zM1184 0h-41c-2 31 -10 49 -31 49c-18 0 -68 -24 -90 -33c-53 -18 -156 -45 -268 -45c-412 0 -643 232 -643 627c0 416 254 676 610 676c170 0 252 -64 336 -133
c16 -13 30 -20 41 -20c27 0 43 37 51 124h47c-6 -88 -8 -203 -8 -409h-47c-19 90 -45 176 -103 241c-80 92 -170 160 -321 160c-248 0 -402 -238 -402 -616c0 -426 160 -609 457 -609c64 0 115 6 158 17c49 12 63 34 63 77v177c0 166 -35 190 -207 196v41
c74 -4 197 -6 289 -6c90 0 164 2 213 6v-41c-88 -6 -104 -24 -104 -176v-303z" />
    <glyph glyph-name="h" unicode="h" horiz-adv-x="1509" 
d="M1423 1245v-41c-139 -6 -166 -26 -166 -176v-811c0 -149 27 -170 166 -176v-41c-57 4 -155 6 -262 6c-94 0 -196 -2 -260 -6v41c139 6 166 27 166 176v408h-625v-408c0 -149 27 -170 166 -176v-41c-63 4 -166 6 -260 6c-106 0 -205 -2 -262 -6v41c139 6 166 27 166 176
v811c0 150 -27 170 -166 176v41c57 -4 156 -6 262 -6c94 0 197 2 260 6v-41c-139 -6 -166 -26 -166 -176v-362h625v362c0 150 -27 170 -166 176v41c64 -4 166 -6 260 -6c107 0 205 2 262 6z" />
    <glyph glyph-name="hbar" unicode="&#x127;" horiz-adv-x="1509" 
d="M1423 1245v-41c-139 -6 -166 -26 -166 -176v-80h166v-41h-166v-690c0 -149 27 -170 166 -176v-41c-57 4 -155 6 -262 6c-94 0 -196 -2 -260 -6v41c139 6 166 27 166 176v408h-625v-408c0 -149 27 -170 166 -176v-41c-63 4 -166 6 -260 6c-106 0 -205 -2 -262 -6v41
c139 6 166 27 166 176v690h-166v41h166v80c0 150 -27 170 -166 176v41c57 -4 156 -6 262 -6c94 0 197 2 260 6v-41c-139 -6 -166 -26 -166 -176v-80h625v80c0 150 -27 170 -166 176v41c64 -4 166 -6 260 -6c107 0 205 2 262 6zM1067 907h-625v-241h625v241z" />
    <glyph glyph-name="hcircumflex" unicode="&#x125;" horiz-adv-x="1509" 
d="M746 1749h37c59 -104 194 -209 362 -270l-10 -29c-156 35 -322 92 -412 143c-74 -51 -207 -108 -330 -143l-10 29c168 61 303 166 363 270zM1423 1245v-41c-139 -6 -166 -26 -166 -176v-811c0 -149 27 -170 166 -176v-41c-57 4 -155 6 -262 6c-94 0 -196 -2 -260 -6v41
c139 6 166 27 166 176v408h-625v-408c0 -149 27 -170 166 -176v-41c-63 4 -166 6 -260 6c-106 0 -205 -2 -262 -6v41c139 6 166 27 166 176v811c0 150 -27 170 -166 176v41c57 -4 156 -6 262 -6c94 0 197 2 260 6v-41c-139 -6 -166 -26 -166 -176v-362h625v362
c0 150 -27 170 -166 176v41c64 -4 166 -6 260 -6c107 0 205 2 262 6z" />
    <glyph glyph-name="i" unicode="i" 
d="M608 1245v-41c-139 -6 -166 -26 -166 -176v-811c0 -149 27 -170 166 -176v-41c-63 4 -166 6 -260 6c-106 0 -205 -2 -262 -6v41c139 6 166 27 166 176v811c0 150 -27 170 -166 176v41c57 -4 156 -6 262 -6c94 0 197 2 260 6z" />
    <glyph glyph-name="dotlessi" unicode="&#x131;" horiz-adv-x="600" 
d="M399 1077v-887c0 -114 43 -147 156 -147v-43c-47 2 -154 8 -248 8s-201 -6 -248 -8v43c113 0 156 33 156 147v641c0 123 -37 181 -156 181v43c43 -4 86 -6 127 -6c80 0 154 8 213 28z" />
    <glyph glyph-name="iacute" unicode="&#xed;" 
d="M219 1450l-15 27c189 143 258 233 344 288c23 14 44 20 62 20c28 0 50 -13 63 -34c8 -12 12 -25 12 -39c0 -26 -17 -55 -55 -80c-88 -53 -200 -76 -411 -182zM608 1245v-41c-139 -6 -166 -26 -166 -176v-811c0 -149 27 -170 166 -176v-41c-63 4 -166 6 -260 6
c-106 0 -205 -2 -262 -6v41c139 6 166 27 166 176v811c0 150 -27 170 -166 176v41c57 -4 156 -6 262 -6c94 0 197 2 260 6z" />
    <glyph glyph-name="ibreve" unicode="&#x12d;" 
d="M708 1696l25 -23c-62 -106 -189 -237 -387 -237c-199 0 -326 131 -387 237l26 21c60 -62 174 -131 361 -131c186 0 303 71 362 133zM608 1245v-41c-139 -6 -166 -26 -166 -176v-811c0 -149 27 -170 166 -176v-41c-63 4 -166 6 -260 6c-106 0 -205 -2 -262 -6v41
c139 6 166 27 166 176v811c0 150 -27 170 -166 176v41c57 -4 156 -6 262 -6c94 0 197 2 260 6z" />
    <glyph glyph-name="icircumflex" unicode="&#xee;" 
d="M332 1749h37c59 -104 194 -209 362 -270l-10 -29c-156 35 -322 92 -412 143c-74 -51 -207 -108 -330 -143l-10 29c168 61 303 166 363 270zM608 1245v-41c-139 -6 -166 -26 -166 -176v-811c0 -149 27 -170 166 -176v-41c-63 4 -166 6 -260 6c-106 0 -205 -2 -262 -6v41
c139 6 166 27 166 176v811c0 150 -27 170 -166 176v41c57 -4 156 -6 262 -6c94 0 197 2 260 6z" />
    <glyph glyph-name="idieresis" unicode="&#xef;" 
d="M131 1700c63 0 119 -55 119 -119c0 -65 -56 -119 -119 -119c-66 0 -119 54 -119 119c0 64 53 119 119 119zM565 1700c64 0 119 -55 119 -119c0 -65 -55 -119 -119 -119c-65 0 -119 54 -119 119c0 64 54 119 119 119zM608 1245v-41c-139 -6 -166 -26 -166 -176v-811
c0 -149 27 -170 166 -176v-41c-63 4 -166 6 -260 6c-106 0 -205 -2 -262 -6v41c139 6 166 27 166 176v811c0 150 -27 170 -166 176v41c57 -4 156 -6 262 -6c94 0 197 2 260 6z" />
    <glyph glyph-name="i.loclTRK" 
d="M348 1712c71 0 131 -59 131 -131s-60 -131 -131 -131c-72 0 -131 59 -131 131s59 131 131 131zM608 1245v-41c-139 -6 -166 -26 -166 -176v-811c0 -149 27 -170 166 -176v-41c-63 4 -166 6 -260 6c-106 0 -205 -2 -262 -6v41c139 6 166 27 166 176v811
c0 150 -27 170 -166 176v41c57 -4 156 -6 262 -6c94 0 197 2 260 6z" />
    <glyph glyph-name="igrave" unicode="&#xec;" 
d="M469 1477l-14 -27c-211 106 -324 129 -412 182c-38 25 -54 54 -54 81c0 13 4 26 11 38c14 21 36 34 63 34c19 0 40 -6 62 -20c86 -55 156 -145 344 -288zM608 1245v-41c-139 -6 -166 -26 -166 -176v-811c0 -149 27 -170 166 -176v-41c-63 4 -166 6 -260 6
c-106 0 -205 -2 -262 -6v41c139 6 166 27 166 176v811c0 150 -27 170 -166 176v41c57 -4 156 -6 262 -6c94 0 197 2 260 6z" />
    <glyph glyph-name="ij" unicode="&#x133;" horiz-adv-x="1309" 
d="M608 1245v-41c-139 -6 -166 -26 -166 -176v-811c0 -149 27 -170 166 -176v-41c-63 4 -166 6 -260 6c-106 0 -205 -2 -262 -6v41c139 6 166 27 166 176v811c0 150 -27 170 -166 176v41c57 -4 156 -6 262 -6c94 0 197 2 260 6zM1241 1245v-41c-139 -6 -166 -26 -166 -176
v-545c0 -170 -4 -397 -35 -534c-43 -189 -174 -330 -391 -330c-47 0 -98 8 -137 33c-33 20 -56 51 -56 98c0 55 43 98 99 98c53 0 100 -43 100 -98c0 -35 -22 -72 -53 -90c12 -2 35 -4 55 -4c98 0 160 65 193 172c26 86 35 186 35 469v731c0 150 -27 170 -166 176v41
c57 -4 155 -6 262 -6c94 0 196 2 260 6z" />
    <glyph glyph-name="imacron" unicode="&#x12b;" 
d="M704 1530h-721v51h721v-51zM608 1245v-41c-139 -6 -166 -26 -166 -176v-811c0 -149 27 -170 166 -176v-41c-63 4 -166 6 -260 6c-106 0 -205 -2 -262 -6v41c139 6 166 27 166 176v811c0 150 -27 170 -166 176v41c57 -4 156 -6 262 -6c94 0 197 2 260 6z" />
    <glyph glyph-name="iogonek" unicode="&#x12f;" 
d="M610 -219l30 -27c-63 -96 -141 -139 -231 -139c-98 0 -162 53 -162 133c0 106 100 197 276 256c-54 1 -116 2 -175 2c-106 0 -205 -2 -262 -6v41c139 6 166 27 166 176v811c0 150 -27 170 -166 176v41c57 -4 156 -6 262 -6c94 0 197 2 260 6v-41
c-139 -6 -166 -26 -166 -176v-811c0 -149 27 -170 166 -176v-41l-18 1c-148 -45 -193 -131 -193 -198c0 -53 32 -90 88 -90c51 0 98 31 125 68z" />
    <glyph glyph-name="itilde" unicode="&#x129;" 
d="M-21 1489l-35 10c31 135 113 217 227 217c152 0 261 -157 398 -157c63 0 114 30 143 118l35 -10c-31 -135 -113 -217 -227 -217c-152 0 -260 158 -398 158c-65 0 -114 -31 -143 -119zM608 1245v-41c-139 -6 -166 -26 -166 -176v-811c0 -149 27 -170 166 -176v-41
c-63 4 -166 6 -260 6c-106 0 -205 -2 -262 -6v41c139 6 166 27 166 176v811c0 150 -27 170 -166 176v41c57 -4 156 -6 262 -6c94 0 197 2 260 6z" />
    <glyph glyph-name="j" unicode="j" horiz-adv-x="659" 
d="M592 1245v-41c-139 -6 -166 -26 -166 -176v-545c0 -170 -4 -397 -35 -534c-43 -189 -174 -330 -391 -330c-47 0 -98 8 -137 33c-33 20 -56 51 -56 98c0 55 43 98 99 98c53 0 100 -43 100 -98c0 -35 -22 -72 -53 -90c12 -2 35 -4 55 -4c98 0 160 65 193 172
c26 86 35 186 35 469v731c0 150 -27 170 -166 176v41c57 -4 155 -6 262 -6c94 0 196 2 260 6z" />
    <glyph glyph-name="dotlessj" unicode="&#x237;" horiz-adv-x="547" 
d="M385 1077v-841c0 -189 -16 -379 -109 -496c-65 -84 -161 -125 -247 -125c-45 0 -86 10 -115 31c-29 22 -45 53 -45 94c0 63 43 106 106 106c62 0 107 -30 107 -100c0 -45 -27 -80 -78 -98c12 -2 25 -2 35 -2c45 0 84 14 115 47c28 35 47 90 47 174v964
c0 123 -37 181 -156 181v43c43 -4 86 -6 127 -6c80 0 154 8 213 28z" />
    <glyph glyph-name="jcircumflex" unicode="&#x135;" horiz-adv-x="659" 
d="M316 1749h37c59 -104 194 -209 362 -270l-10 -29c-156 35 -322 92 -412 143c-74 -51 -207 -108 -330 -143l-10 29c168 61 303 166 363 270zM592 1245v-41c-139 -6 -166 -26 -166 -176v-545c0 -170 -4 -397 -35 -534c-43 -189 -174 -330 -391 -330c-47 0 -98 8 -137 33
c-33 20 -56 51 -56 98c0 55 43 98 99 98c53 0 100 -43 100 -98c0 -35 -22 -72 -53 -90c12 -2 35 -4 55 -4c98 0 160 65 193 172c26 86 35 186 35 469v731c0 150 -27 170 -166 176v41c57 -4 155 -6 262 -6c94 0 196 2 260 6z" />
    <glyph glyph-name="k" unicode="k" horiz-adv-x="1339" 
d="M707 736l452 -570c47 -60 96 -100 160 -125v-41c-66 4 -162 6 -229 6c-56 0 -140 0 -261 -6v41c91 3 123 15 123 40c0 13 -10 31 -26 52l-273 379c-54 74 -100 107 -211 111v-406c0 -149 27 -170 166 -176v-41c-63 4 -166 6 -260 6c-106 0 -205 -2 -262 -6v41
c139 6 166 27 166 176v811c0 150 -27 170 -166 176v41c57 -4 156 -6 262 -6c94 0 197 2 260 6v-41c-139 -6 -166 -26 -166 -176v-371c89 6 165 32 275 138l244 249c35 33 53 65 53 92c0 40 -39 68 -121 70v39c74 -4 170 -6 242 -6c55 0 106 2 145 6v-39
c-98 -18 -145 -47 -250 -147z" />
    <glyph glyph-name="kcommaaccent" unicode="&#x137;" horiz-adv-x="1339" 
d="M707 736l452 -570c47 -60 96 -100 160 -125v-41c-66 4 -162 6 -229 6c-56 0 -140 0 -261 -6v41c91 3 123 15 123 40c0 13 -10 31 -26 52l-273 379c-54 74 -100 107 -211 111v-406c0 -149 27 -170 166 -176v-41c-63 4 -166 6 -260 6c-106 0 -205 -2 -262 -6v41
c139 6 166 27 166 176v811c0 150 -27 170 -166 176v41c57 -4 156 -6 262 -6c94 0 197 2 260 6v-41c-139 -6 -166 -26 -166 -176v-371c89 6 165 32 275 138l244 249c35 33 53 65 53 92c0 40 -39 68 -121 70v39c74 -4 170 -6 242 -6c55 0 106 2 145 6v-39
c-98 -18 -145 -47 -250 -147zM641 -494l-14 37c63 19 129 64 127 129c-21 -18 -52 -32 -86 -32c-60 0 -107 38 -107 110c0 62 51 109 115 109c80 0 133 -64 133 -144c0 -98 -37 -161 -168 -209z" />
    <glyph glyph-name="kgreenlandic" unicode="&#x138;" horiz-adv-x="1153" 
d="M588 590l397 -434c49 -54 98 -105 145 -113v-43c-30 2 -104 8 -165 8c-86 0 -185 -6 -228 -8v43c40 0 65 17 65 40c0 9 -4 20 -14 30l-274 303c-42 52 -76 80 -115 84v-310c0 -114 37 -147 136 -147v-43c-43 2 -142 8 -228 8c-94 0 -201 -6 -248 -8v43
c113 0 156 33 156 147v641c0 123 -37 181 -156 181v43c43 -4 86 -6 127 -6c80 0 154 8 213 28v-535c75 13 113 42 160 91l244 268c20 22 29 42 29 58c0 34 -38 55 -109 55v41c72 -4 151 -6 211 -6c59 0 102 2 137 6v-41c-67 -6 -115 -19 -184 -96z" />
    <glyph glyph-name="l" unicode="l" horiz-adv-x="1174" 
d="M608 1245v-41c-139 -6 -166 -26 -166 -176v-811c0 -149 27 -170 166 -170h129c181 0 293 92 316 363h47c-4 -43 -6 -103 -6 -168c0 -47 4 -146 14 -242c-133 6 -317 6 -449 6c-118 0 -378 0 -573 -6v41c139 6 166 27 166 176v811c0 150 -27 170 -166 176v41
c57 -4 156 -6 262 -6c94 0 197 2 260 6z" />
    <glyph glyph-name="lacute" unicode="&#x13a;" horiz-adv-x="1174" 
d="M219 1450l-15 27c189 143 258 233 344 288c23 14 44 20 62 20c28 0 50 -13 63 -34c8 -12 12 -25 12 -39c0 -26 -17 -55 -55 -80c-88 -53 -200 -76 -411 -182zM608 1245v-41c-139 -6 -166 -26 -166 -176v-811c0 -149 27 -170 166 -170h129c181 0 293 92 316 363h47
c-4 -43 -6 -103 -6 -168c0 -47 4 -146 14 -242c-133 6 -317 6 -449 6c-118 0 -378 0 -573 -6v41c139 6 166 27 166 176v811c0 150 -27 170 -166 176v41c57 -4 156 -6 262 -6c94 0 197 2 260 6z" />
    <glyph glyph-name="lcaron" unicode="&#x13e;" horiz-adv-x="1174" 
d="M678 1202v43c29 -3 55 -4 79 -4c52 0 92 6 127 16c7 -14 11 -49 11 -73c0 -84 -72 -203 -168 -389l-29 8c33 196 41 278 41 317c0 54 -10 82 -61 82zM608 1245v-41c-139 -6 -166 -26 -166 -176v-811c0 -149 27 -170 166 -170h129c181 0 293 92 316 363h47
c-4 -43 -6 -103 -6 -168c0 -47 4 -146 14 -242c-133 6 -317 6 -449 6c-118 0 -378 0 -573 -6v41c139 6 166 27 166 176v811c0 150 -27 170 -166 176v41c57 -4 156 -6 262 -6c94 0 197 2 260 6z" />
    <glyph glyph-name="lcommaaccent" unicode="&#x13c;" horiz-adv-x="1174" 
d="M608 1245v-41c-139 -6 -166 -26 -166 -176v-811c0 -149 27 -170 166 -170h129c181 0 293 92 316 363h47c-4 -43 -6 -103 -6 -168c0 -47 4 -146 14 -242c-133 6 -317 6 -449 6c-118 0 -378 0 -573 -6v41c139 6 166 27 166 176v811c0 150 -27 170 -166 176v41
c57 -4 156 -6 262 -6c94 0 197 2 260 6zM576 -494l-14 37c63 19 129 64 127 129c-21 -18 -52 -32 -86 -32c-60 0 -107 38 -107 110c0 62 51 109 115 109c80 0 133 -64 133 -144c0 -98 -37 -161 -168 -209z" />
    <glyph glyph-name="ldot" unicode="&#x140;" horiz-adv-x="1233" 
d="M608 1245v-41c-139 -6 -166 -26 -166 -176v-811c0 -149 27 -170 166 -170h129c181 0 293 92 316 363h47c-4 -43 -6 -103 -6 -168c0 -47 4 -146 14 -242c-133 6 -317 6 -449 6c-118 0 -378 0 -573 -6v41c139 6 166 27 166 176v811c0 150 -27 170 -166 176v41
c57 -4 156 -6 262 -6c94 0 197 2 260 6zM1036 819c72 0 131 -59 131 -131c0 -71 -59 -131 -131 -131s-131 60 -131 131c0 72 59 131 131 131z" />
    <glyph glyph-name="lslash" unicode="&#x142;" horiz-adv-x="1176" 
d="M1055 410h47c-4 -43 -6 -103 -6 -168c0 -47 4 -146 14 -242c-133 6 -317 6 -449 6c-118 0 -378 0 -573 -6v41c139 6 166 27 166 176v225l-166 -94v47l166 94v539c0 150 -27 170 -166 176v41c57 -4 156 -6 262 -6c94 0 197 2 260 6v-41c-139 -6 -166 -26 -166 -176v-452
l404 229v-47l-404 -229v-312c0 -149 27 -170 166 -170h129c181 0 293 92 316 363z" />
    <glyph glyph-name="m" unicode="m" horiz-adv-x="1743" 
d="M1657 1245v-41c-139 -6 -166 -26 -166 -176v-811c0 -149 27 -170 166 -176v-41c-64 4 -166 6 -260 6c-107 0 -205 -2 -262 -6v41c139 6 165 27 165 176v899l-493 -1126h-33l-475 1124v-876c0 -150 27 -191 186 -197v-41c-49 4 -139 6 -209 6c-69 0 -145 -2 -190 -6v41
c139 6 166 47 166 197v790c0 150 -27 170 -166 176v41c45 -4 121 -6 190 -6c68 0 123 2 175 6l410 -998l439 992h97c94 0 196 2 260 6z" />
    <glyph glyph-name="n" unicode="n" horiz-adv-x="1403" 
d="M1331 1245v-41c-139 -6 -166 -47 -166 -196v-1018h-47l-819 1134v-886c0 -150 27 -191 186 -197v-41c-49 4 -139 6 -209 6c-69 0 -145 -2 -190 -6v41c139 6 166 47 166 197v790c0 150 -27 170 -166 176v41c45 -4 121 -6 190 -6c68 0 138 2 189 6l653 -909v672
c0 149 -26 190 -186 196v41c49 -4 139 -6 209 -6c69 0 145 2 190 6z" />
    <glyph glyph-name="nacute" unicode="&#x144;" horiz-adv-x="1403" 
d="M586 1450l-15 27c189 143 258 233 344 288c23 14 44 20 62 20c28 0 50 -13 63 -34c8 -12 12 -25 12 -39c0 -26 -17 -55 -55 -80c-88 -53 -200 -76 -411 -182zM1331 1245v-41c-139 -6 -166 -47 -166 -196v-1018h-47l-819 1134v-886c0 -150 27 -191 186 -197v-41
c-49 4 -139 6 -209 6c-69 0 -145 -2 -190 -6v41c139 6 166 47 166 197v790c0 150 -27 170 -166 176v41c45 -4 121 -6 190 -6c68 0 138 2 189 6l653 -909v672c0 149 -26 190 -186 196v41c49 -4 139 -6 209 -6c69 0 145 2 190 6z" />
    <glyph glyph-name="ncaron" unicode="&#x148;" horiz-adv-x="1403" 
d="M1084 1733l10 -29c-168 -62 -303 -166 -362 -270h-37c-60 104 -195 208 -363 270l10 29c156 -35 322 -93 412 -144c74 51 207 109 330 144zM1331 1245v-41c-139 -6 -166 -47 -166 -196v-1018h-47l-819 1134v-886c0 -150 27 -191 186 -197v-41c-49 4 -139 6 -209 6
c-69 0 -145 -2 -190 -6v41c139 6 166 47 166 197v790c0 150 -27 170 -166 176v41c45 -4 121 -6 190 -6c68 0 138 2 189 6l653 -909v672c0 149 -26 190 -186 196v41c49 -4 139 -6 209 -6c69 0 145 2 190 6z" />
    <glyph glyph-name="ncommaaccent" unicode="&#x146;" horiz-adv-x="1403" 
d="M1331 1245v-41c-139 -6 -166 -47 -166 -196v-1018h-47l-819 1134v-886c0 -150 27 -191 186 -197v-41c-49 4 -139 6 -209 6c-69 0 -145 -2 -190 -6v41c139 6 166 47 166 197v790c0 150 -27 170 -166 176v41c45 -4 121 -6 190 -6c68 0 138 2 189 6l653 -909v672
c0 149 -26 190 -186 196v41c49 -4 139 -6 209 -6c69 0 145 2 190 6zM666 -494l-14 37c63 19 129 64 127 129c-21 -18 -52 -32 -86 -32c-60 0 -107 38 -107 110c0 62 51 109 115 109c80 0 133 -64 133 -144c0 -98 -37 -161 -168 -209z" />
    <glyph glyph-name="eng" unicode="&#x14b;" horiz-adv-x="1401" 
d="M952 1204v41c49 -4 119 -6 189 -6c69 0 145 2 190 6v-41c-139 -6 -166 -26 -166 -176v-842c0 -471 -129 -571 -291 -571c-96 0 -184 35 -184 127c0 63 43 102 96 102c56 0 103 -43 103 -96c0 -37 -23 -76 -53 -94c12 -2 30 -4 47 -4c145 0 214 130 231 345l-815 1129
v-907c0 -149 27 -170 166 -176v-41c-49 4 -119 6 -189 6c-69 0 -145 -2 -190 -6v41c139 6 166 27 166 176v811c0 150 -27 170 -166 176v41c45 -4 121 -6 190 -6c68 0 138 2 189 6l653 -909v692c0 150 -26 170 -166 176z" />
    <glyph glyph-name="ntilde" unicode="&#xf1;" horiz-adv-x="1403" 
d="M346 1489l-35 10c31 135 113 217 227 217c152 0 261 -157 398 -157c63 0 114 30 143 118l35 -10c-31 -135 -113 -217 -227 -217c-152 0 -260 158 -398 158c-65 0 -114 -31 -143 -119zM1331 1245v-41c-139 -6 -166 -47 -166 -196v-1018h-47l-819 1134v-886
c0 -150 27 -191 186 -197v-41c-49 4 -139 6 -209 6c-69 0 -145 -2 -190 -6v41c139 6 166 47 166 197v790c0 150 -27 170 -166 176v41c45 -4 121 -6 190 -6c68 0 138 2 189 6l653 -909v672c0 149 -26 190 -186 196v41c49 -4 139 -6 209 -6c69 0 145 2 190 6z" />
    <glyph glyph-name="o" unicode="o" horiz-adv-x="1477" 
d="M739 1274c377 0 629 -232 629 -639c0 -397 -262 -664 -631 -664c-377 0 -628 232 -628 639c0 398 262 664 630 664zM731 1237c-254 0 -418 -256 -418 -619c0 -374 193 -610 432 -610c254 0 418 256 418 619c0 374 -192 610 -432 610z" />
    <glyph glyph-name="oacute" unicode="&#xf3;" horiz-adv-x="1477" 
d="M606 1450l-15 27c189 143 258 233 344 288c23 14 44 20 62 20c28 0 50 -13 63 -34c8 -12 12 -25 12 -39c0 -26 -17 -55 -55 -80c-88 -53 -200 -76 -411 -182zM739 1274c377 0 629 -232 629 -639c0 -397 -262 -664 -631 -664c-377 0 -628 232 -628 639
c0 398 262 664 630 664zM731 1237c-254 0 -418 -256 -418 -619c0 -374 193 -610 432 -610c254 0 418 256 418 619c0 374 -192 610 -432 610z" />
    <glyph glyph-name="obreve" unicode="&#x14f;" horiz-adv-x="1477" 
d="M1095 1696l25 -23c-62 -106 -189 -237 -387 -237c-199 0 -326 131 -387 237l26 21c60 -62 174 -131 361 -131c186 0 303 71 362 133zM739 1274c377 0 629 -232 629 -639c0 -397 -262 -664 -631 -664c-377 0 -628 232 -628 639c0 398 262 664 630 664zM731 1237
c-254 0 -418 -256 -418 -619c0 -374 193 -610 432 -610c254 0 418 256 418 619c0 374 -192 610 -432 610z" />
    <glyph glyph-name="ocircumflex" unicode="&#xf4;" horiz-adv-x="1477" 
d="M719 1749h37c59 -104 194 -209 362 -270l-10 -29c-156 35 -322 92 -412 143c-74 -51 -207 -108 -330 -143l-10 29c168 61 303 166 363 270zM739 1274c377 0 629 -232 629 -639c0 -397 -262 -664 -631 -664c-377 0 -628 232 -628 639c0 398 262 664 630 664zM731 1237
c-254 0 -418 -256 -418 -619c0 -374 193 -610 432 -610c254 0 418 256 418 619c0 374 -192 610 -432 610z" />
    <glyph glyph-name="odieresis" unicode="&#xf6;" horiz-adv-x="1477" 
d="M518 1700c63 0 119 -55 119 -119c0 -65 -56 -119 -119 -119c-66 0 -119 54 -119 119c0 64 53 119 119 119zM952 1700c64 0 119 -55 119 -119c0 -65 -55 -119 -119 -119c-65 0 -119 54 -119 119c0 64 54 119 119 119zM739 1274c377 0 629 -232 629 -639
c0 -397 -262 -664 -631 -664c-377 0 -628 232 -628 639c0 398 262 664 630 664zM731 1237c-254 0 -418 -256 -418 -619c0 -374 193 -610 432 -610c254 0 418 256 418 619c0 374 -192 610 -432 610z" />
    <glyph glyph-name="ograve" unicode="&#xf2;" horiz-adv-x="1477" 
d="M856 1477l-14 -27c-211 106 -324 129 -412 182c-38 25 -54 54 -54 81c0 13 4 26 11 38c14 21 36 34 63 34c19 0 40 -6 62 -20c86 -55 156 -145 344 -288zM739 1274c377 0 629 -232 629 -639c0 -397 -262 -664 -631 -664c-377 0 -628 232 -628 639c0 398 262 664 630 664z
M731 1237c-254 0 -418 -256 -418 -619c0 -374 193 -610 432 -610c254 0 418 256 418 619c0 374 -192 610 -432 610z" />
    <glyph glyph-name="ohungarumlaut" unicode="&#x151;" horiz-adv-x="1477" 
d="M408 1427l-19 25c168 168 223 266 301 334c24 21 48 30 69 30c23 0 43 -10 56 -26c12 -14 19 -30 19 -47c0 -25 -13 -52 -43 -78c-80 -66 -189 -102 -383 -238zM791 1427l-19 25c168 168 223 266 301 334c24 21 48 30 69 30c23 0 43 -10 56 -26c12 -14 19 -30 19 -47
c0 -25 -13 -52 -43 -78c-80 -66 -189 -102 -383 -238zM739 1274c377 0 629 -232 629 -639c0 -397 -262 -664 -631 -664c-377 0 -628 232 -628 639c0 398 262 664 630 664zM731 1237c-254 0 -418 -256 -418 -619c0 -374 193 -610 432 -610c254 0 418 256 418 619
c0 374 -192 610 -432 610z" />
    <glyph glyph-name="omacron" unicode="&#x14d;" horiz-adv-x="1477" 
d="M1091 1530h-721v51h721v-51zM739 1274c377 0 629 -232 629 -639c0 -397 -262 -664 -631 -664c-377 0 -628 232 -628 639c0 398 262 664 630 664zM731 1237c-254 0 -418 -256 -418 -619c0 -374 193 -610 432 -610c254 0 418 256 418 619c0 374 -192 610 -432 610z" />
    <glyph glyph-name="oslash" unicode="&#xf8;" horiz-adv-x="1477" 
d="M1282 1366l-144 -211c145 -107 230 -284 230 -520c0 -397 -262 -664 -631 -664c-132 0 -248 28 -344 83l-135 -201l-45 28l136 200c-151 107 -240 287 -240 529c0 398 262 664 630 664c139 0 261 -31 359 -92l145 211zM430 186l595 902c-77 96 -180 149 -294 149
c-254 0 -418 -256 -418 -619c0 -179 44 -327 117 -432zM1055 1046l-592 -903c76 -87 174 -135 282 -135c254 0 418 256 418 619c0 172 -41 315 -108 419z" />
    <glyph glyph-name="otilde" unicode="&#xf5;" horiz-adv-x="1477" 
d="M366 1489l-35 10c31 135 113 217 227 217c152 0 261 -157 398 -157c63 0 114 30 143 118l35 -10c-31 -135 -113 -217 -227 -217c-152 0 -260 158 -398 158c-65 0 -114 -31 -143 -119zM739 1274c377 0 629 -232 629 -639c0 -397 -262 -664 -631 -664
c-377 0 -628 232 -628 639c0 398 262 664 630 664zM731 1237c-254 0 -418 -256 -418 -619c0 -374 193 -610 432 -610c254 0 418 256 418 619c0 374 -192 610 -432 610z" />
    <glyph glyph-name="oe" unicode="&#x153;" horiz-adv-x="1913" 
d="M1747 389h47c-4 -37 -6 -90 -6 -147c0 -47 4 -146 14 -242c-127 6 -303 6 -428 6c-94 0 -287 0 -448 -4c-54 -20 -109 -31 -168 -31c-389 0 -649 232 -649 639c0 398 270 664 651 664c65 0 125 -10 180 -31c164 -4 342 -4 434 -4c113 0 273 0 387 6
c-10 -88 -14 -178 -14 -221c0 -49 2 -96 6 -127h-47c-20 225 -86 301 -254 301h-88c-139 0 -166 -20 -166 -170v-381h109c141 0 157 135 170 209h47c-6 -65 -7 -110 -7 -146c0 -32 1 -57 1 -83c0 -56 2 -105 12 -230h-47c-13 101 -35 209 -176 209h-109v-389
c0 -149 27 -170 166 -170h88c201 0 272 86 295 342zM1008 217v811c0 150 -117 209 -256 209c-267 0 -439 -256 -439 -619c0 -374 201 -610 453 -610c106 0 242 60 242 209z" />
    <glyph glyph-name="p" unicode="p" horiz-adv-x="1159" 
d="M442 504v-287c0 -149 27 -170 166 -176v-41c-63 4 -166 6 -260 6c-106 0 -205 -2 -262 -6v41c139 6 166 27 166 176v811c0 150 -27 170 -166 176v41c57 -4 160 -6 250 -6c129 0 260 4 309 4c301 0 453 -141 453 -342c0 -174 -111 -397 -518 -397h-138zM442 545h117
c275 0 334 155 334 334c0 215 -80 325 -299 325c-125 0 -152 -35 -152 -176v-483z" />
    <glyph glyph-name="thorn" unicode="&#xfe;" horiz-adv-x="1176" 
d="M442 264v-47c0 -149 27 -170 166 -176v-41c-63 4 -166 6 -260 6c-106 0 -205 -2 -262 -6v41c139 6 166 27 166 176v811c0 150 -27 170 -166 176v41c57 -4 156 -6 262 -6c94 0 197 2 260 6v-41c-139 -6 -166 -26 -166 -176v-28c93 1 176 4 213 4c301 0 453 -142 453 -342
c0 -175 -111 -398 -518 -398h-148zM442 305h127c254 0 334 156 334 334c0 215 -100 326 -299 326c-69 0 -120 -1 -162 -2v-658z" />
    <glyph glyph-name="q" unicode="q" horiz-adv-x="1479" 
d="M1597 -47l31 -12c-57 -213 -190 -326 -426 -326c-258 0 -532 170 -770 231c-53 -18 -117 -30 -170 -30c-55 0 -94 12 -94 41c0 26 35 43 111 43c45 0 102 -6 153 -17c95 25 155 64 231 91c-335 30 -552 257 -552 636c0 398 262 664 630 664c377 0 629 -232 629 -639
c0 -372 -230 -630 -563 -661v-1c-123 -14 -182 -65 -303 -100c108 -20 237 -45 360 -63c127 -21 246 -35 330 -35c217 0 334 55 403 178zM315 618c0 -374 193 -610 432 -610c254 0 418 256 418 619c0 374 -192 610 -432 610c-254 0 -418 -256 -418 -619z" />
    <glyph glyph-name="r" unicode="r" horiz-adv-x="1278" 
d="M1266 113l28 -27c-49 -70 -110 -115 -209 -115c-135 0 -190 76 -211 156l-63 256c-39 160 -115 192 -252 192h-117v-358c0 -149 27 -170 166 -176v-41c-63 4 -166 6 -260 6c-106 0 -205 -2 -262 -6v41c139 6 166 27 166 176v811c0 152 -27 170 -166 176v41
c57 -4 160 -6 250 -6c121 0 244 4 289 4c315 0 473 -133 473 -309c0 -134 -90 -304 -408 -343c24 -1 45 -3 70 -7c133 -21 225 -70 262 -224l45 -186c23 -96 45 -131 86 -131c39 0 80 33 113 70zM442 616h138c258 0 313 129 313 295c0 191 -86 293 -320 293
c-108 0 -131 -35 -131 -176v-412z" />
    <glyph glyph-name="racute" unicode="&#x155;" horiz-adv-x="1278" 
d="M514 1450l-15 27c189 143 258 233 344 288c23 14 44 20 62 20c28 0 50 -13 63 -34c8 -12 12 -25 12 -39c0 -26 -17 -55 -55 -80c-88 -53 -200 -76 -411 -182zM1266 113l28 -27c-49 -70 -110 -115 -209 -115c-135 0 -190 76 -211 156l-63 256c-39 160 -115 192 -252 192
h-117v-358c0 -149 27 -170 166 -176v-41c-63 4 -166 6 -260 6c-106 0 -205 -2 -262 -6v41c139 6 166 27 166 176v811c0 152 -27 170 -166 176v41c57 -4 160 -6 250 -6c121 0 244 4 289 4c315 0 473 -133 473 -309c0 -134 -90 -304 -408 -343c24 -1 45 -3 70 -7
c133 -21 225 -70 262 -224l45 -186c23 -96 45 -131 86 -131c39 0 80 33 113 70zM442 616h138c258 0 313 129 313 295c0 191 -86 293 -320 293c-108 0 -131 -35 -131 -176v-412z" />
    <glyph glyph-name="rcaron" unicode="&#x159;" horiz-adv-x="1278" 
d="M660 1434h-37c-60 104 -195 208 -363 270l10 29c156 -35 322 -93 412 -144c74 51 207 109 330 144l10 -29c-168 -62 -303 -166 -362 -270zM1266 113l28 -27c-49 -70 -110 -115 -209 -115c-135 0 -190 76 -211 156l-63 256c-39 160 -115 192 -252 192h-117v-358
c0 -149 27 -170 166 -176v-41c-63 4 -166 6 -260 6c-106 0 -205 -2 -262 -6v41c139 6 166 27 166 176v811c0 152 -27 170 -166 176v41c57 -4 160 -6 250 -6c121 0 244 4 289 4c315 0 473 -133 473 -309c0 -134 -90 -304 -408 -343c24 -1 45 -3 70 -7
c133 -21 225 -70 262 -224l45 -186c23 -96 45 -131 86 -131c39 0 80 33 113 70zM442 616h138c258 0 313 129 313 295c0 191 -86 293 -320 293c-108 0 -131 -35 -131 -176v-412z" />
    <glyph glyph-name="rcommaaccent" unicode="&#x157;" horiz-adv-x="1278" 
d="M1266 113l28 -27c-49 -70 -110 -115 -209 -115c-135 0 -190 76 -211 156l-63 256c-39 160 -115 192 -252 192h-117v-358c0 -149 27 -170 166 -176v-41c-63 4 -166 6 -260 6c-106 0 -205 -2 -262 -6v41c139 6 166 27 166 176v811c0 152 -27 170 -166 176v41
c57 -4 160 -6 250 -6c121 0 244 4 289 4c315 0 473 -133 473 -309c0 -134 -90 -304 -408 -343c24 -1 45 -3 70 -7c133 -21 225 -70 262 -224l45 -186c23 -96 45 -131 86 -131c39 0 80 33 113 70zM442 616h138c258 0 313 129 313 295c0 191 -86 293 -320 293
c-108 0 -131 -35 -131 -176v-412zM633 -494l-14 37c63 19 129 64 127 129c-21 -18 -52 -32 -86 -32c-60 0 -107 38 -107 110c0 62 51 109 115 109c80 0 133 -64 133 -144c0 -98 -37 -161 -168 -209z" />
    <glyph glyph-name="s" unicode="s" horiz-adv-x="1096" 
d="M137 436h47c17 -227 111 -424 373 -424c123 0 252 68 252 232c0 143 -135 217 -326 315c-184 94 -344 195 -344 395c0 213 183 320 385 320c135 0 195 -39 250 -76c33 -20 51 -29 70 -29c26 0 37 33 45 91h47c-6 -64 -10 -144 -10 -377h-47c-15 174 -109 352 -336 352
c-146 0 -250 -86 -250 -203c0 -155 149 -213 323 -311c213 -113 375 -213 375 -402c0 -231 -192 -348 -420 -348c-145 0 -221 39 -280 76c-33 21 -53 29 -70 29c-26 0 -37 -31 -45 -90h-47c6 75 8 186 8 450z" />
    <glyph glyph-name="sacute" unicode="&#x15b;" horiz-adv-x="1096" 
d="M424 1450l-15 27c189 143 258 233 344 288c23 14 44 20 62 20c28 0 50 -13 63 -34c8 -12 12 -25 12 -39c0 -26 -17 -55 -55 -80c-88 -53 -200 -76 -411 -182zM137 436h47c17 -227 111 -424 373 -424c123 0 252 68 252 232c0 143 -135 217 -326 315
c-184 94 -344 195 -344 395c0 213 183 320 385 320c135 0 195 -39 250 -76c33 -20 51 -29 70 -29c26 0 37 33 45 91h47c-6 -64 -10 -144 -10 -377h-47c-15 174 -109 352 -336 352c-146 0 -250 -86 -250 -203c0 -155 149 -213 323 -311c213 -113 375 -213 375 -402
c0 -231 -192 -348 -420 -348c-145 0 -221 39 -280 76c-33 21 -53 29 -70 29c-26 0 -37 -31 -45 -90h-47c6 75 8 186 8 450z" />
    <glyph glyph-name="scaron" unicode="&#x161;" horiz-adv-x="1096" 
d="M922 1733l10 -29c-168 -62 -303 -166 -362 -270h-37c-60 104 -195 208 -363 270l10 29c156 -35 322 -93 412 -144c74 51 207 109 330 144zM137 436h47c17 -227 111 -424 373 -424c123 0 252 68 252 232c0 143 -135 217 -326 315c-184 94 -344 195 -344 395
c0 213 183 320 385 320c135 0 195 -39 250 -76c33 -20 51 -29 70 -29c26 0 37 33 45 91h47c-6 -64 -10 -144 -10 -377h-47c-15 174 -109 352 -336 352c-146 0 -250 -86 -250 -203c0 -155 149 -213 323 -311c213 -113 375 -213 375 -402c0 -231 -192 -348 -420 -348
c-145 0 -221 39 -280 76c-33 21 -53 29 -70 29c-26 0 -37 -31 -45 -90h-47c6 75 8 186 8 450z" />
    <glyph glyph-name="scedilla" unicode="&#x15f;" horiz-adv-x="1096" 
d="M926 883h-47c-15 174 -109 352 -336 352c-146 0 -250 -86 -250 -203c0 -155 149 -213 323 -311c213 -113 375 -213 375 -402c0 -231 -192 -348 -420 -348l-41 -118c35 8 76 14 121 14c76 0 125 -35 125 -96c0 -115 -133 -156 -231 -156c-76 0 -133 10 -170 23l8 36
c14 -2 45 -6 78 -6c80 0 184 19 184 92c0 39 -31 58 -86 58c-22 0 -69 -4 -100 -15l57 170c-110 9 -174 42 -225 74c-33 21 -53 29 -70 29c-26 0 -37 -31 -45 -90h-47c6 75 8 186 8 450h47c17 -227 111 -424 373 -424c123 0 252 68 252 232c0 143 -135 217 -326 315
c-184 94 -344 195 -344 395c0 213 183 320 385 320c135 0 195 -39 250 -76c33 -20 51 -29 70 -29c26 0 37 33 45 91h47c-6 -64 -10 -144 -10 -377z" />
    <glyph glyph-name="scircumflex" unicode="&#x15d;" horiz-adv-x="1096" 
d="M537 1749h37c59 -104 194 -209 362 -270l-10 -29c-156 35 -322 92 -412 143c-74 -51 -207 -108 -330 -143l-10 29c168 61 303 166 363 270zM137 436h47c17 -227 111 -424 373 -424c123 0 252 68 252 232c0 143 -135 217 -326 315c-184 94 -344 195 -344 395
c0 213 183 320 385 320c135 0 195 -39 250 -76c33 -20 51 -29 70 -29c26 0 37 33 45 91h47c-6 -64 -10 -144 -10 -377h-47c-15 174 -109 352 -336 352c-146 0 -250 -86 -250 -203c0 -155 149 -213 323 -311c213 -113 375 -213 375 -402c0 -231 -192 -348 -420 -348
c-145 0 -221 39 -280 76c-33 21 -53 29 -70 29c-26 0 -37 -31 -45 -90h-47c6 75 8 186 8 450z" />
    <glyph glyph-name="scommaaccent" unicode="&#x219;" horiz-adv-x="1096" 
d="M137 436h47c17 -227 111 -424 373 -424c123 0 252 68 252 232c0 143 -135 217 -326 315c-184 94 -344 195 -344 395c0 213 183 320 385 320c135 0 195 -39 250 -76c33 -20 51 -29 70 -29c26 0 37 33 45 91h47c-6 -64 -10 -144 -10 -377h-47c-15 174 -109 352 -336 352
c-146 0 -250 -86 -250 -203c0 -155 149 -213 323 -311c213 -113 375 -213 375 -402c0 -231 -192 -348 -420 -348c-145 0 -221 39 -280 76c-33 21 -53 29 -70 29c-26 0 -37 -31 -45 -90h-47c6 75 8 186 8 450zM518 -494l-14 37c63 19 129 64 127 129c-21 -18 -52 -32 -86 -32
c-60 0 -107 38 -107 110c0 62 51 109 115 109c80 0 133 -64 133 -144c0 -98 -37 -161 -168 -209z" />
    <glyph glyph-name="germandbls" unicode="&#xdf;" horiz-adv-x="1339" 
d="M201 217v404c0 452 194 653 534 653c172 0 307 -51 428 -146l-309 -407c217 -45 401 -178 401 -387c0 -199 -168 -363 -448 -363c-94 0 -154 19 -193 37c-71 35 -100 88 -100 142c0 63 45 108 109 108c63 0 112 -41 112 -111c0 -59 -35 -94 -86 -104
c25 -25 109 -33 148 -33c170 0 254 162 254 330c0 221 -148 362 -381 395l321 443c-53 41 -153 59 -233 59c-191 0 -367 -104 -367 -492v-528c0 -137 19 -174 113 -176v-41c-62 0 -109 6 -234 6c-71 0 -178 -2 -235 -6v41c139 6 166 27 166 176z" />
    <glyph glyph-name="t" unicode="t" horiz-adv-x="1292" 
d="M125 836h-47c4 43 6 102 6 168c0 47 -4 145 -14 241c170 -6 409 -6 577 -6s406 0 576 6c-11 -96 -15 -194 -15 -241c0 -66 2 -127 6 -168h-47c-22 270 -73 362 -295 362h-131v-960c0 -166 35 -191 207 -197v-41c-71 4 -190 6 -301 6c-123 0 -237 -2 -303 -6v41
c172 6 207 31 207 197v960h-131c-221 0 -273 -92 -295 -362z" />
    <glyph glyph-name="tbar" unicode="&#x167;" horiz-adv-x="1296" 
d="M127 836h-47c4 43 6 102 6 168c0 47 -4 145 -14 241c170 -6 409 -6 577 -6s406 0 576 6c-11 -96 -15 -194 -15 -241c0 -66 2 -127 6 -168h-47c-22 270 -73 362 -295 362h-131v-551h285v-41h-285v-368c0 -166 35 -191 207 -197v-41c-71 4 -190 6 -301 6
c-123 0 -237 -2 -303 -6v41c172 6 207 31 207 197v368h-289v41h289v551h-131c-221 0 -273 -92 -295 -362z" />
    <glyph glyph-name="tcaron" unicode="&#x165;" horiz-adv-x="1292" 
d="M1016 1733l10 -29c-168 -62 -303 -166 -362 -270h-37c-60 104 -195 208 -363 270l10 29c156 -35 322 -93 412 -144c74 51 207 109 330 144zM125 836h-47c4 43 6 102 6 168c0 47 -4 145 -14 241c170 -6 409 -6 577 -6s406 0 576 6c-11 -96 -15 -194 -15 -241
c0 -66 2 -127 6 -168h-47c-22 270 -73 362 -295 362h-131v-960c0 -166 35 -191 207 -197v-41c-71 4 -190 6 -301 6c-123 0 -237 -2 -303 -6v41c172 6 207 31 207 197v960h-131c-221 0 -273 -92 -295 -362z" />
    <glyph glyph-name="tcedilla" unicode="&#x163;" horiz-adv-x="1292" 
d="M125 836h-47c4 43 6 102 6 168c0 47 -4 145 -14 241c170 -6 409 -6 577 -6s406 0 576 6c-11 -96 -15 -194 -15 -241c0 -66 2 -127 6 -168h-47c-22 270 -73 362 -295 362h-131v-960c0 -166 35 -191 207 -197v-41c-64 4 -168 6 -269 6l-53 -153c35 8 76 14 121 14
c76 0 125 -35 125 -96c0 -115 -133 -156 -231 -156c-76 0 -133 10 -170 23l8 36c14 -2 45 -6 78 -6c80 0 184 19 184 92c0 39 -31 58 -86 58c-22 0 -69 -4 -100 -15l68 203c-114 0 -217 -2 -279 -6v41c172 6 207 31 207 197v960h-131c-221 0 -273 -92 -295 -362z" />
    <glyph glyph-name="uni021B" unicode="&#x21b;" horiz-adv-x="1292" 
d="M125 836h-47c4 43 6 102 6 168c0 47 -4 145 -14 241c170 -6 409 -6 577 -6s406 0 576 6c-11 -96 -15 -194 -15 -241c0 -66 2 -127 6 -168h-47c-22 270 -73 362 -295 362h-131v-960c0 -166 35 -191 207 -197v-41c-71 4 -190 6 -301 6c-123 0 -237 -2 -303 -6v41
c172 6 207 31 207 197v960h-131c-221 0 -273 -92 -295 -362zM596 -494l-14 37c63 19 129 64 127 129c-21 -18 -52 -32 -86 -32c-60 0 -107 38 -107 110c0 62 51 109 115 109c80 0 133 -64 133 -144c0 -98 -37 -161 -168 -209z" />
    <glyph glyph-name="u" unicode="u" horiz-adv-x="1348" 
d="M1296 1245v-41c-139 -6 -166 -47 -166 -196v-453c0 -182 -22 -313 -83 -414c-64 -102 -195 -170 -355 -170c-123 0 -239 23 -323 90c-121 109 -152 222 -152 488v479c0 150 -27 170 -166 176v41c58 -4 156 -6 262 -6c95 0 197 2 260 6v-41c-139 -6 -165 -26 -165 -176
v-514c0 -260 30 -471 303 -471c293 0 372 209 372 489v476c0 149 -47 190 -186 196v41c49 -4 139 -6 209 -6s145 2 190 6z" />
    <glyph glyph-name="uacute" unicode="&#xfa;" horiz-adv-x="1348" 
d="M555 1450l-15 27c189 143 258 233 344 288c23 14 44 20 62 20c28 0 50 -13 63 -34c8 -12 12 -25 12 -39c0 -26 -17 -55 -55 -80c-88 -53 -200 -76 -411 -182zM1296 1245v-41c-139 -6 -166 -47 -166 -196v-453c0 -182 -22 -313 -83 -414c-64 -102 -195 -170 -355 -170
c-123 0 -239 23 -323 90c-121 109 -152 222 -152 488v479c0 150 -27 170 -166 176v41c58 -4 156 -6 262 -6c95 0 197 2 260 6v-41c-139 -6 -165 -26 -165 -176v-514c0 -260 30 -471 303 -471c293 0 372 209 372 489v476c0 149 -47 190 -186 196v41c49 -4 139 -6 209 -6
s145 2 190 6z" />
    <glyph glyph-name="ubreve" unicode="&#x16d;" horiz-adv-x="1348" 
d="M1044 1696l25 -23c-62 -106 -189 -237 -387 -237c-199 0 -326 131 -387 237l26 21c60 -62 174 -131 361 -131c186 0 303 71 362 133zM1296 1245v-41c-139 -6 -166 -47 -166 -196v-453c0 -182 -22 -313 -83 -414c-64 -102 -195 -170 -355 -170c-123 0 -239 23 -323 90
c-121 109 -152 222 -152 488v479c0 150 -27 170 -166 176v41c58 -4 156 -6 262 -6c95 0 197 2 260 6v-41c-139 -6 -165 -26 -165 -176v-514c0 -260 30 -471 303 -471c293 0 372 209 372 489v476c0 149 -47 190 -186 196v41c49 -4 139 -6 209 -6s145 2 190 6z" />
    <glyph glyph-name="ucircumflex" unicode="&#xfb;" horiz-adv-x="1348" 
d="M668 1749h37c59 -104 194 -209 362 -270l-10 -29c-156 35 -322 92 -412 143c-74 -51 -207 -108 -330 -143l-10 29c168 61 303 166 363 270zM1296 1245v-41c-139 -6 -166 -47 -166 -196v-453c0 -182 -22 -313 -83 -414c-64 -102 -195 -170 -355 -170
c-123 0 -239 23 -323 90c-121 109 -152 222 -152 488v479c0 150 -27 170 -166 176v41c58 -4 156 -6 262 -6c95 0 197 2 260 6v-41c-139 -6 -165 -26 -165 -176v-514c0 -260 30 -471 303 -471c293 0 372 209 372 489v476c0 149 -47 190 -186 196v41c49 -4 139 -6 209 -6
s145 2 190 6z" />
    <glyph glyph-name="udieresis" unicode="&#xfc;" horiz-adv-x="1348" 
d="M467 1700c63 0 119 -55 119 -119c0 -65 -56 -119 -119 -119c-66 0 -119 54 -119 119c0 64 53 119 119 119zM901 1700c64 0 119 -55 119 -119c0 -65 -55 -119 -119 -119c-65 0 -119 54 -119 119c0 64 54 119 119 119zM1296 1245v-41c-139 -6 -166 -47 -166 -196v-453
c0 -182 -22 -313 -83 -414c-64 -102 -195 -170 -355 -170c-123 0 -239 23 -323 90c-121 109 -152 222 -152 488v479c0 150 -27 170 -166 176v41c58 -4 156 -6 262 -6c95 0 197 2 260 6v-41c-139 -6 -165 -26 -165 -176v-514c0 -260 30 -471 303 -471c293 0 372 209 372 489
v476c0 149 -47 190 -186 196v41c49 -4 139 -6 209 -6s145 2 190 6z" />
    <glyph glyph-name="ugrave" unicode="&#xf9;" horiz-adv-x="1348" 
d="M805 1477l-14 -27c-211 106 -324 129 -412 182c-38 25 -54 54 -54 81c0 13 4 26 11 38c14 21 36 34 63 34c19 0 40 -6 62 -20c86 -55 156 -145 344 -288zM1296 1245v-41c-139 -6 -166 -47 -166 -196v-453c0 -182 -22 -313 -83 -414c-64 -102 -195 -170 -355 -170
c-123 0 -239 23 -323 90c-121 109 -152 222 -152 488v479c0 150 -27 170 -166 176v41c58 -4 156 -6 262 -6c95 0 197 2 260 6v-41c-139 -6 -165 -26 -165 -176v-514c0 -260 30 -471 303 -471c293 0 372 209 372 489v476c0 149 -47 190 -186 196v41c49 -4 139 -6 209 -6
s145 2 190 6z" />
    <glyph glyph-name="uhungarumlaut" unicode="&#x171;" horiz-adv-x="1348" 
d="M357 1427l-19 25c168 168 223 266 301 334c24 21 48 30 69 30c23 0 43 -10 56 -26c12 -14 19 -30 19 -47c0 -25 -13 -52 -43 -78c-80 -66 -189 -102 -383 -238zM740 1427l-19 25c168 168 223 266 301 334c24 21 48 30 69 30c23 0 43 -10 56 -26c12 -14 19 -30 19 -47
c0 -25 -13 -52 -43 -78c-80 -66 -189 -102 -383 -238zM1296 1245v-41c-139 -6 -166 -47 -166 -196v-453c0 -182 -22 -313 -83 -414c-64 -102 -195 -170 -355 -170c-123 0 -239 23 -323 90c-121 109 -152 222 -152 488v479c0 150 -27 170 -166 176v41c58 -4 156 -6 262 -6
c95 0 197 2 260 6v-41c-139 -6 -165 -26 -165 -176v-514c0 -260 30 -471 303 -471c293 0 372 209 372 489v476c0 149 -47 190 -186 196v41c49 -4 139 -6 209 -6s145 2 190 6z" />
    <glyph glyph-name="umacron" unicode="&#x16b;" horiz-adv-x="1348" 
d="M1040 1530h-721v51h721v-51zM1296 1245v-41c-139 -6 -166 -47 -166 -196v-453c0 -182 -22 -313 -83 -414c-64 -102 -195 -170 -355 -170c-123 0 -239 23 -323 90c-121 109 -152 222 -152 488v479c0 150 -27 170 -166 176v41c58 -4 156 -6 262 -6c95 0 197 2 260 6v-41
c-139 -6 -165 -26 -165 -176v-514c0 -260 30 -471 303 -471c293 0 372 209 372 489v476c0 149 -47 190 -186 196v41c49 -4 139 -6 209 -6s145 2 190 6z" />
    <glyph glyph-name="uogonek" unicode="&#x173;" horiz-adv-x="1348" 
d="M897 1204v41c49 -4 139 -6 209 -6s145 2 190 6v-41c-139 -6 -166 -47 -166 -196v-453c0 -182 -22 -313 -83 -414c-47 -74 -128 -130 -231 -155c-114 -48 -150 -123 -150 -183c0 -53 32 -90 88 -90c51 0 98 31 125 68l30 -27c-63 -96 -141 -139 -231 -139
c-98 0 -162 53 -162 133c0 88 69 166 194 223h-18c-123 0 -239 23 -323 90c-121 109 -152 222 -152 488v479c0 150 -27 170 -166 176v41c58 -4 156 -6 262 -6c95 0 197 2 260 6v-41c-139 -6 -165 -26 -165 -176v-514c0 -260 30 -471 303 -471c293 0 372 209 372 489v476
c0 149 -47 190 -186 196z" />
    <glyph glyph-name="uring" unicode="&#x16f;" horiz-adv-x="1348" 
d="M684 1772c107 0 199 -72 199 -187c0 -117 -92 -188 -199 -188c-104 0 -196 71 -196 188c0 115 92 187 196 187zM684 1729c-65 0 -139 -52 -139 -146c0 -96 74 -143 139 -143c68 0 142 47 142 143c0 94 -74 146 -142 146zM1296 1245v-41c-139 -6 -166 -47 -166 -196v-453
c0 -182 -22 -313 -83 -414c-64 -102 -195 -170 -355 -170c-123 0 -239 23 -323 90c-121 109 -152 222 -152 488v479c0 150 -27 170 -166 176v41c58 -4 156 -6 262 -6c95 0 197 2 260 6v-41c-139 -6 -165 -26 -165 -176v-514c0 -260 30 -471 303 -471c293 0 372 209 372 489
v476c0 149 -47 190 -186 196v41c49 -4 139 -6 209 -6s145 2 190 6z" />
    <glyph glyph-name="utilde" unicode="&#x169;" horiz-adv-x="1348" 
d="M315 1489l-35 10c31 135 113 217 227 217c152 0 261 -157 398 -157c63 0 114 30 143 118l35 -10c-31 -135 -113 -217 -227 -217c-152 0 -260 158 -398 158c-65 0 -114 -31 -143 -119zM1296 1245v-41c-139 -6 -166 -47 -166 -196v-453c0 -182 -22 -313 -83 -414
c-64 -102 -195 -170 -355 -170c-123 0 -239 23 -323 90c-121 109 -152 222 -152 488v479c0 150 -27 170 -166 176v41c58 -4 156 -6 262 -6c95 0 197 2 260 6v-41c-139 -6 -165 -26 -165 -176v-514c0 -260 30 -471 303 -471c293 0 372 209 372 489v476
c0 149 -47 190 -186 196v41c49 -4 139 -6 209 -6s145 2 190 6z" />
    <glyph glyph-name="v" unicode="v" horiz-adv-x="1262" 
d="M903 1204v41c41 -4 154 -6 227 -6c48 0 103 2 138 6v-41c-80 -20 -115 -71 -172 -200l-449 -1014h-33l-479 1083c-45 103 -98 129 -141 131v41c55 -4 141 -6 219 -6c106 0 205 2 262 6v-41c-97 -4 -146 -20 -146 -75c0 -24 9 -56 27 -97l352 -795l306 681
c34 76 50 132 50 175c0 79 -57 107 -161 111z" />
    <glyph glyph-name="w" unicode="w" horiz-adv-x="1786" 
d="M1415 1204v41c41 -4 113 -6 187 -6c49 0 145 2 178 6v-41c-74 -16 -121 -71 -166 -203l-352 -1011h-33l-316 781l-333 -781h-33l-418 1083c-41 105 -98 129 -141 131v41c55 -4 141 -6 219 -6c106 0 205 2 262 6v-41c-98 -4 -142 -17 -142 -74c0 -24 8 -56 23 -98
l291 -793l249 589l-99 245c-43 105 -99 129 -142 131v41c56 -4 142 -6 219 -6c107 0 205 2 262 6v-41c-97 -4 -143 -19 -143 -75c0 -24 9 -55 25 -97l296 -779l220 642c27 77 39 136 39 181c0 95 -57 124 -152 128z" />
    <glyph glyph-name="wacute" unicode="&#x1e83;" horiz-adv-x="1786" 
d="M799 1450l-15 27c189 143 258 233 344 288c23 14 44 20 62 20c28 0 50 -13 63 -34c8 -12 12 -25 12 -39c0 -26 -17 -55 -55 -80c-88 -53 -200 -76 -411 -182zM1415 1204v41c41 -4 113 -6 187 -6c49 0 145 2 178 6v-41c-74 -16 -121 -71 -166 -203l-352 -1011h-33
l-316 781l-333 -781h-33l-418 1083c-41 105 -98 129 -141 131v41c55 -4 141 -6 219 -6c106 0 205 2 262 6v-41c-98 -4 -142 -17 -142 -74c0 -24 8 -56 23 -98l291 -793l249 589l-99 245c-43 105 -99 129 -142 131v41c56 -4 142 -6 219 -6c107 0 205 2 262 6v-41
c-97 -4 -143 -19 -143 -75c0 -24 9 -55 25 -97l296 -779l220 642c27 77 39 136 39 181c0 95 -57 124 -152 128z" />
    <glyph glyph-name="wcircumflex" unicode="&#x175;" horiz-adv-x="1786" 
d="M1311 1479l-10 -29c-156 35 -322 92 -412 143c-74 -51 -207 -108 -330 -143l-10 29c168 61 303 166 363 270h37c59 -104 194 -209 362 -270zM1415 1204v41c41 -4 113 -6 187 -6c49 0 145 2 178 6v-41c-74 -16 -121 -71 -166 -203l-352 -1011h-33l-316 781l-333 -781h-33
l-418 1083c-41 105 -98 129 -141 131v41c55 -4 141 -6 219 -6c106 0 205 2 262 6v-41c-98 -4 -142 -17 -142 -74c0 -24 8 -56 23 -98l291 -793l249 589l-99 245c-43 105 -99 129 -142 131v41c56 -4 142 -6 219 -6c107 0 205 2 262 6v-41c-97 -4 -143 -19 -143 -75
c0 -24 9 -55 25 -97l296 -779l220 642c27 77 39 136 39 181c0 95 -57 124 -152 128z" />
    <glyph glyph-name="wdieresis" unicode="&#x1e85;" horiz-adv-x="1786" 
d="M711 1462c-66 0 -119 54 -119 119c0 64 53 119 119 119c63 0 119 -55 119 -119c0 -65 -56 -119 -119 -119zM1145 1462c-65 0 -119 54 -119 119c0 64 54 119 119 119c64 0 119 -55 119 -119c0 -65 -55 -119 -119 -119zM1415 1204v41c41 -4 113 -6 187 -6c49 0 145 2 178 6
v-41c-74 -16 -121 -71 -166 -203l-352 -1011h-33l-316 781l-333 -781h-33l-418 1083c-41 105 -98 129 -141 131v41c55 -4 141 -6 219 -6c106 0 205 2 262 6v-41c-98 -4 -142 -17 -142 -74c0 -24 8 -56 23 -98l291 -793l249 589l-99 245c-43 105 -99 129 -142 131v41
c56 -4 142 -6 219 -6c107 0 205 2 262 6v-41c-97 -4 -143 -19 -143 -75c0 -24 9 -55 25 -97l296 -779l220 642c27 77 39 136 39 181c0 95 -57 124 -152 128z" />
    <glyph glyph-name="wgrave" unicode="&#x1e81;" horiz-adv-x="1786" 
d="M1049 1477l-14 -27c-211 106 -324 129 -412 182c-38 25 -54 54 -54 81c0 13 4 26 11 38c14 21 36 34 63 34c19 0 40 -6 62 -20c86 -55 156 -145 344 -288zM1415 1204v41c41 -4 113 -6 187 -6c49 0 145 2 178 6v-41c-74 -16 -121 -71 -166 -203l-352 -1011h-33l-316 781
l-333 -781h-33l-418 1083c-41 105 -98 129 -141 131v41c55 -4 141 -6 219 -6c106 0 205 2 262 6v-41c-98 -4 -142 -17 -142 -74c0 -24 8 -56 23 -98l291 -793l249 589l-99 245c-43 105 -99 129 -142 131v41c56 -4 142 -6 219 -6c107 0 205 2 262 6v-41
c-97 -4 -143 -19 -143 -75c0 -24 9 -55 25 -97l296 -779l220 642c27 77 39 136 39 181c0 95 -57 124 -152 128z" />
    <glyph glyph-name="x" unicode="x" horiz-adv-x="1257" 
d="M712 687l394 -542c53 -73 80 -94 127 -102v-43c-31 2 -105 6 -166 6c-111 0 -233 -4 -289 -6v43c85 0 129 8 129 35c0 9 -5 21 -16 35l-319 439l-259 -339c-23 -31 -35 -62 -35 -89c0 -48 37 -83 123 -83v-41c-77 4 -165 6 -231 6c-39 0 -84 -4 -137 -6v41
c59 6 143 70 194 137l317 412l-372 510c-55 76 -74 98 -127 102v43c31 -2 105 -6 166 -6c141 0 233 4 289 6v-43c-85 0 -129 -8 -129 -34c0 -9 5 -21 16 -35l299 -410l240 311c22 29 34 59 34 85c0 49 -41 85 -129 85v41c78 -4 166 -6 232 -6c59 0 104 2 137 6v-41
c-59 -6 -133 -57 -196 -139z" />
    <glyph glyph-name="y" unicode="y" horiz-adv-x="1174" 
d="M821 1202v43c58 -6 125 -8 174 -8s127 2 158 8v-43c-47 -12 -80 -47 -131 -139l-322 -575v-271c0 -149 27 -170 166 -176v-41c-63 4 -166 6 -260 6c-106 0 -205 -2 -262 -6v41c139 6 166 27 166 176v212l-395 658c-58 97 -86 109 -119 115v43c65 -4 110 -8 180 -8
c90 0 178 2 287 8v-43c-74 0 -145 -3 -145 -62c0 -22 11 -54 36 -96l310 -515l254 446c31 55 46 99 46 132c0 61 -51 89 -143 95z" />
    <glyph glyph-name="yacute" unicode="&#xfd;" horiz-adv-x="1174" 
d="M467 1450l-15 27c189 143 258 233 344 288c23 14 44 20 62 20c28 0 50 -13 63 -34c8 -12 12 -25 12 -39c0 -26 -17 -55 -55 -80c-88 -53 -200 -76 -411 -182zM821 1202v43c58 -6 125 -8 174 -8s127 2 158 8v-43c-47 -12 -80 -47 -131 -139l-322 -575v-271
c0 -149 27 -170 166 -176v-41c-63 4 -166 6 -260 6c-106 0 -205 -2 -262 -6v41c139 6 166 27 166 176v212l-395 658c-58 97 -86 109 -119 115v43c65 -4 110 -8 180 -8c90 0 178 2 287 8v-43c-74 0 -145 -3 -145 -62c0 -22 11 -54 36 -96l310 -515l254 446
c31 55 46 99 46 132c0 61 -51 89 -143 95z" />
    <glyph glyph-name="ycircumflex" unicode="&#x177;" horiz-adv-x="1174" 
d="M979 1479l-10 -29c-156 35 -322 92 -412 143c-74 -51 -207 -108 -330 -143l-10 29c168 61 303 166 363 270h37c59 -104 194 -209 362 -270zM821 1202v43c58 -6 125 -8 174 -8s127 2 158 8v-43c-47 -12 -80 -47 -131 -139l-322 -575v-271c0 -149 27 -170 166 -176v-41
c-63 4 -166 6 -260 6c-106 0 -205 -2 -262 -6v41c139 6 166 27 166 176v212l-395 658c-58 97 -86 109 -119 115v43c65 -4 110 -8 180 -8c90 0 178 2 287 8v-43c-74 0 -145 -3 -145 -62c0 -22 11 -54 36 -96l310 -515l254 446c31 55 46 99 46 132c0 61 -51 89 -143 95z" />
    <glyph glyph-name="ydieresis" unicode="&#xff;" horiz-adv-x="1174" 
d="M379 1462c-66 0 -119 54 -119 119c0 64 53 119 119 119c63 0 119 -55 119 -119c0 -65 -56 -119 -119 -119zM813 1462c-65 0 -119 54 -119 119c0 64 54 119 119 119c64 0 119 -55 119 -119c0 -65 -55 -119 -119 -119zM821 1202v43c58 -6 125 -8 174 -8s127 2 158 8v-43
c-47 -12 -80 -47 -131 -139l-322 -575v-271c0 -149 27 -170 166 -176v-41c-63 4 -166 6 -260 6c-106 0 -205 -2 -262 -6v41c139 6 166 27 166 176v212l-395 658c-58 97 -86 109 -119 115v43c65 -4 110 -8 180 -8c90 0 178 2 287 8v-43c-74 0 -145 -3 -145 -62
c0 -22 11 -54 36 -96l310 -515l254 446c31 55 46 99 46 132c0 61 -51 89 -143 95z" />
    <glyph glyph-name="ygrave" unicode="&#x1ef3;" horiz-adv-x="1174" 
d="M717 1477l-14 -27c-211 106 -324 129 -412 182c-38 25 -54 54 -54 81c0 13 4 26 11 38c14 21 36 34 63 34c19 0 40 -6 62 -20c86 -55 156 -145 344 -288zM821 1202v43c58 -6 125 -8 174 -8s127 2 158 8v-43c-47 -12 -80 -47 -131 -139l-322 -575v-271
c0 -149 27 -170 166 -176v-41c-63 4 -166 6 -260 6c-106 0 -205 -2 -262 -6v41c139 6 166 27 166 176v212l-395 658c-58 97 -86 109 -119 115v43c65 -4 110 -8 180 -8c90 0 178 2 287 8v-43c-74 0 -145 -3 -145 -62c0 -22 11 -54 36 -96l310 -515l254 446
c31 55 46 99 46 132c0 61 -51 89 -143 95z" />
    <glyph glyph-name="z" unicode="z" horiz-adv-x="1178" 
d="M1057 1204l-723 -1157h450c140 0 211 86 234 342h47c-4 -43 -6 -102 -6 -168c0 -43 4 -133 14 -221c-145 6 -346 6 -489 6c-156 0 -328 0 -478 -6v41l723 1157h-430c-139 0 -211 -86 -233 -342h-47c4 43 6 102 6 168c0 43 -4 133 -14 221c145 -6 346 -6 489 -6
c150 0 313 0 457 6v-41z" />
    <glyph glyph-name="zacute" unicode="&#x17a;" horiz-adv-x="1178" 
d="M471 1450l-15 27c189 143 258 233 344 288c23 14 44 20 62 20c28 0 50 -13 63 -34c8 -12 12 -25 12 -39c0 -26 -17 -55 -55 -80c-88 -53 -200 -76 -411 -182zM1057 1204l-723 -1157h450c140 0 211 86 234 342h47c-4 -43 -6 -102 -6 -168c0 -43 4 -133 14 -221
c-145 6 -346 6 -489 6c-156 0 -328 0 -478 -6v41l723 1157h-430c-139 0 -211 -86 -233 -342h-47c4 43 6 102 6 168c0 43 -4 133 -14 221c145 -6 346 -6 489 -6c150 0 313 0 457 6v-41z" />
    <glyph glyph-name="zcaron" unicode="&#x17e;" horiz-adv-x="1178" 
d="M969 1733l10 -29c-168 -62 -303 -166 -362 -270h-37c-60 104 -195 208 -363 270l10 29c156 -35 322 -93 412 -144c74 51 207 109 330 144zM1057 1204l-723 -1157h450c140 0 211 86 234 342h47c-4 -43 -6 -102 -6 -168c0 -43 4 -133 14 -221c-145 6 -346 6 -489 6
c-156 0 -328 0 -478 -6v41l723 1157h-430c-139 0 -211 -86 -233 -342h-47c4 43 6 102 6 168c0 43 -4 133 -14 221c145 -6 346 -6 489 -6c150 0 313 0 457 6v-41z" />
    <glyph glyph-name="zdotaccent" unicode="&#x17c;" horiz-adv-x="1178" 
d="M600 1712c71 0 131 -59 131 -131s-60 -131 -131 -131c-72 0 -131 59 -131 131s59 131 131 131zM1057 1204l-723 -1157h450c140 0 211 86 234 342h47c-4 -43 -6 -102 -6 -168c0 -43 4 -133 14 -221c-145 6 -346 6 -489 6c-156 0 -328 0 -478 -6v41l723 1157h-430
c-139 0 -211 -86 -233 -342h-47c4 43 6 102 6 168c0 43 -4 133 -14 221c145 -6 346 -6 489 -6c150 0 313 0 457 6v-41z" />
    <glyph glyph-name="cacute.loclPLK" horiz-adv-x="1317" 
d="M649 1432l-27 12c39 141 31 233 60 305c15 34 41 48 69 48c12 0 25 -3 37 -7c26 -12 46 -38 46 -70c0 -11 -2 -22 -7 -34c-33 -72 -100 -130 -178 -254zM1190 0h-47c-7 83 -23 124 -51 124c-12 0 -25 -7 -41 -20c-86 -71 -177 -133 -332 -133c-365 0 -608 232 -608 639
c0 398 254 664 610 664c147 0 233 -64 315 -133c16 -13 29 -20 40 -20c29 0 45 41 52 124h48c-7 -92 -9 -213 -9 -430h-47c-28 150 -51 195 -102 262c-78 103 -189 156 -305 156c-242 0 -398 -232 -398 -615c0 -395 183 -606 412 -606c117 0 236 51 313 156
c54 72 74 137 95 283h47c0 -228 2 -355 8 -451z" />
    <glyph glyph-name="nacute.loclPLK" horiz-adv-x="1403" 
d="M664 1432l-27 12c39 141 31 233 60 305c15 34 41 48 69 48c12 0 25 -3 37 -7c26 -12 46 -38 46 -70c0 -11 -2 -22 -7 -34c-33 -72 -100 -130 -178 -254zM1331 1245v-41c-139 -6 -166 -47 -166 -196v-1018h-47l-819 1134v-886c0 -150 27 -191 186 -197v-41
c-49 4 -139 6 -209 6c-69 0 -145 -2 -190 -6v41c139 6 166 47 166 197v790c0 150 -27 170 -166 176v41c45 -4 121 -6 190 -6c68 0 138 2 189 6l653 -909v672c0 149 -26 190 -186 196v41c49 -4 139 -6 209 -6c69 0 145 2 190 6z" />
    <glyph glyph-name="oacute.loclPLK" horiz-adv-x="1477" 
d="M684 1432l-27 12c39 141 31 233 60 305c15 34 41 48 69 48c12 0 25 -3 37 -7c26 -12 46 -38 46 -70c0 -11 -2 -22 -7 -34c-33 -72 -100 -130 -178 -254zM739 1274c377 0 629 -232 629 -639c0 -397 -262 -664 -631 -664c-377 0 -628 232 -628 639c0 398 262 664 630 664z
M731 1237c-254 0 -418 -256 -418 -619c0 -374 193 -610 432 -610c254 0 418 256 418 619c0 374 -192 610 -432 610z" />
    <glyph glyph-name="sacute.loclPLK" horiz-adv-x="1096" 
d="M502 1432l-27 12c39 141 31 233 60 305c15 34 41 48 69 48c12 0 25 -3 37 -7c26 -12 46 -38 46 -70c0 -11 -2 -22 -7 -34c-33 -72 -100 -130 -178 -254zM137 436h47c17 -227 111 -424 373 -424c123 0 252 68 252 232c0 143 -135 217 -326 315c-184 94 -344 195 -344 395
c0 213 183 320 385 320c135 0 195 -39 250 -76c33 -20 51 -29 70 -29c26 0 37 33 45 91h47c-6 -64 -10 -144 -10 -377h-47c-15 174 -109 352 -336 352c-146 0 -250 -86 -250 -203c0 -155 149 -213 323 -311c213 -113 375 -213 375 -402c0 -231 -192 -348 -420 -348
c-145 0 -221 39 -280 76c-33 21 -53 29 -70 29c-26 0 -37 -31 -45 -90h-47c6 75 8 186 8 450z" />
    <glyph glyph-name="zacute.loclPLK" horiz-adv-x="1178" 
d="M549 1432l-27 12c39 141 31 233 60 305c15 34 41 48 69 48c12 0 25 -3 37 -7c26 -12 46 -38 46 -70c0 -11 -2 -22 -7 -34c-33 -72 -100 -130 -178 -254zM1057 1204l-723 -1157h450c140 0 211 86 234 342h47c-4 -43 -6 -102 -6 -168c0 -43 4 -133 14 -221
c-145 6 -346 6 -489 6c-156 0 -328 0 -478 -6v41l723 1157h-430c-139 0 -211 -86 -233 -342h-47c4 43 6 102 6 168c0 43 -4 133 -14 221c145 -6 346 -6 489 -6c150 0 313 0 457 6v-41z" />
    <glyph glyph-name="ordfeminine" unicode="&#xaa;" horiz-adv-x="948" 
d="M547 1235v37c0 123 -51 168 -139 168c-46 0 -105 -13 -152 -43c37 -11 70 -45 70 -97c0 -53 -43 -90 -90 -90c-60 0 -99 37 -99 93c0 59 43 102 99 129c63 30 129 47 225 47c176 0 250 -78 250 -260v-334c0 -58 14 -76 51 -76c31 0 61 12 84 35l22 -31
c-45 -43 -102 -76 -184 -76c-102 0 -133 37 -137 97c-70 -68 -152 -97 -240 -97c-92 0 -190 49 -190 160c0 117 112 166 266 223c76 29 164 62 164 115zM547 874v297c-10 -22 -33 -38 -115 -75c-100 -45 -147 -90 -147 -162c0 -74 45 -125 112 -125c52 0 105 25 150 65z" />
    <glyph glyph-name="ordmasculine" unicode="&#xba;" horiz-adv-x="930" 
d="M465 1479c180 0 362 -127 362 -371s-182 -371 -362 -371s-363 127 -363 371s183 371 363 371zM465 1442c-105 0 -193 -96 -193 -334s88 -334 193 -334c104 0 192 96 192 334s-88 334 -192 334z" />
    <glyph glyph-name="uni0410" unicode="&#x410;" horiz-adv-x="1290" 
d="M662 1460l499 -1288c41 -104 99 -129 142 -131v-41c-56 4 -142 6 -220 6c-106 0 -204 -2 -262 -6v41c99 4 145 19 145 76c0 24 -8 55 -24 96l-126 336h-494l-84 -217c-28 -71 -41 -126 -41 -168c0 -89 61 -120 178 -123v-41c-78 4 -164 6 -236 6c-69 0 -112 -2 -153 -6
v41c53 12 114 55 161 178l482 1241h33zM801 590l-229 611l-235 -611h464z" />
    <glyph glyph-name="uni0411" unicode="&#x411;" horiz-adv-x="1221" 
d="M442 1233v-374c83 1 155 3 189 3c330 0 493 -180 493 -430c0 -211 -114 -432 -538 -432c-72 0 -125 6 -258 6c-78 0 -185 -2 -242 -6v41c139 6 166 27 166 176v1016c0 149 -27 170 -166 176v41c201 -6 471 -6 594 -6c106 0 258 0 367 6c-11 -96 -15 -195 -15 -242
c0 -49 2 -96 6 -127h-47c-26 242 -57 322 -274 322h-109c-139 0 -166 -21 -166 -170zM442 821v-604c0 -145 19 -176 138 -176c280 0 340 174 340 389c0 268 -93 393 -359 393c-23 0 -71 -1 -119 -2z" />
    <glyph glyph-name="uni0412" unicode="&#x412;" horiz-adv-x="1276" 
d="M766 770v-4c324 -43 418 -203 418 -369c0 -233 -185 -397 -492 -397c-61 0 -184 6 -352 6c-96 0 -197 -2 -254 -6v41c139 6 166 27 166 176v1016c0 149 -27 170 -166 176v41c57 -4 160 -6 250 -6c129 0 260 4 309 4c287 0 432 -133 432 -322c0 -145 -82 -286 -311 -356z
M442 770h138c241 0 301 156 301 334c0 201 -82 305 -287 305c-125 0 -152 -35 -152 -176v-463zM442 735v-518c0 -143 27 -170 154 -170c268 0 383 129 383 359c0 208 -105 329 -365 329h-172z" />
    <glyph glyph-name="uni0413" unicode="&#x413;" horiz-adv-x="1081" 
d="M86 1409v41c201 -6 471 -6 594 -6c100 0 244 0 346 6c-10 -104 -14 -211 -14 -262c0 -66 2 -125 6 -168h-47c-29 285 -60 383 -316 383h-47c-139 0 -166 -21 -166 -170v-1016c0 -149 35 -170 207 -176v-41c-71 4 -190 6 -301 6c-106 0 -205 -2 -262 -6v41
c139 6 166 27 166 176v1016c0 149 -27 170 -166 176z" />
    <glyph glyph-name="uni0403" unicode="&#x403;" horiz-adv-x="1081" 
d="M405 1581l-14 27c188 143 258 233 344 288c22 14 43 20 62 20c27 0 49 -13 63 -34c7 -12 11 -25 11 -38c0 -27 -16 -56 -54 -81c-88 -53 -201 -75 -412 -182zM86 1409v41c201 -6 471 -6 594 -6c100 0 244 0 346 6c-10 -104 -14 -211 -14 -262c0 -66 2 -125 6 -168h-47
c-29 285 -60 383 -316 383h-47c-139 0 -166 -21 -166 -170v-1016c0 -149 35 -170 207 -176v-41c-71 4 -190 6 -301 6c-106 0 -205 -2 -262 -6v41c139 6 166 27 166 176v1016c0 149 -27 170 -166 176z" />
    <glyph glyph-name="uni0490" unicode="&#x490;" horiz-adv-x="1071" 
d="M971 1772h47c-4 -31 -6 -78 -6 -127c0 -48 4 -146 14 -242h-418c-139 0 -166 -21 -166 -170v-1016c0 -149 35 -170 207 -176v-41c-71 4 -190 6 -301 6c-106 0 -205 -2 -262 -6v41c139 6 166 27 166 176v1016c0 149 -27 170 -166 176v41c107 -6 242 -6 307 -6
c82 0 219 6 303 6c217 0 248 80 275 322z" />
    <glyph glyph-name="uni0414" unicode="&#x414;" horiz-adv-x="1288" 
d="M1186 41h63c-10 -96 -14 -195 -14 -242c0 -49 2 -96 6 -127h-47c-27 242 -57 328 -274 328h-584c-217 0 -248 -86 -275 -328h-47c4 31 6 78 6 127c0 47 -4 146 -14 242h37c315 0 348 647 381 1192c1 15 1 28 1 41c0 107 -34 130 -167 135v41c57 -4 145 -6 211 -6
c61 0 121 6 180 6c105 0 176 -6 293 -6c80 0 186 2 244 6v-41c-139 -6 -166 -27 -166 -176v-1016c0 -149 27 -176 166 -176zM829 217v1016c0 149 -26 176 -165 176h-27c-145 0 -152 -31 -166 -176c-37 -402 -36 -1030 -290 -1192h483c139 0 165 27 165 176z" />
    <glyph glyph-name="uni0415" unicode="&#x415;" horiz-adv-x="1247" 
d="M1094 410h47c-4 -37 -6 -91 -6 -148c0 -51 4 -158 14 -262c-139 6 -332 6 -469 6c-123 0 -393 0 -594 -6v41c139 6 166 27 166 176v1016c0 149 -27 170 -166 176v41c201 -6 471 -6 594 -6c125 0 301 0 428 6c-10 -96 -14 -195 -14 -242c0 -49 2 -96 6 -127h-47
c-27 242 -58 322 -275 322h-170c-139 0 -166 -21 -166 -170v-483h136c178 0 174 172 190 270h47c-6 -87 -7 -146 -7 -193c0 -38 1 -68 1 -98c0 -67 2 -135 12 -291h-47c-16 131 -18 271 -196 271h-136v-492c0 -149 27 -170 166 -170h150c256 0 307 92 336 363z" />
    <glyph glyph-name="uni0401" unicode="&#x401;" horiz-adv-x="1247" 
d="M410 1581c-66 0 -119 53 -119 119c0 63 53 119 119 119c63 0 119 -56 119 -119c0 -66 -56 -119 -119 -119zM844 1581c-65 0 -119 53 -119 119c0 63 54 119 119 119c64 0 119 -56 119 -119c0 -66 -55 -119 -119 -119zM1094 410h47c-4 -37 -6 -91 -6 -148
c0 -51 4 -158 14 -262c-139 6 -332 6 -469 6c-123 0 -393 0 -594 -6v41c139 6 166 27 166 176v1016c0 149 -27 170 -166 176v41c201 -6 471 -6 594 -6c125 0 301 0 428 6c-10 -96 -14 -195 -14 -242c0 -49 2 -96 6 -127h-47c-27 242 -58 322 -275 322h-170
c-139 0 -166 -21 -166 -170v-483h136c178 0 174 172 190 270h47c-6 -87 -7 -146 -7 -193c0 -38 1 -68 1 -98c0 -67 2 -135 12 -291h-47c-16 131 -18 271 -196 271h-136v-492c0 -149 27 -170 166 -170h150c256 0 307 92 336 363z" />
    <glyph glyph-name="uni0416" unicode="&#x416;" horiz-adv-x="2013" 
d="M1980 125l31 -23c-53 -77 -104 -131 -219 -131c-96 0 -178 39 -219 222l-57 253c-39 170 -70 285 -279 285h-135v-514c0 -149 26 -170 166 -176v-41c-58 4 -156 6 -262 6c-95 0 -197 -2 -261 -6v41c140 6 166 27 166 176v514h-135c-209 0 -239 -115 -278 -285l-58 -253
c-41 -183 -123 -222 -219 -222c-115 0 -166 54 -219 131l31 23c38 -48 62 -78 112 -78c57 0 73 46 101 168l59 258c52 229 215 288 408 296l-385 491c-78 98 -158 137 -242 149v41c41 -4 104 -6 174 -6c72 0 158 2 236 6v-41c-87 -2 -127 -27 -127 -74
c0 -45 37 -111 104 -196l197 -250c51 -66 127 -117 241 -119v463c0 149 -26 170 -166 176v41c64 -4 166 -6 261 -6c106 0 204 2 262 6v-41c-140 -6 -166 -27 -166 -176v-463c115 2 190 53 241 119l197 250c67 85 104 151 104 196c0 47 -39 72 -126 74v41
c77 -4 163 -6 235 -6c70 0 133 2 174 6v-41c-84 -12 -164 -51 -241 -149l-386 -491c193 -8 356 -67 408 -296l59 -258c28 -122 44 -168 101 -168c50 0 75 30 112 78z" />
    <glyph glyph-name="uni0417" unicode="&#x417;" horiz-adv-x="1124" 
d="M141 1464h47c9 -57 17 -90 48 -90c16 0 34 8 67 29c51 31 105 76 246 76c243 0 407 -118 407 -307c0 -230 -234 -359 -415 -404c235 -4 493 -127 493 -377c0 -272 -270 -420 -563 -420c-152 0 -246 39 -303 74c-55 35 -96 84 -96 145c0 64 45 109 108 109
c64 0 113 -41 113 -111c0 -57 -35 -94 -86 -104c29 -41 151 -78 270 -78c244 0 354 156 354 365c0 213 -114 372 -323 379c-27 -15 -55 -27 -88 -27c-23 0 -43 10 -43 35c0 20 18 33 43 33c33 0 61 -7 90 -13c186 62 242 178 242 371c0 186 -62 291 -228 291
c-209 0 -313 -199 -325 -393h-47c0 258 -5 346 -11 417z" />
    <glyph glyph-name="uni0418" unicode="&#x418;" horiz-adv-x="1591" 
d="M1505 1450v-41c-139 -6 -166 -27 -166 -176v-1016c0 -149 27 -170 166 -176v-41c-57 4 -155 6 -262 6c-94 0 -196 -2 -260 -6v41c139 6 166 27 166 176v969l-707 -1000c5 -121 37 -139 166 -145v-41c-63 4 -166 6 -260 6c-106 0 -205 -2 -262 -6v41c139 6 166 27 166 176
v1016c0 149 -27 170 -166 176v41c57 -4 156 -6 262 -6c94 0 197 2 260 6v-41c-139 -6 -166 -27 -166 -176v-970l706 1002c-4 120 -37 138 -165 144v41c64 -4 166 -6 260 -6c107 0 205 2 262 6z" />
    <glyph glyph-name="uni0419" unicode="&#x419;" horiz-adv-x="1591" 
d="M477 1679c-67 41 -98 82 -98 140c0 69 45 112 109 112c63 0 112 -41 112 -110c0 -58 -35 -95 -86 -105c64 -59 197 -74 283 -74s219 15 282 74c-51 10 -86 47 -86 105c0 69 52 110 113 110c63 0 109 -43 109 -112c0 -58 -31 -99 -99 -140c-71 -43 -178 -77 -319 -77
c-142 0 -248 34 -320 77zM1505 1450v-41c-139 -6 -166 -27 -166 -176v-1016c0 -149 27 -170 166 -176v-41c-57 4 -155 6 -262 6c-94 0 -196 -2 -260 -6v41c139 6 166 27 166 176v969l-707 -1000c5 -121 37 -139 166 -145v-41c-63 4 -166 6 -260 6c-106 0 -205 -2 -262 -6v41
c139 6 166 27 166 176v1016c0 149 -27 170 -166 176v41c57 -4 156 -6 262 -6c94 0 197 2 260 6v-41c-139 -6 -166 -27 -166 -176v-970l706 1002c-4 120 -37 138 -165 144v41c64 -4 166 -6 260 -6c107 0 205 2 262 6z" />
    <glyph glyph-name="uni041A" unicode="&#x41a;" horiz-adv-x="1389" 
d="M1321 125l31 -23c-54 -77 -105 -131 -219 -131c-97 0 -179 39 -220 222l-57 253c-39 170 -70 285 -278 285h-136v-514c0 -149 27 -170 166 -176v-41c-63 4 -166 6 -260 6c-106 0 -205 -2 -262 -6v41c139 6 166 27 166 176v1016c0 149 -27 170 -166 176v41
c57 -4 156 -6 262 -6c94 0 197 2 260 6v-41c-139 -6 -166 -27 -166 -176v-463c115 2 191 53 242 119l197 250c67 85 104 151 104 196c0 47 -40 72 -127 74v41c78 -4 164 -6 236 -6c69 0 133 2 174 6v-41c-84 -12 -164 -51 -242 -149l-386 -491c194 -8 356 -67 409 -296
l59 -258c28 -122 44 -168 100 -168c51 0 75 30 113 78z" />
    <glyph glyph-name="uni040C" unicode="&#x40c;" horiz-adv-x="1389" 
d="M608 1581l-14 27c188 143 258 233 344 288c22 14 43 20 62 20c27 0 49 -13 63 -34c7 -12 11 -25 11 -38c0 -27 -16 -56 -54 -81c-88 -53 -201 -75 -412 -182zM1321 125l31 -23c-54 -77 -105 -131 -219 -131c-97 0 -179 39 -220 222l-57 253c-39 170 -70 285 -278 285
h-136v-514c0 -149 27 -170 166 -176v-41c-63 4 -166 6 -260 6c-106 0 -205 -2 -262 -6v41c139 6 166 27 166 176v1016c0 149 -27 170 -166 176v41c57 -4 156 -6 262 -6c94 0 197 2 260 6v-41c-139 -6 -166 -27 -166 -176v-463c115 2 191 53 242 119l197 250
c67 85 104 151 104 196c0 47 -40 72 -127 74v41c78 -4 164 -6 236 -6c69 0 133 2 174 6v-41c-84 -12 -164 -51 -242 -149l-386 -491c194 -8 356 -67 409 -296l59 -258c28 -122 44 -168 100 -168c51 0 75 30 113 78z" />
    <glyph glyph-name="uni041B" unicode="&#x41b;" horiz-adv-x="1409" 
d="M1323 1450v-41c-139 -6 -166 -27 -166 -176v-1016c0 -149 27 -170 166 -176v-41c-57 4 -156 6 -262 6c-111 0 -230 -2 -301 -6v41c172 6 207 27 207 176v1016c0 149 -27 176 -166 176h-27c-145 0 -153 -31 -166 -176c-41 -481 -35 -1262 -428 -1262
c-90 0 -186 37 -186 140c0 71 51 116 121 116c59 0 104 -34 104 -90c0 -61 -31 -92 -88 -125c19 -2 39 -2 49 -2c316 0 348 658 381 1223c1 17 2 32 2 46c0 103 -37 125 -168 130v41c58 -4 146 -6 211 -6c62 0 121 6 180 6c105 0 177 -6 293 -6c80 0 187 2 244 6z" />
    <glyph glyph-name="uni041C" unicode="&#x41c;" horiz-adv-x="1784" 
d="M1698 1450v-41c-139 -6 -166 -27 -166 -176v-1016c0 -149 27 -170 166 -176v-41c-64 4 -166 6 -260 6c-107 0 -205 -2 -262 -6v41c139 6 165 27 165 176v1096l-493 -1323h-33l-516 1329v-1081c0 -150 27 -191 186 -197v-41c-49 4 -139 6 -209 6c-69 0 -145 -2 -190 -6v41
c139 6 166 47 166 197v995c0 149 -27 170 -166 176v41c45 -4 121 -6 190 -6c60 0 130 2 175 6l450 -1188l440 1182h97c94 0 196 2 260 6z" />
    <glyph glyph-name="uni041D" unicode="&#x41d;" horiz-adv-x="1550" 
d="M1464 1450v-41c-139 -6 -166 -27 -166 -176v-1016c0 -149 27 -170 166 -176v-41c-57 4 -155 6 -262 6c-94 0 -196 -2 -260 -6v41c139 6 166 27 166 176v492h-666v-492c0 -149 27 -170 166 -176v-41c-63 4 -166 6 -260 6c-106 0 -205 -2 -262 -6v41c139 6 166 27 166 176
v1016c0 149 -27 170 -166 176v41c57 -4 156 -6 262 -6c94 0 197 2 260 6v-41c-139 -6 -166 -27 -166 -176v-483h666v483c0 149 -27 170 -166 176v41c64 -4 166 -6 260 -6c107 0 205 2 262 6z" />
    <glyph glyph-name="uni041E" unicode="&#x41e;" horiz-adv-x="1518" 
d="M760 1479c389 0 649 -273 649 -742c0 -458 -270 -766 -651 -766c-389 0 -649 273 -649 742c0 458 270 766 651 766zM752 1442c-267 0 -439 -297 -439 -721c0 -436 201 -713 453 -713c266 0 438 297 438 721c0 436 -200 713 -452 713z" />
    <glyph glyph-name="uni041F" unicode="&#x41f;" horiz-adv-x="1550" 
d="M1464 1450v-41c-139 -6 -166 -27 -166 -176v-1016c0 -149 27 -170 166 -176v-41c-57 4 -155 6 -262 6c-94 0 -196 -2 -260 -6v41c139 6 166 27 166 176v1016c0 149 -27 176 -166 176h-334c-139 0 -166 -27 -166 -176v-1016c0 -149 27 -170 166 -176v-41
c-63 4 -166 6 -260 6c-106 0 -205 -2 -262 -6v41c139 6 166 27 166 176v1016c0 149 -27 170 -166 176v41c57 -4 156 -6 262 -6c160 0 334 6 430 6s264 -6 424 -6c107 0 205 2 262 6z" />
    <glyph glyph-name="uni0420" unicode="&#x420;" horiz-adv-x="1198" 
d="M442 586v-369c0 -149 35 -170 207 -176v-41c-71 4 -190 6 -301 6c-106 0 -205 -2 -262 -6v41c139 6 166 27 166 176v1016c0 149 -27 170 -166 176v41c57 -4 160 -6 250 -6c129 0 260 4 309 4c330 0 494 -166 494 -404c0 -198 -115 -458 -539 -458h-158zM442 627h138
c290 0 354 186 354 395c0 258 -92 387 -340 387c-125 0 -152 -35 -152 -176v-606z" />
    <glyph glyph-name="uni0421" unicode="&#x421;" horiz-adv-x="1409" 
d="M1276 0h-47c-7 84 -21 121 -50 121c-11 0 -25 -6 -42 -17c-101 -71 -203 -133 -379 -133c-389 0 -649 273 -649 742c0 458 270 766 651 766c180 0 287 -64 377 -133c15 -12 28 -18 40 -18c28 0 45 38 52 122h47c-6 -100 -8 -233 -8 -471h-47c-29 174 -45 229 -103 303
c-86 111 -221 160 -362 160c-267 0 -443 -277 -443 -721c0 -457 199 -709 463 -709c123 0 273 45 350 156c60 80 74 158 95 324h47c0 -248 2 -388 8 -492z" />
    <glyph glyph-name="uni0422" unicode="&#x422;" horiz-adv-x="1272" 
d="M115 1020h-47c4 43 6 102 6 168c0 51 -4 158 -15 262c170 -6 410 -6 578 -6s405 0 575 6c-10 -104 -14 -211 -14 -262c0 -66 2 -125 6 -168h-47c-29 285 -59 383 -315 383h-111v-1165c0 -166 35 -191 207 -197v-41c-72 4 -190 6 -301 6c-123 0 -238 -2 -303 -6v41
c172 6 207 31 207 197v1165h-111c-256 0 -287 -98 -315 -383z" />
    <glyph glyph-name="uni0423" unicode="&#x423;" horiz-adv-x="1325" 
d="M954 1409v41c78 -4 164 -6 236 -6c70 0 113 2 153 6v-41c-53 -12 -102 -61 -163 -182l-449 -894l-82 -165c-35 -72 -61 -109 -90 -137c-43 -43 -104 -60 -153 -60c-82 0 -144 43 -144 123c0 66 47 109 109 109c57 0 104 -33 104 -97c0 -43 -26 -75 -55 -92
c4 -2 8 -2 12 -2c74 0 127 56 176 158l56 114l-549 1008c-56 101 -90 115 -119 115v43c53 -4 110 -6 180 -6c90 0 199 0 287 6v-43c-78 0 -144 -18 -144 -79c0 -19 6 -43 21 -71l417 -778l322 645c38 77 56 134 56 176c0 81 -67 106 -181 109z" />
    <glyph glyph-name="uni040E" unicode="&#x40e;" horiz-adv-x="1325" 
d="M362 1679c-67 41 -98 82 -98 140c0 69 45 112 109 112c63 0 112 -41 112 -110c0 -58 -35 -95 -86 -105c64 -59 197 -74 283 -74s219 15 282 74c-51 10 -86 47 -86 105c0 69 52 110 113 110c63 0 109 -43 109 -112c0 -58 -31 -99 -99 -140c-71 -43 -178 -77 -319 -77
c-142 0 -248 34 -320 77zM954 1409v41c78 -4 164 -6 236 -6c70 0 113 2 153 6v-41c-53 -12 -102 -61 -163 -182l-449 -894l-82 -165c-35 -72 -61 -109 -90 -137c-43 -43 -104 -60 -153 -60c-82 0 -144 43 -144 123c0 66 47 109 109 109c57 0 104 -33 104 -97
c0 -43 -26 -75 -55 -92c4 -2 8 -2 12 -2c74 0 127 56 176 158l56 114l-549 1008c-56 101 -90 115 -119 115v43c53 -4 110 -6 180 -6c90 0 199 0 287 6v-43c-78 0 -144 -18 -144 -79c0 -19 6 -43 21 -71l417 -778l322 645c38 77 56 134 56 176c0 81 -67 106 -181 109z" />
    <glyph glyph-name="uni0424" unicode="&#x424;" horiz-adv-x="1739" 
d="M967 1384v-72c434 -26 716 -229 716 -575c0 -335 -290 -567 -716 -598v-73c0 -152 26 -170 166 -177v-41c-64 5 -166 7 -261 7c-106 0 -204 -2 -262 -7v41c140 7 166 27 166 177v72c-436 25 -721 237 -721 595c0 325 293 550 721 579v72c0 152 -26 170 -166 177v41
c58 -5 156 -7 262 -7c95 0 197 2 261 7v-41c-140 -7 -166 -27 -166 -177zM776 178v1096c-315 -33 -516 -244 -516 -533c0 -316 216 -525 516 -563zM967 1271v-1094c313 35 512 254 512 552c0 303 -215 504 -512 542z" />
    <glyph glyph-name="uni0425" unicode="&#x425;" horiz-adv-x="1298" 
d="M723 793l424 -648c51 -79 76 -98 137 -102v-43c-35 2 -106 8 -176 8c-111 0 -234 -6 -289 -8v43c101 0 146 6 146 33c0 10 -5 22 -15 37l-350 536l-221 -330c-54 -80 -78 -139 -78 -180c0 -73 73 -95 182 -98v-41c-77 4 -204 6 -276 6c-70 0 -133 -2 -174 -6v41
c84 12 155 76 231 188l309 461l-401 615c-51 79 -76 98 -137 102v43c35 -2 106 -8 176 -8c111 0 213 4 289 8v-43c-98 0 -137 -15 -137 -45c0 -12 7 -27 18 -45l319 -488l201 301c61 91 89 154 89 197c0 60 -57 80 -159 82v41c78 -4 164 -6 236 -6c70 0 133 2 174 6v-41
c-84 -12 -156 -76 -231 -188z" />
    <glyph glyph-name="uni0427" unicode="&#x427;" horiz-adv-x="1378" 
d="M1292 1450v-41c-139 -6 -166 -27 -166 -176v-1016c0 -149 27 -170 166 -176v-41c-57 4 -155 6 -262 6c-110 0 -229 -2 -301 -6v41c172 6 207 27 207 176v436c-78 -37 -242 -75 -385 -75c-117 0 -205 28 -262 71c-76 58 -99 131 -99 275v336c0 114 -43 147 -155 147v43
c47 -2 162 -8 252 -8s186 6 229 8v-43c-98 0 -135 -33 -135 -147v-381c0 -129 25 -236 235 -236c136 0 246 19 320 45v545c0 149 -27 170 -166 176v41c57 -4 156 -6 262 -6c94 0 197 2 260 6z" />
    <glyph glyph-name="uni0426" unicode="&#x426;" horiz-adv-x="1567" 
d="M1464 1450v-41c-139 -6 -166 -27 -166 -176v-1016c0 -149 27 -176 166 -176h64c-10 -96 -15 -195 -15 -242c0 -49 3 -96 7 -127h-47c-27 242 -58 328 -275 328h-420c-96 0 -270 6 -430 6c-106 0 -205 -2 -262 -6v41c139 6 166 27 166 176v1016c0 149 -27 170 -166 176v41
c57 -4 156 -6 262 -6c94 0 197 2 260 6v-41c-139 -6 -166 -27 -166 -176v-1016c0 -149 27 -176 166 -176h334c139 0 166 27 166 176v1016c0 149 -27 170 -166 176v41c64 -4 166 -6 260 -6c107 0 205 2 262 6z" />
    <glyph glyph-name="uni0428" unicode="&#x428;" horiz-adv-x="2062" 
d="M1976 1450v-41c-139 -6 -166 -27 -166 -176v-1016c0 -149 27 -170 166 -176v-41c-57 4 -155 6 -262 6c-104 0 -219 -6 -364 -6c-129 0 -240 6 -316 6c-78 0 -192 -6 -323 -6c-150 0 -260 6 -363 6c-106 0 -205 -2 -262 -6v41c139 6 166 27 166 176v1016
c0 149 -27 170 -166 176v41c57 -4 156 -6 262 -6c86 0 180 2 240 6v-41c-123 -6 -146 -27 -146 -176v-1016c0 -149 27 -176 166 -176h162c139 0 166 27 166 176v1016c0 149 -21 170 -145 176v41c59 -4 153 -6 239 -6c98 0 189 2 242 6v-41c-125 -6 -146 -27 -146 -176v-1016
c0 -149 27 -176 166 -176h162c139 0 166 27 166 176v1016c0 149 -21 170 -145 176v41c59 -4 153 -6 239 -6c107 0 205 2 262 6z" />
    <glyph glyph-name="uni0429" unicode="&#x429;" horiz-adv-x="2038" 
d="M1935 1450v-41c-139 -6 -166 -27 -166 -176v-1016c0 -149 27 -176 166 -176h64c-10 -96 -14 -195 -14 -242c0 -49 2 -96 6 -127h-47c-27 242 -58 328 -275 328h-340c-129 0 -239 6 -315 6c-78 0 -193 -6 -324 -6c-129 0 -239 6 -342 6c-106 0 -205 -2 -262 -6v41
c139 6 166 27 166 176v1016c0 149 -27 170 -166 176v41c57 -4 156 -6 262 -6c86 0 180 2 240 6v-41c-123 -6 -146 -27 -146 -176v-1016c0 -149 27 -176 166 -176h142c139 0 165 27 165 176v1016c0 149 -20 170 -145 176v41c59 -4 154 -6 240 -6c98 0 188 2 241 6v-41
c-125 -6 -145 -27 -145 -176v-1016c0 -149 27 -176 166 -176h141c139 0 166 27 166 176v1016c0 149 -20 170 -145 176v41c59 -4 153 -6 239 -6c107 0 205 2 262 6z" />
    <glyph glyph-name="uni040F" unicode="&#x40f;" horiz-adv-x="1550" 
d="M1464 1450v-41c-139 -6 -166 -27 -166 -176v-1016c0 -149 27 -170 166 -176v-41c-57 4 -155 6 -262 6c-55 0 -111 -1 -165 -2h3c-184 0 -211 -90 -233 -332h-47c-23 242 -49 332 -234 332h1c-58 1 -120 2 -179 2c-106 0 -205 -2 -262 -6v41c139 6 166 27 166 176v1016
c0 149 -27 170 -166 176v41c57 -4 156 -6 262 -6c94 0 197 2 260 6v-41c-139 -6 -166 -27 -166 -176v-1016c0 -149 27 -176 166 -176h334c139 0 166 27 166 176v1016c0 149 -27 170 -166 176v41c64 -4 166 -6 260 -6c107 0 205 2 262 6z" />
    <glyph glyph-name="uni042F" unicode="&#x42f;" horiz-adv-x="1337" 
d="M1251 1450v-41c-139 -6 -166 -27 -166 -176v-1016c0 -149 27 -170 166 -176v-41c-57 4 -155 6 -262 6c-94 0 -196 -2 -260 -6v41c139 6 166 27 166 176v471h-205c-162 0 -192 -117 -231 -291l-45 -204c-39 -175 -117 -222 -219 -222c-111 0 -162 47 -220 131l31 23
c38 -48 63 -78 112 -78c57 0 76 49 101 168l47 209c39 170 113 240 295 270l27 4c-302 46 -389 235 -389 394c0 200 163 356 493 356c49 0 180 -4 309 -4c91 0 193 2 250 6zM895 729v504c0 141 -27 176 -152 176c-247 0 -340 -125 -340 -326c0 -202 64 -354 355 -354h137z
" />
    <glyph glyph-name="uni042C" unicode="&#x42c;" horiz-adv-x="1188" 
d="M442 1233v-374c83 1 155 3 189 3c330 0 493 -172 493 -409c0 -199 -114 -453 -538 -453c-64 0 -144 6 -238 6c-106 0 -205 -2 -262 -6v41c139 6 166 27 166 176v1016c0 149 -27 170 -166 176v41c57 -4 156 -6 262 -6c111 0 230 2 301 6v-41c-172 -6 -207 -27 -207 -176z
M442 821v-604c0 -149 19 -176 144 -176c274 0 334 180 334 389c0 258 -93 393 -340 393c-42 0 -92 -1 -138 -2z" />
    <glyph glyph-name="uni042A" unicode="&#x42a;" horiz-adv-x="1495" 
d="M750 1233v-374c83 1 155 3 188 3c330 0 494 -172 494 -409c0 -199 -115 -453 -539 -453c-64 0 -143 6 -238 6c-106 0 -204 -2 -262 -6v41c139 6 166 27 166 176v1186h-131c-256 0 -287 -98 -315 -383h-47c4 43 6 102 6 168c0 51 -4 158 -15 262c176 -6 406 -6 598 -6
c111 0 230 2 301 6v-41c-172 -6 -206 -27 -206 -176zM750 821v-604c0 -149 18 -176 143 -176c274 0 334 180 334 389c0 258 -92 393 -340 393c-41 0 -91 -1 -137 -2z" />
    <glyph glyph-name="uni042B" unicode="&#x42b;" horiz-adv-x="1821" 
d="M442 1233v-374c83 1 155 3 189 3c330 0 493 -172 493 -409c0 -199 -114 -453 -538 -453c-64 0 -144 6 -238 6c-106 0 -205 -2 -262 -6v41c139 6 166 27 166 176v1016c0 149 -27 170 -166 176v41c57 -4 156 -6 262 -6c111 0 230 2 301 6v-41c-172 -6 -207 -27 -207 -176z
M1735 1450v-41c-140 -6 -166 -27 -166 -176v-1016c0 -149 26 -170 166 -176v-41c-64 4 -166 6 -260 6c-107 0 -205 -2 -263 -6v41c140 6 166 27 166 176v1016c0 149 -26 170 -166 176v41c58 -4 156 -6 263 -6c94 0 196 2 260 6zM442 821v-604c0 -149 19 -176 144 -176
c274 0 334 180 334 389c0 258 -93 393 -340 393c-42 0 -92 -1 -138 -2z" />
    <glyph glyph-name="uni0409" unicode="&#x409;" horiz-adv-x="1901" 
d="M1157 1233v-473c60 1 122 2 189 2c329 0 493 -158 493 -371c0 -187 -111 -384 -516 -391h-2h-21c-27 0 -69 2 -111 5c-40 1 -83 1 -128 1c-111 0 -230 -2 -301 -6v41c172 6 207 27 207 176v1016c0 149 -27 176 -166 176h-27c-145 0 -153 -31 -166 -176
c-41 -481 -35 -1262 -428 -1262c-90 0 -186 37 -186 140c0 71 51 116 121 116c59 0 104 -34 104 -90c0 -61 -31 -92 -88 -125c19 -2 39 -2 49 -2c316 0 348 658 381 1223c1 17 2 32 2 46c0 103 -37 125 -168 130v41c58 -4 146 -6 211 -6c62 0 121 6 180 6
c105 0 177 -6 293 -6c80 0 187 2 244 6v-41c-139 -6 -166 -27 -166 -176zM1157 722v-505c0 -146 26 -169 159 -176c262 8 318 161 318 348c0 225 -92 334 -358 334z" />
    <glyph glyph-name="uni040A" unicode="&#x40a;" horiz-adv-x="2042" 
d="M1298 1233v-474c60 2 122 3 189 3c330 0 493 -158 493 -371c0 -187 -110 -384 -516 -391h-2h-20c-28 0 -70 2 -112 5c-39 1 -83 1 -128 1c-94 0 -196 -2 -260 -6v41c139 6 166 27 166 176v492h-666v-492c0 -149 27 -170 166 -176v-41c-63 4 -166 6 -260 6
c-106 0 -205 -2 -262 -6v41c139 6 166 27 166 176v1016c0 149 -27 170 -166 176v41c57 -4 156 -6 262 -6c94 0 197 2 260 6v-41c-139 -6 -166 -27 -166 -176v-483h666v483c0 149 -27 170 -166 176v41c64 -4 166 -6 260 -6c107 0 205 2 262 6v-41c-139 -6 -166 -27 -166 -176
zM1298 722v-505c0 -147 26 -169 159 -176c262 8 319 161 319 348c0 225 -93 334 -359 334z" />
    <glyph glyph-name="uni0405" unicode="&#x405;" horiz-adv-x="1106" 
d="M137 477h47c17 -248 111 -465 373 -465c133 0 266 80 266 273c0 166 -129 260 -319 374c-195 117 -365 228 -365 459c0 242 183 355 385 355c135 0 195 -39 250 -76c33 -21 51 -29 70 -29c26 0 37 31 45 90h47c-6 -72 -10 -160 -10 -418h-47c-15 195 -109 394 -336 394
c-146 0 -250 -97 -250 -238c0 -186 160 -260 344 -375c213 -133 369 -241 369 -461c0 -260 -197 -389 -435 -389c-145 0 -221 39 -280 76c-33 21 -53 29 -70 29c-26 0 -37 -31 -45 -90h-47c6 84 8 202 8 491z" />
    <glyph glyph-name="uni0404" unicode="&#x404;" horiz-adv-x="1415" 
d="M1221 492h47c0 -248 2 -388 8 -492h-47c-7 84 -21 121 -50 121c-11 0 -25 -6 -42 -17c-101 -71 -203 -133 -379 -133c-389 0 -649 273 -649 742c0 458 270 766 651 766c180 0 287 -64 377 -133c15 -12 28 -18 40 -18c28 0 45 38 52 122h47c-6 -100 -8 -233 -8 -471h-47
c-29 174 -45 229 -103 303c-86 111 -221 160 -362 160c-267 0 -443 -277 -443 -721v-7c47 99 139 148 242 148c176 0 274 -155 436 -155c70 0 142 32 168 114l31 -14c-37 -141 -152 -211 -279 -211c-184 0 -272 156 -440 156c-64 0 -121 -24 -157 -92
c17 -418 210 -648 462 -648c123 0 273 45 350 156c60 80 74 158 95 324z" />
    <glyph glyph-name="uni042D" unicode="&#x42d;" horiz-adv-x="1417" 
d="M141 1450h47c8 -84 24 -122 53 -122c11 0 25 6 40 18c90 69 196 133 376 133c381 0 652 -308 652 -766c0 -469 -260 -742 -650 -742c-176 0 -278 62 -378 133c-17 11 -31 17 -43 17c-29 0 -42 -37 -50 -121h-47c6 104 9 244 9 492h47c20 -166 34 -244 94 -324
c78 -111 227 -156 350 -156c264 0 463 252 463 709l-1 41c-46 -104 -139 -156 -243 -156c-178 0 -276 156 -438 156c-70 0 -141 -33 -170 -115l-31 15c39 141 154 210 281 210c184 0 274 -155 442 -155c63 0 121 24 158 92c-22 392 -192 633 -440 633
c-142 0 -277 -49 -363 -160c-57 -74 -74 -129 -102 -303h-47c0 238 -3 371 -9 471z" />
    <glyph glyph-name="uni0406" unicode="&#x406;" 
d="M608 1450v-41c-139 -6 -166 -27 -166 -176v-1016c0 -149 27 -170 166 -176v-41c-63 4 -166 6 -260 6c-106 0 -205 -2 -262 -6v41c139 6 166 27 166 176v1016c0 149 -27 170 -166 176v41c57 -4 156 -6 262 -6c94 0 197 2 260 6z" />
    <glyph glyph-name="uni0407" unicode="&#x407;" 
d="M131 1819c63 0 119 -56 119 -119c0 -66 -56 -119 -119 -119c-66 0 -119 53 -119 119c0 63 53 119 119 119zM565 1819c64 0 119 -56 119 -119c0 -66 -55 -119 -119 -119c-65 0 -119 53 -119 119c0 63 54 119 119 119zM608 1450v-41c-139 -6 -166 -27 -166 -176v-1016
c0 -149 27 -170 166 -176v-41c-63 4 -166 6 -260 6c-106 0 -205 -2 -262 -6v41c139 6 166 27 166 176v1016c0 149 -27 170 -166 176v41c57 -4 156 -6 262 -6c94 0 197 2 260 6z" />
    <glyph glyph-name="uni0408" unicode="&#x408;" horiz-adv-x="668" 
d="M596 1450v-41c-139 -6 -166 -27 -166 -176v-750c0 -170 -2 -397 -35 -534c-45 -189 -198 -334 -432 -334c-76 0 -135 18 -172 37c-67 35 -98 84 -98 141c0 64 45 109 108 109c64 0 113 -41 113 -111c0 -59 -35 -94 -86 -104c27 -27 96 -33 131 -33c119 0 209 65 246 174
c28 86 35 186 35 469v936c0 149 -27 170 -166 176v41c57 -4 155 -6 262 -6c94 0 196 2 260 6z" />
    <glyph glyph-name="uni040B" unicode="&#x40b;" horiz-adv-x="1667" 
d="M1477 526v-336c0 -114 43 -147 155 -147v-43c-47 2 -162 8 -252 8s-186 -6 -229 -8v43c98 0 135 33 135 147v381c0 129 -24 236 -235 236c-136 0 -246 -19 -320 -45v-524c0 -166 35 -191 207 -197v-41c-72 4 -190 6 -301 6c-123 0 -238 -2 -303 -6v41
c172 6 207 31 207 197v1165h-111c-256 0 -287 -98 -315 -383h-47c4 43 6 102 6 168c0 51 -4 158 -15 262c170 -6 410 -6 578 -6s405 0 575 6c-10 -104 -14 -211 -14 -262c0 -66 2 -125 6 -168h-47c-29 285 -59 383 -315 383h-111v-606c78 37 242 75 385 75
c117 0 205 -28 262 -71c76 -58 99 -131 99 -275z" />
    <glyph glyph-name="uni042E" unicode="&#x42e;" horiz-adv-x="2073" 
d="M442 741h260c11 443 271 738 631 738c377 0 629 -273 629 -742c0 -458 -262 -766 -631 -766c-374 0 -624 268 -629 729h-260v-483c0 -149 27 -170 166 -176v-41c-63 4 -166 6 -260 6c-106 0 -205 -2 -262 -6v41c139 6 166 27 166 176v1016c0 149 -27 170 -166 176v41
c57 -4 156 -6 262 -6c94 0 197 2 260 6v-41c-139 -6 -166 -27 -166 -176v-492zM1339 8c254 0 418 297 418 721c0 436 -192 713 -432 713c-254 0 -418 -297 -418 -721c0 -436 193 -713 432 -713z" />
    <glyph glyph-name="uni0402" unicode="&#x402;" horiz-adv-x="1599" 
d="M731 1403v-688c76 72 214 137 373 137c248 0 428 -139 428 -432c0 -316 -213 -449 -434 -449c-129 0 -264 54 -264 176c0 66 38 111 106 111c61 0 109 -37 109 -100c0 -49 -29 -88 -88 -107c8 -24 51 -49 112 -49c180 0 260 137 260 399c0 222 -49 385 -301 385
c-124 0 -243 -48 -301 -114v-695c-72 21 -174 29 -270 29c-41 0 -84 -2 -127 -6v41c172 6 207 31 207 197v1165h-111c-256 0 -287 -98 -315 -383h-47c4 43 6 102 6 168c0 51 -4 158 -15 262c170 -6 410 -6 578 -6s405 0 575 6c-10 -104 -14 -211 -14 -262
c0 -66 2 -125 6 -168h-47c-29 285 -59 383 -315 383h-111z" />
    <glyph glyph-name="uni0430" unicode="&#x430;" horiz-adv-x="1262" 
d="M647 1255l479 -1083c45 -102 99 -129 142 -131v-41c-56 4 -142 6 -219 6c-107 0 -205 -2 -263 -6v41c98 4 147 20 147 75c0 24 -9 56 -28 97l-103 233h-500l-69 -153c-22 -51 -34 -94 -34 -131c0 -70 47 -112 159 -121v-41c-41 4 -112 6 -186 6c-47 0 -143 -2 -178 -6v41
c78 20 127 96 168 190l452 1024h33zM784 487l-231 521l-233 -521h464z" />
    <glyph glyph-name="uni0431" unicode="&#x431;" horiz-adv-x="1241" 
d="M442 668h117c338 0 584 -50 584 -332c0 -197 -176 -336 -471 -336c-58 0 -174 6 -332 6c-96 0 -197 -2 -254 -6v41c139 6 166 27 166 176v811c0 152 -27 170 -166 176v41c57 -4 160 -6 250 -6h289c131 0 315 0 448 6c-10 -88 -14 -178 -14 -221c0 -49 2 -96 6 -127h-47
c-21 225 -86 301 -254 301h-191c-108 0 -131 -29 -131 -170v-360zM442 633v-416c0 -143 23 -170 133 -170c254 0 363 105 363 297c0 184 -98 289 -344 289h-152z" />
    <glyph glyph-name="uni0432" unicode="&#x432;" horiz-adv-x="1235" 
d="M745 668v-4c308 -39 398 -185 398 -328c0 -197 -176 -336 -471 -336c-58 0 -174 6 -332 6c-96 0 -197 -2 -254 -6v41c139 6 166 27 166 176v811c0 152 -27 170 -166 176v41c57 -4 160 -6 250 -6c121 0 244 4 289 4c272 0 411 -117 411 -280c0 -121 -75 -238 -291 -295z
M442 668h117c225 0 281 118 281 272c0 172 -76 264 -267 264c-108 0 -131 -35 -131 -176v-360zM442 633v-416c0 -143 23 -170 133 -170c254 0 363 105 363 297c0 184 -98 289 -344 289h-152z" />
    <glyph glyph-name="uni0433" unicode="&#x433;" horiz-adv-x="1096" 
d="M86 1204v41c80 -2 172 -6 260 -6c44 -1 88 -1 129 -1c83 0 156 1 205 1c100 0 244 0 346 6c-10 -104 -14 -211 -14 -262c0 -65 2 -125 6 -168h-47c-29 285 -60 383 -316 383h-47c-139 0 -166 -20 -166 -170v-811c0 -149 35 -170 207 -176v-41c-71 4 -190 6 -301 6
c-106 0 -205 -2 -262 -6v41c139 6 166 27 166 176v811c0 150 -27 170 -166 176z" />
    <glyph glyph-name="uni0453" unicode="&#x453;" horiz-adv-x="1096" 
d="M420 1450l-15 27c189 143 258 233 344 288c23 14 44 20 62 20c28 0 50 -13 63 -34c8 -12 12 -25 12 -39c0 -26 -17 -55 -55 -80c-88 -53 -200 -76 -411 -182zM86 1204v41c80 -2 172 -6 260 -6c44 -1 88 -1 129 -1c83 0 156 1 205 1c100 0 244 0 346 6
c-10 -104 -14 -211 -14 -262c0 -65 2 -125 6 -168h-47c-29 285 -60 383 -316 383h-47c-139 0 -166 -20 -166 -170v-811c0 -149 35 -170 207 -176v-41c-71 4 -190 6 -301 6c-106 0 -205 -2 -262 -6v41c139 6 166 27 166 176v811c0 150 -27 170 -166 176z" />
    <glyph glyph-name="uni0491" unicode="&#x491;" horiz-adv-x="1071" 
d="M971 1567h47c-4 -31 -6 -78 -6 -127c0 -47 4 -146 14 -242h-418c-139 0 -166 -20 -166 -170v-811c0 -149 35 -170 207 -176v-41c-71 4 -190 6 -301 6c-106 0 -205 -2 -262 -6v41c139 6 166 27 166 176v811c0 150 -27 170 -166 176v41c92 -6 209 -6 266 -6
c78 0 238 6 344 6c217 0 248 80 275 322z" />
    <glyph glyph-name="uni0434" unicode="&#x434;" horiz-adv-x="1251" 
d="M1145 41h63c-10 -96 -14 -195 -14 -242c0 -49 2 -96 6 -127h-47c-27 242 -57 328 -274 328h-543c-217 0 -248 -86 -275 -328h-47c4 31 6 78 6 127c0 47 -4 146 -14 242h37c315 0 348 543 381 987c1 17 2 32 2 46c0 103 -37 125 -168 130v41c57 -4 145 -6 211 -6
c49 0 92 6 139 6c105 0 176 -6 293 -6c80 0 186 2 244 6v-41c-139 -6 -166 -26 -166 -176v-811c0 -149 27 -176 166 -176zM788 217v811c0 152 -22 176 -145 176h-27c-127 0 -133 -30 -145 -176c-37 -327 -36 -842 -279 -987h431c139 0 165 27 165 176z" />
    <glyph glyph-name="uni0435" unicode="&#x435;" horiz-adv-x="1219" 
d="M1053 389h47c-4 -37 -6 -90 -6 -147c0 -47 4 -146 14 -242c-133 6 -317 6 -449 6c-118 0 -378 0 -573 -6v41c139 6 166 27 166 176v811c0 150 -27 170 -166 176v41c195 -6 455 -6 573 -6c119 0 287 0 408 6c-10 -88 -14 -178 -14 -221c0 -49 2 -96 6 -127h-47
c-21 225 -86 301 -254 301h-150c-139 0 -166 -20 -166 -170v-381h170c142 0 158 135 170 209h47c-6 -69 -7 -115 -7 -152c0 -29 1 -53 1 -77c0 -56 2 -105 13 -230h-48c-12 101 -34 209 -176 209h-170v-389c0 -149 27 -170 166 -170h150c200 0 272 86 295 342z" />
    <glyph glyph-name="uni0451" unicode="&#x451;" horiz-adv-x="1219" 
d="M395 1462c-66 0 -119 54 -119 119c0 64 53 119 119 119c63 0 119 -55 119 -119c0 -65 -56 -119 -119 -119zM829 1462c-65 0 -119 54 -119 119c0 64 54 119 119 119c64 0 119 -55 119 -119c0 -65 -55 -119 -119 -119zM1053 389h47c-4 -37 -6 -90 -6 -147
c0 -47 4 -146 14 -242c-133 6 -317 6 -449 6c-118 0 -378 0 -573 -6v41c139 6 166 27 166 176v811c0 150 -27 170 -166 176v41c195 -6 455 -6 573 -6c119 0 287 0 408 6c-10 -88 -14 -178 -14 -221c0 -49 2 -96 6 -127h-47c-21 225 -86 301 -254 301h-150
c-139 0 -166 -20 -166 -170v-381h170c142 0 158 135 170 209h47c-6 -69 -7 -115 -7 -152c0 -29 1 -53 1 -77c0 -56 2 -105 13 -230h-48c-12 101 -34 209 -176 209h-170v-389c0 -149 27 -170 166 -170h150c200 0 272 86 295 342z" />
    <glyph glyph-name="uni0436" unicode="&#x436;" horiz-adv-x="2015" 
d="M1939 125l31 -23c-53 -77 -104 -131 -219 -131c-96 0 -170 29 -219 222l-55 213c-39 133 -72 223 -281 223h-92v-412c0 -149 27 -170 166 -176v-41c-63 4 -166 6 -260 6c-106 0 -205 -2 -262 -6v41c139 6 166 27 166 176v412h-107c-209 0 -246 -88 -281 -223l-55 -213
c-49 -193 -123 -222 -219 -222c-105 0 -156 54 -205 131l31 23c38 -48 62 -78 111 -78c58 0 74 53 104 168l59 217c33 131 129 199 301 225l33 4l-367 398c-100 104 -151 129 -249 147v39c39 -4 90 -6 145 -6c72 0 168 2 242 6v-39c-79 -2 -114 -27 -114 -66
c0 -27 17 -60 48 -96l203 -229c99 -121 180 -141 267 -146h53v359c0 150 -27 170 -166 176v41c57 -4 156 -6 262 -6c94 0 197 2 260 6v-41c-139 -6 -166 -26 -166 -176v-359h52c87 5 168 25 267 146l203 229c31 37 48 70 48 97c0 38 -35 63 -113 65v39c73 -4 170 -6 241 -6
c56 0 107 2 146 6v-39c-99 -18 -150 -43 -250 -147l-368 -399l20 -3c184 -26 282 -94 319 -225l57 -217c27 -101 37 -168 102 -168c49 0 74 30 111 78z" />
    <glyph glyph-name="uni0437" unicode="&#x437;" horiz-adv-x="1085" 
d="M143 1260h47c9 -58 17 -91 48 -91c16 0 34 7 67 29c51 31 127 76 246 76c219 0 367 -96 367 -268c0 -203 -203 -306 -396 -340c226 -4 473 -109 473 -326c0 -231 -192 -369 -522 -369c-151 0 -246 39 -303 74c-55 35 -96 84 -96 145c0 64 45 109 108 109
c64 0 113 -41 113 -111c0 -57 -35 -94 -86 -104c29 -41 151 -78 270 -78c215 0 314 144 314 313c0 160 -82 289 -234 320c-10 2 -41 8 -70 8c-26 -14 -55 -26 -88 -26c-22 0 -43 10 -43 34c0 23 19 33 43 33c33 0 62 -6 91 -12c170 49 221 137 221 309
c0 162 -49 250 -187 250c-188 0 -311 -166 -325 -385h-47c0 258 -4 338 -11 410z" />
    <glyph glyph-name="uni0438" unicode="&#x438;" horiz-adv-x="1550" 
d="M1464 1245v-41c-139 -6 -166 -26 -166 -176v-811c0 -149 27 -170 166 -176v-41c-57 4 -155 6 -262 6c-94 0 -196 -2 -260 -6v41c139 6 166 27 166 176v763l-665 -803c5 -113 39 -131 165 -136v-41c-63 4 -166 6 -260 6c-106 0 -205 -2 -262 -6v41c139 6 166 27 166 176
v811c0 150 -27 170 -166 176v41c57 -4 156 -6 262 -6c94 0 197 2 260 6v-41c-139 -6 -166 -26 -166 -176v-780l666 805c-3 127 -35 145 -166 151v41c64 -4 166 -6 260 -6c107 0 205 2 262 6z" />
    <glyph glyph-name="uni0439" unicode="&#x439;" horiz-adv-x="1550" 
d="M456 1513c-67 41 -98 82 -98 140c0 69 45 112 109 112c63 0 112 -41 112 -110c0 -58 -35 -94 -86 -105c64 -59 197 -73 283 -73s219 14 282 73c-51 11 -86 47 -86 105c0 69 52 110 113 110c63 0 109 -43 109 -112c0 -58 -31 -99 -99 -140c-71 -43 -178 -77 -319 -77
c-142 0 -248 34 -320 77zM1464 1245v-41c-139 -6 -166 -26 -166 -176v-811c0 -149 27 -170 166 -176v-41c-57 4 -155 6 -262 6c-94 0 -196 -2 -260 -6v41c139 6 166 27 166 176v763l-665 -803c5 -113 39 -131 165 -136v-41c-63 4 -166 6 -260 6c-106 0 -205 -2 -262 -6v41
c139 6 166 27 166 176v811c0 150 -27 170 -166 176v41c57 -4 156 -6 262 -6c94 0 197 2 260 6v-41c-139 -6 -166 -26 -166 -176v-780l666 805c-3 127 -35 145 -166 151v41c64 -4 166 -6 260 -6c107 0 205 2 262 6z" />
    <glyph glyph-name="uni043A" unicode="&#x43a;" horiz-adv-x="1356" 
d="M1280 125l31 -23c-54 -77 -103 -131 -226 -131c-86 0 -163 27 -213 222l-55 213c-35 135 -72 223 -280 223h-95v-412c0 -149 27 -170 166 -176v-41c-63 4 -166 6 -260 6c-106 0 -205 -2 -262 -6v41c139 6 166 27 166 176v811c0 150 -27 170 -166 176v41
c57 -4 156 -6 262 -6c94 0 197 2 260 6v-41c-139 -6 -166 -26 -166 -176v-359c82 6 155 27 246 136l215 239c31 37 49 70 49 97c0 38 -36 63 -116 65v39c73 -4 172 -6 235 -6c64 0 113 2 152 6v-39c-99 -18 -152 -41 -250 -147l-363 -393c29 -2 53 -5 80 -9
c184 -26 285 -94 320 -225l57 -217c30 -115 44 -168 101 -168c50 0 74 30 112 78z" />
    <glyph glyph-name="uni045C" unicode="&#x45c;" horiz-adv-x="1356" 
d="M576 1450l-15 27c189 143 258 233 344 288c23 14 44 20 62 20c28 0 50 -13 63 -34c8 -12 12 -25 12 -39c0 -26 -17 -55 -55 -80c-88 -53 -200 -76 -411 -182zM1280 125l31 -23c-54 -77 -103 -131 -226 -131c-86 0 -163 27 -213 222l-55 213c-35 135 -72 223 -280 223h-95
v-412c0 -149 27 -170 166 -176v-41c-63 4 -166 6 -260 6c-106 0 -205 -2 -262 -6v41c139 6 166 27 166 176v811c0 150 -27 170 -166 176v41c57 -4 156 -6 262 -6c94 0 197 2 260 6v-41c-139 -6 -166 -26 -166 -176v-359c82 6 155 27 246 136l215 239c31 37 49 70 49 97
c0 38 -36 63 -116 65v39c73 -4 172 -6 235 -6c64 0 113 2 152 6v-39c-99 -18 -152 -41 -250 -147l-363 -393c29 -2 53 -5 80 -9c184 -26 285 -94 320 -225l57 -217c30 -115 44 -168 101 -168c50 0 74 30 112 78z" />
    <glyph glyph-name="uni043B" unicode="&#x43b;" horiz-adv-x="1335" 
d="M1249 1245v-41c-139 -6 -166 -26 -166 -176v-811c0 -149 27 -170 166 -176v-41c-57 4 -157 6 -258 6c-100 0 -200 -2 -264 -6v41c139 6 166 27 166 176v811c0 152 -23 176 -145 176h-27c-127 0 -133 -30 -146 -176c-38 -463 -38 -1057 -372 -1057c-82 0 -180 37 -180 140
c0 71 51 116 120 116c60 0 105 -32 105 -94c0 -53 -35 -90 -88 -121c18 -2 39 -2 49 -2c266 0 293 555 319 1018c1 17 2 33 2 47c0 101 -33 124 -168 129v41c58 -4 150 -6 199 -6c84 0 103 6 182 6c78 0 152 -6 271 -6c67 0 178 2 235 6z" />
    <glyph glyph-name="uni043C" unicode="&#x43c;" horiz-adv-x="1743" 
d="M1657 1245v-41c-139 -6 -166 -26 -166 -176v-811c0 -149 27 -170 166 -176v-41c-64 4 -166 6 -260 6c-107 0 -205 -2 -262 -6v41c139 6 165 27 165 176v899l-493 -1126h-33l-475 1124v-876c0 -150 27 -191 186 -197v-41c-49 4 -139 6 -209 6c-69 0 -145 -2 -190 -6v41
c139 6 166 47 166 197v790c0 150 -27 170 -166 176v41c45 -4 121 -6 190 -6c68 0 123 2 175 6l410 -998l439 992h97c94 0 196 2 260 6z" />
    <glyph glyph-name="uni043D" unicode="&#x43d;" horiz-adv-x="1509" 
d="M1423 1245v-41c-139 -6 -166 -26 -166 -176v-811c0 -149 27 -170 166 -176v-41c-57 4 -155 6 -262 6c-94 0 -196 -2 -260 -6v41c139 6 166 27 166 176v408h-625v-408c0 -149 27 -170 166 -176v-41c-63 4 -166 6 -260 6c-106 0 -205 -2 -262 -6v41c139 6 166 27 166 176
v811c0 150 -27 170 -166 176v41c57 -4 156 -6 262 -6c94 0 197 2 260 6v-41c-139 -6 -166 -26 -166 -176v-362h625v362c0 150 -27 170 -166 176v41c64 -4 166 -6 260 -6c107 0 205 2 262 6z" />
    <glyph glyph-name="uni043E" unicode="&#x43e;" horiz-adv-x="1477" 
d="M739 1274c377 0 629 -232 629 -639c0 -397 -262 -664 -631 -664c-377 0 -628 232 -628 639c0 398 262 664 630 664zM731 1237c-254 0 -418 -256 -418 -619c0 -374 193 -610 432 -610c254 0 418 256 418 619c0 374 -192 610 -432 610z" />
    <glyph glyph-name="uni043F" unicode="&#x43f;" horiz-adv-x="1509" 
d="M1423 1245v-41c-139 -6 -166 -26 -166 -176v-811c0 -149 27 -170 166 -176v-41c-57 4 -155 6 -262 6c-94 0 -196 -2 -260 -6v41c139 6 166 27 166 176v811c0 150 -27 176 -166 176h-293c-139 0 -166 -26 -166 -176v-811c0 -149 27 -170 166 -176v-41c-63 4 -166 6 -260 6
c-106 0 -205 -2 -262 -6v41c139 6 166 27 166 176v811c0 150 -27 170 -166 176v41c57 -4 156 -6 262 -6c152 0 318 6 410 6s252 -6 403 -6c107 0 205 2 262 6z" />
    <glyph glyph-name="uni0440" unicode="&#x440;" horiz-adv-x="1159" 
d="M442 504v-287c0 -149 27 -170 166 -176v-41c-63 4 -166 6 -260 6c-106 0 -205 -2 -262 -6v41c139 6 166 27 166 176v811c0 150 -27 170 -166 176v41c57 -4 160 -6 250 -6c129 0 260 4 309 4c301 0 453 -141 453 -342c0 -174 -111 -397 -518 -397h-138zM442 545h117
c275 0 334 155 334 334c0 215 -80 325 -299 325c-125 0 -152 -35 -152 -176v-483z" />
    <glyph glyph-name="uni0441" unicode="&#x441;" horiz-adv-x="1317" 
d="M1190 0h-47c-7 83 -23 124 -51 124c-12 0 -25 -7 -41 -20c-86 -71 -177 -133 -332 -133c-365 0 -608 232 -608 639c0 398 254 664 610 664c147 0 233 -64 315 -133c16 -13 29 -20 40 -20c29 0 45 41 52 124h48c-7 -92 -9 -213 -9 -430h-47c-28 150 -51 195 -102 262
c-78 103 -189 156 -305 156c-242 0 -398 -232 -398 -615c0 -395 183 -606 412 -606c117 0 236 51 313 156c54 72 74 137 95 283h47c0 -228 2 -355 8 -451z" />
    <glyph glyph-name="uni0442" unicode="&#x442;" horiz-adv-x="1292" 
d="M125 836h-47c4 43 6 102 6 168c0 47 -4 145 -14 241c170 -6 409 -6 577 -6s406 0 576 6c-11 -96 -15 -194 -15 -241c0 -66 2 -127 6 -168h-47c-22 270 -73 362 -295 362h-131v-960c0 -166 35 -191 207 -197v-41c-71 4 -190 6 -301 6c-123 0 -237 -2 -303 -6v41
c172 6 207 31 207 197v960h-131c-221 0 -273 -92 -295 -362z" />
    <glyph glyph-name="uni0443" unicode="&#x443;" horiz-adv-x="1251" 
d="M930 1202v43c78 -4 125 -6 174 -6s106 2 158 6v-43c-45 -12 -82 -55 -132 -139l-436 -735l-94 -160c-49 -84 -80 -119 -113 -145c-47 -37 -96 -52 -155 -52c-82 0 -144 43 -144 123c0 66 48 109 109 109c57 0 104 -33 104 -97c0 -43 -26 -73 -55 -90c4 -2 8 -2 12 -2
c68 0 131 47 193 154l65 110l-481 809c-49 82 -90 115 -119 115v43c74 -4 111 -6 183 -6c88 0 155 0 284 6v-43c-73 0 -144 -3 -144 -62c0 -22 11 -53 36 -96l347 -588l304 519c32 55 47 99 47 132c0 61 -51 89 -143 95z" />
    <glyph glyph-name="uni045E" unicode="&#x45e;" horiz-adv-x="1251" 
d="M350 1513c-67 41 -98 82 -98 140c0 69 45 112 109 112c63 0 112 -41 112 -110c0 -58 -35 -94 -86 -105c64 -59 197 -73 283 -73s219 14 282 73c-51 11 -86 47 -86 105c0 69 52 110 113 110c63 0 109 -43 109 -112c0 -58 -31 -99 -99 -140c-71 -43 -178 -77 -319 -77
c-142 0 -248 34 -320 77zM930 1202v43c78 -4 125 -6 174 -6s106 2 158 6v-43c-45 -12 -82 -55 -132 -139l-436 -735l-94 -160c-49 -84 -80 -119 -113 -145c-47 -37 -96 -52 -155 -52c-82 0 -144 43 -144 123c0 66 48 109 109 109c57 0 104 -33 104 -97
c0 -43 -26 -73 -55 -90c4 -2 8 -2 12 -2c68 0 131 47 193 154l65 110l-481 809c-49 82 -90 115 -119 115v43c74 -4 111 -6 183 -6c88 0 155 0 284 6v-43c-73 0 -144 -3 -144 -62c0 -22 11 -53 36 -96l347 -588l304 519c32 55 47 99 47 132c0 61 -51 89 -143 95z" />
    <glyph glyph-name="uni0444" unicode="&#x444;" horiz-adv-x="1583" 
d="M885 1171v-44c387 -23 639 -194 639 -492c0 -288 -259 -488 -639 -517v-44c0 -150 26 -170 166 -176v-41c-64 4 -166 6 -260 6c-107 0 -205 -2 -263 -6v41c140 6 166 26 166 176v44c-385 25 -635 204 -635 513c0 276 257 467 635 495v45c0 150 -26 170 -166 177v41
c58 -5 156 -7 263 -7c94 0 196 2 260 7v-41c-140 -7 -166 -27 -166 -177zM694 160v929c-263 -33 -430 -212 -430 -450c0 -265 181 -441 430 -479zM885 1087v-930c266 33 434 219 434 470c0 255 -183 424 -434 460z" />
    <glyph glyph-name="uni0445" unicode="&#x445;" horiz-adv-x="1257" 
d="M712 687l394 -542c53 -73 80 -94 127 -102v-43c-31 2 -105 6 -166 6c-111 0 -233 -4 -289 -6v43c85 0 129 8 129 35c0 9 -5 21 -16 35l-319 439l-259 -339c-23 -31 -35 -62 -35 -89c0 -48 37 -83 123 -83v-41c-77 4 -165 6 -231 6c-39 0 -84 -4 -137 -6v41
c59 6 143 70 194 137l317 412l-372 510c-55 76 -74 98 -127 102v43c31 -2 105 -6 166 -6c141 0 233 4 289 6v-43c-85 0 -129 -8 -129 -34c0 -9 5 -21 16 -35l299 -410l240 311c22 29 34 59 34 85c0 49 -41 85 -129 85v41c78 -4 166 -6 232 -6c59 0 104 2 137 6v-41
c-59 -6 -133 -57 -196 -139z" />
    <glyph glyph-name="uni0447" unicode="&#x447;" horiz-adv-x="1343" 
d="M1257 1245v-41c-139 -6 -165 -26 -165 -176v-811c0 -149 26 -170 165 -176v-41c-57 4 -155 6 -264 6c-108 0 -227 -2 -299 -6v41c172 6 207 27 207 176v333c-78 -39 -207 -75 -340 -75c-121 0 -209 29 -266 72c-76 57 -98 131 -98 274v234c0 114 -43 147 -156 147v43
c47 -2 162 -8 252 -8s186 6 229 8v-43c-98 0 -135 -33 -135 -147v-279c0 -145 29 -235 254 -235c104 0 195 18 260 45v442c0 150 -27 170 -166 176v41c58 -4 158 -6 258 -6c101 0 201 2 264 6z" />
    <glyph glyph-name="uni0446" unicode="&#x446;" horiz-adv-x="1499" 
d="M1393 1245v-41c-140 -6 -166 -26 -166 -176v-811c0 -149 26 -176 166 -176h63c-10 -96 -14 -195 -14 -242c0 -49 2 -96 6 -127h-47c-27 242 -58 328 -275 328h-368c-92 0 -258 6 -410 6c-106 0 -205 -2 -262 -6v41c139 6 166 27 166 176v811c0 150 -27 170 -166 176v41
c57 -4 156 -6 262 -6c94 0 197 2 260 6v-41c-139 -6 -166 -26 -166 -176v-811c0 -149 27 -176 166 -176h262c140 0 166 27 166 176v811c0 150 -26 170 -166 176v41c64 -4 166 -6 260 -6c107 0 205 2 263 6z" />
    <glyph glyph-name="uni0448" unicode="&#x448;" horiz-adv-x="2001" 
d="M1915 1245v-41c-139 -6 -166 -26 -166 -176v-811c0 -149 27 -170 166 -176v-41c-57 4 -156 6 -262 6c-105 0 -219 -6 -334 -6c-129 0 -240 6 -315 6c-78 0 -193 -6 -324 -6c-119 0 -229 6 -332 6c-106 0 -205 -2 -262 -6v41c139 6 166 27 166 176v811
c0 150 -27 170 -166 176v41c57 -4 156 -6 262 -6c86 0 180 2 240 6v-41c-123 -6 -146 -26 -146 -176v-811c0 -149 27 -176 166 -176h131c140 0 166 27 166 176v811c0 150 -20 170 -145 176v41c59 -4 153 -6 239 -6c99 0 189 2 242 6v-41c-125 -6 -145 -26 -145 -176v-811
c0 -149 26 -176 166 -176h131c139 0 166 27 166 176v811c0 150 -21 170 -146 176v41c60 -4 154 -6 240 -6c106 0 205 2 262 6z" />
    <glyph glyph-name="uni0449" unicode="&#x449;" horiz-adv-x="2021" 
d="M1915 1245v-41c-139 -6 -166 -26 -166 -176v-811c0 -149 27 -176 166 -176h63c-10 -96 -14 -195 -14 -242c0 -49 2 -96 6 -127h-47c-27 242 -57 328 -274 328h-330c-129 0 -240 6 -315 6c-78 0 -193 -6 -324 -6c-119 0 -229 6 -332 6c-106 0 -205 -2 -262 -6v41
c139 6 166 27 166 176v811c0 150 -27 170 -166 176v41c57 -4 156 -6 262 -6c86 0 180 2 240 6v-41c-123 -6 -146 -26 -146 -176v-811c0 -149 27 -176 166 -176h131c140 0 166 27 166 176v811c0 150 -20 170 -145 176v41c59 -4 153 -6 239 -6c99 0 189 2 242 6v-41
c-125 -6 -145 -26 -145 -176v-811c0 -149 26 -176 166 -176h131c139 0 166 27 166 176v811c0 150 -21 170 -146 176v41c60 -4 154 -6 240 -6c106 0 205 2 262 6z" />
    <glyph glyph-name="uni045F" unicode="&#x45f;" horiz-adv-x="1481" 
d="M1395 1245v-41c-140 -6 -166 -26 -166 -176v-811c0 -149 26 -170 166 -176v-41c-58 4 -156 6 -262 6c-61 0 -121 -1 -176 -2c-144 -15 -168 -111 -189 -332h-47c-21 220 -44 316 -188 332c-59 1 -122 2 -185 2c-106 0 -205 -2 -262 -6v41c139 6 166 27 166 176v811
c0 150 -27 170 -166 176v41c57 -4 156 -6 262 -6c94 0 197 2 260 6v-41c-139 -6 -166 -26 -166 -176v-811c0 -149 27 -176 152 -176h278c140 0 166 27 166 176v811c0 150 -26 170 -166 176v41c64 -4 166 -6 261 -6c106 0 204 2 262 6z" />
    <glyph glyph-name="uni044C" unicode="&#x44c;" horiz-adv-x="1159" 
d="M442 680l158 -2c399 -4 498 -170 498 -332c0 -209 -166 -344 -473 -344c-45 0 -168 4 -289 4c-90 0 -193 -2 -250 -6v41c139 6 166 25 166 176v811c0 150 -27 170 -166 176v41c57 -4 156 -6 262 -6c94 0 197 2 260 6v-41c-139 -6 -166 -26 -166 -176v-348zM442 639v-422
c0 -141 23 -176 131 -176c234 0 320 109 320 299c0 166 -55 299 -313 299h-138z" />
    <glyph glyph-name="uni044A" unicode="&#x44a;" horiz-adv-x="1477" 
d="M760 680l158 -2c399 -4 497 -170 497 -332c0 -209 -166 -344 -473 -344c-45 0 -168 4 -289 4c-90 0 -192 -2 -250 -6v41c140 6 166 25 166 176v981h-151c-221 0 -273 -92 -295 -362h-47c4 43 6 102 6 168c0 47 -4 145 -14 241c176 -6 424 -6 598 -6c94 0 196 2 260 6v-41
c-140 -6 -166 -26 -166 -176v-348zM760 639v-422c0 -141 22 -176 131 -176c233 0 319 109 319 299c0 166 -55 299 -313 299h-137z" />
    <glyph glyph-name="uni044B" unicode="&#x44b;" horiz-adv-x="1731" 
d="M442 680l158 -2c399 -4 498 -170 498 -332c0 -209 -166 -344 -473 -344c-45 0 -168 4 -289 4c-90 0 -193 -2 -250 -6v41c139 6 166 25 166 176v811c0 150 -27 170 -166 176v41c57 -4 156 -6 262 -6c94 0 197 2 260 6v-41c-139 -6 -166 -26 -166 -176v-348zM1645 1245v-41
c-140 -6 -166 -26 -166 -176v-811c0 -149 26 -170 166 -176v-41c-64 4 -166 6 -261 6c-106 0 -204 -2 -262 -6v41c140 6 166 27 166 176v811c0 150 -26 170 -166 176v41c58 -4 156 -6 262 -6c95 0 197 2 261 6zM442 639v-422c0 -141 23 -176 131 -176c234 0 320 109 320 299
c0 166 -55 299 -313 299h-138z" />
    <glyph glyph-name="uni0459" unicode="&#x459;" horiz-adv-x="1843" 
d="M1083 678h195c399 -2 498 -170 498 -332c0 -209 -152 -346 -527 -346c-31 0 -64 2 -94 4c-49 1 -107 2 -164 2c-100 0 -200 -2 -264 -6v41c139 6 166 27 166 176v811c0 152 -23 176 -145 176h-27c-127 0 -133 -30 -146 -176c-38 -463 -38 -1057 -372 -1057
c-82 0 -180 37 -180 140c0 71 51 116 120 116c60 0 105 -32 105 -94c0 -53 -35 -90 -88 -121c18 -2 39 -2 49 -2c266 0 293 555 319 1018c1 17 2 33 2 47c0 101 -33 124 -168 129v41c58 -4 150 -6 199 -6c84 0 103 6 182 6c78 0 152 -6 271 -6c67 0 178 2 235 6v-41
c-139 -6 -166 -26 -166 -176v-350zM1083 639v-422c0 -149 27 -170 166 -176c236 0 322 109 322 299c0 166 -55 299 -314 299h-174z" />
    <glyph glyph-name="uni045A" unicode="&#x45a;" horiz-adv-x="1982" 
d="M1260 680l157 -2c400 -4 498 -170 498 -332c0 -209 -166 -344 -473 -344c-45 0 -168 4 -289 4c-90 0 -192 -2 -250 -6v41c139 6 166 25 166 176v422h-627v-422c0 -149 27 -170 166 -176v-41c-63 4 -166 6 -260 6c-106 0 -205 -2 -262 -6v41c139 6 166 27 166 176v811
c0 150 -27 170 -166 176v41c57 -4 156 -6 262 -6c94 0 197 2 260 6v-41c-139 -6 -166 -26 -166 -176v-348h627v348c0 150 -27 170 -166 176v41c58 -4 156 -6 262 -6c95 0 197 2 260 6v-41c-139 -6 -165 -26 -165 -176v-348zM1260 639v-422c0 -141 22 -176 131 -176
c233 0 319 109 319 299c0 166 -55 299 -313 299h-137z" />
    <glyph glyph-name="uni0454" unicode="&#x454;" horiz-adv-x="1329" 
d="M1135 451h47c0 -228 2 -355 8 -451h-47c-7 83 -23 124 -51 124c-12 0 -25 -7 -41 -20c-95 -75 -170 -133 -342 -133c-347 0 -598 232 -598 633c0 404 256 670 602 670c159 0 231 -57 323 -133c16 -13 29 -20 40 -20c29 0 45 41 52 124h48c-7 -92 -9 -213 -9 -430h-47
c-24 129 -47 193 -102 262c-80 101 -182 156 -301 156c-246 0 -402 -234 -402 -608v-17c48 80 135 121 224 121c141 0 209 -108 338 -108c61 0 129 24 155 88l29 -13c-37 -118 -143 -180 -256 -180c-152 0 -209 111 -346 111c-54 0 -108 -17 -142 -69
c19 -362 194 -546 410 -546c113 0 236 51 313 154c50 65 76 147 95 285z" />
    <glyph glyph-name="uni044D" unicode="&#x44d;" horiz-adv-x="1329" 
d="M156 1245h47c7 -83 24 -124 52 -124c11 0 25 7 40 20c92 76 164 133 323 133c347 0 603 -266 603 -670c0 -401 -252 -633 -598 -633c-172 0 -248 58 -342 133c-16 13 -30 20 -41 20c-29 0 -44 -41 -52 -124h-47c6 96 9 223 9 451h47c16 -121 39 -211 94 -285
c78 -103 201 -154 313 -154c230 0 412 209 412 613l-1 38c-45 -80 -134 -122 -222 -122c-138 0 -205 106 -332 106c-60 0 -127 -24 -152 -86l-28 10c36 117 141 177 251 177c148 0 205 -109 336 -109c57 0 113 21 145 76c-24 320 -173 518 -392 518
c-121 0 -236 -59 -310 -156c-41 -53 -75 -125 -100 -262h-47c0 217 -2 338 -8 430z" />
    <glyph glyph-name="uni044E" unicode="&#x44e;" horiz-adv-x="1946" 
d="M442 666h258c21 367 252 608 568 608c340 0 567 -232 567 -639c0 -397 -238 -664 -569 -664c-340 0 -568 232 -568 639v15h-256v-408c0 -149 27 -170 166 -176v-41c-63 4 -166 6 -260 6c-106 0 -205 -2 -262 -6v41c139 6 166 27 166 176v811c0 150 -27 170 -166 176v41
c57 -4 156 -6 262 -6c94 0 197 2 260 6v-41c-139 -6 -166 -26 -166 -176v-362zM1274 8c217 0 356 256 356 619c0 374 -166 610 -370 610c-218 0 -357 -256 -357 -619c0 -374 166 -610 371 -610z" />
    <glyph glyph-name="uni044F" unicode="&#x44f;" horiz-adv-x="1294" 
d="M1208 1245v-41c-139 -6 -166 -24 -166 -176v-811c0 -149 27 -170 166 -176v-41c-57 4 -155 6 -262 6c-94 0 -196 -2 -260 -6v41c139 6 166 27 166 176v348h-137c-137 0 -215 -28 -254 -188l-62 -250c-20 -80 -75 -156 -211 -156c-98 0 -159 45 -208 115l28 27
c33 -37 74 -70 113 -70c41 0 63 35 86 131l43 180c37 154 131 199 264 219c13 2 26 4 39 5c-282 41 -356 210 -356 329c0 209 165 336 473 336c45 0 168 -4 288 -4c91 0 193 2 250 6zM852 606v422c0 141 -23 176 -131 176c-234 0 -320 -108 -320 -299
c0 -166 56 -299 314 -299h137z" />
    <glyph glyph-name="uni0452" unicode="&#x452;" horiz-adv-x="1548" 
d="M741 1198v-637c73 71 207 133 349 133c194 0 391 -114 391 -360c0 -252 -207 -363 -379 -363c-121 0 -258 54 -258 176c0 66 39 111 106 111c62 0 109 -37 109 -100c0 -49 -29 -88 -88 -107c8 -24 53 -49 106 -49c117 0 205 121 205 311c0 187 -86 316 -264 316
c-107 0 -221 -46 -277 -110v-542c-71 21 -174 29 -270 29c-41 0 -84 -2 -127 -6v41c172 6 207 31 207 197v960h-131c-221 0 -273 -92 -295 -362h-47c4 43 6 102 6 168c0 47 -4 145 -14 241c170 -6 409 -6 577 -6s406 0 576 6c-11 -96 -15 -194 -15 -241c0 -66 2 -127 6 -168
h-47c-22 270 -73 362 -295 362h-131z" />
    <glyph glyph-name="uni0455" unicode="&#x455;" horiz-adv-x="1096" 
d="M137 436h47c17 -227 111 -424 373 -424c123 0 252 68 252 232c0 143 -135 217 -326 315c-184 94 -344 195 -344 395c0 213 183 320 385 320c135 0 195 -39 250 -76c33 -20 51 -29 70 -29c26 0 37 33 45 91h47c-6 -64 -10 -144 -10 -377h-47c-15 174 -109 352 -336 352
c-146 0 -250 -86 -250 -203c0 -155 149 -213 323 -311c213 -113 375 -213 375 -402c0 -231 -192 -348 -420 -348c-145 0 -221 39 -280 76c-33 21 -53 29 -70 29c-26 0 -37 -31 -45 -90h-47c6 75 8 186 8 450z" />
    <glyph glyph-name="uni0456" unicode="&#x456;" 
d="M608 1245v-41c-139 -6 -166 -26 -166 -176v-811c0 -149 27 -170 166 -176v-41c-63 4 -166 6 -260 6c-106 0 -205 -2 -262 -6v41c139 6 166 27 166 176v811c0 150 -27 170 -166 176v41c57 -4 156 -6 262 -6c94 0 197 2 260 6z" />
    <glyph glyph-name="uni0457" unicode="&#x457;" 
d="M131 1700c63 0 119 -55 119 -119c0 -65 -56 -119 -119 -119c-66 0 -119 54 -119 119c0 64 53 119 119 119zM565 1700c64 0 119 -55 119 -119c0 -65 -55 -119 -119 -119c-65 0 -119 54 -119 119c0 64 54 119 119 119zM608 1245v-41c-139 -6 -166 -26 -166 -176v-811
c0 -149 27 -170 166 -176v-41c-63 4 -166 6 -260 6c-106 0 -205 -2 -262 -6v41c139 6 166 27 166 176v811c0 150 -27 170 -166 176v41c57 -4 156 -6 262 -6c94 0 197 2 260 6z" />
    <glyph glyph-name="uni0458" unicode="&#x458;" horiz-adv-x="659" 
d="M592 1245v-41c-139 -6 -166 -26 -166 -176v-545c0 -170 -4 -397 -35 -534c-43 -189 -174 -330 -391 -330c-47 0 -98 8 -137 33c-33 20 -56 51 -56 98c0 55 43 98 99 98c53 0 100 -43 100 -98c0 -35 -22 -72 -53 -90c12 -2 35 -4 55 -4c98 0 160 65 193 172
c26 86 35 186 35 469v731c0 150 -27 170 -166 176v41c57 -4 155 -6 262 -6c94 0 196 2 260 6z" />
    <glyph glyph-name="uni045B" unicode="&#x45b;" horiz-adv-x="1530" 
d="M1364 344v-151c0 -115 43 -148 156 -148v-43c-47 2 -162 8 -252 8s-187 -6 -230 -8v43c99 0 136 33 136 148v196c0 146 -29 236 -254 236c-69 0 -128 -8 -179 -20v-367c0 -166 27 -191 166 -197v-41c-63 4 -162 6 -270 6c-109 0 -227 -2 -293 -6v41c172 6 207 31 207 197
v960h-193c-139 0 -211 -92 -233 -362h-47c4 43 6 108 6 153c0 66 -4 160 -14 256c170 -6 409 -6 577 -6s406 0 576 6c-11 -96 -15 -190 -15 -256c0 -45 2 -112 6 -153h-47c-22 270 -94 362 -233 362h-193v-551c72 24 161 43 258 43c121 0 209 -28 267 -72
c75 -57 98 -131 98 -274z" />
    <glyph glyph-name="uni0431.srb" horiz-adv-x="1118" 
d="M995 1610l31 -8c-37 -129 -125 -232 -270 -232c-105 0 -240 51 -330 51c-70 0 -109 -28 -109 -75c0 -56 58 -109 189 -189c266 -162 518 -266 518 -653c0 -346 -225 -533 -469 -533c-260 0 -461 162 -461 504c0 287 158 467 454 605c-21 15 -44 31 -69 46
c-143 91 -289 156 -289 295c0 115 97 148 189 148c115 0 303 -51 428 -51c72 0 151 16 188 92zM555 12c139 0 270 99 270 486c0 277 -66 424 -247 561c-206 -123 -285 -304 -285 -563c0 -353 117 -484 262 -484z" />
    <glyph glyph-name="Delta" unicode="&#x394;" horiz-adv-x="1032" 
d="M567 1479l396 -1479c-150 4 -301 6 -451 6c-152 0 -303 -2 -455 -6l478 1479h32zM119 61h622l-286 1049z" />
    <glyph glyph-name="Omega" unicode="&#x3a9;" horiz-adv-x="1462" 
d="M498 47h98c-190 359 -455 553 -455 920c0 319 209 512 590 512s590 -193 590 -512c0 -367 -264 -561 -455 -920h99c200 0 272 86 295 342h47c-4 -37 -7 -90 -7 -147c0 -47 5 -146 15 -242c-60 6 -152 6 -209 6c-84 0 -176 -4 -291 -6v33c100 149 301 493 301 893
c0 323 -102 516 -385 516c-282 0 -385 -193 -385 -516c0 -400 201 -744 301 -893v-33c-115 2 -207 6 -291 6c-57 0 -149 0 -209 -6c11 96 15 195 15 242c0 57 -2 110 -6 147h47c22 -256 94 -342 295 -342z" />
    <glyph glyph-name="mu" unicode="&#x3bc;" horiz-adv-x="1360" 
d="M1255 459l39 -8c-26 -142 -112 -480 -307 -480c-99 0 -129 81 -129 184c0 29 2 60 6 91l2 19c-61 -143 -168 -294 -331 -294c-122 0 -156 90 -162 189c-43 -256 -88 -390 -119 -465c-18 -45 -59 -80 -119 -80c-55 0 -84 33 -84 78c0 63 58 114 125 205
c82 109 176 278 205 598c4 313 4 437 10 477c12 86 66 110 113 110s78 -24 78 -86c0 -101 -97 -167 -153 -453l-21 -200c10 -117 84 -154 161 -154c150 0 252 74 322 269l6 48c4 305 4 426 10 466c13 86 66 110 113 110s78 -24 78 -86c0 -104 -104 -170 -159 -476
c-11 -84 -18 -148 -18 -197c0 -103 29 -134 101 -134c108 0 180 74 233 269z" />
    <glyph glyph-name="pi" unicode="&#x3c0;" horiz-adv-x="1235" 
d="M803 881l-62 -537c-1 -12 -2 -24 -2 -34c0 -87 42 -120 103 -120c108 0 180 74 233 269l39 -8c-27 -142 -113 -480 -307 -480c-99 0 -129 81 -129 184c0 29 2 60 6 91l80 635h-223c-51 -506 -124 -724 -166 -830c-19 -45 -60 -80 -119 -80c-55 0 -84 33 -84 78
c0 53 41 98 94 164c88 113 211 287 239 668h-77c-166 0 -264 -39 -342 -281l-35 8c70 277 193 445 520 445h590v-172h-358z" />
    </font>
</defs>
</svg>
